<?xml version="1.0" encoding="UTF-8" standalone="no"?>
<svg xmlns="http://www.w3.org/2000/svg"
     xmlns:xlink="http://www.w3.org/1999/xlink"
     width="576px" height="432px" viewBox="0 0 576 432">
<title>glps_renderer figure</title>
<desc>
Creator: GL2PS 1.3.5, (C) 1999-2009 C. Geuzaine
For: Octave
CreationDate: Fri Dec 23 15:26:46 2011
</desc>
<defs>
</defs>
<g shape-rendering="crispEdges">
<text fill="#000000" x="298.08" y="389.482" font-size="10" text-anchor="middle" baseline-shift="-10" font-family="Helvetica">200</text>
<text fill="#000000" x="409.68" y="389.482" font-size="10" text-anchor="middle" baseline-shift="-10" font-family="Helvetica">300</text>
<text fill="#000000" x="521.28" y="389.482" font-size="10" text-anchor="middle" baseline-shift="-10" font-family="Helvetica">400</text>
<text fill="#000000" x="69.8755" y="384.48" font-size="10" text-anchor="end" baseline-shift="-5" font-family="Helvetica">234</text>
<text fill="#000000" x="69.8755" y="314.064" font-size="10" text-anchor="end" baseline-shift="-5" font-family="Helvetica">235</text>
<text fill="#000000" x="69.8755" y="243.647" font-size="10" text-anchor="end" baseline-shift="-5" font-family="Helvetica">236</text>
<text fill="#000000" x="74.88" y="389.482" font-size="10" text-anchor="middle" baseline-shift="-10" font-family="Helvetica">0</text>
<text fill="#000000" x="186.48" y="389.482" font-size="10" text-anchor="middle" baseline-shift="-10" font-family="Helvetica">100</text>
<text fill="#000000" x="69.8755" y="173.231" font-size="10" text-anchor="end" baseline-shift="-5" font-family="Helvetica">237</text>
<text fill="#000000" x="69.8755" y="102.815" font-size="10" text-anchor="end" baseline-shift="-5" font-family="Helvetica">238</text>
<text fill="#000000" x="69.8755" y="32.4" font-size="10" text-anchor="end" baseline-shift="-5" font-family="Helvetica">239</text>
<text fill="#000000" x="298.08" y="402.481" font-size="10" text-anchor="middle" baseline-shift="-10" font-family="Helvetica">time (10 seconds per unit)</text>
<text fill="#000000" x="51.8755" y="208.44" font-size="10" transform="rotate(-90, 51.8755, 208.44)" text-anchor="middle" baseline-shift="0" font-family="Helvetica">volt (V)</text>
<polyline fill="none" stroke="#000000" stroke-width="0.5" stroke-dasharray="16,0" points="74.8789,32.3984 521.281,32.3984"/>
<polyline fill="none" stroke="#000000" stroke-width="0.5" stroke-dasharray="16,0" points="74.8789,384.477 74.8789,32.3984"/>
<polyline fill="none" stroke="#000000" stroke-width="0.5" stroke-dasharray="16,0" points="521.281,384.477 521.281,32.3984"/>
<polyline fill="none" stroke="#000000" stroke-width="0.5" stroke-dasharray="0,3,1,3,1,3,1,3,1,0" points="74.8789,384.477 74.8789,32.3984"/>
<polyline fill="none" stroke="#000000" stroke-width="0.5" stroke-dasharray="0,3,1,3,1,3,1,3,1,0" points="186.48,384.477 186.48,32.3984"/>
<polyline fill="none" stroke="#000000" stroke-width="0.5" stroke-dasharray="0,3,1,3,1,3,1,3,1,0" points="298.078,384.477 298.078,32.3984"/>
<polyline fill="none" stroke="#000000" stroke-width="0.5" stroke-dasharray="0,3,1,3,1,3,1,3,1,0" points="409.68,384.477 409.68,32.3984"/>
<polyline fill="none" stroke="#000000" stroke-width="0.5" stroke-dasharray="16,0" points="74.8789,384.477 521.281,384.477"/>
<polyline fill="none" stroke="#000000" stroke-width="0.5" stroke-dasharray="0,3,1,3,1,3,1,3,1,0" points="521.281,384.477 521.281,32.3984"/>
<polyline fill="none" stroke="#000000" stroke-width="0.5" stroke-dasharray="16,0" points="74.8789,384.477 74.8789,377.477"/>
<polyline fill="none" stroke="#000000" stroke-width="0.5" stroke-dasharray="16,0" points="74.8789,32.3984 74.8789,39.3984"/>
<polyline fill="none" stroke="#000000" stroke-width="0.5" stroke-dasharray="16,0" points="186.48,384.477 186.48,377.477"/>
<polyline fill="none" stroke="#000000" stroke-width="0.5" stroke-dasharray="16,0" points="186.48,32.3984 186.48,39.3984"/>
<polyline fill="none" stroke="#000000" stroke-width="0.5" stroke-dasharray="16,0" points="298.078,384.477 298.078,377.477"/>
<polyline fill="none" stroke="#000000" stroke-width="0.5" stroke-dasharray="16,0" points="298.078,32.3984 298.078,39.3984"/>
<polyline fill="none" stroke="#000000" stroke-width="0.5" stroke-dasharray="16,0" points="409.68,384.477 409.68,377.477"/>
<polyline fill="none" stroke="#000000" stroke-width="0.5" stroke-dasharray="16,0" points="409.68,32.3984 409.68,39.3984"/>
<polyline fill="none" stroke="#000000" stroke-width="0.5" stroke-dasharray="16,0" points="521.281,384.477 521.281,377.477"/>
<polyline fill="none" stroke="#000000" stroke-width="0.5" stroke-dasharray="16,0" points="521.281,32.3984 521.281,39.3984"/>
<polyline fill="none" stroke="#000000" stroke-width="0.5" stroke-dasharray="0,3,1,3,1,3,1,3,1,0" points="97.1992,384.477 97.1992,32.3984"/>
<polyline fill="none" stroke="#000000" stroke-width="0.5" stroke-dasharray="0,3,1,3,1,3,1,3,1,0" points="119.52,384.477 119.52,32.3984"/>
<polyline fill="none" stroke="#000000" stroke-width="0.5" stroke-dasharray="0,3,1,3,1,3,1,3,1,0" points="141.84,384.477 141.84,32.3984"/>
<polyline fill="none" stroke="#000000" stroke-width="0.5" stroke-dasharray="0,3,1,3,1,3,1,3,1,0" points="164.16,384.477 164.16,32.3984"/>
<polyline fill="none" stroke="#000000" stroke-width="0.5" stroke-dasharray="0,3,1,3,1,3,1,3,1,0" points="208.801,384.477 208.801,32.3984"/>
<polyline fill="none" stroke="#000000" stroke-width="0.5" stroke-dasharray="0,3,1,3,1,3,1,3,1,0" points="231.121,384.477 231.121,32.3984"/>
<polyline fill="none" stroke="#000000" stroke-width="0.5" stroke-dasharray="0,3,1,3,1,3,1,3,1,0" points="253.441,384.477 253.441,32.3984"/>
<polyline fill="none" stroke="#000000" stroke-width="0.5" stroke-dasharray="0,3,1,3,1,3,1,3,1,0" points="275.762,384.477 275.762,32.3984"/>
<polyline fill="none" stroke="#000000" stroke-width="0.5" stroke-dasharray="0,3,1,3,1,3,1,3,1,0" points="320.398,384.477 320.398,32.3984"/>
<polyline fill="none" stroke="#000000" stroke-width="0.5" stroke-dasharray="0,3,1,3,1,3,1,3,1,0" points="342.719,384.477 342.719,32.3984"/>
<polyline fill="none" stroke="#000000" stroke-width="0.5" stroke-dasharray="0,3,1,3,1,3,1,3,1,0" points="365.039,384.477 365.039,32.3984"/>
<polyline fill="none" stroke="#000000" stroke-width="0.5" stroke-dasharray="0,3,1,3,1,3,1,3,1,0" points="387.359,384.477 387.359,32.3984"/>
<polyline fill="none" stroke="#000000" stroke-width="0.5" stroke-dasharray="0,3,1,3,1,3,1,3,1,0" points="432,384.477 432,32.3984"/>
<polyline fill="none" stroke="#000000" stroke-width="0.5" stroke-dasharray="0,3,1,3,1,3,1,3,1,0" points="454.32,384.477 454.32,32.3984"/>
<polyline fill="none" stroke="#000000" stroke-width="0.5" stroke-dasharray="0,3,1,3,1,3,1,3,1,0" points="476.641,384.477 476.641,32.3984"/>
<polyline fill="none" stroke="#000000" stroke-width="0.5" stroke-dasharray="0,3,1,3,1,3,1,3,1,0" points="498.961,384.477 498.961,32.3984"/>
<polyline fill="none" stroke="#000000" stroke-width="0.5" stroke-dasharray="0,3,1,3,1,3,1,3,1,0" points="74.8789,384.477 521.281,384.477"/>
<polyline fill="none" stroke="#000000" stroke-width="0.5" stroke-dasharray="0,3,1,3,1,3,1,3,1,0" points="74.8789,314.062 521.281,314.062"/>
<polyline fill="none" stroke="#000000" stroke-width="0.5" stroke-dasharray="0,3,1,3,1,3,1,3,1,0" points="74.8789,243.645 521.281,243.645"/>
<polyline fill="none" stroke="#000000" stroke-width="0.5" stroke-dasharray="0,3,1,3,1,3,1,3,1,0" points="74.8789,173.23 521.281,173.23"/>
<polyline fill="none" stroke="#000000" stroke-width="0.5" stroke-dasharray="0,3,1,3,1,3,1,3,1,0" points="74.8789,102.816 521.281,102.816"/>
<polyline fill="none" stroke="#000000" stroke-width="0.5" stroke-dasharray="0,3,1,3,1,3,1,3,1,0" points="74.8789,32.3984 521.281,32.3984"/>
<polyline fill="none" stroke="#000000" stroke-width="0.5" stroke-dasharray="16,0" points="74.8789,384.477 81.8867,384.477"/>
<polyline fill="none" stroke="#000000" stroke-width="0.5" stroke-dasharray="16,0" points="521.281,384.477 514.273,384.477"/>
<polyline fill="none" stroke="#000000" stroke-width="0.5" stroke-dasharray="16,0" points="74.8789,314.062 81.8867,314.062"/>
<polyline fill="none" stroke="#000000" stroke-width="0.5" stroke-dasharray="16,0" points="521.281,314.062 514.273,314.062"/>
<polyline fill="none" stroke="#000000" stroke-width="0.5" stroke-dasharray="16,0" points="74.8789,243.645 81.8867,243.645"/>
<polyline fill="none" stroke="#000000" stroke-width="0.5" stroke-dasharray="16,0" points="521.281,243.645 514.273,243.645"/>
<polyline fill="none" stroke="#000000" stroke-width="0.5" stroke-dasharray="16,0" points="74.8789,173.23 81.8867,173.23"/>
<polyline fill="none" stroke="#000000" stroke-width="0.5" stroke-dasharray="16,0" points="521.281,173.23 514.273,173.23"/>
<polyline fill="none" stroke="#000000" stroke-width="0.5" stroke-dasharray="16,0" points="74.8789,102.816 81.8867,102.816"/>
<polyline fill="none" stroke="#000000" stroke-width="0.5" stroke-dasharray="16,0" points="521.281,102.816 514.273,102.816"/>
<polyline fill="none" stroke="#000000" stroke-width="0.5" stroke-dasharray="16,0" points="74.8789,32.3984 81.8867,32.3984"/>
<polyline fill="none" stroke="#000000" stroke-width="0.5" stroke-dasharray="16,0" points="521.281,32.3984 514.273,32.3984"/>
<polyline fill="none" stroke="#000000" stroke-width="0.5" stroke-dasharray="0,3,1,3,1,3,1,3,1,0" points="74.8789,370.395 521.281,370.395"/>
<polyline fill="none" stroke="#000000" stroke-width="0.5" stroke-dasharray="0,3,1,3,1,3,1,3,1,0" points="74.8789,356.312 521.281,356.312"/>
<polyline fill="none" stroke="#000000" stroke-width="0.5" stroke-dasharray="0,3,1,3,1,3,1,3,1,0" points="74.8789,342.227 521.281,342.227"/>
<polyline fill="none" stroke="#000000" stroke-width="0.5" stroke-dasharray="0,3,1,3,1,3,1,3,1,0" points="74.8789,328.145 521.281,328.145"/>
<polyline fill="none" stroke="#000000" stroke-width="0.5" stroke-dasharray="0,3,1,3,1,3,1,3,1,0" points="74.8789,299.98 521.281,299.98"/>
<polyline fill="none" stroke="#000000" stroke-width="0.5" stroke-dasharray="0,3,1,3,1,3,1,3,1,0" points="74.8789,285.895 521.281,285.895"/>
<polyline fill="none" stroke="#000000" stroke-width="0.5" stroke-dasharray="0,3,1,3,1,3,1,3,1,0" points="74.8789,271.812 521.281,271.812"/>
<polyline fill="none" stroke="#000000" stroke-width="0.5" stroke-dasharray="0,3,1,3,1,3,1,3,1,0" points="74.8789,257.73 521.281,257.73"/>
<polyline fill="none" stroke="#000000" stroke-width="0.5" stroke-dasharray="0,3,1,3,1,3,1,3,1,0" points="74.8789,229.562 521.281,229.562"/>
<polyline fill="none" stroke="#000000" stroke-width="0.5" stroke-dasharray="0,3,1,3,1,3,1,3,1,0" points="74.8789,215.48 521.281,215.48"/>
<polyline fill="none" stroke="#000000" stroke-width="0.5" stroke-dasharray="0,3,1,3,1,3,1,3,1,0" points="74.8789,201.398 521.281,201.398"/>
<polyline fill="none" stroke="#000000" stroke-width="0.5" stroke-dasharray="0,3,1,3,1,3,1,3,1,0" points="74.8789,187.312 521.281,187.312"/>
<polyline fill="none" stroke="#000000" stroke-width="0.5" stroke-dasharray="0,3,1,3,1,3,1,3,1,0" points="74.8789,159.148 521.281,159.148"/>
<polyline fill="none" stroke="#000000" stroke-width="0.5" stroke-dasharray="0,3,1,3,1,3,1,3,1,0" points="74.8789,145.062 521.281,145.062"/>
<polyline fill="none" stroke="#000000" stroke-width="0.5" stroke-dasharray="0,3,1,3,1,3,1,3,1,0" points="74.8789,130.98 521.281,130.98"/>
<polyline fill="none" stroke="#000000" stroke-width="0.5" stroke-dasharray="0,3,1,3,1,3,1,3,1,0" points="74.8789,116.898 521.281,116.898"/>
<polyline fill="none" stroke="#000000" stroke-width="0.5" stroke-dasharray="0,3,1,3,1,3,1,3,1,0" points="74.8789,88.7305 521.281,88.7305"/>
<polyline fill="none" stroke="#000000" stroke-width="0.5" stroke-dasharray="0,3,1,3,1,3,1,3,1,0" points="74.8789,74.6484 521.281,74.6484"/>
<polyline fill="none" stroke="#000000" stroke-width="0.5" stroke-dasharray="0,3,1,3,1,3,1,3,1,0" points="74.8789,60.5664 521.281,60.5664"/>
<polyline fill="none" stroke="#000000" stroke-width="0.5" stroke-dasharray="0,3,1,3,1,3,1,3,1,0" points="74.8789,46.4805 521.281,46.4805"/>
<polyline fill="none" stroke="#ff0000" stroke-width="1.5" points="75.9961,216.75 77.1133,205.832 78.2266,241.395 79.3438,292.234 80.4609,274.699 81.5742,310.613 82.6914,312.305 83.8086,288.645 84.9258,293.922 86.0391,283.5 87.1562,294.629 88.2734,307.652 89.3867,305.262 90.5039,303.641 91.6211,287.164 92.7344,254.137 93.8516,237.73 94.9688,229.633 96.0859,234.984 97.1992,266.812 98.3164,274.629 99.4336,275.262 100.547,284.137 101.664,264.633 102.781,254 103.895,278.5 105.012,262.309 106.129,270.758 107.242,268.926 108.359,273.434 109.477,289.629 110.594,303.992 111.707,318.43 112.824,340.75 113.941,331.738 115.055,331.949 116.172,331.809 117.289,333.074 118.402,346.312 119.52,327.441 120.637,298.641 121.754,280.332 122.867,286.461 123.984,211.043 125.102,202.805 126.215,215.199 127.332,219.914 128.449,229.633 129.562,225.762 130.68,211.539 131.797,191.82 132.91,204.004 134.027,197.523 135.145,200.762 136.262,191.188 137.375,182.523 138.492,179.074 139.609,183.582 140.723,179.918 141.84,170.906 142.957,198.934 144.07,171.398 145.188,175.344 146.305,176.891 147.422,191.68 148.535,174.074 149.652,174.641 150.77,176.047 151.883,163.867 153,164.57 154.117,179.566 155.23,171.188 156.348,164.008 157.465,158.727 158.578,159.852 159.695,161.473 160.812,157.668 161.93,163.582 163.043,156.684 164.16,150.348 165.277,161.398 166.391,153.656 167.508,165.414 168.625,159.781 169.738,163.793 170.855,163.582 171.973,158.445 173.09,176.328 174.203,156.262 175.32,173.512 176.438,167.316 177.551,173.582 178.668,169.852 179.785,180.062 180.898,169.004 182.016,189.074 183.133,179.848 184.246,174.5 185.363,175.062 186.48,181.82 187.598,161.121 188.711,163.23 189.828,172.035 190.945,186.398 192.059,194.215 193.176,205.199 194.293,193.512 195.406,191.75 196.523,203.301 197.641,203.301 198.758,190.762 199.871,186.609 200.988,179.781 202.105,176.891 203.219,174.852 204.336,188.582 205.453,183.582 206.566,185.977 207.684,180.977 208.801,176.188 209.914,187.312 211.031,176.609 212.148,161.262 213.266,177.809 214.379,165.062 215.496,179.285 216.613,178.582 217.727,184.215 218.844,174.426 219.961,188.863 221.074,188.723 222.191,187.453 223.309,190.48 224.426,183.582 225.539,193.652 226.656,210.832 227.773,198.934 228.887,198.156 230.004,219.281 231.121,226.887 232.234,209.707 233.352,180.062 234.469,190.129 235.586,184.918 236.699,185.555 237.816,191.188 238.934,180.062 240.047,185.766 241.164,192.172 242.281,183.441 243.395,184.074 244.512,184.637 245.629,186.965 246.742,221.254 247.859,209.707 248.977,247.801 250.094,237.098 251.207,213.578 252.324,227.031 253.441,220.973 254.555,232.52 255.672,230.902 256.789,275.336 257.902,267.66 259.02,277.727 260.137,272.375 261.254,272.305 262.367,260.266 263.484,258.152 264.602,245.617 265.715,251.18 266.832,248.789 267.949,251.18 269.062,257.098 270.18,224.426 271.297,216.75 272.41,213.512 273.527,219.637 274.645,194.992 275.762,180.273 276.875,169.852 277.992,165.062 279.109,154.641 280.223,132.953 281.34,124.363 282.457,159.5 283.57,180.766 284.688,182.246 285.805,193.652 286.922,195.906 288.035,195.625 289.152,191.68 290.27,194.074 291.383,199.004 292.5,191.68 293.617,182.031 294.73,185.695 295.848,184.496 296.965,173.371 298.078,170.133 299.195,175.344 300.312,175.766 301.43,180.414 302.543,194.918 303.66,183.652 304.777,181.82 305.891,177.598 307.008,162.879 308.125,161.473 309.238,160.133 310.355,172.176 311.473,171.117 312.59,151.965 313.703,164.359 314.82,148.797 315.938,149.641 317.051,174.641 318.168,176.68 319.285,180.695 320.398,174.145 321.516,174.711 322.633,169.711 323.746,182.176 324.863,174.57 325.98,159.148 327.098,164.008 328.211,159.922 329.328,158.867 330.445,168.371 331.559,140.137 332.676,138.586 333.793,141.754 334.906,132.672 336.023,133.023 337.141,138.727 338.258,136.191 339.371,116.477 340.488,113.801 341.605,115.91 342.719,113.234 343.836,117.742 344.953,96.5469 346.066,112.039 347.184,112.32 348.301,125.699 349.414,134.574 350.531,134.996 351.648,142.035 352.766,132.742 353.879,140.488 354.996,126.688 356.113,134.926 357.227,144.641 358.344,133.938 359.461,128.727 360.574,152.668 361.691,130.84 362.809,137.109 363.926,134.641 365.039,135.348 366.156,141.262 367.273,135.062 368.387,134.078 369.504,124.645 370.621,127.039 371.734,129.785 372.852,148.727 373.969,143.234 375.082,139.5 376.199,134.504 377.316,137.32 378.434,139.57 379.547,145.348 380.664,149.57 381.781,150.98 382.895,148.234 384.012,146.613 385.129,139.641 386.242,142.668 387.359,138.375 388.477,141.121 389.594,132.742 390.707,144.781 391.824,151.965 392.941,150.207 394.055,137.461 395.172,130.137 396.289,134.504 397.402,149.148 398.52,137.602 399.637,152.457 400.75,153.656 401.867,165.344 402.984,164.781 404.102,152.527 405.215,158.586 406.332,163.371 407.449,124.996 408.562,121.262 409.68,114.293 410.797,112.32 411.91,118.375 413.027,131.898 414.145,111.828 415.262,124.223 416.375,123.445 417.492,124.082 418.609,118.59 419.723,115.277 420.84,104.574 421.957,102.465 423.07,121.332 424.188,151.824 425.305,136.191 426.422,133.938 427.535,144.5 428.652,195.977 429.77,140.91 430.883,143.727 432,147.32 433.117,153.371 434.23,164.852 435.348,145.273 436.465,143.516 437.578,145.77 438.695,149.992 439.812,134.359 440.93,144.5 442.043,112.746 443.16,115.84 444.277,112.812 445.391,100.984 446.508,99.6484 447.625,104.504 448.738,109.785 449.855,105.914 450.973,100.844 452.09,112.812 453.203,111.617 454.32,104.293 455.438,96.7578 456.551,96.9688 457.668,89.7891 458.785,100 459.898,99.1523 461.016,99.293 462.133,95.7031 463.246,102.676 464.363,92.8867 465.48,84.4375 466.598,88.4492 467.711,80.6328 468.828,95.4219 469.945,95 471.059,94.8594 472.176,99.7148 473.293,95.8438 474.406,102.465 475.523,96.8281"/>
<polyline fill="none" stroke="#000000" stroke-width="0.5" stroke-dasharray="16,0" points="521.281,384.477 521.281,384.477"/>
<polyline fill="none" stroke="#000000" stroke-width="0.5" stroke-dasharray="16,0" points="74.8789,384.477 74.8789,384.477"/>
<polyline fill="none" stroke="#000000" stroke-width="0.5" stroke-dasharray="16,0" points="74.8789,32.3984 74.8789,32.3984"/>
<polyline fill="none" stroke="#000000" stroke-width="0.5" stroke-dasharray="16,0" points="521.281,32.3984 521.281,32.3984"/>
<text fill="#000000" x="298.08" y="22.3994" font-size="10" text-anchor="middle" baseline-shift="0" font-family="Helvetica">Fridge (RMS voltage)</text>
<polyline fill="none" stroke="#000000" stroke-width="0.5" stroke-dasharray="16,0" points="521.281,384.477 521.281,32.3984"/>
<polyline fill="none" stroke="#000000" stroke-width="0.5" stroke-dasharray="16,0" points="74.8789,384.477 74.8789,32.3984 521.281,32.3984"/>
<polyline fill="none" stroke="#000000" stroke-width="0.5" stroke-dasharray="16,0" points="74.8789,384.477 521.281,384.477"/>
</g>
</svg>
