<?xml version="1.0" encoding="UTF-8" standalone="no"?>
<svg xmlns="http://www.w3.org/2000/svg"
     xmlns:xlink="http://www.w3.org/1999/xlink"
     width="576px" height="432px" viewBox="0 0 576 432">
<title>glps_renderer figure</title>
<desc>
Creator: GL2PS 1.3.5, (C) 1999-2009 C. Geuzaine
For: Octave
CreationDate: Tue Jan 31 16:00:33 2012
</desc>
<defs>
</defs>
<g shape-rendering="crispEdges">
<text fill="#000000" x="298.08" y="389.481" font-size="10" text-anchor="middle" baseline-shift="-10" font-family="Helvetica">200</text>
<text fill="#000000" x="409.68" y="389.481" font-size="10" text-anchor="middle" baseline-shift="-10" font-family="Helvetica">300</text>
<text fill="#000000" x="521.28" y="389.481" font-size="10" text-anchor="middle" baseline-shift="-10" font-family="Helvetica">400</text>
<text fill="#000000" x="69.8755" y="384.48" font-size="10" text-anchor="end" baseline-shift="-5" font-family="Helvetica">0</text>
<text fill="#000000" x="69.8755" y="296.46" font-size="10" text-anchor="end" baseline-shift="-5" font-family="Helvetica">50</text>
<text fill="#000000" x="69.8755" y="208.44" font-size="10" text-anchor="end" baseline-shift="-5" font-family="Helvetica">100</text>
<text fill="#000000" x="74.88" y="389.481" font-size="10" text-anchor="middle" baseline-shift="-10" font-family="Helvetica">0</text>
<text fill="#000000" x="186.48" y="389.481" font-size="10" text-anchor="middle" baseline-shift="-10" font-family="Helvetica">100</text>
<text fill="#000000" x="69.8755" y="120.42" font-size="10" text-anchor="end" baseline-shift="-5" font-family="Helvetica">150</text>
<text fill="#000000" x="69.8755" y="32.4" font-size="10" text-anchor="end" baseline-shift="-5" font-family="Helvetica">200</text>
<text fill="#000000" x="298.08" y="402.481" font-size="10" text-anchor="middle" baseline-shift="-10" font-family="Helvetica">time (10 seconds per unit)</text>
<text fill="#000000" x="51.8755" y="208.44" font-size="10" transform="rotate(-90, 51.8755, 208.44)" text-anchor="middle" baseline-shift="0" font-family="Helvetica">volt-ampere reactive (var)</text>
<polyline fill="none" stroke="#000000" stroke-width="0.5" stroke-dasharray="16,0" points="74.8789,32.3984 521.281,32.3984"/>
<polyline fill="none" stroke="#000000" stroke-width="0.5" stroke-dasharray="16,0" points="74.8789,384.48 74.8789,32.3984"/>
<polyline fill="none" stroke="#000000" stroke-width="0.5" stroke-dasharray="16,0" points="521.281,384.48 521.281,32.3984"/>
<polyline fill="none" stroke="#000000" stroke-width="0.5" stroke-dasharray="0,3,1,3,1,3,1,3,1,0" points="74.8789,384.48 74.8789,32.3984"/>
<polyline fill="none" stroke="#000000" stroke-width="0.5" stroke-dasharray="0,3,1,3,1,3,1,3,1,0" points="186.48,384.48 186.48,32.3984"/>
<polyline fill="none" stroke="#000000" stroke-width="0.5" stroke-dasharray="0,3,1,3,1,3,1,3,1,0" points="298.078,384.48 298.078,32.3984"/>
<polyline fill="none" stroke="#000000" stroke-width="0.5" stroke-dasharray="0,3,1,3,1,3,1,3,1,0" points="409.68,384.48 409.68,32.3984"/>
<polyline fill="none" stroke="#000000" stroke-width="0.5" stroke-dasharray="16,0" points="74.8789,384.48 521.281,384.48"/>
<polyline fill="none" stroke="#000000" stroke-width="0.5" stroke-dasharray="0,3,1,3,1,3,1,3,1,0" points="521.281,384.48 521.281,32.3984"/>
<polyline fill="none" stroke="#000000" stroke-width="0.5" stroke-dasharray="16,0" points="74.8789,384.48 74.8789,377.477"/>
<polyline fill="none" stroke="#000000" stroke-width="0.5" stroke-dasharray="16,0" points="74.8789,32.3984 74.8789,39.4023"/>
<polyline fill="none" stroke="#000000" stroke-width="0.5" stroke-dasharray="16,0" points="186.48,384.48 186.48,377.477"/>
<polyline fill="none" stroke="#000000" stroke-width="0.5" stroke-dasharray="16,0" points="186.48,32.3984 186.48,39.4023"/>
<polyline fill="none" stroke="#000000" stroke-width="0.5" stroke-dasharray="16,0" points="298.078,384.48 298.078,377.477"/>
<polyline fill="none" stroke="#000000" stroke-width="0.5" stroke-dasharray="16,0" points="298.078,32.3984 298.078,39.4023"/>
<polyline fill="none" stroke="#000000" stroke-width="0.5" stroke-dasharray="16,0" points="409.68,384.48 409.68,377.477"/>
<polyline fill="none" stroke="#000000" stroke-width="0.5" stroke-dasharray="16,0" points="409.68,32.3984 409.68,39.4023"/>
<polyline fill="none" stroke="#000000" stroke-width="0.5" stroke-dasharray="16,0" points="521.281,384.48 521.281,377.477"/>
<polyline fill="none" stroke="#000000" stroke-width="0.5" stroke-dasharray="16,0" points="521.281,32.3984 521.281,39.4023"/>
<polyline fill="none" stroke="#000000" stroke-width="0.5" stroke-dasharray="0,3,1,3,1,3,1,3,1,0" points="97.1992,384.48 97.1992,32.3984"/>
<polyline fill="none" stroke="#000000" stroke-width="0.5" stroke-dasharray="0,3,1,3,1,3,1,3,1,0" points="119.52,384.48 119.52,32.3984"/>
<polyline fill="none" stroke="#000000" stroke-width="0.5" stroke-dasharray="0,3,1,3,1,3,1,3,1,0" points="141.84,384.48 141.84,32.3984"/>
<polyline fill="none" stroke="#000000" stroke-width="0.5" stroke-dasharray="0,3,1,3,1,3,1,3,1,0" points="164.16,384.48 164.16,32.3984"/>
<polyline fill="none" stroke="#000000" stroke-width="0.5" stroke-dasharray="0,3,1,3,1,3,1,3,1,0" points="208.801,384.48 208.801,32.3984"/>
<polyline fill="none" stroke="#000000" stroke-width="0.5" stroke-dasharray="0,3,1,3,1,3,1,3,1,0" points="231.121,384.48 231.121,32.3984"/>
<polyline fill="none" stroke="#000000" stroke-width="0.5" stroke-dasharray="0,3,1,3,1,3,1,3,1,0" points="253.441,384.48 253.441,32.3984"/>
<polyline fill="none" stroke="#000000" stroke-width="0.5" stroke-dasharray="0,3,1,3,1,3,1,3,1,0" points="275.762,384.48 275.762,32.3984"/>
<polyline fill="none" stroke="#000000" stroke-width="0.5" stroke-dasharray="0,3,1,3,1,3,1,3,1,0" points="320.398,384.48 320.398,32.3984"/>
<polyline fill="none" stroke="#000000" stroke-width="0.5" stroke-dasharray="0,3,1,3,1,3,1,3,1,0" points="342.719,384.48 342.719,32.3984"/>
<polyline fill="none" stroke="#000000" stroke-width="0.5" stroke-dasharray="0,3,1,3,1,3,1,3,1,0" points="365.039,384.48 365.039,32.3984"/>
<polyline fill="none" stroke="#000000" stroke-width="0.5" stroke-dasharray="0,3,1,3,1,3,1,3,1,0" points="387.359,384.48 387.359,32.3984"/>
<polyline fill="none" stroke="#000000" stroke-width="0.5" stroke-dasharray="0,3,1,3,1,3,1,3,1,0" points="432,384.48 432,32.3984"/>
<polyline fill="none" stroke="#000000" stroke-width="0.5" stroke-dasharray="0,3,1,3,1,3,1,3,1,0" points="454.32,384.48 454.32,32.3984"/>
<polyline fill="none" stroke="#000000" stroke-width="0.5" stroke-dasharray="0,3,1,3,1,3,1,3,1,0" points="476.641,384.48 476.641,32.3984"/>
<polyline fill="none" stroke="#000000" stroke-width="0.5" stroke-dasharray="0,3,1,3,1,3,1,3,1,0" points="498.961,384.48 498.961,32.3984"/>
<polyline fill="none" stroke="#000000" stroke-width="0.5" stroke-dasharray="0,3,1,3,1,3,1,3,1,0" points="74.8789,384.48 521.281,384.48"/>
<polyline fill="none" stroke="#000000" stroke-width="0.5" stroke-dasharray="0,3,1,3,1,3,1,3,1,0" points="74.8789,296.461 521.281,296.461"/>
<polyline fill="none" stroke="#000000" stroke-width="0.5" stroke-dasharray="0,3,1,3,1,3,1,3,1,0" points="74.8789,208.441 521.281,208.441"/>
<polyline fill="none" stroke="#000000" stroke-width="0.5" stroke-dasharray="0,3,1,3,1,3,1,3,1,0" points="74.8789,120.422 521.281,120.422"/>
<polyline fill="none" stroke="#000000" stroke-width="0.5" stroke-dasharray="0,3,1,3,1,3,1,3,1,0" points="74.8789,32.3984 521.281,32.3984"/>
<polyline fill="none" stroke="#000000" stroke-width="0.5" stroke-dasharray="16,0" points="74.8789,384.48 81.8867,384.48"/>
<polyline fill="none" stroke="#000000" stroke-width="0.5" stroke-dasharray="16,0" points="521.281,384.48 514.273,384.48"/>
<polyline fill="none" stroke="#000000" stroke-width="0.5" stroke-dasharray="16,0" points="74.8789,296.461 81.8867,296.461"/>
<polyline fill="none" stroke="#000000" stroke-width="0.5" stroke-dasharray="16,0" points="521.281,296.461 514.273,296.461"/>
<polyline fill="none" stroke="#000000" stroke-width="0.5" stroke-dasharray="16,0" points="74.8789,208.441 81.8867,208.441"/>
<polyline fill="none" stroke="#000000" stroke-width="0.5" stroke-dasharray="16,0" points="521.281,208.441 514.273,208.441"/>
<polyline fill="none" stroke="#000000" stroke-width="0.5" stroke-dasharray="16,0" points="74.8789,120.422 81.8867,120.422"/>
<polyline fill="none" stroke="#000000" stroke-width="0.5" stroke-dasharray="16,0" points="521.281,120.422 514.273,120.422"/>
<polyline fill="none" stroke="#000000" stroke-width="0.5" stroke-dasharray="16,0" points="74.8789,32.3984 81.8867,32.3984"/>
<polyline fill="none" stroke="#000000" stroke-width="0.5" stroke-dasharray="16,0" points="521.281,32.3984 514.273,32.3984"/>
<polyline fill="none" stroke="#000000" stroke-width="0.5" stroke-dasharray="0,3,1,3,1,3,1,3,1,0" points="74.8789,366.875 521.281,366.875"/>
<polyline fill="none" stroke="#000000" stroke-width="0.5" stroke-dasharray="0,3,1,3,1,3,1,3,1,0" points="74.8789,349.273 521.281,349.273"/>
<polyline fill="none" stroke="#000000" stroke-width="0.5" stroke-dasharray="0,3,1,3,1,3,1,3,1,0" points="74.8789,331.668 521.281,331.668"/>
<polyline fill="none" stroke="#000000" stroke-width="0.5" stroke-dasharray="0,3,1,3,1,3,1,3,1,0" points="74.8789,314.062 521.281,314.062"/>
<polyline fill="none" stroke="#000000" stroke-width="0.5" stroke-dasharray="0,3,1,3,1,3,1,3,1,0" points="74.8789,278.855 521.281,278.855"/>
<polyline fill="none" stroke="#000000" stroke-width="0.5" stroke-dasharray="0,3,1,3,1,3,1,3,1,0" points="74.8789,261.254 521.281,261.254"/>
<polyline fill="none" stroke="#000000" stroke-width="0.5" stroke-dasharray="0,3,1,3,1,3,1,3,1,0" points="74.8789,243.648 521.281,243.648"/>
<polyline fill="none" stroke="#000000" stroke-width="0.5" stroke-dasharray="0,3,1,3,1,3,1,3,1,0" points="74.8789,226.043 521.281,226.043"/>
<polyline fill="none" stroke="#000000" stroke-width="0.5" stroke-dasharray="0,3,1,3,1,3,1,3,1,0" points="74.8789,190.836 521.281,190.836"/>
<polyline fill="none" stroke="#000000" stroke-width="0.5" stroke-dasharray="0,3,1,3,1,3,1,3,1,0" points="74.8789,173.23 521.281,173.23"/>
<polyline fill="none" stroke="#000000" stroke-width="0.5" stroke-dasharray="0,3,1,3,1,3,1,3,1,0" points="74.8789,155.629 521.281,155.629"/>
<polyline fill="none" stroke="#000000" stroke-width="0.5" stroke-dasharray="0,3,1,3,1,3,1,3,1,0" points="74.8789,138.023 521.281,138.023"/>
<polyline fill="none" stroke="#000000" stroke-width="0.5" stroke-dasharray="0,3,1,3,1,3,1,3,1,0" points="74.8789,102.816 521.281,102.816"/>
<polyline fill="none" stroke="#000000" stroke-width="0.5" stroke-dasharray="0,3,1,3,1,3,1,3,1,0" points="74.8789,85.2109 521.281,85.2109"/>
<polyline fill="none" stroke="#000000" stroke-width="0.5" stroke-dasharray="0,3,1,3,1,3,1,3,1,0" points="74.8789,67.6094 521.281,67.6094"/>
<polyline fill="none" stroke="#000000" stroke-width="0.5" stroke-dasharray="0,3,1,3,1,3,1,3,1,0" points="74.8789,50.0039 521.281,50.0039"/>
<polyline fill="none" stroke="#ff0000" stroke-width="1.5" points="75.9961,68.9727 77.1133,69.5234 78.2266,69.3398 79.3438,69.5234 80.4609,71.5391 81.5742,71.5391 82.6914,71.5391 83.8086,71.1719 84.9258,71.1719 86.0391,71.7188 87.1562,71.3555 88.2734,72.0898 89.3867,71.1719 90.5039,71.3555 91.6211,72.6367 92.7344,73.918 93.8516,72.6367 94.9688,72.4531 96.0859,73.0039 97.1992,73.0039 98.3164,71.9023 99.4336,71.3555 100.547,71.9023 101.664,71.3555 102.781,71.3555 103.895,71.1719 105.012,70.4375 106.129,69.8906 107.242,70.0742 108.359,69.8906 109.477,69.8906 110.594,69.8906 111.707,69.5234 112.824,70.8047 113.941,70.8047 115.055,384.113 116.172,384.113 117.289,384.113 118.402,384.113 119.52,384.113 120.637,384.113 121.754,384.113 122.867,384.113 123.984,384.113 125.102,384.113 126.215,384.113 127.332,384.113 128.449,384.113 129.562,384.113 130.68,384.113 131.797,384.113 132.91,384.113 134.027,384.113 135.145,384.113 136.262,384.113 137.375,384.113 138.492,384.113 139.609,384.113 140.723,384.113 141.84,384.113 142.957,384.113 144.07,384.113 145.188,384.113 146.305,384.113 147.422,384.113 148.535,384.113 149.652,384.113 150.77,384.113 151.883,384.113 153,384.113 154.117,384.113 155.23,384.113 156.348,384.113 157.465,384.113 158.578,384.113 159.695,384.113 160.812,384.113 161.93,384.113 163.043,384.113 164.16,384.113 165.277,384.113 166.391,384.113 167.508,384.113 168.625,384.113 169.738,384.113 170.855,384.113 171.973,384.113 173.09,384.113 174.203,384.113 175.32,384.113 176.438,384.113 177.551,384.113 178.668,384.113 179.785,384.113 180.898,384.113 182.016,384.113 183.133,384.113 184.246,384.113 185.363,384.113 186.48,384.113 187.598,384.113 188.711,384.113 189.828,384.113 190.945,384.113 192.059,384.113 193.176,384.113 194.293,384.113 195.406,384.113 196.523,384.113 197.641,384.113 198.758,384.113 199.871,384.113 200.988,384.113 202.105,384.113 203.219,384.113 204.336,384.113 205.453,384.113 206.566,384.113 207.684,384.113 208.801,384.113 209.914,384.113 211.031,384.113 212.148,384.113 213.266,384.113 214.379,384.113 215.496,384.113 216.613,384.113 217.727,384.113 218.844,384.113 219.961,384.113 221.074,384.113 222.191,384.113 223.309,384.113 224.426,384.113 225.539,384.113 226.656,384.113 227.773,384.113 228.887,384.113 230.004,384.113 231.121,384.113 232.234,384.113 233.352,384.113 234.469,384.113 235.586,384.113 236.699,384.113 237.816,384.113 238.934,384.113 240.047,384.113 241.164,384.113 242.281,384.113 243.395,384.113 244.512,384.113 245.629,384.113 246.742,384.113 247.859,384.113 248.977,384.113 250.094,384.113 251.207,384.113 252.324,384.113 253.441,384.113 254.555,384.113 255.672,384.113 256.789,384.113 257.902,384.113 259.02,384.113 260.137,384.113 261.254,384.113 262.367,384.113 263.484,384.113 264.602,384.113 265.715,384.113 266.832,384.113 267.949,384.113 269.062,384.113 270.18,384.113 271.297,384.113 272.41,384.113 273.527,384.113 274.645,384.113 275.762,384.113 276.875,384.113 277.992,384.113 279.109,384.113 280.223,384.113 281.34,384.113 282.457,71.3555 283.57,71.3555 284.688,71.3555 285.805,71.5391 286.922,71.1719 288.035,71.3555 289.152,72.6367 290.27,71.9023 291.383,72.2695 292.5,71.7188 293.617,71.5391 294.73,71.5391 295.848,71.3555 296.965,70.9883 298.078,71.7188 299.195,71.3555 300.312,70.4375 301.43,71.9023 302.543,72.8203 303.66,73.3711 304.777,71.7188 305.891,71.9023 307.008,71.7188 308.125,72.0898 309.238,71.7188 310.355,74.6523 311.473,74.4688 312.59,74.1016 313.703,74.1016 314.82,73.5547 315.938,73.5547 317.051,73.918 318.168,73.7344 319.285,73.3711 320.398,73.3711 321.516,73.3711 322.633,73.3711 323.746,73.7344 324.863,73.3711 325.98,74.4688 327.098,74.6523 328.211,75.0195 329.328,75.3867 330.445,75.3867 331.559,74.4688 332.676,74.1016 333.793,73.7344 334.906,74.6523 336.023,75.2031 337.141,74.2852 338.258,74.2852 339.371,72.6367 340.488,72.8203 341.605,71.3555 342.719,71.3555 343.836,71.9023 344.953,72.6367 346.066,72.0898 347.184,71.5391 348.301,72.4531 349.414,72.6367 350.531,72.0898 351.648,71.9023 352.766,71.9023 353.879,71.7188 354.996,72.6367 356.113,71.5391 357.227,71.1719 358.344,71.7188 359.461,71.5391 360.574,71.7188 361.691,71.9023 362.809,72.0898 363.926,71.9023 365.039,72.2695 366.156,71.5391 367.273,71.3555 368.387,71.7188 369.504,71.9023 370.621,71.5391 371.734,72.2695 372.852,71.7188 373.969,71.7188 375.082,71.9023 376.199,71.3555 377.316,71.7188 378.434,71.9023 379.547,70.8047 380.664,70.8047 381.781,71.1719 382.895,71.1719 384.012,72.0898 385.129,72.6367 386.242,72.0898 387.359,71.3555 388.477,71.9023 389.594,72.4531 390.707,72.0898 391.824,72.2695 392.941,71.5391 394.055,71.1719 395.172,71.1719 396.289,72.0898 397.402,72.4531 398.52,71.9023 399.637,71.1719 400.75,71.5391 401.867,71.5391 402.984,71.3555 404.102,70.9883 405.215,108.184 406.332,384.113 407.449,384.113 408.562,384.113 409.68,384.113 410.797,384.113 411.91,384.113 413.027,384.113 414.145,384.113 415.262,384.113 416.375,384.113 417.492,384.113 418.609,384.113 419.723,384.113 420.84,384.113 421.957,384.113 423.07,384.113 424.188,384.113 425.305,384.113 426.422,384.113 427.535,384.113 428.652,384.113 429.77,384.113 430.883,384.113 432,384.113 433.117,384.113 434.23,384.113 435.348,384.113 436.465,384.113 437.578,384.113 438.695,384.113 439.812,384.113 440.93,384.113 442.043,384.113 443.16,384.113 444.277,384.113 445.391,384.113 446.508,384.113 447.625,384.113 448.738,384.113 449.855,384.113 450.973,384.113 452.09,384.113 453.203,384.113 454.32,384.113 455.438,384.113 456.551,384.113 457.668,384.113 458.785,384.113 459.898,384.113 461.016,384.113 462.133,384.113 463.246,384.297 464.363,384.297 465.48,384.113 466.598,384.113 467.711,384.113 468.828,384.113 469.945,384.113 471.059,384.113 472.176,384.113 473.293,384.113 474.406,384.113 475.523,384.113 476.641,384.113"/>
<polyline fill="none" stroke="#000000" stroke-width="0.5" stroke-dasharray="16,0" points="521.281,384.48 521.281,384.48"/>
<polyline fill="none" stroke="#000000" stroke-width="0.5" stroke-dasharray="16,0" points="74.8789,384.48 74.8789,384.48"/>
<polyline fill="none" stroke="#000000" stroke-width="0.5" stroke-dasharray="16,0" points="74.8789,32.3984 74.8789,32.3984"/>
<polyline fill="none" stroke="#000000" stroke-width="0.5" stroke-dasharray="16,0" points="521.281,32.3984 521.281,32.3984"/>
<text fill="#000000" x="298.08" y="22.4" font-size="10" text-anchor="middle" baseline-shift="0" font-family="Helvetica">Fridge Bauknecht (reactive power)</text>
<polyline fill="none" stroke="#000000" stroke-width="0.5" stroke-dasharray="16,0" points="521.281,384.48 521.281,32.3984"/>
<polyline fill="none" stroke="#000000" stroke-width="0.5" stroke-dasharray="16,0" points="74.8789,384.48 74.8789,32.3984 521.281,32.3984"/>
<polyline fill="none" stroke="#000000" stroke-width="0.5" stroke-dasharray="16,0" points="74.8789,384.48 521.281,384.48"/>
</g>
</svg>
