<?xml version="1.0" encoding="UTF-8" standalone="no"?>
<svg xmlns="http://www.w3.org/2000/svg"
     xmlns:xlink="http://www.w3.org/1999/xlink"
     width="576px" height="432px" viewBox="0 0 576 432">
<title>glps_renderer figure</title>
<desc>
Creator: GL2PS 1.3.5, (C) 1999-2009 C. Geuzaine
For: Octave
CreationDate: Tue Jan 31 12:14:21 2012
</desc>
<defs>
</defs>
<g shape-rendering="crispEdges">
<text fill="#000000" x="298.08" y="389.481" font-size="10" text-anchor="middle" baseline-shift="-10" font-family="Helvetica">200</text>
<text fill="#000000" x="409.68" y="389.481" font-size="10" text-anchor="middle" baseline-shift="-10" font-family="Helvetica">300</text>
<text fill="#000000" x="521.28" y="389.481" font-size="10" text-anchor="middle" baseline-shift="-10" font-family="Helvetica">400</text>
<text fill="#000000" x="69.8755" y="384.48" font-size="10" text-anchor="end" baseline-shift="-5" font-family="Helvetica">0</text>
<text fill="#000000" x="69.8755" y="314.064" font-size="10" text-anchor="end" baseline-shift="-5" font-family="Helvetica">1</text>
<text fill="#000000" x="69.8755" y="243.648" font-size="10" text-anchor="end" baseline-shift="-5" font-family="Helvetica">2</text>
<text fill="#000000" x="74.88" y="389.481" font-size="10" text-anchor="middle" baseline-shift="-10" font-family="Helvetica">0</text>
<text fill="#000000" x="186.48" y="389.481" font-size="10" text-anchor="middle" baseline-shift="-10" font-family="Helvetica">100</text>
<text fill="#000000" x="69.8755" y="173.232" font-size="10" text-anchor="end" baseline-shift="-5" font-family="Helvetica">3</text>
<text fill="#000000" x="69.8755" y="102.816" font-size="10" text-anchor="end" baseline-shift="-5" font-family="Helvetica">4</text>
<text fill="#000000" x="69.8755" y="32.4" font-size="10" text-anchor="end" baseline-shift="-5" font-family="Helvetica">5</text>
<text fill="#000000" x="298.08" y="402.481" font-size="10" text-anchor="middle" baseline-shift="-10" font-family="Helvetica">time (10 seconds per unit)</text>
<text fill="#000000" x="63.8755" y="208.44" font-size="10" transform="rotate(-90, 63.8755, 208.44)" text-anchor="middle" baseline-shift="0" font-family="Helvetica">ampere (A)</text>
<polyline fill="none" stroke="#000000" stroke-width="0.5" stroke-dasharray="16,0" points="74.8789,32.3984 521.281,32.3984"/>
<polyline fill="none" stroke="#000000" stroke-width="0.5" stroke-dasharray="16,0" points="74.8789,384.48 74.8789,32.3984"/>
<polyline fill="none" stroke="#000000" stroke-width="0.5" stroke-dasharray="16,0" points="521.281,384.48 521.281,32.3984"/>
<polyline fill="none" stroke="#000000" stroke-width="0.5" stroke-dasharray="0,3,1,3,1,3,1,3,1,0" points="74.8789,384.48 74.8789,32.3984"/>
<polyline fill="none" stroke="#000000" stroke-width="0.5" stroke-dasharray="0,3,1,3,1,3,1,3,1,0" points="186.48,384.48 186.48,32.3984"/>
<polyline fill="none" stroke="#000000" stroke-width="0.5" stroke-dasharray="0,3,1,3,1,3,1,3,1,0" points="298.078,384.48 298.078,32.3984"/>
<polyline fill="none" stroke="#000000" stroke-width="0.5" stroke-dasharray="0,3,1,3,1,3,1,3,1,0" points="409.68,384.48 409.68,32.3984"/>
<polyline fill="none" stroke="#000000" stroke-width="0.5" stroke-dasharray="16,0" points="74.8789,384.48 521.281,384.48"/>
<polyline fill="none" stroke="#000000" stroke-width="0.5" stroke-dasharray="0,3,1,3,1,3,1,3,1,0" points="521.281,384.48 521.281,32.3984"/>
<polyline fill="none" stroke="#000000" stroke-width="0.5" stroke-dasharray="16,0" points="74.8789,384.48 74.8789,377.477"/>
<polyline fill="none" stroke="#000000" stroke-width="0.5" stroke-dasharray="16,0" points="74.8789,32.3984 74.8789,39.4023"/>
<polyline fill="none" stroke="#000000" stroke-width="0.5" stroke-dasharray="16,0" points="186.48,384.48 186.48,377.477"/>
<polyline fill="none" stroke="#000000" stroke-width="0.5" stroke-dasharray="16,0" points="186.48,32.3984 186.48,39.4023"/>
<polyline fill="none" stroke="#000000" stroke-width="0.5" stroke-dasharray="16,0" points="298.078,384.48 298.078,377.477"/>
<polyline fill="none" stroke="#000000" stroke-width="0.5" stroke-dasharray="16,0" points="298.078,32.3984 298.078,39.4023"/>
<polyline fill="none" stroke="#000000" stroke-width="0.5" stroke-dasharray="16,0" points="409.68,384.48 409.68,377.477"/>
<polyline fill="none" stroke="#000000" stroke-width="0.5" stroke-dasharray="16,0" points="409.68,32.3984 409.68,39.4023"/>
<polyline fill="none" stroke="#000000" stroke-width="0.5" stroke-dasharray="16,0" points="521.281,384.48 521.281,377.477"/>
<polyline fill="none" stroke="#000000" stroke-width="0.5" stroke-dasharray="16,0" points="521.281,32.3984 521.281,39.4023"/>
<polyline fill="none" stroke="#000000" stroke-width="0.5" stroke-dasharray="0,3,1,3,1,3,1,3,1,0" points="97.1992,384.48 97.1992,32.3984"/>
<polyline fill="none" stroke="#000000" stroke-width="0.5" stroke-dasharray="0,3,1,3,1,3,1,3,1,0" points="119.52,384.48 119.52,32.3984"/>
<polyline fill="none" stroke="#000000" stroke-width="0.5" stroke-dasharray="0,3,1,3,1,3,1,3,1,0" points="141.84,384.48 141.84,32.3984"/>
<polyline fill="none" stroke="#000000" stroke-width="0.5" stroke-dasharray="0,3,1,3,1,3,1,3,1,0" points="164.16,384.48 164.16,32.3984"/>
<polyline fill="none" stroke="#000000" stroke-width="0.5" stroke-dasharray="0,3,1,3,1,3,1,3,1,0" points="208.801,384.48 208.801,32.3984"/>
<polyline fill="none" stroke="#000000" stroke-width="0.5" stroke-dasharray="0,3,1,3,1,3,1,3,1,0" points="231.121,384.48 231.121,32.3984"/>
<polyline fill="none" stroke="#000000" stroke-width="0.5" stroke-dasharray="0,3,1,3,1,3,1,3,1,0" points="253.441,384.48 253.441,32.3984"/>
<polyline fill="none" stroke="#000000" stroke-width="0.5" stroke-dasharray="0,3,1,3,1,3,1,3,1,0" points="275.762,384.48 275.762,32.3984"/>
<polyline fill="none" stroke="#000000" stroke-width="0.5" stroke-dasharray="0,3,1,3,1,3,1,3,1,0" points="320.398,384.48 320.398,32.3984"/>
<polyline fill="none" stroke="#000000" stroke-width="0.5" stroke-dasharray="0,3,1,3,1,3,1,3,1,0" points="342.719,384.48 342.719,32.3984"/>
<polyline fill="none" stroke="#000000" stroke-width="0.5" stroke-dasharray="0,3,1,3,1,3,1,3,1,0" points="365.039,384.48 365.039,32.3984"/>
<polyline fill="none" stroke="#000000" stroke-width="0.5" stroke-dasharray="0,3,1,3,1,3,1,3,1,0" points="387.359,384.48 387.359,32.3984"/>
<polyline fill="none" stroke="#000000" stroke-width="0.5" stroke-dasharray="0,3,1,3,1,3,1,3,1,0" points="432,384.48 432,32.3984"/>
<polyline fill="none" stroke="#000000" stroke-width="0.5" stroke-dasharray="0,3,1,3,1,3,1,3,1,0" points="454.32,384.48 454.32,32.3984"/>
<polyline fill="none" stroke="#000000" stroke-width="0.5" stroke-dasharray="0,3,1,3,1,3,1,3,1,0" points="476.641,384.48 476.641,32.3984"/>
<polyline fill="none" stroke="#000000" stroke-width="0.5" stroke-dasharray="0,3,1,3,1,3,1,3,1,0" points="498.961,384.48 498.961,32.3984"/>
<polyline fill="none" stroke="#000000" stroke-width="0.5" stroke-dasharray="0,3,1,3,1,3,1,3,1,0" points="74.8789,384.48 521.281,384.48"/>
<polyline fill="none" stroke="#000000" stroke-width="0.5" stroke-dasharray="0,3,1,3,1,3,1,3,1,0" points="74.8789,314.062 521.281,314.062"/>
<polyline fill="none" stroke="#000000" stroke-width="0.5" stroke-dasharray="0,3,1,3,1,3,1,3,1,0" points="74.8789,243.648 521.281,243.648"/>
<polyline fill="none" stroke="#000000" stroke-width="0.5" stroke-dasharray="0,3,1,3,1,3,1,3,1,0" points="74.8789,173.23 521.281,173.23"/>
<polyline fill="none" stroke="#000000" stroke-width="0.5" stroke-dasharray="0,3,1,3,1,3,1,3,1,0" points="74.8789,102.816 521.281,102.816"/>
<polyline fill="none" stroke="#000000" stroke-width="0.5" stroke-dasharray="0,3,1,3,1,3,1,3,1,0" points="74.8789,32.3984 521.281,32.3984"/>
<polyline fill="none" stroke="#000000" stroke-width="0.5" stroke-dasharray="16,0" points="74.8789,384.48 81.8867,384.48"/>
<polyline fill="none" stroke="#000000" stroke-width="0.5" stroke-dasharray="16,0" points="521.281,384.48 514.273,384.48"/>
<polyline fill="none" stroke="#000000" stroke-width="0.5" stroke-dasharray="16,0" points="74.8789,314.062 81.8867,314.062"/>
<polyline fill="none" stroke="#000000" stroke-width="0.5" stroke-dasharray="16,0" points="521.281,314.062 514.273,314.062"/>
<polyline fill="none" stroke="#000000" stroke-width="0.5" stroke-dasharray="16,0" points="74.8789,243.648 81.8867,243.648"/>
<polyline fill="none" stroke="#000000" stroke-width="0.5" stroke-dasharray="16,0" points="521.281,243.648 514.273,243.648"/>
<polyline fill="none" stroke="#000000" stroke-width="0.5" stroke-dasharray="16,0" points="74.8789,173.23 81.8867,173.23"/>
<polyline fill="none" stroke="#000000" stroke-width="0.5" stroke-dasharray="16,0" points="521.281,173.23 514.273,173.23"/>
<polyline fill="none" stroke="#000000" stroke-width="0.5" stroke-dasharray="16,0" points="74.8789,102.816 81.8867,102.816"/>
<polyline fill="none" stroke="#000000" stroke-width="0.5" stroke-dasharray="16,0" points="521.281,102.816 514.273,102.816"/>
<polyline fill="none" stroke="#000000" stroke-width="0.5" stroke-dasharray="16,0" points="74.8789,32.3984 81.8867,32.3984"/>
<polyline fill="none" stroke="#000000" stroke-width="0.5" stroke-dasharray="16,0" points="521.281,32.3984 514.273,32.3984"/>
<polyline fill="none" stroke="#000000" stroke-width="0.5" stroke-dasharray="0,3,1,3,1,3,1,3,1,0" points="74.8789,370.398 521.281,370.398"/>
<polyline fill="none" stroke="#000000" stroke-width="0.5" stroke-dasharray="0,3,1,3,1,3,1,3,1,0" points="74.8789,356.312 521.281,356.312"/>
<polyline fill="none" stroke="#000000" stroke-width="0.5" stroke-dasharray="0,3,1,3,1,3,1,3,1,0" points="74.8789,342.23 521.281,342.23"/>
<polyline fill="none" stroke="#000000" stroke-width="0.5" stroke-dasharray="0,3,1,3,1,3,1,3,1,0" points="74.8789,328.148 521.281,328.148"/>
<polyline fill="none" stroke="#000000" stroke-width="0.5" stroke-dasharray="0,3,1,3,1,3,1,3,1,0" points="74.8789,299.98 521.281,299.98"/>
<polyline fill="none" stroke="#000000" stroke-width="0.5" stroke-dasharray="0,3,1,3,1,3,1,3,1,0" points="74.8789,285.898 521.281,285.898"/>
<polyline fill="none" stroke="#000000" stroke-width="0.5" stroke-dasharray="0,3,1,3,1,3,1,3,1,0" points="74.8789,271.812 521.281,271.812"/>
<polyline fill="none" stroke="#000000" stroke-width="0.5" stroke-dasharray="0,3,1,3,1,3,1,3,1,0" points="74.8789,257.73 521.281,257.73"/>
<polyline fill="none" stroke="#000000" stroke-width="0.5" stroke-dasharray="0,3,1,3,1,3,1,3,1,0" points="74.8789,229.566 521.281,229.566"/>
<polyline fill="none" stroke="#000000" stroke-width="0.5" stroke-dasharray="0,3,1,3,1,3,1,3,1,0" points="74.8789,215.48 521.281,215.48"/>
<polyline fill="none" stroke="#000000" stroke-width="0.5" stroke-dasharray="0,3,1,3,1,3,1,3,1,0" points="74.8789,201.398 521.281,201.398"/>
<polyline fill="none" stroke="#000000" stroke-width="0.5" stroke-dasharray="0,3,1,3,1,3,1,3,1,0" points="74.8789,187.316 521.281,187.316"/>
<polyline fill="none" stroke="#000000" stroke-width="0.5" stroke-dasharray="0,3,1,3,1,3,1,3,1,0" points="74.8789,159.148 521.281,159.148"/>
<polyline fill="none" stroke="#000000" stroke-width="0.5" stroke-dasharray="0,3,1,3,1,3,1,3,1,0" points="74.8789,145.066 521.281,145.066"/>
<polyline fill="none" stroke="#000000" stroke-width="0.5" stroke-dasharray="0,3,1,3,1,3,1,3,1,0" points="74.8789,130.984 521.281,130.984"/>
<polyline fill="none" stroke="#000000" stroke-width="0.5" stroke-dasharray="0,3,1,3,1,3,1,3,1,0" points="74.8789,116.898 521.281,116.898"/>
<polyline fill="none" stroke="#000000" stroke-width="0.5" stroke-dasharray="0,3,1,3,1,3,1,3,1,0" points="74.8789,88.7344 521.281,88.7344"/>
<polyline fill="none" stroke="#000000" stroke-width="0.5" stroke-dasharray="0,3,1,3,1,3,1,3,1,0" points="74.8789,74.6484 521.281,74.6484"/>
<polyline fill="none" stroke="#000000" stroke-width="0.5" stroke-dasharray="0,3,1,3,1,3,1,3,1,0" points="74.8789,60.5664 521.281,60.5664"/>
<polyline fill="none" stroke="#000000" stroke-width="0.5" stroke-dasharray="0,3,1,3,1,3,1,3,1,0" points="74.8789,46.4844 521.281,46.4844"/>
<polyline fill="none" stroke="#ff0000" stroke-width="1.5" points="75.9961,384.48 77.1133,384.48 78.2266,112.676 79.3438,113.66 80.4609,114.152 81.5742,115.141 82.6914,114.926 83.8086,115.844 84.9258,115.844 86.0391,116.547 87.1562,384.48 88.2734,384.48 89.3867,384.48 90.5039,384.48 91.6211,363.637 92.7344,102.605 93.8516,103.379 94.9688,103.66 96.0859,115.422 97.1992,115.914 98.3164,116.266 99.4336,384.48 100.547,384.48 101.664,384.48 102.781,384.48 103.895,363.777 105.012,102.395 106.129,103.73 107.242,103.027 108.359,103.73 109.477,103.098 110.594,115.844 111.707,115.562 112.824,116.336 113.941,384.48 115.055,384.48 116.172,384.48 117.289,384.48 118.402,384.48 119.52,384.48 120.637,384.48 121.754,384.48 122.867,384.48 123.984,384.48 125.102,384.48 126.215,384.48 127.332,384.48 128.449,384.48 129.562,384.48 130.68,384.48 131.797,384.059 132.91,384.48 134.027,384.48 135.145,384.48 136.262,384.059 137.375,384.059 138.492,384.48 139.609,384.48 140.723,384.48 141.84,384.48 142.957,384.48 144.07,384.48 145.188,384.48 146.305,114.996 147.422,113.238 148.535,384.059 149.652,384.059 150.77,384.059 151.883,384.059 153,384.059 154.117,384.059 155.23,384.059 156.348,384.059 157.465,384.059 158.578,384.059 159.695,384.059 160.812,384.059 161.93,384.059 163.043,384.059 164.16,384.059 165.277,384.059 166.391,384.059 167.508,384.059 168.625,384.059 169.738,384.059 170.855,384.059 171.973,384.059 173.09,384.059 174.203,384.059 175.32,384.059 176.438,384.059 177.551,384.059 178.668,384.059 179.785,384.059 180.898,384.059 182.016,384.059 183.133,384.059 184.246,384.059 185.363,384.059 186.48,384.059 187.598,384.059 188.711,384.059 189.828,109.859 190.945,113.309 192.059,113.52 193.176,384.059 194.293,384.059 195.406,384.059 196.523,384.059 197.641,384.059 198.758,384.059 199.871,384.059 200.988,384.059 202.105,384.059 203.219,384.059 204.336,384.059 205.453,384.059 206.566,384.059 207.684,384.059 208.801,384.059 209.914,384.059 211.031,384.059 212.148,384.059 213.266,384.48 214.379,384.059 215.496,384.059 216.613,384.059 217.727,384.059 218.844,384.059 219.961,384.059 221.074,384.059 222.191,384.059 223.309,384.059 224.426,384.059 225.539,384.059 226.656,384.059 227.773,384.059 228.887,384.059 230.004,384.059 231.121,384.059 232.234,384.059 233.352,384.059 234.469,384.059 235.586,384.059 236.699,110.562 237.816,112.25 238.934,317.234 240.047,384.059 241.164,384.059 242.281,384.059 243.395,384.059 244.512,384.059 245.629,384.059 246.742,384.059 247.859,384.059 248.977,384.059 250.094,384.059 251.207,384.059 252.324,384.059 253.441,384.059 254.555,384.059 255.672,384.059 256.789,384.059 257.902,384.059 259.02,384.059 260.137,384.059 261.254,383.988 262.367,384.48 263.484,384.48 264.602,384.48 265.715,384.48 266.832,384.48 267.949,384.48 269.062,384.48 270.18,384.48 271.297,384.48 272.41,384.48 273.527,384.48 274.645,384.48 275.762,384.48 276.875,384.48 277.992,384.48 279.109,384.48 280.223,384.48 281.34,384.48 282.457,384.48 283.57,384.48 284.688,384.48 285.805,384.48 286.922,384.48 288.035,384.48 289.152,384.48 290.27,384.48 291.383,384.48 292.5,384.48 293.617,384.48 294.73,384.48 295.848,384.48 296.965,384.48 298.078,384.48 299.195,384.48 300.312,384.48 301.43,384.48 302.543,384.48 303.66,384.48 304.777,384.48 305.891,384.48 307.008,384.48 308.125,384.48 309.238,384.48 310.355,384.48 311.473,384.48 312.59,384.48 313.703,384.48 314.82,384.48 315.938,384.48 317.051,384.48 318.168,384.48 319.285,384.48 320.398,384.48 321.516,112.25 322.633,113.73 323.746,114.785 324.863,384.059 325.98,384.059 327.098,384.059 328.211,384.059 329.328,384.059 330.445,384.059 331.559,384.059 332.676,384.059 333.793,384.059 334.906,384.059 336.023,384.059 337.141,384.059 338.258,384.059 339.371,384.059 340.488,384.059 341.605,384.059 342.719,384.059 343.836,384.059 344.953,384.059 346.066,384.059 347.184,384.059 348.301,384.059 349.414,384.059 350.531,384.059 351.648,384.059 352.766,384.059 353.879,384.059 354.996,384.059 356.113,384.059 357.227,384.059 358.344,384.059 359.461,384.059 360.574,384.48 361.691,384.48 362.809,384.48 363.926,384.48 365.039,384.059 366.156,384.48 367.273,384.48 368.387,115.07 369.504,117.109 370.621,384.059 371.734,384.059 372.852,384.48 373.969,384.48 375.082,384.48 376.199,384.48 377.316,384.059 378.434,384.48 379.547,384.48 380.664,384.48 381.781,384.48 382.895,384.48 384.012,384.48 385.129,384.48 386.242,384.059 387.359,384.48 388.477,384.48 389.594,384.48 390.707,384.48 391.824,384.059 392.941,384.48 394.055,384.48 395.172,384.48 396.289,384.48 397.402,384.48 398.52,384.48 399.637,384.48 400.75,384.48 401.867,384.48 402.984,384.059 404.102,384.059 405.215,384.48 406.332,384.48 407.449,384.059 408.562,384.48 409.68,384.48 410.797,384.48 411.91,384.059 413.027,384.059 414.145,384.48 415.262,384.48 416.375,115.492 417.492,116.336 418.609,384.059 419.723,384.48 420.84,384.48 421.957,384.48 423.07,384.48 424.188,384.059 425.305,384.48 426.422,384.059 427.535,384.059 428.652,384.48 429.77,384.059 430.883,384.059 432,384.059 433.117,384.059 434.23,384.059 435.348,384.48 436.465,384.059 437.578,384.059 438.695,384.48 439.812,384.059 440.93,384.059 442.043,384.059 443.16,384.059 444.277,384.059 445.391,384.059 446.508,384.48 447.625,384.48 448.738,384.059 449.855,384.059 450.973,384.48 452.09,384.48 453.203,384.48 454.32,384.48 455.438,384.48 456.551,384.48 457.668,384.48 458.785,384.48 459.898,384.48 461.016,384.059 462.133,384.059 463.246,384.059 464.363,384.059 465.48,384.059 466.598,113.66 467.711,114.996 468.828,384.059 469.945,384.48 471.059,384.48 472.176,384.48 473.293,384.48 474.406,384.48 475.523,384.48"/>
<polyline fill="none" stroke="#000000" stroke-width="0.5" stroke-dasharray="16,0" points="521.281,384.48 521.281,384.48"/>
<polyline fill="none" stroke="#000000" stroke-width="0.5" stroke-dasharray="16,0" points="74.8789,384.48 74.8789,384.48"/>
<polyline fill="none" stroke="#000000" stroke-width="0.5" stroke-dasharray="16,0" points="74.8789,32.3984 74.8789,32.3984"/>
<polyline fill="none" stroke="#000000" stroke-width="0.5" stroke-dasharray="16,0" points="521.281,32.3984 521.281,32.3984"/>
<text fill="#000000" x="298.08" y="22.4" font-size="10" text-anchor="middle" baseline-shift="0" font-family="Helvetica">Coffee Machine Lavazza (RMS current)</text>
<polyline fill="none" stroke="#000000" stroke-width="0.5" stroke-dasharray="16,0" points="521.281,384.48 521.281,32.3984"/>
<polyline fill="none" stroke="#000000" stroke-width="0.5" stroke-dasharray="16,0" points="74.8789,384.48 74.8789,32.3984 521.281,32.3984"/>
<polyline fill="none" stroke="#000000" stroke-width="0.5" stroke-dasharray="16,0" points="74.8789,384.48 521.281,384.48"/>
</g>
</svg>
