<?xml version="1.0" encoding="UTF-8" standalone="no"?>
<svg xmlns="http://www.w3.org/2000/svg"
     xmlns:xlink="http://www.w3.org/1999/xlink"
     width="576px" height="432px" viewBox="0 0 576 432">
<title>glps_renderer figure</title>
<desc>
Creator: GL2PS 1.3.5, (C) 1999-2009 C. Geuzaine
For: Octave
CreationDate: Tue Jan 31 12:14:19 2012
</desc>
<defs>
</defs>
<g shape-rendering="crispEdges">
<text fill="#000000" x="298.08" y="389.481" font-size="10" text-anchor="middle" baseline-shift="-10" font-family="Helvetica">200</text>
<text fill="#000000" x="409.68" y="389.481" font-size="10" text-anchor="middle" baseline-shift="-10" font-family="Helvetica">300</text>
<text fill="#000000" x="521.28" y="389.481" font-size="10" text-anchor="middle" baseline-shift="-10" font-family="Helvetica">400</text>
<text fill="#000000" x="69.8755" y="384.48" font-size="10" text-anchor="end" baseline-shift="-5" font-family="Helvetica">222</text>
<text fill="#000000" x="69.8755" y="314.064" font-size="10" text-anchor="end" baseline-shift="-5" font-family="Helvetica">224</text>
<text fill="#000000" x="69.8755" y="243.648" font-size="10" text-anchor="end" baseline-shift="-5" font-family="Helvetica">226</text>
<text fill="#000000" x="74.88" y="389.481" font-size="10" text-anchor="middle" baseline-shift="-10" font-family="Helvetica">0</text>
<text fill="#000000" x="186.48" y="389.481" font-size="10" text-anchor="middle" baseline-shift="-10" font-family="Helvetica">100</text>
<text fill="#000000" x="69.8755" y="173.232" font-size="10" text-anchor="end" baseline-shift="-5" font-family="Helvetica">228</text>
<text fill="#000000" x="69.8755" y="102.816" font-size="10" text-anchor="end" baseline-shift="-5" font-family="Helvetica">230</text>
<text fill="#000000" x="69.8755" y="32.4" font-size="10" text-anchor="end" baseline-shift="-5" font-family="Helvetica">232</text>
<text fill="#000000" x="298.08" y="402.481" font-size="10" text-anchor="middle" baseline-shift="-10" font-family="Helvetica">time (10 seconds per unit)</text>
<text fill="#000000" x="51.8755" y="208.44" font-size="10" transform="rotate(-90, 51.8755, 208.44)" text-anchor="middle" baseline-shift="0" font-family="Helvetica">volt (V)</text>
<polyline fill="none" stroke="#000000" stroke-width="0.5" stroke-dasharray="16,0" points="74.8789,32.3984 521.281,32.3984"/>
<polyline fill="none" stroke="#000000" stroke-width="0.5" stroke-dasharray="16,0" points="74.8789,384.48 74.8789,32.3984"/>
<polyline fill="none" stroke="#000000" stroke-width="0.5" stroke-dasharray="16,0" points="521.281,384.48 521.281,32.3984"/>
<polyline fill="none" stroke="#000000" stroke-width="0.5" stroke-dasharray="0,3,1,3,1,3,1,3,1,0" points="74.8789,384.48 74.8789,32.3984"/>
<polyline fill="none" stroke="#000000" stroke-width="0.5" stroke-dasharray="0,3,1,3,1,3,1,3,1,0" points="186.48,384.48 186.48,32.3984"/>
<polyline fill="none" stroke="#000000" stroke-width="0.5" stroke-dasharray="0,3,1,3,1,3,1,3,1,0" points="298.078,384.48 298.078,32.3984"/>
<polyline fill="none" stroke="#000000" stroke-width="0.5" stroke-dasharray="0,3,1,3,1,3,1,3,1,0" points="409.68,384.48 409.68,32.3984"/>
<polyline fill="none" stroke="#000000" stroke-width="0.5" stroke-dasharray="16,0" points="74.8789,384.48 521.281,384.48"/>
<polyline fill="none" stroke="#000000" stroke-width="0.5" stroke-dasharray="0,3,1,3,1,3,1,3,1,0" points="521.281,384.48 521.281,32.3984"/>
<polyline fill="none" stroke="#000000" stroke-width="0.5" stroke-dasharray="16,0" points="74.8789,384.48 74.8789,377.477"/>
<polyline fill="none" stroke="#000000" stroke-width="0.5" stroke-dasharray="16,0" points="74.8789,32.3984 74.8789,39.4023"/>
<polyline fill="none" stroke="#000000" stroke-width="0.5" stroke-dasharray="16,0" points="186.48,384.48 186.48,377.477"/>
<polyline fill="none" stroke="#000000" stroke-width="0.5" stroke-dasharray="16,0" points="186.48,32.3984 186.48,39.4023"/>
<polyline fill="none" stroke="#000000" stroke-width="0.5" stroke-dasharray="16,0" points="298.078,384.48 298.078,377.477"/>
<polyline fill="none" stroke="#000000" stroke-width="0.5" stroke-dasharray="16,0" points="298.078,32.3984 298.078,39.4023"/>
<polyline fill="none" stroke="#000000" stroke-width="0.5" stroke-dasharray="16,0" points="409.68,384.48 409.68,377.477"/>
<polyline fill="none" stroke="#000000" stroke-width="0.5" stroke-dasharray="16,0" points="409.68,32.3984 409.68,39.4023"/>
<polyline fill="none" stroke="#000000" stroke-width="0.5" stroke-dasharray="16,0" points="521.281,384.48 521.281,377.477"/>
<polyline fill="none" stroke="#000000" stroke-width="0.5" stroke-dasharray="16,0" points="521.281,32.3984 521.281,39.4023"/>
<polyline fill="none" stroke="#000000" stroke-width="0.5" stroke-dasharray="0,3,1,3,1,3,1,3,1,0" points="97.1992,384.48 97.1992,32.3984"/>
<polyline fill="none" stroke="#000000" stroke-width="0.5" stroke-dasharray="0,3,1,3,1,3,1,3,1,0" points="119.52,384.48 119.52,32.3984"/>
<polyline fill="none" stroke="#000000" stroke-width="0.5" stroke-dasharray="0,3,1,3,1,3,1,3,1,0" points="141.84,384.48 141.84,32.3984"/>
<polyline fill="none" stroke="#000000" stroke-width="0.5" stroke-dasharray="0,3,1,3,1,3,1,3,1,0" points="164.16,384.48 164.16,32.3984"/>
<polyline fill="none" stroke="#000000" stroke-width="0.5" stroke-dasharray="0,3,1,3,1,3,1,3,1,0" points="208.801,384.48 208.801,32.3984"/>
<polyline fill="none" stroke="#000000" stroke-width="0.5" stroke-dasharray="0,3,1,3,1,3,1,3,1,0" points="231.121,384.48 231.121,32.3984"/>
<polyline fill="none" stroke="#000000" stroke-width="0.5" stroke-dasharray="0,3,1,3,1,3,1,3,1,0" points="253.441,384.48 253.441,32.3984"/>
<polyline fill="none" stroke="#000000" stroke-width="0.5" stroke-dasharray="0,3,1,3,1,3,1,3,1,0" points="275.762,384.48 275.762,32.3984"/>
<polyline fill="none" stroke="#000000" stroke-width="0.5" stroke-dasharray="0,3,1,3,1,3,1,3,1,0" points="320.398,384.48 320.398,32.3984"/>
<polyline fill="none" stroke="#000000" stroke-width="0.5" stroke-dasharray="0,3,1,3,1,3,1,3,1,0" points="342.719,384.48 342.719,32.3984"/>
<polyline fill="none" stroke="#000000" stroke-width="0.5" stroke-dasharray="0,3,1,3,1,3,1,3,1,0" points="365.039,384.48 365.039,32.3984"/>
<polyline fill="none" stroke="#000000" stroke-width="0.5" stroke-dasharray="0,3,1,3,1,3,1,3,1,0" points="387.359,384.48 387.359,32.3984"/>
<polyline fill="none" stroke="#000000" stroke-width="0.5" stroke-dasharray="0,3,1,3,1,3,1,3,1,0" points="432,384.48 432,32.3984"/>
<polyline fill="none" stroke="#000000" stroke-width="0.5" stroke-dasharray="0,3,1,3,1,3,1,3,1,0" points="454.32,384.48 454.32,32.3984"/>
<polyline fill="none" stroke="#000000" stroke-width="0.5" stroke-dasharray="0,3,1,3,1,3,1,3,1,0" points="476.641,384.48 476.641,32.3984"/>
<polyline fill="none" stroke="#000000" stroke-width="0.5" stroke-dasharray="0,3,1,3,1,3,1,3,1,0" points="498.961,384.48 498.961,32.3984"/>
<polyline fill="none" stroke="#000000" stroke-width="0.5" stroke-dasharray="0,3,1,3,1,3,1,3,1,0" points="74.8789,384.48 521.281,384.48"/>
<polyline fill="none" stroke="#000000" stroke-width="0.5" stroke-dasharray="0,3,1,3,1,3,1,3,1,0" points="74.8789,314.062 521.281,314.062"/>
<polyline fill="none" stroke="#000000" stroke-width="0.5" stroke-dasharray="0,3,1,3,1,3,1,3,1,0" points="74.8789,243.648 521.281,243.648"/>
<polyline fill="none" stroke="#000000" stroke-width="0.5" stroke-dasharray="0,3,1,3,1,3,1,3,1,0" points="74.8789,173.23 521.281,173.23"/>
<polyline fill="none" stroke="#000000" stroke-width="0.5" stroke-dasharray="0,3,1,3,1,3,1,3,1,0" points="74.8789,102.816 521.281,102.816"/>
<polyline fill="none" stroke="#000000" stroke-width="0.5" stroke-dasharray="0,3,1,3,1,3,1,3,1,0" points="74.8789,32.3984 521.281,32.3984"/>
<polyline fill="none" stroke="#000000" stroke-width="0.5" stroke-dasharray="16,0" points="74.8789,384.48 81.8867,384.48"/>
<polyline fill="none" stroke="#000000" stroke-width="0.5" stroke-dasharray="16,0" points="521.281,384.48 514.273,384.48"/>
<polyline fill="none" stroke="#000000" stroke-width="0.5" stroke-dasharray="16,0" points="74.8789,314.062 81.8867,314.062"/>
<polyline fill="none" stroke="#000000" stroke-width="0.5" stroke-dasharray="16,0" points="521.281,314.062 514.273,314.062"/>
<polyline fill="none" stroke="#000000" stroke-width="0.5" stroke-dasharray="16,0" points="74.8789,243.648 81.8867,243.648"/>
<polyline fill="none" stroke="#000000" stroke-width="0.5" stroke-dasharray="16,0" points="521.281,243.648 514.273,243.648"/>
<polyline fill="none" stroke="#000000" stroke-width="0.5" stroke-dasharray="16,0" points="74.8789,173.23 81.8867,173.23"/>
<polyline fill="none" stroke="#000000" stroke-width="0.5" stroke-dasharray="16,0" points="521.281,173.23 514.273,173.23"/>
<polyline fill="none" stroke="#000000" stroke-width="0.5" stroke-dasharray="16,0" points="74.8789,102.816 81.8867,102.816"/>
<polyline fill="none" stroke="#000000" stroke-width="0.5" stroke-dasharray="16,0" points="521.281,102.816 514.273,102.816"/>
<polyline fill="none" stroke="#000000" stroke-width="0.5" stroke-dasharray="16,0" points="74.8789,32.3984 81.8867,32.3984"/>
<polyline fill="none" stroke="#000000" stroke-width="0.5" stroke-dasharray="16,0" points="521.281,32.3984 514.273,32.3984"/>
<polyline fill="none" stroke="#000000" stroke-width="0.5" stroke-dasharray="0,3,1,3,1,3,1,3,1,0" points="74.8789,370.398 521.281,370.398"/>
<polyline fill="none" stroke="#000000" stroke-width="0.5" stroke-dasharray="0,3,1,3,1,3,1,3,1,0" points="74.8789,356.312 521.281,356.312"/>
<polyline fill="none" stroke="#000000" stroke-width="0.5" stroke-dasharray="0,3,1,3,1,3,1,3,1,0" points="74.8789,342.23 521.281,342.23"/>
<polyline fill="none" stroke="#000000" stroke-width="0.5" stroke-dasharray="0,3,1,3,1,3,1,3,1,0" points="74.8789,328.148 521.281,328.148"/>
<polyline fill="none" stroke="#000000" stroke-width="0.5" stroke-dasharray="0,3,1,3,1,3,1,3,1,0" points="74.8789,299.98 521.281,299.98"/>
<polyline fill="none" stroke="#000000" stroke-width="0.5" stroke-dasharray="0,3,1,3,1,3,1,3,1,0" points="74.8789,285.898 521.281,285.898"/>
<polyline fill="none" stroke="#000000" stroke-width="0.5" stroke-dasharray="0,3,1,3,1,3,1,3,1,0" points="74.8789,271.812 521.281,271.812"/>
<polyline fill="none" stroke="#000000" stroke-width="0.5" stroke-dasharray="0,3,1,3,1,3,1,3,1,0" points="74.8789,257.73 521.281,257.73"/>
<polyline fill="none" stroke="#000000" stroke-width="0.5" stroke-dasharray="0,3,1,3,1,3,1,3,1,0" points="74.8789,229.566 521.281,229.566"/>
<polyline fill="none" stroke="#000000" stroke-width="0.5" stroke-dasharray="0,3,1,3,1,3,1,3,1,0" points="74.8789,215.48 521.281,215.48"/>
<polyline fill="none" stroke="#000000" stroke-width="0.5" stroke-dasharray="0,3,1,3,1,3,1,3,1,0" points="74.8789,201.398 521.281,201.398"/>
<polyline fill="none" stroke="#000000" stroke-width="0.5" stroke-dasharray="0,3,1,3,1,3,1,3,1,0" points="74.8789,187.316 521.281,187.316"/>
<polyline fill="none" stroke="#000000" stroke-width="0.5" stroke-dasharray="0,3,1,3,1,3,1,3,1,0" points="74.8789,159.148 521.281,159.148"/>
<polyline fill="none" stroke="#000000" stroke-width="0.5" stroke-dasharray="0,3,1,3,1,3,1,3,1,0" points="74.8789,145.066 521.281,145.066"/>
<polyline fill="none" stroke="#000000" stroke-width="0.5" stroke-dasharray="0,3,1,3,1,3,1,3,1,0" points="74.8789,130.98 521.281,130.98"/>
<polyline fill="none" stroke="#000000" stroke-width="0.5" stroke-dasharray="0,3,1,3,1,3,1,3,1,0" points="74.8789,116.898 521.281,116.898"/>
<polyline fill="none" stroke="#000000" stroke-width="0.5" stroke-dasharray="0,3,1,3,1,3,1,3,1,0" points="74.8789,88.7344 521.281,88.7344"/>
<polyline fill="none" stroke="#000000" stroke-width="0.5" stroke-dasharray="0,3,1,3,1,3,1,3,1,0" points="74.8789,74.6484 521.281,74.6484"/>
<polyline fill="none" stroke="#000000" stroke-width="0.5" stroke-dasharray="0,3,1,3,1,3,1,3,1,0" points="74.8789,60.5664 521.281,60.5664"/>
<polyline fill="none" stroke="#000000" stroke-width="0.5" stroke-dasharray="0,3,1,3,1,3,1,3,1,0" points="74.8789,46.4844 521.281,46.4844"/>
<polyline fill="none" stroke="#ff0000" stroke-width="1.5" points="75.9961,193.125 77.1133,215.164 78.2266,292.445 79.3438,284.91 80.4609,279.84 81.5742,295.438 82.6914,274.523 83.8086,292.727 84.9258,280.125 86.0391,290.336 87.1562,199.109 88.2734,223.578 89.3867,205.164 90.5039,257.66 91.6211,252.449 92.7344,338.957 93.8516,317.301 94.9688,325.262 96.0859,308.289 97.1992,316.879 98.3164,317.27 99.4336,234.809 100.547,223.719 101.664,244.492 102.781,227.91 103.895,244.492 105.012,322.23 106.129,333.992 107.242,321.422 108.359,341.031 109.477,326.457 110.594,325.684 111.707,305.93 112.824,321.738 113.941,234.387 115.055,235.762 116.172,223.859 117.289,243.789 118.402,221.219 119.52,235.059 120.637,220.41 121.754,227.348 122.867,233.648 123.984,237.52 125.102,232.062 126.215,234.773 127.332,217.277 128.449,233.473 129.562,208.301 130.68,226.891 131.797,218.828 132.91,226.324 134.027,216.855 135.145,225.164 136.262,191.434 137.375,203.793 138.492,205.836 139.609,214.039 140.723,212.172 141.84,224.602 142.957,204.637 144.07,215.762 145.188,205.516 146.305,303.961 147.422,226.008 148.535,162.246 149.652,134.715 150.77,181.539 151.883,163.621 153,169.957 154.117,142.215 155.23,143.551 156.348,135.242 157.465,151.121 158.578,131.086 159.695,135.277 160.812,125.312 161.93,132.18 163.043,127.391 164.16,150.137 165.277,132.777 166.391,147.035 167.508,140.031 168.625,128.941 169.738,119.469 170.855,136.652 171.973,129.539 173.09,151.121 174.203,157.633 175.32,151.648 176.438,143.199 177.551,157.738 178.668,135.84 179.785,128.977 180.898,143.023 182.016,131.477 183.133,133.977 184.246,125.418 185.363,133.691 186.48,131.336 187.598,135.98 188.711,125.457 189.828,210.551 190.945,220.691 192.059,206.996 193.176,128.766 194.293,149.113 195.406,137.039 196.523,128.34 197.641,142.391 198.758,131.051 199.871,128.445 200.988,145.172 202.105,125.172 203.219,131.191 204.336,144.715 205.453,145.77 206.566,141.508 207.684,133.234 208.801,135.172 209.914,133.094 211.031,169.395 212.148,174.746 213.266,206.117 214.379,134.75 215.496,182.809 216.613,173.266 217.727,142.672 218.844,166.438 219.961,133.977 221.074,127.109 222.191,134.996 223.309,128.414 224.426,159.711 225.539,137.285 226.656,136.688 227.773,139.188 228.887,155.027 230.004,130.945 231.121,152.316 232.234,144.043 233.352,131.688 234.469,125.277 235.586,139.961 236.699,210.234 237.816,206.68 238.934,135.453 240.047,143.621 241.164,137.531 242.281,128.445 243.395,121.547 244.512,114.434 245.629,103.344 246.742,112.852 247.859,109.328 248.977,101.621 250.094,100.773 251.207,102.641 252.324,97.0078 253.441,114.363 254.555,115.457 255.672,113.941 256.789,127.848 257.902,131.125 259.02,117.742 260.137,117.039 261.254,106.617 262.367,134.539 263.484,101.723 264.602,97.8164 265.715,95.5273 266.832,109.398 267.949,90.3867 269.062,96.6211 270.18,99.332 271.297,124.293 272.41,128.48 273.527,126.406 274.645,106.969 275.762,99.8594 276.875,114.75 277.992,110.141 279.109,124.785 280.223,108.801 281.34,110.066 282.457,119.152 283.57,114.926 284.688,102.219 285.805,114.117 286.922,97.8164 288.035,118.941 289.152,99.5078 290.27,119.715 291.383,96.8672 292.5,109.012 293.617,110.246 294.73,132.109 295.848,116.688 296.965,139.188 298.078,121.055 299.195,128.691 300.312,129.293 301.43,131.191 302.543,119.047 303.66,120.277 304.777,119.75 305.891,125.914 307.008,122.957 308.125,127.039 309.238,122.074 310.355,131.441 311.473,134.961 312.59,133.586 313.703,136.441 314.82,124.434 315.938,138.797 317.051,132.039 318.168,137.566 319.285,150.453 320.398,129.996 321.516,212.98 322.633,229.141 323.746,243.016 324.863,140.805 325.98,134.504 327.098,134.012 328.211,144.785 329.328,139.434 330.445,127.461 331.559,136.441 332.676,172.809 333.793,162.105 334.906,179.039 336.023,151.824 337.141,137.812 338.258,147.707 339.371,156.859 340.488,182.457 341.605,156.648 342.719,176.188 343.836,160.77 344.953,162.246 346.066,151.613 347.184,156.895 348.301,162.738 349.414,153.656 350.531,158.867 351.648,175.027 352.766,184.145 353.879,193.301 354.996,178.055 356.113,183.336 357.227,173.512 358.344,178.23 359.461,185.906 360.574,245.797 361.691,232.805 362.809,254.844 363.926,227.734 365.039,234.176 366.156,236.605 367.273,232.805 368.387,309.027 369.504,327.973 370.621,237.309 371.734,220.551 372.852,229.391 373.969,218.754 375.082,218.121 376.199,216.574 377.316,219.531 378.434,206.188 379.547,229.246 380.664,220.164 381.781,229.246 382.895,213.723 384.012,219.496 385.129,211.715 386.242,233.227 387.359,225.305 388.477,215.973 389.594,234.773 390.707,217.559 391.824,211.469 392.941,264.773 394.055,275.547 395.172,263.363 396.289,237.453 397.402,233.93 398.52,232.523 399.637,240.973 400.75,242.133 401.867,224.32 402.984,225.656 404.102,226.078 405.215,257.098 406.332,247.203 407.449,226.852 408.562,214.566 409.68,242.73 410.797,233.438 411.91,248.508 413.027,224 414.145,240.516 415.262,237.273 416.375,320.754 417.492,307.586 418.609,226.957 419.723,213.332 420.84,216.996 421.957,221.852 423.07,215.797 424.188,213.789 425.305,223.895 426.422,209.285 427.535,211.996 428.652,205.375 429.77,207.945 430.883,202.137 432,212.242 433.117,199.777 434.23,223.824 435.348,216.75 436.465,210.551 437.578,199.391 438.695,218.863 439.812,205.094 440.93,212.98 442.043,208.477 443.16,216.043 444.277,215.27 445.391,204.32 446.508,201.82 447.625,206.82 448.738,196.047 449.855,196.539 450.973,287.199 452.09,264.031 453.203,303.961 454.32,295.191 455.438,268.469 456.551,260.898 457.668,269.277 458.785,307.938 459.898,265.441 461.016,188.688 462.133,203.758 463.246,187.527 464.363,176.258 465.48,191.047 466.598,261.922 467.711,261.641 468.828,189.355 469.945,196.469 471.059,186.855 472.176,211.785 473.293,190.133 474.406,211.574 475.523,192.738"/>
<polyline fill="none" stroke="#000000" stroke-width="0.5" stroke-dasharray="16,0" points="521.281,384.48 521.281,384.48"/>
<polyline fill="none" stroke="#000000" stroke-width="0.5" stroke-dasharray="16,0" points="74.8789,384.48 74.8789,384.48"/>
<polyline fill="none" stroke="#000000" stroke-width="0.5" stroke-dasharray="16,0" points="74.8789,32.3984 74.8789,32.3984"/>
<polyline fill="none" stroke="#000000" stroke-width="0.5" stroke-dasharray="16,0" points="521.281,32.3984 521.281,32.3984"/>
<text fill="#000000" x="298.08" y="22.4001" font-size="10" text-anchor="middle" baseline-shift="0" font-family="Helvetica">Coffee Machine Lavazza (RMS voltage)</text>
<polyline fill="none" stroke="#000000" stroke-width="0.5" stroke-dasharray="16,0" points="521.281,384.48 521.281,32.3984"/>
<polyline fill="none" stroke="#000000" stroke-width="0.5" stroke-dasharray="16,0" points="74.8789,384.48 74.8789,32.3984 521.281,32.3984"/>
<polyline fill="none" stroke="#000000" stroke-width="0.5" stroke-dasharray="16,0" points="74.8789,384.48 521.281,384.48"/>
</g>
</svg>
