<?xml version="1.0" encoding="UTF-8" standalone="no"?>
<svg xmlns="http://www.w3.org/2000/svg"
     xmlns:xlink="http://www.w3.org/1999/xlink"
     width="576px" height="432px" viewBox="0 0 576 432">
<title>glps_renderer figure</title>
<desc>
Creator: GL2PS 1.3.5, (C) 1999-2009 C. Geuzaine
For: Octave
CreationDate: Tue Jan 31 12:13:04 2012
</desc>
<defs>
</defs>
<g shape-rendering="crispEdges">
<text fill="#000000" x="298.08" y="389.481" font-size="10" text-anchor="middle" baseline-shift="-10" font-family="Helvetica">200</text>
<text fill="#000000" x="409.68" y="389.481" font-size="10" text-anchor="middle" baseline-shift="-10" font-family="Helvetica">300</text>
<text fill="#000000" x="521.28" y="389.481" font-size="10" text-anchor="middle" baseline-shift="-10" font-family="Helvetica">400</text>
<text fill="#000000" x="69.8755" y="384.48" font-size="10" text-anchor="end" baseline-shift="-5" font-family="Helvetica">222</text>
<text fill="#000000" x="69.8755" y="296.46" font-size="10" text-anchor="end" baseline-shift="-5" font-family="Helvetica">224</text>
<text fill="#000000" x="69.8755" y="208.44" font-size="10" text-anchor="end" baseline-shift="-5" font-family="Helvetica">226</text>
<text fill="#000000" x="74.88" y="389.481" font-size="10" text-anchor="middle" baseline-shift="-10" font-family="Helvetica">0</text>
<text fill="#000000" x="186.48" y="389.481" font-size="10" text-anchor="middle" baseline-shift="-10" font-family="Helvetica">100</text>
<text fill="#000000" x="69.8755" y="120.42" font-size="10" text-anchor="end" baseline-shift="-5" font-family="Helvetica">228</text>
<text fill="#000000" x="69.8755" y="32.4" font-size="10" text-anchor="end" baseline-shift="-5" font-family="Helvetica">230</text>
<text fill="#000000" x="298.08" y="402.481" font-size="10" text-anchor="middle" baseline-shift="-10" font-family="Helvetica">time (10 seconds per unit)</text>
<text fill="#000000" x="51.8755" y="208.44" font-size="10" transform="rotate(-90, 51.8755, 208.44)" text-anchor="middle" baseline-shift="0" font-family="Helvetica">volt (V)</text>
<polyline fill="none" stroke="#000000" stroke-width="0.5" stroke-dasharray="16,0" points="74.8789,32.3984 521.281,32.3984"/>
<polyline fill="none" stroke="#000000" stroke-width="0.5" stroke-dasharray="16,0" points="74.8789,384.48 74.8789,32.3984"/>
<polyline fill="none" stroke="#000000" stroke-width="0.5" stroke-dasharray="16,0" points="521.281,384.48 521.281,32.3984"/>
<polyline fill="none" stroke="#000000" stroke-width="0.5" stroke-dasharray="0,3,1,3,1,3,1,3,1,0" points="74.8789,384.48 74.8789,32.3984"/>
<polyline fill="none" stroke="#000000" stroke-width="0.5" stroke-dasharray="0,3,1,3,1,3,1,3,1,0" points="186.48,384.48 186.48,32.3984"/>
<polyline fill="none" stroke="#000000" stroke-width="0.5" stroke-dasharray="0,3,1,3,1,3,1,3,1,0" points="298.078,384.48 298.078,32.3984"/>
<polyline fill="none" stroke="#000000" stroke-width="0.5" stroke-dasharray="0,3,1,3,1,3,1,3,1,0" points="409.68,384.48 409.68,32.3984"/>
<polyline fill="none" stroke="#000000" stroke-width="0.5" stroke-dasharray="16,0" points="74.8789,384.48 521.281,384.48"/>
<polyline fill="none" stroke="#000000" stroke-width="0.5" stroke-dasharray="0,3,1,3,1,3,1,3,1,0" points="521.281,384.48 521.281,32.3984"/>
<polyline fill="none" stroke="#000000" stroke-width="0.5" stroke-dasharray="16,0" points="74.8789,384.48 74.8789,377.477"/>
<polyline fill="none" stroke="#000000" stroke-width="0.5" stroke-dasharray="16,0" points="74.8789,32.3984 74.8789,39.4023"/>
<polyline fill="none" stroke="#000000" stroke-width="0.5" stroke-dasharray="16,0" points="186.48,384.48 186.48,377.477"/>
<polyline fill="none" stroke="#000000" stroke-width="0.5" stroke-dasharray="16,0" points="186.48,32.3984 186.48,39.4023"/>
<polyline fill="none" stroke="#000000" stroke-width="0.5" stroke-dasharray="16,0" points="298.078,384.48 298.078,377.477"/>
<polyline fill="none" stroke="#000000" stroke-width="0.5" stroke-dasharray="16,0" points="298.078,32.3984 298.078,39.4023"/>
<polyline fill="none" stroke="#000000" stroke-width="0.5" stroke-dasharray="16,0" points="409.68,384.48 409.68,377.477"/>
<polyline fill="none" stroke="#000000" stroke-width="0.5" stroke-dasharray="16,0" points="409.68,32.3984 409.68,39.4023"/>
<polyline fill="none" stroke="#000000" stroke-width="0.5" stroke-dasharray="16,0" points="521.281,384.48 521.281,377.477"/>
<polyline fill="none" stroke="#000000" stroke-width="0.5" stroke-dasharray="16,0" points="521.281,32.3984 521.281,39.4023"/>
<polyline fill="none" stroke="#000000" stroke-width="0.5" stroke-dasharray="0,3,1,3,1,3,1,3,1,0" points="97.1992,384.48 97.1992,32.3984"/>
<polyline fill="none" stroke="#000000" stroke-width="0.5" stroke-dasharray="0,3,1,3,1,3,1,3,1,0" points="119.52,384.48 119.52,32.3984"/>
<polyline fill="none" stroke="#000000" stroke-width="0.5" stroke-dasharray="0,3,1,3,1,3,1,3,1,0" points="141.84,384.48 141.84,32.3984"/>
<polyline fill="none" stroke="#000000" stroke-width="0.5" stroke-dasharray="0,3,1,3,1,3,1,3,1,0" points="164.16,384.48 164.16,32.3984"/>
<polyline fill="none" stroke="#000000" stroke-width="0.5" stroke-dasharray="0,3,1,3,1,3,1,3,1,0" points="208.801,384.48 208.801,32.3984"/>
<polyline fill="none" stroke="#000000" stroke-width="0.5" stroke-dasharray="0,3,1,3,1,3,1,3,1,0" points="231.121,384.48 231.121,32.3984"/>
<polyline fill="none" stroke="#000000" stroke-width="0.5" stroke-dasharray="0,3,1,3,1,3,1,3,1,0" points="253.441,384.48 253.441,32.3984"/>
<polyline fill="none" stroke="#000000" stroke-width="0.5" stroke-dasharray="0,3,1,3,1,3,1,3,1,0" points="275.762,384.48 275.762,32.3984"/>
<polyline fill="none" stroke="#000000" stroke-width="0.5" stroke-dasharray="0,3,1,3,1,3,1,3,1,0" points="320.398,384.48 320.398,32.3984"/>
<polyline fill="none" stroke="#000000" stroke-width="0.5" stroke-dasharray="0,3,1,3,1,3,1,3,1,0" points="342.719,384.48 342.719,32.3984"/>
<polyline fill="none" stroke="#000000" stroke-width="0.5" stroke-dasharray="0,3,1,3,1,3,1,3,1,0" points="365.039,384.48 365.039,32.3984"/>
<polyline fill="none" stroke="#000000" stroke-width="0.5" stroke-dasharray="0,3,1,3,1,3,1,3,1,0" points="387.359,384.48 387.359,32.3984"/>
<polyline fill="none" stroke="#000000" stroke-width="0.5" stroke-dasharray="0,3,1,3,1,3,1,3,1,0" points="432,384.48 432,32.3984"/>
<polyline fill="none" stroke="#000000" stroke-width="0.5" stroke-dasharray="0,3,1,3,1,3,1,3,1,0" points="454.32,384.48 454.32,32.3984"/>
<polyline fill="none" stroke="#000000" stroke-width="0.5" stroke-dasharray="0,3,1,3,1,3,1,3,1,0" points="476.641,384.48 476.641,32.3984"/>
<polyline fill="none" stroke="#000000" stroke-width="0.5" stroke-dasharray="0,3,1,3,1,3,1,3,1,0" points="498.961,384.48 498.961,32.3984"/>
<polyline fill="none" stroke="#000000" stroke-width="0.5" stroke-dasharray="0,3,1,3,1,3,1,3,1,0" points="74.8789,384.48 521.281,384.48"/>
<polyline fill="none" stroke="#000000" stroke-width="0.5" stroke-dasharray="0,3,1,3,1,3,1,3,1,0" points="74.8789,296.461 521.281,296.461"/>
<polyline fill="none" stroke="#000000" stroke-width="0.5" stroke-dasharray="0,3,1,3,1,3,1,3,1,0" points="74.8789,208.441 521.281,208.441"/>
<polyline fill="none" stroke="#000000" stroke-width="0.5" stroke-dasharray="0,3,1,3,1,3,1,3,1,0" points="74.8789,120.422 521.281,120.422"/>
<polyline fill="none" stroke="#000000" stroke-width="0.5" stroke-dasharray="0,3,1,3,1,3,1,3,1,0" points="74.8789,32.3984 521.281,32.3984"/>
<polyline fill="none" stroke="#000000" stroke-width="0.5" stroke-dasharray="16,0" points="74.8789,384.48 81.8867,384.48"/>
<polyline fill="none" stroke="#000000" stroke-width="0.5" stroke-dasharray="16,0" points="521.281,384.48 514.273,384.48"/>
<polyline fill="none" stroke="#000000" stroke-width="0.5" stroke-dasharray="16,0" points="74.8789,296.461 81.8867,296.461"/>
<polyline fill="none" stroke="#000000" stroke-width="0.5" stroke-dasharray="16,0" points="521.281,296.461 514.273,296.461"/>
<polyline fill="none" stroke="#000000" stroke-width="0.5" stroke-dasharray="16,0" points="74.8789,208.441 81.8867,208.441"/>
<polyline fill="none" stroke="#000000" stroke-width="0.5" stroke-dasharray="16,0" points="521.281,208.441 514.273,208.441"/>
<polyline fill="none" stroke="#000000" stroke-width="0.5" stroke-dasharray="16,0" points="74.8789,120.422 81.8867,120.422"/>
<polyline fill="none" stroke="#000000" stroke-width="0.5" stroke-dasharray="16,0" points="521.281,120.422 514.273,120.422"/>
<polyline fill="none" stroke="#000000" stroke-width="0.5" stroke-dasharray="16,0" points="74.8789,32.3984 81.8867,32.3984"/>
<polyline fill="none" stroke="#000000" stroke-width="0.5" stroke-dasharray="16,0" points="521.281,32.3984 514.273,32.3984"/>
<polyline fill="none" stroke="#000000" stroke-width="0.5" stroke-dasharray="0,3,1,3,1,3,1,3,1,0" points="74.8789,366.875 521.281,366.875"/>
<polyline fill="none" stroke="#000000" stroke-width="0.5" stroke-dasharray="0,3,1,3,1,3,1,3,1,0" points="74.8789,349.273 521.281,349.273"/>
<polyline fill="none" stroke="#000000" stroke-width="0.5" stroke-dasharray="0,3,1,3,1,3,1,3,1,0" points="74.8789,331.668 521.281,331.668"/>
<polyline fill="none" stroke="#000000" stroke-width="0.5" stroke-dasharray="0,3,1,3,1,3,1,3,1,0" points="74.8789,314.062 521.281,314.062"/>
<polyline fill="none" stroke="#000000" stroke-width="0.5" stroke-dasharray="0,3,1,3,1,3,1,3,1,0" points="74.8789,278.855 521.281,278.855"/>
<polyline fill="none" stroke="#000000" stroke-width="0.5" stroke-dasharray="0,3,1,3,1,3,1,3,1,0" points="74.8789,261.25 521.281,261.25"/>
<polyline fill="none" stroke="#000000" stroke-width="0.5" stroke-dasharray="0,3,1,3,1,3,1,3,1,0" points="74.8789,243.648 521.281,243.648"/>
<polyline fill="none" stroke="#000000" stroke-width="0.5" stroke-dasharray="0,3,1,3,1,3,1,3,1,0" points="74.8789,226.043 521.281,226.043"/>
<polyline fill="none" stroke="#000000" stroke-width="0.5" stroke-dasharray="0,3,1,3,1,3,1,3,1,0" points="74.8789,190.836 521.281,190.836"/>
<polyline fill="none" stroke="#000000" stroke-width="0.5" stroke-dasharray="0,3,1,3,1,3,1,3,1,0" points="74.8789,173.234 521.281,173.234"/>
<polyline fill="none" stroke="#000000" stroke-width="0.5" stroke-dasharray="0,3,1,3,1,3,1,3,1,0" points="74.8789,155.629 521.281,155.629"/>
<polyline fill="none" stroke="#000000" stroke-width="0.5" stroke-dasharray="0,3,1,3,1,3,1,3,1,0" points="74.8789,138.023 521.281,138.023"/>
<polyline fill="none" stroke="#000000" stroke-width="0.5" stroke-dasharray="0,3,1,3,1,3,1,3,1,0" points="74.8789,102.816 521.281,102.816"/>
<polyline fill="none" stroke="#000000" stroke-width="0.5" stroke-dasharray="0,3,1,3,1,3,1,3,1,0" points="74.8789,85.2109 521.281,85.2109"/>
<polyline fill="none" stroke="#000000" stroke-width="0.5" stroke-dasharray="0,3,1,3,1,3,1,3,1,0" points="74.8789,67.6094 521.281,67.6094"/>
<polyline fill="none" stroke="#000000" stroke-width="0.5" stroke-dasharray="0,3,1,3,1,3,1,3,1,0" points="74.8789,50.0039 521.281,50.0039"/>
<polyline fill="none" stroke="#ff0000" stroke-width="1.5" points="75.9961,247.785 77.1133,237.266 78.2266,303.988 79.3438,345.137 80.4609,324.625 81.5742,340.516 82.6914,252.273 83.8086,252.363 84.9258,269.395 86.0391,261.25 87.1562,178.996 88.2734,159.105 89.3867,163.859 90.5039,143.656 91.6211,155.41 92.7344,175.609 93.8516,152.105 94.9688,172.395 96.0859,153.559 97.1992,258.082 98.3164,247.168 99.4336,216.758 100.547,245.98 101.664,217.242 102.781,178.516 103.895,161.703 105.012,141.105 106.129,308.035 107.242,276.348 108.359,303.898 109.477,248.84 110.594,279.867 111.707,338.578 112.824,332.418 113.941,322.953 115.055,340.336 116.172,359.352 117.289,238.895 118.402,261.781 119.52,274.191 120.637,166.145 121.754,206.504 122.867,186.082 123.984,206.109 125.102,194.18 126.215,168.699 127.332,193.391 128.449,173.805 129.562,180.625 130.68,161.262 131.797,174.246 132.91,200.52 134.027,216.848 135.145,223.359 136.262,234.539 137.375,222.258 138.492,219.84 139.609,311.117 140.723,320.84 141.84,316.484 142.957,333.121 144.07,321.238 145.188,309.84 146.305,258.172 147.422,238.762 148.535,263.629 149.652,156.023 150.77,164.562 151.883,167.906 153,152.195 154.117,197.922 155.23,236.562 156.348,238.809 157.465,241.051 158.578,166.457 159.695,193.035 160.812,163.199 161.93,86.1367 163.043,80.8984 164.16,81.3828 165.277,230.887 166.391,221.379 167.508,237.664 168.625,87.1055 169.738,103.168 170.855,85.6523 171.973,156.246 173.09,261.383 174.203,237.312 175.32,266.445 176.438,250.25 177.551,252.848 178.668,231.191 179.785,202.234 180.898,183.574 182.016,209.938 183.133,129.617 184.246,86.6641 185.363,102.066 186.48,90.8008 187.598,77.9062 188.711,93.5742 189.828,85.8281 190.945,157.566 192.059,137.32 193.176,146.211 194.293,154.395 195.406,135.031 196.523,167.027 197.641,72.0977 198.758,94.1484 199.871,163.418 200.988,142.469 202.105,162.492 203.219,146.781 204.336,160.645 205.453,148.938 206.566,133.094 207.684,118.309 208.801,97.8438 209.914,105.809 211.031,103.477 212.148,208.836 213.266,189.605 214.379,137.012 215.496,149.246 216.613,148.148 217.727,157.434 218.844,139.961 219.961,158.883 221.074,67.918 222.191,59.9492 223.309,73.6367 224.426,44.5039 225.539,98.4141 226.656,120.598 227.773,152.855 228.887,178.559 230.004,169.625 231.121,109.152 232.234,128.121 233.352,114.434 234.469,127.418 235.586,123.633 236.699,105.984 237.816,128.211 238.934,122.664 240.047,129.969 241.164,118.133 242.281,163.859 243.395,136.703 244.512,137.012 245.629,149.293 246.742,140.578 247.859,135.734 248.977,158.402 250.094,133.227 251.207,130.586 252.324,116.062 253.441,132.832 254.555,116.238 255.672,155.453 256.789,176.93 257.902,158.488 259.02,154.441 260.137,165.441 261.254,164.652 262.367,183.488 263.484,141.191 264.602,61.8008 265.715,118.441 266.832,102.816 267.949,118.57 269.062,99.6914 270.18,106.645 271.297,107.086 272.41,82.4844 273.527,108.492 274.645,76.9375 275.762,98.5898 276.875,106.688 277.992,59.5547 279.109,94.543 280.223,79.2266 281.34,103.566 282.457,116.152 283.57,92.1641 284.688,120.551 285.805,116.77 286.922,116.77 288.035,95.9492 289.152,100.57 290.27,112.895 291.383,108.055 292.5,108.844 293.617,85.4766 294.73,74.2969 295.848,91.0195 296.965,67.168 298.078,70.4688 299.195,53.5703 300.312,61.668 301.43,54.4492 302.543,55.9883 303.66,81.6016 304.777,68.3984 305.891,76.6758 307.008,68.2695 308.125,58.2344 309.238,65.5391 310.355,163.199 311.473,148.586 312.59,153.957 313.703,154.527 314.82,162.449 315.938,168.699 317.051,153.207 318.168,165.793 319.285,174.641 320.398,155.277 321.516,163.684 322.633,187.094 323.746,166.629 324.863,60.3008 325.98,50.0938 327.098,74.2969 328.211,78.5664 329.328,59.5977 330.445,63.3828 331.559,66.7734 332.676,67.5195 333.793,58.9375 334.906,52.293 336.023,59.4648 337.141,82.043 338.258,52.2031 339.371,71.1289 340.488,64.1289 341.605,48.4219 342.719,53.4805 343.836,43.8867 344.953,50.707 346.066,50.3555 347.184,53.9219 348.301,151.008 349.414,162.23 350.531,144.055 351.648,160.469 352.766,153.516 353.879,198.188 354.996,204.875 356.113,200.387 357.227,175.125 358.344,89.6562 359.461,78.082 360.574,72.8008 361.691,63.2969 362.809,59.9961 363.926,87.0156 365.039,76.1445 366.156,86.7969 367.273,83.4062 368.387,92.2539 369.504,98.4609 370.621,73.5078 371.734,84.1562 372.852,96.0391 373.969,92.7383 375.082,87.5 376.199,94.9805 377.316,98.2812 378.434,90.7148 379.547,55.6836 380.664,54.0547 381.781,81.25 382.895,75.75 384.012,171.867 385.129,170.68 386.242,185.293 387.359,172.309 388.477,169.402 389.594,184.277 390.707,187.402 391.824,198.098 392.941,192.246 394.055,88.9531 395.172,82.3086 396.289,89.7461 397.402,89.1719 398.52,113.422 399.637,98.6367 400.75,87.6758 401.867,95.2031 402.984,89.2617 404.102,97.0938 405.215,90.0977 406.332,86.4453 407.449,70.6875 408.562,64.7031 409.68,77.7305 410.797,87.1484 411.91,104.84 413.027,101.672 414.145,107.219 415.262,109.285 416.375,145.328 417.492,129.133 418.609,85.5195 419.723,90.582 420.84,92.6055 421.957,109.812 423.07,118.527 424.188,102.992 425.305,115.977 426.422,215.438 427.535,201.309 428.652,215.703 429.77,211.652 430.883,125.262 432,118.484 433.117,116.285 434.23,104.93 435.348,107.172 436.465,100.219 437.578,120.066 438.695,118.66 439.812,121.211 440.93,137.059 442.043,124.512 443.16,115.184 444.277,121.918 445.391,97.6211 446.508,123.898 447.625,200.914 448.738,179.086 449.855,195.547 450.973,185.82 452.09,182.344 453.203,207.605 454.32,196.645 455.438,126.141 456.551,108.406 457.668,124.953 458.785,121.785 459.898,124.027 461.016,125.656 462.133,109.727 463.246,104.445 464.363,110.078 465.48,109.066 466.598,182.297 467.711,204.742 468.828,199.375 469.945,187.887"/>
<polyline fill="none" stroke="#000000" stroke-width="0.5" stroke-dasharray="16,0" points="521.281,384.48 521.281,384.48"/>
<polyline fill="none" stroke="#000000" stroke-width="0.5" stroke-dasharray="16,0" points="74.8789,384.48 74.8789,384.48"/>
<polyline fill="none" stroke="#000000" stroke-width="0.5" stroke-dasharray="16,0" points="74.8789,32.3984 74.8789,32.3984"/>
<polyline fill="none" stroke="#000000" stroke-width="0.5" stroke-dasharray="16,0" points="521.281,32.3984 521.281,32.3984"/>
<text fill="#000000" x="298.08" y="22.4001" font-size="10" text-anchor="middle" baseline-shift="0" font-family="Helvetica">Coffee Machine Lavazza (RMS voltage)</text>
<polyline fill="none" stroke="#000000" stroke-width="0.5" stroke-dasharray="16,0" points="521.281,384.48 521.281,32.3984"/>
<polyline fill="none" stroke="#000000" stroke-width="0.5" stroke-dasharray="16,0" points="74.8789,384.48 74.8789,32.3984 521.281,32.3984"/>
<polyline fill="none" stroke="#000000" stroke-width="0.5" stroke-dasharray="16,0" points="74.8789,384.48 521.281,384.48"/>
</g>
</svg>
