<?xml version="1.0" encoding="UTF-8" standalone="no"?>
<svg xmlns="http://www.w3.org/2000/svg"
     xmlns:xlink="http://www.w3.org/1999/xlink"
     width="560px" height="420px" viewBox="0 0 560 420">
<title>glps_renderer figure</title>
<desc>
Creator: GL2PS 1.3.5, (C) 1999-2009 C. Geuzaine
For: Octave
CreationDate: Fri Dec 23 15:25:33 2011
</desc>
<defs>
</defs>
<g shape-rendering="crispEdges">
<text fill="#000000" x="289.8" y="378.804" font-size="10" text-anchor="middle" baseline-shift="-10" font-family="Helvetica">200</text>
<text fill="#000000" x="398.3" y="378.804" font-size="10" text-anchor="middle" baseline-shift="-10" font-family="Helvetica">300</text>
<text fill="#000000" x="506.8" y="378.804" font-size="10" text-anchor="middle" baseline-shift="-10" font-family="Helvetica">400</text>
<text fill="#000000" x="67.8" y="373.8" font-size="10" text-anchor="end" baseline-shift="-5" font-family="Helvetica">0</text>
<text fill="#000000" x="67.8" y="324.9" font-size="10" text-anchor="end" baseline-shift="-5" font-family="Helvetica">1</text>
<text fill="#000000" x="67.8" y="276" font-size="10" text-anchor="end" baseline-shift="-5" font-family="Helvetica">2</text>
<text fill="#000000" x="72.8" y="378.804" font-size="10" text-anchor="middle" baseline-shift="-10" font-family="Helvetica">0</text>
<text fill="#000000" x="181.3" y="378.804" font-size="10" text-anchor="middle" baseline-shift="-10" font-family="Helvetica">100</text>
<text fill="#000000" x="67.8" y="227.1" font-size="10" text-anchor="end" baseline-shift="-5" font-family="Helvetica">3</text>
<text fill="#000000" x="67.8" y="178.2" font-size="10" text-anchor="end" baseline-shift="-5" font-family="Helvetica">4</text>
<text fill="#000000" x="67.8" y="129.3" font-size="10" text-anchor="end" baseline-shift="-5" font-family="Helvetica">5</text>
<text fill="#000000" x="67.8" y="80.4" font-size="10" text-anchor="end" baseline-shift="-5" font-family="Helvetica">6</text>
<text fill="#000000" x="67.8" y="31.5" font-size="10" text-anchor="end" baseline-shift="-5" font-family="Helvetica">7</text>
<text fill="#000000" x="289.8" y="391.804" font-size="10" text-anchor="middle" baseline-shift="-10" font-family="Helvetica">time (10 seconds per unit)</text>
<text fill="#000000" x="61.8" y="202.65" font-size="10" transform="rotate(-90, 61.8, 202.65)" text-anchor="middle" baseline-shift="0" font-family="Helvetica">ampere (A)</text>
<polyline fill="none" stroke="#000000" stroke-width="0.5" stroke-dasharray="16,0" points="72.8008,31.5 506.801,31.5"/>
<polyline fill="none" stroke="#000000" stroke-width="0.5" stroke-dasharray="16,0" points="72.8008,373.801 72.8008,31.5"/>
<polyline fill="none" stroke="#000000" stroke-width="0.5" stroke-dasharray="16,0" points="506.801,373.801 506.801,31.5"/>
<polyline fill="none" stroke="#000000" stroke-width="0.5" stroke-dasharray="0,3,1,3,1,3,1,3,1,0" points="72.8008,373.801 72.8008,31.5"/>
<polyline fill="none" stroke="#000000" stroke-width="0.5" stroke-dasharray="0,3,1,3,1,3,1,3,1,0" points="181.301,373.801 181.301,31.5"/>
<polyline fill="none" stroke="#000000" stroke-width="0.5" stroke-dasharray="0,3,1,3,1,3,1,3,1,0" points="289.801,373.801 289.801,31.5"/>
<polyline fill="none" stroke="#000000" stroke-width="0.5" stroke-dasharray="0,3,1,3,1,3,1,3,1,0" points="398.301,373.801 398.301,31.5"/>
<polyline fill="none" stroke="#000000" stroke-width="0.5" stroke-dasharray="16,0" points="72.8008,373.801 506.801,373.801"/>
<polyline fill="none" stroke="#000000" stroke-width="0.5" stroke-dasharray="0,3,1,3,1,3,1,3,1,0" points="506.801,373.801 506.801,31.5"/>
<polyline fill="none" stroke="#000000" stroke-width="0.5" stroke-dasharray="16,0" points="72.8008,373.801 72.8008,366.793"/>
<polyline fill="none" stroke="#000000" stroke-width="0.5" stroke-dasharray="16,0" points="72.8008,31.5 72.8008,38.5078"/>
<polyline fill="none" stroke="#000000" stroke-width="0.5" stroke-dasharray="16,0" points="181.301,373.801 181.301,366.793"/>
<polyline fill="none" stroke="#000000" stroke-width="0.5" stroke-dasharray="16,0" points="181.301,31.5 181.301,38.5078"/>
<polyline fill="none" stroke="#000000" stroke-width="0.5" stroke-dasharray="16,0" points="289.801,373.801 289.801,366.793"/>
<polyline fill="none" stroke="#000000" stroke-width="0.5" stroke-dasharray="16,0" points="289.801,31.5 289.801,38.5078"/>
<polyline fill="none" stroke="#000000" stroke-width="0.5" stroke-dasharray="16,0" points="398.301,373.801 398.301,366.793"/>
<polyline fill="none" stroke="#000000" stroke-width="0.5" stroke-dasharray="16,0" points="398.301,31.5 398.301,38.5078"/>
<polyline fill="none" stroke="#000000" stroke-width="0.5" stroke-dasharray="16,0" points="506.801,373.801 506.801,366.793"/>
<polyline fill="none" stroke="#000000" stroke-width="0.5" stroke-dasharray="16,0" points="506.801,31.5 506.801,38.5078"/>
<polyline fill="none" stroke="#000000" stroke-width="0.5" stroke-dasharray="0,3,1,3,1,3,1,3,1,0" points="94.5,373.801 94.5,31.5"/>
<polyline fill="none" stroke="#000000" stroke-width="0.5" stroke-dasharray="0,3,1,3,1,3,1,3,1,0" points="116.199,373.801 116.199,31.5"/>
<polyline fill="none" stroke="#000000" stroke-width="0.5" stroke-dasharray="0,3,1,3,1,3,1,3,1,0" points="137.898,373.801 137.898,31.5"/>
<polyline fill="none" stroke="#000000" stroke-width="0.5" stroke-dasharray="0,3,1,3,1,3,1,3,1,0" points="159.602,373.801 159.602,31.5"/>
<polyline fill="none" stroke="#000000" stroke-width="0.5" stroke-dasharray="0,3,1,3,1,3,1,3,1,0" points="203,373.801 203,31.5"/>
<polyline fill="none" stroke="#000000" stroke-width="0.5" stroke-dasharray="0,3,1,3,1,3,1,3,1,0" points="224.699,373.801 224.699,31.5"/>
<polyline fill="none" stroke="#000000" stroke-width="0.5" stroke-dasharray="0,3,1,3,1,3,1,3,1,0" points="246.398,373.801 246.398,31.5"/>
<polyline fill="none" stroke="#000000" stroke-width="0.5" stroke-dasharray="0,3,1,3,1,3,1,3,1,0" points="268.102,373.801 268.102,31.5"/>
<polyline fill="none" stroke="#000000" stroke-width="0.5" stroke-dasharray="0,3,1,3,1,3,1,3,1,0" points="311.5,373.801 311.5,31.5"/>
<polyline fill="none" stroke="#000000" stroke-width="0.5" stroke-dasharray="0,3,1,3,1,3,1,3,1,0" points="333.199,373.801 333.199,31.5"/>
<polyline fill="none" stroke="#000000" stroke-width="0.5" stroke-dasharray="0,3,1,3,1,3,1,3,1,0" points="354.898,373.801 354.898,31.5"/>
<polyline fill="none" stroke="#000000" stroke-width="0.5" stroke-dasharray="0,3,1,3,1,3,1,3,1,0" points="376.602,373.801 376.602,31.5"/>
<polyline fill="none" stroke="#000000" stroke-width="0.5" stroke-dasharray="0,3,1,3,1,3,1,3,1,0" points="420,373.801 420,31.5"/>
<polyline fill="none" stroke="#000000" stroke-width="0.5" stroke-dasharray="0,3,1,3,1,3,1,3,1,0" points="441.699,373.801 441.699,31.5"/>
<polyline fill="none" stroke="#000000" stroke-width="0.5" stroke-dasharray="0,3,1,3,1,3,1,3,1,0" points="463.398,373.801 463.398,31.5"/>
<polyline fill="none" stroke="#000000" stroke-width="0.5" stroke-dasharray="0,3,1,3,1,3,1,3,1,0" points="485.102,373.801 485.102,31.5"/>
<polyline fill="none" stroke="#000000" stroke-width="0.5" stroke-dasharray="0,3,1,3,1,3,1,3,1,0" points="72.8008,373.801 506.801,373.801"/>
<polyline fill="none" stroke="#000000" stroke-width="0.5" stroke-dasharray="0,3,1,3,1,3,1,3,1,0" points="72.8008,324.898 506.801,324.898"/>
<polyline fill="none" stroke="#000000" stroke-width="0.5" stroke-dasharray="0,3,1,3,1,3,1,3,1,0" points="72.8008,276 506.801,276"/>
<polyline fill="none" stroke="#000000" stroke-width="0.5" stroke-dasharray="0,3,1,3,1,3,1,3,1,0" points="72.8008,227.102 506.801,227.102"/>
<polyline fill="none" stroke="#000000" stroke-width="0.5" stroke-dasharray="0,3,1,3,1,3,1,3,1,0" points="72.8008,178.199 506.801,178.199"/>
<polyline fill="none" stroke="#000000" stroke-width="0.5" stroke-dasharray="0,3,1,3,1,3,1,3,1,0" points="72.8008,129.301 506.801,129.301"/>
<polyline fill="none" stroke="#000000" stroke-width="0.5" stroke-dasharray="0,3,1,3,1,3,1,3,1,0" points="72.8008,80.3984 506.801,80.3984"/>
<polyline fill="none" stroke="#000000" stroke-width="0.5" stroke-dasharray="0,3,1,3,1,3,1,3,1,0" points="72.8008,31.5 506.801,31.5"/>
<polyline fill="none" stroke="#000000" stroke-width="0.5" stroke-dasharray="16,0" points="72.8008,373.801 79.8008,373.801"/>
<polyline fill="none" stroke="#000000" stroke-width="0.5" stroke-dasharray="16,0" points="506.801,373.801 499.801,373.801"/>
<polyline fill="none" stroke="#000000" stroke-width="0.5" stroke-dasharray="16,0" points="72.8008,324.898 79.8008,324.898"/>
<polyline fill="none" stroke="#000000" stroke-width="0.5" stroke-dasharray="16,0" points="506.801,324.898 499.801,324.898"/>
<polyline fill="none" stroke="#000000" stroke-width="0.5" stroke-dasharray="16,0" points="72.8008,276 79.8008,276"/>
<polyline fill="none" stroke="#000000" stroke-width="0.5" stroke-dasharray="16,0" points="506.801,276 499.801,276"/>
<polyline fill="none" stroke="#000000" stroke-width="0.5" stroke-dasharray="16,0" points="72.8008,227.102 79.8008,227.102"/>
<polyline fill="none" stroke="#000000" stroke-width="0.5" stroke-dasharray="16,0" points="506.801,227.102 499.801,227.102"/>
<polyline fill="none" stroke="#000000" stroke-width="0.5" stroke-dasharray="16,0" points="72.8008,178.199 79.8008,178.199"/>
<polyline fill="none" stroke="#000000" stroke-width="0.5" stroke-dasharray="16,0" points="506.801,178.199 499.801,178.199"/>
<polyline fill="none" stroke="#000000" stroke-width="0.5" stroke-dasharray="16,0" points="72.8008,129.301 79.8008,129.301"/>
<polyline fill="none" stroke="#000000" stroke-width="0.5" stroke-dasharray="16,0" points="506.801,129.301 499.801,129.301"/>
<polyline fill="none" stroke="#000000" stroke-width="0.5" stroke-dasharray="16,0" points="72.8008,80.3984 79.8008,80.3984"/>
<polyline fill="none" stroke="#000000" stroke-width="0.5" stroke-dasharray="16,0" points="506.801,80.3984 499.801,80.3984"/>
<polyline fill="none" stroke="#000000" stroke-width="0.5" stroke-dasharray="16,0" points="72.8008,31.5 79.8008,31.5"/>
<polyline fill="none" stroke="#000000" stroke-width="0.5" stroke-dasharray="16,0" points="506.801,31.5 499.801,31.5"/>
<polyline fill="none" stroke="#000000" stroke-width="0.5" stroke-dasharray="0,3,1,3,1,3,1,3,1,0" points="72.8008,364.02 506.801,364.02"/>
<polyline fill="none" stroke="#000000" stroke-width="0.5" stroke-dasharray="0,3,1,3,1,3,1,3,1,0" points="72.8008,354.238 506.801,354.238"/>
<polyline fill="none" stroke="#000000" stroke-width="0.5" stroke-dasharray="0,3,1,3,1,3,1,3,1,0" points="72.8008,344.461 506.801,344.461"/>
<polyline fill="none" stroke="#000000" stroke-width="0.5" stroke-dasharray="0,3,1,3,1,3,1,3,1,0" points="72.8008,334.68 506.801,334.68"/>
<polyline fill="none" stroke="#000000" stroke-width="0.5" stroke-dasharray="0,3,1,3,1,3,1,3,1,0" points="72.8008,315.121 506.801,315.121"/>
<polyline fill="none" stroke="#000000" stroke-width="0.5" stroke-dasharray="0,3,1,3,1,3,1,3,1,0" points="72.8008,305.34 506.801,305.34"/>
<polyline fill="none" stroke="#000000" stroke-width="0.5" stroke-dasharray="0,3,1,3,1,3,1,3,1,0" points="72.8008,295.559 506.801,295.559"/>
<polyline fill="none" stroke="#000000" stroke-width="0.5" stroke-dasharray="0,3,1,3,1,3,1,3,1,0" points="72.8008,285.781 506.801,285.781"/>
<polyline fill="none" stroke="#000000" stroke-width="0.5" stroke-dasharray="0,3,1,3,1,3,1,3,1,0" points="72.8008,266.219 506.801,266.219"/>
<polyline fill="none" stroke="#000000" stroke-width="0.5" stroke-dasharray="0,3,1,3,1,3,1,3,1,0" points="72.8008,256.441 506.801,256.441"/>
<polyline fill="none" stroke="#000000" stroke-width="0.5" stroke-dasharray="0,3,1,3,1,3,1,3,1,0" points="72.8008,246.66 506.801,246.66"/>
<polyline fill="none" stroke="#000000" stroke-width="0.5" stroke-dasharray="0,3,1,3,1,3,1,3,1,0" points="72.8008,236.879 506.801,236.879"/>
<polyline fill="none" stroke="#000000" stroke-width="0.5" stroke-dasharray="0,3,1,3,1,3,1,3,1,0" points="72.8008,217.32 506.801,217.32"/>
<polyline fill="none" stroke="#000000" stroke-width="0.5" stroke-dasharray="0,3,1,3,1,3,1,3,1,0" points="72.8008,207.539 506.801,207.539"/>
<polyline fill="none" stroke="#000000" stroke-width="0.5" stroke-dasharray="0,3,1,3,1,3,1,3,1,0" points="72.8008,197.762 506.801,197.762"/>
<polyline fill="none" stroke="#000000" stroke-width="0.5" stroke-dasharray="0,3,1,3,1,3,1,3,1,0" points="72.8008,187.98 506.801,187.98"/>
<polyline fill="none" stroke="#000000" stroke-width="0.5" stroke-dasharray="0,3,1,3,1,3,1,3,1,0" points="72.8008,168.422 506.801,168.422"/>
<polyline fill="none" stroke="#000000" stroke-width="0.5" stroke-dasharray="0,3,1,3,1,3,1,3,1,0" points="72.8008,158.641 506.801,158.641"/>
<polyline fill="none" stroke="#000000" stroke-width="0.5" stroke-dasharray="0,3,1,3,1,3,1,3,1,0" points="72.8008,148.859 506.801,148.859"/>
<polyline fill="none" stroke="#000000" stroke-width="0.5" stroke-dasharray="0,3,1,3,1,3,1,3,1,0" points="72.8008,139.078 506.801,139.078"/>
<polyline fill="none" stroke="#000000" stroke-width="0.5" stroke-dasharray="0,3,1,3,1,3,1,3,1,0" points="72.8008,119.52 506.801,119.52"/>
<polyline fill="none" stroke="#000000" stroke-width="0.5" stroke-dasharray="0,3,1,3,1,3,1,3,1,0" points="72.8008,109.738 506.801,109.738"/>
<polyline fill="none" stroke="#000000" stroke-width="0.5" stroke-dasharray="0,3,1,3,1,3,1,3,1,0" points="72.8008,99.9609 506.801,99.9609"/>
<polyline fill="none" stroke="#000000" stroke-width="0.5" stroke-dasharray="0,3,1,3,1,3,1,3,1,0" points="72.8008,90.1797 506.801,90.1797"/>
<polyline fill="none" stroke="#000000" stroke-width="0.5" stroke-dasharray="0,3,1,3,1,3,1,3,1,0" points="72.8008,70.6211 506.801,70.6211"/>
<polyline fill="none" stroke="#000000" stroke-width="0.5" stroke-dasharray="0,3,1,3,1,3,1,3,1,0" points="72.8008,60.8398 506.801,60.8398"/>
<polyline fill="none" stroke="#000000" stroke-width="0.5" stroke-dasharray="0,3,1,3,1,3,1,3,1,0" points="72.8008,51.0586 506.801,51.0586"/>
<polyline fill="none" stroke="#000000" stroke-width="0.5" stroke-dasharray="0,3,1,3,1,3,1,3,1,0" points="72.8008,41.2812 506.801,41.2812"/>
<polyline fill="none" stroke="#ff0000" stroke-width="1.5" points="73.8867,371.844 74.9688,371.844 76.0547,371.895 77.1406,371.895 78.2266,371.895 79.3086,371.895 80.3945,371.895 81.4805,371.895 82.5664,371.895 83.6484,371.895 84.7344,371.895 85.8203,371.895 86.9062,371.895 87.9883,371.895 89.0742,371.895 90.1602,371.895 91.2461,371.895 92.3281,371.895 93.4141,371.895 94.5,371.895 95.5859,371.895 96.6719,371.895 97.7539,371.895 98.8398,371.895 99.9258,371.895 101.012,371.895 102.094,371.895 103.18,371.895 104.266,371.895 105.352,371.895 106.434,371.895 107.52,371.895 108.605,371.895 109.691,371.895 110.773,371.895 111.859,371.895 112.945,371.895 114.031,371.895 115.113,371.895 116.199,371.895 117.285,371.895 118.371,371.895 119.453,371.895 120.539,371.895 121.625,371.895 122.711,371.844 123.797,371.844 124.879,371.844 125.965,371.895 127.051,371.895 128.137,371.844 129.219,371.844 130.305,371.844 131.391,371.844 132.477,371.844 133.559,371.844 134.645,371.844 135.73,371.844 136.816,371.844 137.898,371.844 138.984,371.844 140.07,371.844 141.156,371.844 142.238,371.844 143.324,371.844 144.41,371.844 145.496,371.844 146.578,371.844 147.664,371.844 148.75,371.844 149.836,371.844 150.922,371.844 152.004,371.355 153.09,371.844 154.176,371.844 155.262,371.844 156.344,371.844 157.43,371.844 158.516,371.844 159.602,371.844 160.684,371.844 161.77,371.844 162.855,371.844 163.941,371.844 165.023,371.844 166.109,371.844 167.195,371.844 168.281,371.844 169.363,371.844 170.449,371.844 171.535,371.844 172.621,371.844 173.703,371.844 174.789,371.844 175.875,371.844 176.961,371.844 178.047,371.844 179.129,371.844 180.215,371.844 181.301,371.844 182.387,371.844 183.469,371.844 184.555,371.844 185.641,371.844 186.727,371.844 187.809,371.844 188.895,371.844 189.98,371.844 191.066,371.844 192.148,371.844 193.234,371.844 194.32,371.844 195.406,371.844 196.488,371.844 197.574,371.844 198.66,371.844 199.746,371.844 200.828,345.926 201.914,371.844 203,371.844 204.086,371.844 205.172,371.844 206.254,371.844 207.34,371.844 208.426,371.844 209.512,371.844 210.594,371.844 211.68,371.844 212.766,371.844 213.852,371.844 214.934,371.844 216.02,371.844 217.105,371.844 218.191,371.844 219.273,371.844 220.359,371.844 221.445,371.844 222.531,371.844 223.613,371.844 224.699,371.844 225.785,371.844 226.871,371.844 227.953,371.844 229.039,371.844 230.125,371.844 231.211,371.844 232.297,371.844 233.379,371.844 234.465,371.844 235.551,371.844 236.637,371.844 237.719,371.844 238.805,371.844 239.891,371.844 240.977,371.895 242.059,371.844 243.145,371.844 244.23,371.895 245.316,371.895 246.398,371.844 247.484,371.844 248.57,371.844 249.656,208.125 250.738,371.844 251.824,371.895 252.91,371.844 253.996,371.895 255.078,371.844 256.164,371.844 257.25,371.844 258.336,371.844 259.422,371.895 260.504,371.895 261.59,371.844 262.676,371.844 263.762,371.844 264.844,371.844 265.93,371.844 267.016,371.844 268.102,371.844 269.184,371.844 270.27,371.844 271.355,371.844 272.441,371.844 273.523,371.844 274.609,371.844 275.695,371.844 276.781,371.844 277.863,371.844 278.949,371.844 280.035,371.844 281.121,371.844 282.203,371.844 283.289,371.844 284.375,371.844 285.461,371.844 286.547,371.844 287.629,371.844 288.715,371.844 289.801,371.844 290.887,371.844 291.969,371.844 293.055,371.844 294.141,371.844 295.227,371.844 296.309,371.844 297.395,371.844 298.48,371.844 299.566,371.844 300.648,371.844 301.734,371.844 302.82,371.844 303.906,371.844 304.988,371.844 306.074,371.844 307.16,371.844 308.246,371.844 309.328,371.844 310.414,371.844 311.5,371.844 312.586,371.844 313.672,371.844 314.754,371.844 315.84,371.844 316.926,371.844 318.012,371.844 319.094,101.184 320.18,66.3164 321.266,371.844 322.352,371.844 323.434,371.844 324.52,371.844 325.605,371.844 326.691,371.844 327.773,371.844 328.859,371.844 329.945,371.844 331.031,60.8906 332.113,209.84 333.199,215.168 334.285,371.844 335.371,371.844 336.453,371.844 337.539,371.844 338.625,371.844 339.711,371.844 340.797,371.844 341.879,371.844 342.965,371.844 344.051,371.844 345.137,371.844 346.219,371.844 347.305,371.844 348.391,371.844 349.477,371.844 350.559,371.844 351.645,371.844 352.73,371.844 353.816,371.844 354.898,371.844 355.984,371.844 357.07,371.844 358.156,371.844 359.238,371.844 360.324,371.844 361.41,371.844 362.496,371.844 363.578,371.844 364.664,371.844 365.75,371.844 366.836,371.844 367.922,371.844 369.004,371.844 370.09,371.844 371.176,371.844 372.262,371.844 373.344,371.844 374.43,371.844 375.516,371.844 376.602,371.844 377.684,371.844 378.77,371.844 379.855,371.844 380.941,371.844 382.023,371.844 383.109,371.844 384.195,371.844 385.281,371.844 386.363,371.844 387.449,371.844 388.535,371.844 389.621,371.844 390.703,371.844 391.789,371.844 392.875,371.844 393.961,371.844 395.047,371.844 396.129,371.844 397.215,371.844 398.301,371.844 399.387,371.844 400.469,371.844 401.555,371.844 402.641,371.844 403.727,371.844 404.809,371.844 405.895,371.844 406.98,371.844 408.066,371.844 409.148,371.844 410.234,371.844 411.32,371.844 412.406,371.844 413.488,371.844 414.574,371.844 415.66,371.844 416.746,371.844 417.828,371.844 418.914,371.844 420,371.844 421.086,371.844 422.172,371.844 423.254,371.844 424.34,371.844 425.426,371.844 426.512,371.844 427.594,371.844 428.68,371.844 429.766,371.844 430.852,371.844 431.934,371.844 433.02,371.844 434.105,371.844 435.191,371.844 436.273,371.844 437.359,371.844 438.445,371.844 439.531,371.844 440.613,371.844 441.699,371.844 442.785,371.844 443.871,371.844 444.953,371.844 446.039,371.844 447.125,371.844 448.211,371.844 449.297,371.844 450.379,371.844 451.465,371.844 452.551,371.844 453.637,73.2109 454.719,371.844 455.805,371.844 456.891,371.844 457.977,371.844 459.059,371.844 460.145,371.844 461.23,371.844"/>
<polyline fill="none" stroke="#000000" stroke-width="0.5" stroke-dasharray="16,0" points="506.801,373.801 506.801,373.801"/>
<polyline fill="none" stroke="#000000" stroke-width="0.5" stroke-dasharray="16,0" points="72.8008,373.801 72.8008,373.801"/>
<polyline fill="none" stroke="#000000" stroke-width="0.5" stroke-dasharray="16,0" points="72.8008,31.5 72.8008,31.5"/>
<polyline fill="none" stroke="#000000" stroke-width="0.5" stroke-dasharray="16,0" points="506.801,31.5 506.801,31.5"/>
<text fill="#000000" x="289.8" y="21.5" font-size="10" text-anchor="middle" baseline-shift="0" font-family="Helvetica">Coffee Machine (RMS current)</text>
<polyline fill="none" stroke="#000000" stroke-width="0.5" stroke-dasharray="16,0" points="506.801,373.801 506.801,31.5"/>
<polyline fill="none" stroke="#000000" stroke-width="0.5" stroke-dasharray="16,0" points="72.8008,373.801 72.8008,31.5 506.801,31.5"/>
<polyline fill="none" stroke="#000000" stroke-width="0.5" stroke-dasharray="16,0" points="72.8008,373.801 506.801,373.801"/>
</g>
</svg>
