<?xml version="1.0" encoding="UTF-8" standalone="no"?>
<svg xmlns="http://www.w3.org/2000/svg"
     xmlns:xlink="http://www.w3.org/1999/xlink"
     width="576px" height="432px" viewBox="0 0 576 432">
<title>glps_renderer figure</title>
<desc>
Creator: GL2PS 1.3.5, (C) 1999-2009 C. Geuzaine
For: Octave
CreationDate: Fri Dec 23 15:24:51 2011
</desc>
<defs>
</defs>
<g shape-rendering="crispEdges">
<text fill="#000000" x="298.08" y="389.481" font-size="10" text-anchor="middle" baseline-shift="-10" font-family="Helvetica">200</text>
<text fill="#000000" x="409.68" y="389.481" font-size="10" text-anchor="middle" baseline-shift="-10" font-family="Helvetica">300</text>
<text fill="#000000" x="521.28" y="389.481" font-size="10" text-anchor="middle" baseline-shift="-10" font-family="Helvetica">400</text>
<text fill="#000000" x="69.8755" y="384.48" font-size="10" text-anchor="end" baseline-shift="-5" font-family="Helvetica">0</text>
<text fill="#000000" x="69.8755" y="296.46" font-size="10" text-anchor="end" baseline-shift="-5" font-family="Helvetica">500</text>
<text fill="#000000" x="69.8755" y="208.44" font-size="10" text-anchor="end" baseline-shift="-5" font-family="Helvetica">1000</text>
<text fill="#000000" x="74.88" y="389.481" font-size="10" text-anchor="middle" baseline-shift="-10" font-family="Helvetica">0</text>
<text fill="#000000" x="186.48" y="389.481" font-size="10" text-anchor="middle" baseline-shift="-10" font-family="Helvetica">100</text>
<text fill="#000000" x="69.8755" y="120.42" font-size="10" text-anchor="end" baseline-shift="-5" font-family="Helvetica">1500</text>
<text fill="#000000" x="69.8755" y="32.4" font-size="10" text-anchor="end" baseline-shift="-5" font-family="Helvetica">2000</text>
<text fill="#000000" x="298.08" y="402.481" font-size="10" text-anchor="middle" baseline-shift="-10" font-family="Helvetica">time (10 seconds per unit)</text>
<text fill="#000000" x="45.8755" y="208.44" font-size="10" transform="rotate(-90, 45.8755, 208.44)" text-anchor="middle" baseline-shift="0" font-family="Helvetica">watt (W)</text>
<polyline fill="none" stroke="#000000" stroke-width="0.5" stroke-dasharray="16,0" points="74.8789,32.3984 521.281,32.3984"/>
<polyline fill="none" stroke="#000000" stroke-width="0.5" stroke-dasharray="16,0" points="74.8789,384.48 74.8789,32.3984"/>
<polyline fill="none" stroke="#000000" stroke-width="0.5" stroke-dasharray="16,0" points="521.281,384.48 521.281,32.3984"/>
<polyline fill="none" stroke="#000000" stroke-width="0.5" stroke-dasharray="0,3,1,3,1,3,1,3,1,0" points="74.8789,384.48 74.8789,32.3984"/>
<polyline fill="none" stroke="#000000" stroke-width="0.5" stroke-dasharray="0,3,1,3,1,3,1,3,1,0" points="186.48,384.48 186.48,32.3984"/>
<polyline fill="none" stroke="#000000" stroke-width="0.5" stroke-dasharray="0,3,1,3,1,3,1,3,1,0" points="298.078,384.48 298.078,32.3984"/>
<polyline fill="none" stroke="#000000" stroke-width="0.5" stroke-dasharray="0,3,1,3,1,3,1,3,1,0" points="409.68,384.48 409.68,32.3984"/>
<polyline fill="none" stroke="#000000" stroke-width="0.5" stroke-dasharray="16,0" points="74.8789,384.48 521.281,384.48"/>
<polyline fill="none" stroke="#000000" stroke-width="0.5" stroke-dasharray="0,3,1,3,1,3,1,3,1,0" points="521.281,384.48 521.281,32.3984"/>
<polyline fill="none" stroke="#000000" stroke-width="0.5" stroke-dasharray="16,0" points="74.8789,384.48 74.8789,377.477"/>
<polyline fill="none" stroke="#000000" stroke-width="0.5" stroke-dasharray="16,0" points="74.8789,32.3984 74.8789,39.4023"/>
<polyline fill="none" stroke="#000000" stroke-width="0.5" stroke-dasharray="16,0" points="186.48,384.48 186.48,377.477"/>
<polyline fill="none" stroke="#000000" stroke-width="0.5" stroke-dasharray="16,0" points="186.48,32.3984 186.48,39.4023"/>
<polyline fill="none" stroke="#000000" stroke-width="0.5" stroke-dasharray="16,0" points="298.078,384.48 298.078,377.477"/>
<polyline fill="none" stroke="#000000" stroke-width="0.5" stroke-dasharray="16,0" points="298.078,32.3984 298.078,39.4023"/>
<polyline fill="none" stroke="#000000" stroke-width="0.5" stroke-dasharray="16,0" points="409.68,384.48 409.68,377.477"/>
<polyline fill="none" stroke="#000000" stroke-width="0.5" stroke-dasharray="16,0" points="409.68,32.3984 409.68,39.4023"/>
<polyline fill="none" stroke="#000000" stroke-width="0.5" stroke-dasharray="16,0" points="521.281,384.48 521.281,377.477"/>
<polyline fill="none" stroke="#000000" stroke-width="0.5" stroke-dasharray="16,0" points="521.281,32.3984 521.281,39.4023"/>
<polyline fill="none" stroke="#000000" stroke-width="0.5" stroke-dasharray="0,3,1,3,1,3,1,3,1,0" points="97.1992,384.48 97.1992,32.3984"/>
<polyline fill="none" stroke="#000000" stroke-width="0.5" stroke-dasharray="0,3,1,3,1,3,1,3,1,0" points="119.52,384.48 119.52,32.3984"/>
<polyline fill="none" stroke="#000000" stroke-width="0.5" stroke-dasharray="0,3,1,3,1,3,1,3,1,0" points="141.84,384.48 141.84,32.3984"/>
<polyline fill="none" stroke="#000000" stroke-width="0.5" stroke-dasharray="0,3,1,3,1,3,1,3,1,0" points="164.16,384.48 164.16,32.3984"/>
<polyline fill="none" stroke="#000000" stroke-width="0.5" stroke-dasharray="0,3,1,3,1,3,1,3,1,0" points="208.801,384.48 208.801,32.3984"/>
<polyline fill="none" stroke="#000000" stroke-width="0.5" stroke-dasharray="0,3,1,3,1,3,1,3,1,0" points="231.121,384.48 231.121,32.3984"/>
<polyline fill="none" stroke="#000000" stroke-width="0.5" stroke-dasharray="0,3,1,3,1,3,1,3,1,0" points="253.441,384.48 253.441,32.3984"/>
<polyline fill="none" stroke="#000000" stroke-width="0.5" stroke-dasharray="0,3,1,3,1,3,1,3,1,0" points="275.762,384.48 275.762,32.3984"/>
<polyline fill="none" stroke="#000000" stroke-width="0.5" stroke-dasharray="0,3,1,3,1,3,1,3,1,0" points="320.398,384.48 320.398,32.3984"/>
<polyline fill="none" stroke="#000000" stroke-width="0.5" stroke-dasharray="0,3,1,3,1,3,1,3,1,0" points="342.719,384.48 342.719,32.3984"/>
<polyline fill="none" stroke="#000000" stroke-width="0.5" stroke-dasharray="0,3,1,3,1,3,1,3,1,0" points="365.039,384.48 365.039,32.3984"/>
<polyline fill="none" stroke="#000000" stroke-width="0.5" stroke-dasharray="0,3,1,3,1,3,1,3,1,0" points="387.359,384.48 387.359,32.3984"/>
<polyline fill="none" stroke="#000000" stroke-width="0.5" stroke-dasharray="0,3,1,3,1,3,1,3,1,0" points="432,384.48 432,32.3984"/>
<polyline fill="none" stroke="#000000" stroke-width="0.5" stroke-dasharray="0,3,1,3,1,3,1,3,1,0" points="454.32,384.48 454.32,32.3984"/>
<polyline fill="none" stroke="#000000" stroke-width="0.5" stroke-dasharray="0,3,1,3,1,3,1,3,1,0" points="476.641,384.48 476.641,32.3984"/>
<polyline fill="none" stroke="#000000" stroke-width="0.5" stroke-dasharray="0,3,1,3,1,3,1,3,1,0" points="498.961,384.48 498.961,32.3984"/>
<polyline fill="none" stroke="#000000" stroke-width="0.5" stroke-dasharray="0,3,1,3,1,3,1,3,1,0" points="74.8789,384.48 521.281,384.48"/>
<polyline fill="none" stroke="#000000" stroke-width="0.5" stroke-dasharray="0,3,1,3,1,3,1,3,1,0" points="74.8789,296.461 521.281,296.461"/>
<polyline fill="none" stroke="#000000" stroke-width="0.5" stroke-dasharray="0,3,1,3,1,3,1,3,1,0" points="74.8789,208.441 521.281,208.441"/>
<polyline fill="none" stroke="#000000" stroke-width="0.5" stroke-dasharray="0,3,1,3,1,3,1,3,1,0" points="74.8789,120.422 521.281,120.422"/>
<polyline fill="none" stroke="#000000" stroke-width="0.5" stroke-dasharray="0,3,1,3,1,3,1,3,1,0" points="74.8789,32.3984 521.281,32.3984"/>
<polyline fill="none" stroke="#000000" stroke-width="0.5" stroke-dasharray="16,0" points="74.8789,384.48 81.8867,384.48"/>
<polyline fill="none" stroke="#000000" stroke-width="0.5" stroke-dasharray="16,0" points="521.281,384.48 514.273,384.48"/>
<polyline fill="none" stroke="#000000" stroke-width="0.5" stroke-dasharray="16,0" points="74.8789,296.461 81.8867,296.461"/>
<polyline fill="none" stroke="#000000" stroke-width="0.5" stroke-dasharray="16,0" points="521.281,296.461 514.273,296.461"/>
<polyline fill="none" stroke="#000000" stroke-width="0.5" stroke-dasharray="16,0" points="74.8789,208.441 81.8867,208.441"/>
<polyline fill="none" stroke="#000000" stroke-width="0.5" stroke-dasharray="16,0" points="521.281,208.441 514.273,208.441"/>
<polyline fill="none" stroke="#000000" stroke-width="0.5" stroke-dasharray="16,0" points="74.8789,120.422 81.8867,120.422"/>
<polyline fill="none" stroke="#000000" stroke-width="0.5" stroke-dasharray="16,0" points="521.281,120.422 514.273,120.422"/>
<polyline fill="none" stroke="#000000" stroke-width="0.5" stroke-dasharray="16,0" points="74.8789,32.3984 81.8867,32.3984"/>
<polyline fill="none" stroke="#000000" stroke-width="0.5" stroke-dasharray="16,0" points="521.281,32.3984 514.273,32.3984"/>
<polyline fill="none" stroke="#000000" stroke-width="0.5" stroke-dasharray="0,3,1,3,1,3,1,3,1,0" points="74.8789,366.875 521.281,366.875"/>
<polyline fill="none" stroke="#000000" stroke-width="0.5" stroke-dasharray="0,3,1,3,1,3,1,3,1,0" points="74.8789,349.273 521.281,349.273"/>
<polyline fill="none" stroke="#000000" stroke-width="0.5" stroke-dasharray="0,3,1,3,1,3,1,3,1,0" points="74.8789,331.668 521.281,331.668"/>
<polyline fill="none" stroke="#000000" stroke-width="0.5" stroke-dasharray="0,3,1,3,1,3,1,3,1,0" points="74.8789,314.062 521.281,314.062"/>
<polyline fill="none" stroke="#000000" stroke-width="0.5" stroke-dasharray="0,3,1,3,1,3,1,3,1,0" points="74.8789,278.855 521.281,278.855"/>
<polyline fill="none" stroke="#000000" stroke-width="0.5" stroke-dasharray="0,3,1,3,1,3,1,3,1,0" points="74.8789,261.254 521.281,261.254"/>
<polyline fill="none" stroke="#000000" stroke-width="0.5" stroke-dasharray="0,3,1,3,1,3,1,3,1,0" points="74.8789,243.648 521.281,243.648"/>
<polyline fill="none" stroke="#000000" stroke-width="0.5" stroke-dasharray="0,3,1,3,1,3,1,3,1,0" points="74.8789,226.043 521.281,226.043"/>
<polyline fill="none" stroke="#000000" stroke-width="0.5" stroke-dasharray="0,3,1,3,1,3,1,3,1,0" points="74.8789,190.836 521.281,190.836"/>
<polyline fill="none" stroke="#000000" stroke-width="0.5" stroke-dasharray="0,3,1,3,1,3,1,3,1,0" points="74.8789,173.23 521.281,173.23"/>
<polyline fill="none" stroke="#000000" stroke-width="0.5" stroke-dasharray="0,3,1,3,1,3,1,3,1,0" points="74.8789,155.629 521.281,155.629"/>
<polyline fill="none" stroke="#000000" stroke-width="0.5" stroke-dasharray="0,3,1,3,1,3,1,3,1,0" points="74.8789,138.023 521.281,138.023"/>
<polyline fill="none" stroke="#000000" stroke-width="0.5" stroke-dasharray="0,3,1,3,1,3,1,3,1,0" points="74.8789,102.816 521.281,102.816"/>
<polyline fill="none" stroke="#000000" stroke-width="0.5" stroke-dasharray="0,3,1,3,1,3,1,3,1,0" points="74.8789,85.2109 521.281,85.2109"/>
<polyline fill="none" stroke="#000000" stroke-width="0.5" stroke-dasharray="0,3,1,3,1,3,1,3,1,0" points="74.8789,67.6094 521.281,67.6094"/>
<polyline fill="none" stroke="#000000" stroke-width="0.5" stroke-dasharray="0,3,1,3,1,3,1,3,1,0" points="74.8789,50.0039 521.281,50.0039"/>
<polyline fill="none" stroke="#ff0000" stroke-width="1.5" points="75.9961,384.391 77.1133,384.391 78.2266,384.391 79.3438,384.391 80.4609,384.391 81.5742,384.391 82.6914,384.406 83.8086,384.391 84.9258,384.391 86.0391,384.406 87.1562,384.391 88.2734,384.391 89.3867,384.391 90.5039,384.406 91.6211,384.406 92.7344,384.391 93.8516,384.406 94.9688,384.406 96.0859,384.391 97.1992,384.406 98.3164,384.391 99.4336,384.406 100.547,384.391 101.664,384.391 102.781,384.406 103.895,384.391 105.012,384.391 106.129,384.391 107.242,384.391 108.359,384.406 109.477,384.391 110.594,384.391 111.707,384.391 112.824,384.391 113.941,384.406 115.055,384.406 116.172,384.391 117.289,384.406 118.402,384.391 119.52,384.391 120.637,384.406 121.754,384.391 122.867,384.406 123.984,384.406 125.102,384.391 126.215,384.391 127.332,384.391 128.449,384.391 129.562,384.406 130.68,384.391 131.797,384.391 132.91,384.391 134.027,384.406 135.145,384.391 136.262,384.391 137.375,384.391 138.492,384.391 139.609,384.391 140.723,384.391 141.84,384.391 142.957,384.391 144.07,139.316 145.188,384.406 146.305,384.391 147.422,384.406 148.535,384.406 149.652,384.406 150.77,384.391 151.883,384.391 153,384.406 154.117,384.406 155.23,384.406 156.348,384.406 157.465,384.391 158.578,384.391 159.695,384.391 160.812,384.406 161.93,384.391 163.043,384.406 164.16,384.391 165.277,384.406 166.391,384.406 167.508,384.391 168.625,384.406 169.738,384.406 170.855,384.391 171.973,384.391 173.09,384.391 174.203,384.391 175.32,384.406 176.438,384.391 177.551,384.391 178.668,384.391 179.785,384.391 180.898,384.391 182.016,384.406 183.133,373.945 184.246,129.82 185.363,384.406 186.48,384.391 187.598,384.391 188.711,384.391 189.828,384.391 190.945,384.391 192.059,384.391 193.176,384.406 194.293,384.406 195.406,384.391 196.523,384.391 197.641,384.406 198.758,384.391 199.871,384.391 200.988,384.391 202.105,384.391 203.219,384.406 204.336,384.406 205.453,384.391 206.566,384.391 207.684,384.406 208.801,384.391 209.914,384.391 211.031,384.391 212.148,384.391 213.266,384.391 214.379,384.391 215.496,384.406 216.613,384.391 217.727,384.406 218.844,384.406 219.961,384.406 221.074,384.406 222.191,384.391 223.309,384.391 224.426,384.391 225.539,384.406 226.656,384.406 227.773,384.406 228.887,384.406 230.004,384.391 231.121,384.406 232.234,384.391 233.352,384.406 234.469,384.391 235.586,384.406 236.699,384.391 237.816,384.406 238.934,384.391 240.047,384.406 241.164,384.406 242.281,384.406 243.395,384.391 244.512,384.406 245.629,384.406 246.742,384.391 247.859,384.391 248.977,384.391 250.094,384.406 251.207,384.391 252.324,384.391 253.441,384.391 254.555,384.391 255.672,384.391 256.789,384.391 257.902,384.406 259.02,384.391 260.137,384.391 261.254,384.406 262.367,384.391 263.484,384.391 264.602,384.391 265.715,144.219 266.832,384.391 267.949,384.406 269.062,384.391 270.18,384.406 271.297,384.406 272.41,384.406 273.527,384.391 274.645,384.406 275.762,384.391 276.875,384.391 277.992,384.406 279.109,384.406 280.223,384.406 281.34,384.391 282.457,384.406 283.57,384.406 284.688,384.406 285.805,384.391 286.922,384.391 288.035,384.391 289.152,384.391 290.27,384.391 291.383,384.391 292.5,384.391 293.617,384.406 294.73,384.391 295.848,384.391 296.965,384.406 298.078,384.391 299.195,384.406 300.312,384.391 301.43,384.406 302.543,384.406 303.66,384.406 304.777,384.391 305.891,384.391 307.008,384.391 308.125,384.391 309.238,384.406 310.355,384.391 311.473,384.406 312.59,384.391 313.703,384.391 314.82,384.406 315.938,139.953 317.051,384.391 318.168,384.391 319.285,384.406 320.398,384.391 321.516,384.391 322.633,384.406 323.746,384.391 324.863,384.391 325.98,384.406 327.098,384.391 328.211,384.391 329.328,384.391 330.445,384.391 331.559,384.391 332.676,384.391 333.793,384.391 334.906,384.391 336.023,384.391 337.141,384.406 338.258,384.406 339.371,384.391 340.488,384.406 341.605,384.391 342.719,384.391 343.836,384.406 344.953,384.391 346.066,384.406 347.184,384.406 348.301,384.406 349.414,384.406 350.531,384.391 351.648,384.391 352.766,384.391 353.879,384.391 354.996,384.391 356.113,384.391 357.227,384.391 358.344,384.391 359.461,384.391 360.574,384.391 361.691,384.391 362.809,384.391 363.926,384.406 365.039,384.406 366.156,154.098 367.273,384.391 368.387,384.391 369.504,384.406 370.621,384.391 371.734,384.391 372.852,384.391 373.969,384.391 375.082,384.391 376.199,384.391 377.316,384.391 378.434,384.391 379.547,384.391 380.664,384.391 381.781,384.406 382.895,384.391 384.012,384.391 385.129,384.406 386.242,384.391 387.359,384.391 388.477,384.391 389.594,384.391 390.707,384.391 391.824,384.391 392.941,384.391 394.055,384.391 395.172,384.391 396.289,384.406 397.402,384.391 398.52,384.406 399.637,384.391 400.75,384.391 401.867,384.406 402.984,384.391 404.102,384.391 405.215,384.391 406.332,384.391 407.449,384.406 408.562,384.391 409.68,384.391 410.797,384.391 411.91,384.406 413.027,384.391 414.145,384.391 415.262,384.391 416.375,384.406 417.492,384.391 418.609,384.406 419.723,384.391 420.84,384.391 421.957,384.391 423.07,384.391 424.188,384.391 425.305,384.391 426.422,384.391 427.535,384.391 428.652,384.391 429.77,384.391 430.883,384.406 432,384.391 433.117,384.406 434.23,384.391 435.348,384.406 436.465,384.391 437.578,384.391 438.695,384.406 439.812,384.406 440.93,384.406 442.043,384.078 443.16,384.391 444.277,384.391 445.391,384.406 446.508,384.406 447.625,384.391 448.738,384.391 449.855,384.391 450.973,384.391 452.09,384.406 453.203,384.406 454.32,384.391 455.438,384.391 456.551,384.391 457.668,384.391 458.785,384.406 459.898,384.406 461.016,384.406 462.133,384.391 463.246,384.391 464.363,384.391 465.48,384.391 466.598,384.391 467.711,384.391 468.828,384.406 469.945,384.391 471.059,384.391 472.176,384.391 473.293,384.391 474.406,384.406 475.523,384.406"/>
<polyline fill="none" stroke="#000000" stroke-width="0.5" stroke-dasharray="16,0" points="521.281,384.48 521.281,384.48"/>
<polyline fill="none" stroke="#000000" stroke-width="0.5" stroke-dasharray="16,0" points="74.8789,384.48 74.8789,384.48"/>
<polyline fill="none" stroke="#000000" stroke-width="0.5" stroke-dasharray="16,0" points="74.8789,32.3984 74.8789,32.3984"/>
<polyline fill="none" stroke="#000000" stroke-width="0.5" stroke-dasharray="16,0" points="521.281,32.3984 521.281,32.3984"/>
<text fill="#000000" x="298.08" y="22.4" font-size="10" text-anchor="middle" baseline-shift="0" font-family="Helvetica">Coffee Machine (power)</text>
<polyline fill="none" stroke="#000000" stroke-width="0.5" stroke-dasharray="16,0" points="521.281,384.48 521.281,32.3984"/>
<polyline fill="none" stroke="#000000" stroke-width="0.5" stroke-dasharray="16,0" points="74.8789,384.48 74.8789,32.3984 521.281,32.3984"/>
<polyline fill="none" stroke="#000000" stroke-width="0.5" stroke-dasharray="16,0" points="74.8789,384.48 521.281,384.48"/>
</g>
</svg>
