<?xml version="1.0" encoding="UTF-8" standalone="no"?>
<svg xmlns="http://www.w3.org/2000/svg"
     xmlns:xlink="http://www.w3.org/1999/xlink"
     width="576px" height="432px" viewBox="0 0 576 432">
<title>glps_renderer figure</title>
<desc>
Creator: GL2PS 1.3.5, (C) 1999-2009 C. Geuzaine
For: Octave
CreationDate: Fri Dec 23 15:32:44 2011
</desc>
<defs>
</defs>
<g shape-rendering="crispEdges">
<text fill="#000000" x="298.08" y="389.481" font-size="10" text-anchor="middle" baseline-shift="-10" font-family="Helvetica">200</text>
<text fill="#000000" x="409.68" y="389.481" font-size="10" text-anchor="middle" baseline-shift="-10" font-family="Helvetica">300</text>
<text fill="#000000" x="521.28" y="389.481" font-size="10" text-anchor="middle" baseline-shift="-10" font-family="Helvetica">400</text>
<text fill="#000000" x="69.8755" y="384.48" font-size="10" text-anchor="end" baseline-shift="-5" font-family="Helvetica">-1</text>
<text fill="#000000" x="69.8755" y="314.064" font-size="10" text-anchor="end" baseline-shift="-5" font-family="Helvetica">-0.8</text>
<text fill="#000000" x="69.8755" y="243.648" font-size="10" text-anchor="end" baseline-shift="-5" font-family="Helvetica">-0.6</text>
<text fill="#000000" x="74.88" y="389.481" font-size="10" text-anchor="middle" baseline-shift="-10" font-family="Helvetica">0</text>
<text fill="#000000" x="186.48" y="389.481" font-size="10" text-anchor="middle" baseline-shift="-10" font-family="Helvetica">100</text>
<text fill="#000000" x="69.8755" y="173.232" font-size="10" text-anchor="end" baseline-shift="-5" font-family="Helvetica">-0.4</text>
<text fill="#000000" x="69.8755" y="102.816" font-size="10" text-anchor="end" baseline-shift="-5" font-family="Helvetica">-0.2</text>
<text fill="#000000" x="69.8755" y="32.4" font-size="10" text-anchor="end" baseline-shift="-5" font-family="Helvetica">0</text>
<text fill="#000000" x="298.08" y="402.481" font-size="10" text-anchor="middle" baseline-shift="-10" font-family="Helvetica">time (10 seconds per unit)</text>
<text fill="#000000" x="51.8755" y="208.44" font-size="10" transform="rotate(-90, 51.8755, 208.44)" text-anchor="middle" baseline-shift="0" font-family="Helvetica">volt-ampere reactive (var)</text>
<polyline fill="none" stroke="#000000" stroke-width="0.5" stroke-dasharray="16,0" points="74.8789,32.3984 521.281,32.3984"/>
<polyline fill="none" stroke="#000000" stroke-width="0.5" stroke-dasharray="16,0" points="74.8789,384.48 74.8789,32.3984"/>
<polyline fill="none" stroke="#000000" stroke-width="0.5" stroke-dasharray="16,0" points="521.281,384.48 521.281,32.3984"/>
<polyline fill="none" stroke="#000000" stroke-width="0.5" stroke-dasharray="0,3,1,3,1,3,1,3,1,0" points="74.8789,384.48 74.8789,32.3984"/>
<polyline fill="none" stroke="#000000" stroke-width="0.5" stroke-dasharray="0,3,1,3,1,3,1,3,1,0" points="186.48,384.48 186.48,32.3984"/>
<polyline fill="none" stroke="#000000" stroke-width="0.5" stroke-dasharray="0,3,1,3,1,3,1,3,1,0" points="298.078,384.48 298.078,32.3984"/>
<polyline fill="none" stroke="#000000" stroke-width="0.5" stroke-dasharray="0,3,1,3,1,3,1,3,1,0" points="409.68,384.48 409.68,32.3984"/>
<polyline fill="none" stroke="#000000" stroke-width="0.5" stroke-dasharray="16,0" points="74.8789,384.48 521.281,384.48"/>
<polyline fill="none" stroke="#000000" stroke-width="0.5" stroke-dasharray="0,3,1,3,1,3,1,3,1,0" points="521.281,384.48 521.281,32.3984"/>
<polyline fill="none" stroke="#000000" stroke-width="0.5" stroke-dasharray="16,0" points="74.8789,384.48 74.8789,377.477"/>
<polyline fill="none" stroke="#000000" stroke-width="0.5" stroke-dasharray="16,0" points="74.8789,32.3984 74.8789,39.4023"/>
<polyline fill="none" stroke="#000000" stroke-width="0.5" stroke-dasharray="16,0" points="186.48,384.48 186.48,377.477"/>
<polyline fill="none" stroke="#000000" stroke-width="0.5" stroke-dasharray="16,0" points="186.48,32.3984 186.48,39.4023"/>
<polyline fill="none" stroke="#000000" stroke-width="0.5" stroke-dasharray="16,0" points="298.078,384.48 298.078,377.477"/>
<polyline fill="none" stroke="#000000" stroke-width="0.5" stroke-dasharray="16,0" points="298.078,32.3984 298.078,39.4023"/>
<polyline fill="none" stroke="#000000" stroke-width="0.5" stroke-dasharray="16,0" points="409.68,384.48 409.68,377.477"/>
<polyline fill="none" stroke="#000000" stroke-width="0.5" stroke-dasharray="16,0" points="409.68,32.3984 409.68,39.4023"/>
<polyline fill="none" stroke="#000000" stroke-width="0.5" stroke-dasharray="16,0" points="521.281,384.48 521.281,377.477"/>
<polyline fill="none" stroke="#000000" stroke-width="0.5" stroke-dasharray="16,0" points="521.281,32.3984 521.281,39.4023"/>
<polyline fill="none" stroke="#000000" stroke-width="0.5" stroke-dasharray="0,3,1,3,1,3,1,3,1,0" points="97.1992,384.48 97.1992,32.3984"/>
<polyline fill="none" stroke="#000000" stroke-width="0.5" stroke-dasharray="0,3,1,3,1,3,1,3,1,0" points="119.52,384.48 119.52,32.3984"/>
<polyline fill="none" stroke="#000000" stroke-width="0.5" stroke-dasharray="0,3,1,3,1,3,1,3,1,0" points="141.84,384.48 141.84,32.3984"/>
<polyline fill="none" stroke="#000000" stroke-width="0.5" stroke-dasharray="0,3,1,3,1,3,1,3,1,0" points="164.16,384.48 164.16,32.3984"/>
<polyline fill="none" stroke="#000000" stroke-width="0.5" stroke-dasharray="0,3,1,3,1,3,1,3,1,0" points="208.801,384.48 208.801,32.3984"/>
<polyline fill="none" stroke="#000000" stroke-width="0.5" stroke-dasharray="0,3,1,3,1,3,1,3,1,0" points="231.121,384.48 231.121,32.3984"/>
<polyline fill="none" stroke="#000000" stroke-width="0.5" stroke-dasharray="0,3,1,3,1,3,1,3,1,0" points="253.441,384.48 253.441,32.3984"/>
<polyline fill="none" stroke="#000000" stroke-width="0.5" stroke-dasharray="0,3,1,3,1,3,1,3,1,0" points="275.762,384.48 275.762,32.3984"/>
<polyline fill="none" stroke="#000000" stroke-width="0.5" stroke-dasharray="0,3,1,3,1,3,1,3,1,0" points="320.398,384.48 320.398,32.3984"/>
<polyline fill="none" stroke="#000000" stroke-width="0.5" stroke-dasharray="0,3,1,3,1,3,1,3,1,0" points="342.719,384.48 342.719,32.3984"/>
<polyline fill="none" stroke="#000000" stroke-width="0.5" stroke-dasharray="0,3,1,3,1,3,1,3,1,0" points="365.039,384.48 365.039,32.3984"/>
<polyline fill="none" stroke="#000000" stroke-width="0.5" stroke-dasharray="0,3,1,3,1,3,1,3,1,0" points="387.359,384.48 387.359,32.3984"/>
<polyline fill="none" stroke="#000000" stroke-width="0.5" stroke-dasharray="0,3,1,3,1,3,1,3,1,0" points="432,384.48 432,32.3984"/>
<polyline fill="none" stroke="#000000" stroke-width="0.5" stroke-dasharray="0,3,1,3,1,3,1,3,1,0" points="454.32,384.48 454.32,32.3984"/>
<polyline fill="none" stroke="#000000" stroke-width="0.5" stroke-dasharray="0,3,1,3,1,3,1,3,1,0" points="476.641,384.48 476.641,32.3984"/>
<polyline fill="none" stroke="#000000" stroke-width="0.5" stroke-dasharray="0,3,1,3,1,3,1,3,1,0" points="498.961,384.48 498.961,32.3984"/>
<polyline fill="none" stroke="#000000" stroke-width="0.5" stroke-dasharray="0,3,1,3,1,3,1,3,1,0" points="74.8789,384.48 521.281,384.48"/>
<polyline fill="none" stroke="#000000" stroke-width="0.5" stroke-dasharray="0,3,1,3,1,3,1,3,1,0" points="74.8789,314.062 521.281,314.062"/>
<polyline fill="none" stroke="#000000" stroke-width="0.5" stroke-dasharray="0,3,1,3,1,3,1,3,1,0" points="74.8789,243.648 521.281,243.648"/>
<polyline fill="none" stroke="#000000" stroke-width="0.5" stroke-dasharray="0,3,1,3,1,3,1,3,1,0" points="74.8789,173.23 521.281,173.23"/>
<polyline fill="none" stroke="#000000" stroke-width="0.5" stroke-dasharray="0,3,1,3,1,3,1,3,1,0" points="74.8789,102.816 521.281,102.816"/>
<polyline fill="none" stroke="#000000" stroke-width="0.5" stroke-dasharray="0,3,1,3,1,3,1,3,1,0" points="74.8789,32.3984 521.281,32.3984"/>
<polyline fill="none" stroke="#000000" stroke-width="0.5" stroke-dasharray="16,0" points="74.8789,384.48 81.8867,384.48"/>
<polyline fill="none" stroke="#000000" stroke-width="0.5" stroke-dasharray="16,0" points="521.281,384.48 514.273,384.48"/>
<polyline fill="none" stroke="#000000" stroke-width="0.5" stroke-dasharray="16,0" points="74.8789,314.062 81.8867,314.062"/>
<polyline fill="none" stroke="#000000" stroke-width="0.5" stroke-dasharray="16,0" points="521.281,314.062 514.273,314.062"/>
<polyline fill="none" stroke="#000000" stroke-width="0.5" stroke-dasharray="16,0" points="74.8789,243.648 81.8867,243.648"/>
<polyline fill="none" stroke="#000000" stroke-width="0.5" stroke-dasharray="16,0" points="521.281,243.648 514.273,243.648"/>
<polyline fill="none" stroke="#000000" stroke-width="0.5" stroke-dasharray="16,0" points="74.8789,173.23 81.8867,173.23"/>
<polyline fill="none" stroke="#000000" stroke-width="0.5" stroke-dasharray="16,0" points="521.281,173.23 514.273,173.23"/>
<polyline fill="none" stroke="#000000" stroke-width="0.5" stroke-dasharray="16,0" points="74.8789,102.816 81.8867,102.816"/>
<polyline fill="none" stroke="#000000" stroke-width="0.5" stroke-dasharray="16,0" points="521.281,102.816 514.273,102.816"/>
<polyline fill="none" stroke="#000000" stroke-width="0.5" stroke-dasharray="16,0" points="74.8789,32.3984 81.8867,32.3984"/>
<polyline fill="none" stroke="#000000" stroke-width="0.5" stroke-dasharray="16,0" points="521.281,32.3984 514.273,32.3984"/>
<polyline fill="none" stroke="#000000" stroke-width="0.5" stroke-dasharray="0,3,1,3,1,3,1,3,1,0" points="74.8789,370.398 521.281,370.398"/>
<polyline fill="none" stroke="#000000" stroke-width="0.5" stroke-dasharray="0,3,1,3,1,3,1,3,1,0" points="74.8789,356.312 521.281,356.312"/>
<polyline fill="none" stroke="#000000" stroke-width="0.5" stroke-dasharray="0,3,1,3,1,3,1,3,1,0" points="74.8789,342.23 521.281,342.23"/>
<polyline fill="none" stroke="#000000" stroke-width="0.5" stroke-dasharray="0,3,1,3,1,3,1,3,1,0" points="74.8789,328.148 521.281,328.148"/>
<polyline fill="none" stroke="#000000" stroke-width="0.5" stroke-dasharray="0,3,1,3,1,3,1,3,1,0" points="74.8789,299.98 521.281,299.98"/>
<polyline fill="none" stroke="#000000" stroke-width="0.5" stroke-dasharray="0,3,1,3,1,3,1,3,1,0" points="74.8789,285.898 521.281,285.898"/>
<polyline fill="none" stroke="#000000" stroke-width="0.5" stroke-dasharray="0,3,1,3,1,3,1,3,1,0" points="74.8789,271.812 521.281,271.812"/>
<polyline fill="none" stroke="#000000" stroke-width="0.5" stroke-dasharray="0,3,1,3,1,3,1,3,1,0" points="74.8789,257.73 521.281,257.73"/>
<polyline fill="none" stroke="#000000" stroke-width="0.5" stroke-dasharray="0,3,1,3,1,3,1,3,1,0" points="74.8789,229.566 521.281,229.566"/>
<polyline fill="none" stroke="#000000" stroke-width="0.5" stroke-dasharray="0,3,1,3,1,3,1,3,1,0" points="74.8789,215.48 521.281,215.48"/>
<polyline fill="none" stroke="#000000" stroke-width="0.5" stroke-dasharray="0,3,1,3,1,3,1,3,1,0" points="74.8789,201.398 521.281,201.398"/>
<polyline fill="none" stroke="#000000" stroke-width="0.5" stroke-dasharray="0,3,1,3,1,3,1,3,1,0" points="74.8789,187.316 521.281,187.316"/>
<polyline fill="none" stroke="#000000" stroke-width="0.5" stroke-dasharray="0,3,1,3,1,3,1,3,1,0" points="74.8789,159.148 521.281,159.148"/>
<polyline fill="none" stroke="#000000" stroke-width="0.5" stroke-dasharray="0,3,1,3,1,3,1,3,1,0" points="74.8789,145.066 521.281,145.066"/>
<polyline fill="none" stroke="#000000" stroke-width="0.5" stroke-dasharray="0,3,1,3,1,3,1,3,1,0" points="74.8789,130.98 521.281,130.98"/>
<polyline fill="none" stroke="#000000" stroke-width="0.5" stroke-dasharray="0,3,1,3,1,3,1,3,1,0" points="74.8789,116.898 521.281,116.898"/>
<polyline fill="none" stroke="#000000" stroke-width="0.5" stroke-dasharray="0,3,1,3,1,3,1,3,1,0" points="74.8789,88.7344 521.281,88.7344"/>
<polyline fill="none" stroke="#000000" stroke-width="0.5" stroke-dasharray="0,3,1,3,1,3,1,3,1,0" points="74.8789,74.6484 521.281,74.6484"/>
<polyline fill="none" stroke="#000000" stroke-width="0.5" stroke-dasharray="0,3,1,3,1,3,1,3,1,0" points="74.8789,60.5664 521.281,60.5664"/>
<polyline fill="none" stroke="#000000" stroke-width="0.5" stroke-dasharray="0,3,1,3,1,3,1,3,1,0" points="74.8789,46.4844 521.281,46.4844"/>
<polyline fill="none" stroke="#ff0000" stroke-width="1.5" points="75.9961,32.3984 77.1133,32.3984 78.2266,325.332 79.3438,32.3984 80.4609,32.3984 81.5742,32.3984 82.6914,32.3984 83.8086,32.3984 84.9258,325.332 86.0391,32.3984 87.1562,32.3984 88.2734,32.3984 89.3867,32.3984 90.5039,32.3984 91.6211,32.3984 92.7344,105.633 93.8516,32.3984 94.9688,32.3984 96.0859,32.3984 97.1992,32.3984 98.3164,32.3984 99.4336,288.715 100.547,32.3984 101.664,32.3984 102.781,32.3984 103.895,32.3984 105.012,32.3984 106.129,32.3984 107.242,325.332 108.359,32.3984 109.477,32.3984 110.594,32.3984 111.707,32.3984 112.824,32.3984 113.941,32.3984 115.055,325.332 116.172,32.3984 117.289,32.3984 118.402,32.3984 119.52,32.3984 120.637,32.3984 121.754,32.3984 122.867,105.633 123.984,32.3984 125.102,32.3984 126.215,32.3984 127.332,32.3984 128.449,32.3984 129.562,32.3984 130.68,32.3984 131.797,32.3984 132.91,32.3984 134.027,32.3984 135.145,32.3984 136.262,32.3984 137.375,32.3984 138.492,105.633 139.609,32.3984 140.723,32.3984 141.84,32.3984 142.957,32.3984 144.07,32.3984 145.188,288.715 146.305,32.3984 147.422,32.3984 148.535,32.3984 149.652,32.3984 150.77,32.3984 151.883,32.3984 153,325.332 154.117,32.3984 155.23,32.3984 156.348,32.3984 157.465,32.3984 158.578,32.3984 159.695,32.3984 160.812,325.332 161.93,32.3984 163.043,32.3984 164.16,32.3984 165.277,32.3984 166.391,32.3984 167.508,32.3984 168.625,32.3984 169.738,32.3984 170.855,32.3984 171.973,32.3984 173.09,32.3984 174.203,32.3984 175.32,325.332 176.438,32.3984 177.551,32.3984 178.668,32.3984 179.785,32.3984 180.898,32.3984 182.016,69.0156 183.133,32.3984 184.246,32.3984 185.363,32.3984 186.48,32.3984 187.598,32.3984 188.711,32.3984 189.828,325.332 190.945,32.3984 192.059,32.3984 193.176,32.3984 194.293,32.3984 195.406,32.3984 196.523,32.3984 197.641,32.3984 198.758,32.3984 199.871,32.3984 200.988,32.3984 202.105,32.3984 203.219,32.3984 204.336,32.3984 205.453,32.3984 206.566,32.3984 207.684,32.3984 208.801,32.3984 209.914,32.3984 211.031,32.3984 212.148,32.3984 213.266,32.3984 214.379,32.3984 215.496,32.3984 216.613,32.3984 217.727,32.3984 218.844,32.3984 219.961,32.3984 221.074,32.3984 222.191,32.3984 223.309,32.3984 224.426,32.3984 225.539,32.3984 226.656,32.3984 227.773,32.3984 228.887,32.3984 230.004,32.3984 231.121,32.3984 232.234,32.3984 233.352,32.3984 234.469,32.3984 235.586,32.3984 236.699,32.3984 237.816,32.3984 238.934,32.3984 240.047,32.3984 241.164,32.3984 242.281,32.3984 243.395,32.3984 244.512,32.3984 245.629,32.3984 246.742,32.3984 247.859,32.3984 248.977,32.3984 250.094,32.3984 251.207,32.3984 252.324,32.3984 253.441,32.3984 254.555,32.3984 255.672,32.3984 256.789,32.3984 257.902,32.3984 259.02,32.3984 260.137,32.3984 261.254,32.3984 262.367,32.3984 263.484,32.3984 264.602,32.3984 265.715,32.3984 266.832,32.3984 267.949,32.3984 269.062,32.3984 270.18,32.3984 271.297,32.3984 272.41,32.3984 273.527,32.3984 274.645,32.3984 275.762,32.3984 276.875,32.3984 277.992,32.3984 279.109,32.3984 280.223,32.3984 281.34,32.3984 282.457,32.3984 283.57,32.3984 284.688,32.3984 285.805,32.3984 286.922,32.3984 288.035,32.3984 289.152,32.3984 290.27,32.3984 291.383,32.3984 292.5,32.3984 293.617,32.3984 294.73,32.3984 295.848,32.3984 296.965,32.3984 298.078,32.3984 299.195,32.3984 300.312,32.3984 301.43,32.3984 302.543,32.3984 303.66,32.3984 304.777,32.3984 305.891,32.3984 307.008,32.3984 308.125,32.3984 309.238,32.3984 310.355,32.3984 311.473,32.3984 312.59,32.3984 313.703,32.3984 314.82,32.3984 315.938,32.3984 317.051,32.3984 318.168,32.3984 319.285,32.3984 320.398,32.3984 321.516,32.3984 322.633,32.3984 323.746,32.3984 324.863,32.3984 325.98,32.3984 327.098,32.3984 328.211,32.3984 329.328,32.3984 330.445,32.3984 331.559,32.3984 332.676,32.3984 333.793,32.3984 334.906,32.3984 336.023,32.3984 337.141,32.3984 338.258,32.3984 339.371,32.3984 340.488,32.3984 341.605,32.3984 342.719,32.3984 343.836,32.3984 344.953,32.3984 346.066,32.3984 347.184,32.3984 348.301,32.3984 349.414,32.3984 350.531,32.3984 351.648,32.3984 352.766,32.3984 353.879,288.715 354.996,325.332 356.113,325.332 357.227,178.867 358.344,142.25 359.461,105.633 360.574,105.633 361.691,69.0156 362.809,69.0156 363.926,69.0156 365.039,69.0156 366.156,69.0156 367.273,69.0156 368.387,69.0156 369.504,69.0156 370.621,69.0156 371.734,32.3984 372.852,69.0156 373.969,69.0156 375.082,69.0156 376.199,32.3984 377.316,69.0156 378.434,32.3984 379.547,69.0156 380.664,69.0156 381.781,32.3984 382.895,69.0156 384.012,32.3984 385.129,32.3984 386.242,69.0156 387.359,69.0156 388.477,32.3984 389.594,32.3984 390.707,32.3984 391.824,69.0156 392.941,32.3984 394.055,69.0156 395.172,32.3984 396.289,69.0156 397.402,32.3984 398.52,32.3984 399.637,32.3984 400.75,32.3984 401.867,32.3984 402.984,32.3984 404.102,32.3984 405.215,69.0156 406.332,32.3984 407.449,32.3984 408.562,32.3984 409.68,32.3984 410.797,32.3984 411.91,32.3984 413.027,32.3984 414.145,32.3984 415.262,32.3984 416.375,32.3984 417.492,32.3984 418.609,69.0156 419.723,32.3984 420.84,32.3984 421.957,32.3984 423.07,32.3984 424.188,32.3984 425.305,32.3984 426.422,32.3984 427.535,32.3984 428.652,32.3984 429.77,32.3984 430.883,32.3984 432,32.3984 433.117,32.3984 434.23,105.633 435.348,325.332 436.465,288.715 437.578,325.332 438.695,325.332 439.812,325.332 440.93,288.715 442.043,325.332 443.16,288.715 444.277,325.332 445.391,288.715 446.508,288.715 447.625,325.332 448.738,325.332 449.855,32.3984 450.973,32.3984 452.09,32.3984 453.203,32.3984 454.32,32.3984 455.438,32.3984 456.551,32.3984 457.668,32.3984 458.785,32.3984 459.898,32.3984 461.016,32.3984 462.133,32.3984 463.246,32.3984 464.363,32.3984 465.48,32.3984 466.598,32.3984 467.711,32.3984 468.828,32.3984 469.945,32.3984 471.059,32.3984 472.176,32.3984 473.293,32.3984 474.406,32.3984 475.523,32.3984"/>
<polyline fill="none" stroke="#000000" stroke-width="0.5" stroke-dasharray="16,0" points="521.281,384.48 521.281,384.48"/>
<polyline fill="none" stroke="#000000" stroke-width="0.5" stroke-dasharray="16,0" points="74.8789,384.48 74.8789,384.48"/>
<polyline fill="none" stroke="#000000" stroke-width="0.5" stroke-dasharray="16,0" points="74.8789,32.3984 74.8789,32.3984"/>
<polyline fill="none" stroke="#000000" stroke-width="0.5" stroke-dasharray="16,0" points="521.281,32.3984 521.281,32.3984"/>
<text fill="#000000" x="298.08" y="22.4" font-size="10" text-anchor="middle" baseline-shift="0" font-family="Helvetica">Shaver Braun (reactive power)</text>
<polyline fill="none" stroke="#000000" stroke-width="0.5" stroke-dasharray="16,0" points="521.281,384.48 521.281,32.3984"/>
<polyline fill="none" stroke="#000000" stroke-width="0.5" stroke-dasharray="16,0" points="74.8789,384.48 74.8789,32.3984 521.281,32.3984"/>
<polyline fill="none" stroke="#000000" stroke-width="0.5" stroke-dasharray="16,0" points="74.8789,384.48 521.281,384.48"/>
</g>
</svg>
