<?xml version="1.0" encoding="UTF-8" standalone="no"?>
<svg xmlns="http://www.w3.org/2000/svg"
     xmlns:xlink="http://www.w3.org/1999/xlink"
     width="576px" height="432px" viewBox="0 0 576 432">
<title>glps_renderer figure</title>
<desc>
Creator: GL2PS 1.3.5, (C) 1999-2009 C. Geuzaine
For: Octave
CreationDate: Fri Dec 23 15:28:49 2011
</desc>
<defs>
</defs>
<g shape-rendering="crispEdges">
<text fill="#000000" x="298.08" y="389.482" font-size="10" text-anchor="middle" baseline-shift="-10" font-family="Helvetica">200</text>
<text fill="#000000" x="409.68" y="389.482" font-size="10" text-anchor="middle" baseline-shift="-10" font-family="Helvetica">300</text>
<text fill="#000000" x="521.28" y="389.482" font-size="10" text-anchor="middle" baseline-shift="-10" font-family="Helvetica">400</text>
<text fill="#000000" x="69.8755" y="384.48" font-size="10" text-anchor="end" baseline-shift="-5" font-family="Helvetica">233</text>
<text fill="#000000" x="69.8755" y="296.46" font-size="10" text-anchor="end" baseline-shift="-5" font-family="Helvetica">234</text>
<text fill="#000000" x="69.8755" y="208.44" font-size="10" text-anchor="end" baseline-shift="-5" font-family="Helvetica">235</text>
<text fill="#000000" x="74.88" y="389.482" font-size="10" text-anchor="middle" baseline-shift="-10" font-family="Helvetica">0</text>
<text fill="#000000" x="186.48" y="389.482" font-size="10" text-anchor="middle" baseline-shift="-10" font-family="Helvetica">100</text>
<text fill="#000000" x="69.8755" y="120.42" font-size="10" text-anchor="end" baseline-shift="-5" font-family="Helvetica">236</text>
<text fill="#000000" x="69.8755" y="32.4" font-size="10" text-anchor="end" baseline-shift="-5" font-family="Helvetica">237</text>
<text fill="#000000" x="298.08" y="402.481" font-size="10" text-anchor="middle" baseline-shift="-10" font-family="Helvetica">time (10 seconds per unit)</text>
<text fill="#000000" x="51.8755" y="208.44" font-size="10" transform="rotate(-90, 51.8755, 208.44)" text-anchor="middle" baseline-shift="0" font-family="Helvetica">volt (V)</text>
<polyline fill="none" stroke="#000000" stroke-width="0.5" stroke-dasharray="16,0" points="74.8789,32.3984 521.281,32.3984"/>
<polyline fill="none" stroke="#000000" stroke-width="0.5" stroke-dasharray="16,0" points="74.8789,384.477 74.8789,32.3984"/>
<polyline fill="none" stroke="#000000" stroke-width="0.5" stroke-dasharray="16,0" points="521.281,384.477 521.281,32.3984"/>
<polyline fill="none" stroke="#000000" stroke-width="0.5" stroke-dasharray="0,3,1,3,1,3,1,3,1,0" points="74.8789,384.477 74.8789,32.3984"/>
<polyline fill="none" stroke="#000000" stroke-width="0.5" stroke-dasharray="0,3,1,3,1,3,1,3,1,0" points="186.48,384.477 186.48,32.3984"/>
<polyline fill="none" stroke="#000000" stroke-width="0.5" stroke-dasharray="0,3,1,3,1,3,1,3,1,0" points="298.078,384.477 298.078,32.3984"/>
<polyline fill="none" stroke="#000000" stroke-width="0.5" stroke-dasharray="0,3,1,3,1,3,1,3,1,0" points="409.68,384.477 409.68,32.3984"/>
<polyline fill="none" stroke="#000000" stroke-width="0.5" stroke-dasharray="16,0" points="74.8789,384.477 521.281,384.477"/>
<polyline fill="none" stroke="#000000" stroke-width="0.5" stroke-dasharray="0,3,1,3,1,3,1,3,1,0" points="521.281,384.477 521.281,32.3984"/>
<polyline fill="none" stroke="#000000" stroke-width="0.5" stroke-dasharray="16,0" points="74.8789,384.477 74.8789,377.477"/>
<polyline fill="none" stroke="#000000" stroke-width="0.5" stroke-dasharray="16,0" points="74.8789,32.3984 74.8789,39.4023"/>
<polyline fill="none" stroke="#000000" stroke-width="0.5" stroke-dasharray="16,0" points="186.48,384.477 186.48,377.477"/>
<polyline fill="none" stroke="#000000" stroke-width="0.5" stroke-dasharray="16,0" points="186.48,32.3984 186.48,39.4023"/>
<polyline fill="none" stroke="#000000" stroke-width="0.5" stroke-dasharray="16,0" points="298.078,384.477 298.078,377.477"/>
<polyline fill="none" stroke="#000000" stroke-width="0.5" stroke-dasharray="16,0" points="298.078,32.3984 298.078,39.4023"/>
<polyline fill="none" stroke="#000000" stroke-width="0.5" stroke-dasharray="16,0" points="409.68,384.477 409.68,377.477"/>
<polyline fill="none" stroke="#000000" stroke-width="0.5" stroke-dasharray="16,0" points="409.68,32.3984 409.68,39.4023"/>
<polyline fill="none" stroke="#000000" stroke-width="0.5" stroke-dasharray="16,0" points="521.281,384.477 521.281,377.477"/>
<polyline fill="none" stroke="#000000" stroke-width="0.5" stroke-dasharray="16,0" points="521.281,32.3984 521.281,39.4023"/>
<polyline fill="none" stroke="#000000" stroke-width="0.5" stroke-dasharray="0,3,1,3,1,3,1,3,1,0" points="97.1992,384.477 97.1992,32.3984"/>
<polyline fill="none" stroke="#000000" stroke-width="0.5" stroke-dasharray="0,3,1,3,1,3,1,3,1,0" points="119.52,384.477 119.52,32.3984"/>
<polyline fill="none" stroke="#000000" stroke-width="0.5" stroke-dasharray="0,3,1,3,1,3,1,3,1,0" points="141.84,384.477 141.84,32.3984"/>
<polyline fill="none" stroke="#000000" stroke-width="0.5" stroke-dasharray="0,3,1,3,1,3,1,3,1,0" points="164.16,384.477 164.16,32.3984"/>
<polyline fill="none" stroke="#000000" stroke-width="0.5" stroke-dasharray="0,3,1,3,1,3,1,3,1,0" points="208.801,384.477 208.801,32.3984"/>
<polyline fill="none" stroke="#000000" stroke-width="0.5" stroke-dasharray="0,3,1,3,1,3,1,3,1,0" points="231.121,384.477 231.121,32.3984"/>
<polyline fill="none" stroke="#000000" stroke-width="0.5" stroke-dasharray="0,3,1,3,1,3,1,3,1,0" points="253.441,384.477 253.441,32.3984"/>
<polyline fill="none" stroke="#000000" stroke-width="0.5" stroke-dasharray="0,3,1,3,1,3,1,3,1,0" points="275.762,384.477 275.762,32.3984"/>
<polyline fill="none" stroke="#000000" stroke-width="0.5" stroke-dasharray="0,3,1,3,1,3,1,3,1,0" points="320.398,384.477 320.398,32.3984"/>
<polyline fill="none" stroke="#000000" stroke-width="0.5" stroke-dasharray="0,3,1,3,1,3,1,3,1,0" points="342.719,384.477 342.719,32.3984"/>
<polyline fill="none" stroke="#000000" stroke-width="0.5" stroke-dasharray="0,3,1,3,1,3,1,3,1,0" points="365.039,384.477 365.039,32.3984"/>
<polyline fill="none" stroke="#000000" stroke-width="0.5" stroke-dasharray="0,3,1,3,1,3,1,3,1,0" points="387.359,384.477 387.359,32.3984"/>
<polyline fill="none" stroke="#000000" stroke-width="0.5" stroke-dasharray="0,3,1,3,1,3,1,3,1,0" points="432,384.477 432,32.3984"/>
<polyline fill="none" stroke="#000000" stroke-width="0.5" stroke-dasharray="0,3,1,3,1,3,1,3,1,0" points="454.32,384.477 454.32,32.3984"/>
<polyline fill="none" stroke="#000000" stroke-width="0.5" stroke-dasharray="0,3,1,3,1,3,1,3,1,0" points="476.641,384.477 476.641,32.3984"/>
<polyline fill="none" stroke="#000000" stroke-width="0.5" stroke-dasharray="0,3,1,3,1,3,1,3,1,0" points="498.961,384.477 498.961,32.3984"/>
<polyline fill="none" stroke="#000000" stroke-width="0.5" stroke-dasharray="0,3,1,3,1,3,1,3,1,0" points="74.8789,384.477 521.281,384.477"/>
<polyline fill="none" stroke="#000000" stroke-width="0.5" stroke-dasharray="0,3,1,3,1,3,1,3,1,0" points="74.8789,296.457 521.281,296.457"/>
<polyline fill="none" stroke="#000000" stroke-width="0.5" stroke-dasharray="0,3,1,3,1,3,1,3,1,0" points="74.8789,208.438 521.281,208.438"/>
<polyline fill="none" stroke="#000000" stroke-width="0.5" stroke-dasharray="0,3,1,3,1,3,1,3,1,0" points="74.8789,120.418 521.281,120.418"/>
<polyline fill="none" stroke="#000000" stroke-width="0.5" stroke-dasharray="0,3,1,3,1,3,1,3,1,0" points="74.8789,32.3984 521.281,32.3984"/>
<polyline fill="none" stroke="#000000" stroke-width="0.5" stroke-dasharray="16,0" points="74.8789,384.477 81.8867,384.477"/>
<polyline fill="none" stroke="#000000" stroke-width="0.5" stroke-dasharray="16,0" points="521.281,384.477 514.273,384.477"/>
<polyline fill="none" stroke="#000000" stroke-width="0.5" stroke-dasharray="16,0" points="74.8789,296.457 81.8867,296.457"/>
<polyline fill="none" stroke="#000000" stroke-width="0.5" stroke-dasharray="16,0" points="521.281,296.457 514.273,296.457"/>
<polyline fill="none" stroke="#000000" stroke-width="0.5" stroke-dasharray="16,0" points="74.8789,208.438 81.8867,208.438"/>
<polyline fill="none" stroke="#000000" stroke-width="0.5" stroke-dasharray="16,0" points="521.281,208.438 514.273,208.438"/>
<polyline fill="none" stroke="#000000" stroke-width="0.5" stroke-dasharray="16,0" points="74.8789,120.418 81.8867,120.418"/>
<polyline fill="none" stroke="#000000" stroke-width="0.5" stroke-dasharray="16,0" points="521.281,120.418 514.273,120.418"/>
<polyline fill="none" stroke="#000000" stroke-width="0.5" stroke-dasharray="16,0" points="74.8789,32.3984 81.8867,32.3984"/>
<polyline fill="none" stroke="#000000" stroke-width="0.5" stroke-dasharray="16,0" points="521.281,32.3984 514.273,32.3984"/>
<polyline fill="none" stroke="#000000" stroke-width="0.5" stroke-dasharray="0,3,1,3,1,3,1,3,1,0" points="74.8789,366.875 521.281,366.875"/>
<polyline fill="none" stroke="#000000" stroke-width="0.5" stroke-dasharray="0,3,1,3,1,3,1,3,1,0" points="74.8789,349.27 521.281,349.27"/>
<polyline fill="none" stroke="#000000" stroke-width="0.5" stroke-dasharray="0,3,1,3,1,3,1,3,1,0" points="74.8789,331.668 521.281,331.668"/>
<polyline fill="none" stroke="#000000" stroke-width="0.5" stroke-dasharray="0,3,1,3,1,3,1,3,1,0" points="74.8789,314.062 521.281,314.062"/>
<polyline fill="none" stroke="#000000" stroke-width="0.5" stroke-dasharray="0,3,1,3,1,3,1,3,1,0" points="74.8789,278.855 521.281,278.855"/>
<polyline fill="none" stroke="#000000" stroke-width="0.5" stroke-dasharray="0,3,1,3,1,3,1,3,1,0" points="74.8789,261.25 521.281,261.25"/>
<polyline fill="none" stroke="#000000" stroke-width="0.5" stroke-dasharray="0,3,1,3,1,3,1,3,1,0" points="74.8789,243.645 521.281,243.645"/>
<polyline fill="none" stroke="#000000" stroke-width="0.5" stroke-dasharray="0,3,1,3,1,3,1,3,1,0" points="74.8789,226.043 521.281,226.043"/>
<polyline fill="none" stroke="#000000" stroke-width="0.5" stroke-dasharray="0,3,1,3,1,3,1,3,1,0" points="74.8789,190.836 521.281,190.836"/>
<polyline fill="none" stroke="#000000" stroke-width="0.5" stroke-dasharray="0,3,1,3,1,3,1,3,1,0" points="74.8789,173.23 521.281,173.23"/>
<polyline fill="none" stroke="#000000" stroke-width="0.5" stroke-dasharray="0,3,1,3,1,3,1,3,1,0" points="74.8789,155.625 521.281,155.625"/>
<polyline fill="none" stroke="#000000" stroke-width="0.5" stroke-dasharray="0,3,1,3,1,3,1,3,1,0" points="74.8789,138.023 521.281,138.023"/>
<polyline fill="none" stroke="#000000" stroke-width="0.5" stroke-dasharray="0,3,1,3,1,3,1,3,1,0" points="74.8789,102.816 521.281,102.816"/>
<polyline fill="none" stroke="#000000" stroke-width="0.5" stroke-dasharray="0,3,1,3,1,3,1,3,1,0" points="74.8789,85.2109 521.281,85.2109"/>
<polyline fill="none" stroke="#000000" stroke-width="0.5" stroke-dasharray="0,3,1,3,1,3,1,3,1,0" points="74.8789,67.6055 521.281,67.6055"/>
<polyline fill="none" stroke="#000000" stroke-width="0.5" stroke-dasharray="0,3,1,3,1,3,1,3,1,0" points="74.8789,50.0039 521.281,50.0039"/>
<polyline fill="none" stroke="#ff0000" stroke-width="1.5" points="75.9961,212.84 77.1133,222.434 78.2266,209.316 79.3438,216.184 80.4609,217.328 81.5742,213.457 82.6914,216.977 83.8086,184.496 84.9258,216.711 86.0391,237.484 87.1562,255.707 88.2734,270.051 89.3867,211.168 90.5039,188.988 91.6211,205.797 92.7344,197.965 93.8516,217.152 94.9688,259.578 96.0859,240.566 97.1992,225.164 98.3164,232.82 99.4336,225.34 100.547,221.027 101.664,254.121 102.781,216.184 103.895,231.324 105.012,217.066 106.129,223.488 107.242,221.992 108.359,220.852 109.477,195.324 110.594,196.027 111.707,190.129 112.824,193.562 113.941,169.797 115.055,211.52 116.172,209.145 117.289,207.648 118.402,192.945 119.52,209.055 120.637,209.758 121.754,202.016 122.867,212.926 123.984,197.348 125.102,207.91 126.215,210.812 127.332,212.574 128.449,253.066 129.562,236.164 130.68,240.035 131.797,238.98 132.91,264.422 134.027,262.66 135.145,279.824 136.262,235.285 137.375,221.379 138.492,241.27 139.609,233.523 140.723,249.633 141.84,224.105 142.957,211.254 144.07,221.555 145.188,225.516 146.305,232.293 147.422,251.395 148.535,223.754 149.652,230.004 150.77,217.418 151.883,221.816 153,271.637 154.117,244.352 155.23,265.477 156.348,243.117 157.465,213.277 158.578,202.805 159.695,191.715 160.812,191.891 161.93,208.262 163.043,229.035 164.16,235.812 165.277,226.133 166.391,225.074 167.508,222.168 168.625,206.855 169.738,215.391 170.855,219.352 171.973,236.34 173.09,258.082 174.203,264.156 175.32,249.281 176.438,237.043 177.551,234.316 178.668,209.406 179.785,205.359 180.898,218.031 182.016,227.629 183.133,230.973 184.246,234.227 185.363,231.148 186.48,232.73 187.598,213.102 188.711,214.777 189.828,224.898 190.945,219.969 192.059,221.027 193.176,224.105 194.293,238.363 195.406,207.383 196.523,210.727 197.641,212.574 198.758,210.727 199.871,194.004 200.988,196.82 202.105,183.969 203.219,177.629 204.336,179.832 205.453,165.484 206.566,152.105 207.684,156.684 208.801,181.68 209.914,191.625 211.031,179.039 212.148,207.203 213.266,204.652 214.379,175.078 215.496,160.293 216.613,179.039 217.727,196.117 218.844,211.52 219.961,215.48 221.074,210.812 222.191,205.887 223.309,205.004 224.426,221.555 225.539,227.891 226.656,267.5 227.773,240.125 228.887,222.875 230.004,189.691 231.121,187.051 232.234,204.652 233.352,181.68 234.469,188.371 235.586,189.25 236.699,176.133 237.816,184.938 238.934,145.504 240.047,139.52 241.164,133.184 242.281,135.031 243.395,141.98 244.512,120.77 245.629,109.504 246.742,115.227 247.859,130.188 248.977,116.457 250.094,105.984 251.207,94.1016 252.324,98.1484 253.441,120.77 254.555,119.449 255.672,109.066 256.789,122.266 257.902,135.473 259.02,124.82 260.137,198.934 261.254,161.699 262.367,163.371 263.484,168.391 264.602,175.254 265.715,155.363 266.832,160.293 267.949,180.098 269.062,171.117 270.18,168.039 271.297,173.406 272.41,176.047 273.527,178.602 274.645,157.477 275.762,167.156 276.875,144.977 277.992,147.703 279.109,137.141 280.223,140.223 281.34,142.953 282.457,120.242 283.57,76.3203 284.688,61.2695 285.805,97.9727 286.922,97.1797 288.035,96.7422 289.152,135.031 290.27,172.969 291.383,204.039 292.5,203.246 293.617,212.84 294.73,215.922 295.848,225.957 296.965,237.66 298.078,235.461 299.195,221.289 300.312,235.375 301.43,250.602 302.543,259.402 303.66,268.555 304.777,285.102 305.891,288.711 307.008,281.23 308.125,274.277 309.238,256.586 310.355,275.949 311.473,250.074 312.59,244.086 313.703,274.719 314.82,264.066 315.938,318.199 317.051,291.707 318.168,310.543 319.285,238.012 320.398,227.891 321.516,212.137 322.633,209.055 323.746,212.84 324.863,210.727 325.98,202.016 327.098,194.707 328.211,212.926 329.328,199.637 330.445,201.66 331.559,199.371 332.676,185.73 333.793,191.715 334.906,180.098 336.023,166.629 337.141,169.184 338.258,179.566 339.371,209.406 340.488,179.48 341.605,176.223 342.719,166.629 343.836,160.996 344.953,147.441 346.066,166.277 347.184,184.41 348.301,185.203 349.414,175.605 350.531,192.773 351.648,155.801 352.766,154.305 353.879,157.914 354.996,152.371 356.113,198.316 357.227,164.164 358.344,168.742 359.461,157.562 360.574,204.918 361.691,147.531 362.809,152.898 363.926,152.191 365.039,165.574 366.156,153.25 367.273,119.715 368.387,127.812 369.504,116.723 370.621,116.723 371.734,115.754 372.852,109.594 373.969,126.934 375.082,120.594 376.199,110.562 377.316,106.16 378.434,102.375 379.547,100.703 380.664,110.562 381.781,101.32 382.895,103.434 384.012,104.664 385.129,103.434 386.242,101.145 387.359,113.641 388.477,83.8008 389.594,77.2031 390.707,147.969 391.824,117.074 392.941,136.703 394.055,134.062 395.172,169.094 396.289,170.324 397.402,176.664 398.52,162.668 399.637,116.543 400.75,115.93 401.867,123.938 402.984,178.949 404.102,197.789 405.215,140.223 406.332,157.387 407.449,219.617 408.562,225.867 409.68,244.086 410.797,280.527 411.91,308.254 413.027,303.414 414.145,321.016 415.262,334.395 416.375,340.82 417.492,365.113 418.609,369.164 419.723,370.57 420.84,369.516 421.957,335.453 423.07,331.312 424.188,355.52 425.305,348.039 426.422,355.258 427.535,249.984 428.652,242.324 429.77,229.562 430.883,238.012 432,215.039 433.117,230.617 434.23,237.043 435.348,260.02 436.465,228.684 437.578,271.109 438.695,271.551 439.812,276.039 440.93,280 442.043,269.789 443.16,270.578 444.277,277.535 445.391,312.566 446.508,278.855 447.625,269.348 448.738,306.492 449.855,306.406 450.973,265.918 452.09,270.758 453.203,249.984 454.32,250.074 455.438,250.25 456.551,270.934 457.668,259.844 458.785,241.535 459.898,234.402 461.016,215.039 462.133,223.051 463.246,273.484 464.363,216.359 465.48,219.883 466.598,219.793 467.711,217.77 468.828,265.477 469.945,244.262 471.059,204.652 472.176,243.207 473.293,208.965 474.406,197.348"/>
<polyline fill="none" stroke="#000000" stroke-width="0.5" stroke-dasharray="16,0" points="521.281,384.477 521.281,384.477"/>
<polyline fill="none" stroke="#000000" stroke-width="0.5" stroke-dasharray="16,0" points="74.8789,384.477 74.8789,384.477"/>
<polyline fill="none" stroke="#000000" stroke-width="0.5" stroke-dasharray="16,0" points="74.8789,32.3984 74.8789,32.3984"/>
<polyline fill="none" stroke="#000000" stroke-width="0.5" stroke-dasharray="16,0" points="521.281,32.3984 521.281,32.3984"/>
<text fill="#000000" x="298.08" y="22.3994" font-size="10" text-anchor="middle" baseline-shift="0" font-family="Helvetica">Mobile Sony Ericsson (RMS voltage)</text>
<polyline fill="none" stroke="#000000" stroke-width="0.5" stroke-dasharray="16,0" points="521.281,384.477 521.281,32.3984"/>
<polyline fill="none" stroke="#000000" stroke-width="0.5" stroke-dasharray="16,0" points="74.8789,384.477 74.8789,32.3984 521.281,32.3984"/>
<polyline fill="none" stroke="#000000" stroke-width="0.5" stroke-dasharray="16,0" points="74.8789,384.477 521.281,384.477"/>
</g>
</svg>
