<?xml version="1.0" encoding="UTF-8" standalone="no"?>
<svg xmlns="http://www.w3.org/2000/svg"
     xmlns:xlink="http://www.w3.org/1999/xlink"
     width="576px" height="432px" viewBox="0 0 576 432">
<title>glps_renderer figure</title>
<desc>
Creator: GL2PS 1.3.5, (C) 1999-2009 C. Geuzaine
For: Octave
CreationDate: Tue Jan 31 15:47:04 2012
</desc>
<defs>
</defs>
<g shape-rendering="crispEdges">
<text fill="#000000" x="298.08" y="389.482" font-size="10" text-anchor="middle" baseline-shift="-10" font-family="Helvetica">200</text>
<text fill="#000000" x="409.68" y="389.482" font-size="10" text-anchor="middle" baseline-shift="-10" font-family="Helvetica">300</text>
<text fill="#000000" x="521.28" y="389.482" font-size="10" text-anchor="middle" baseline-shift="-10" font-family="Helvetica">400</text>
<text fill="#000000" x="69.8755" y="384.48" font-size="10" text-anchor="end" baseline-shift="-5" font-family="Helvetica">49.85</text>
<text fill="#000000" x="69.8755" y="314.06" font-size="10" text-anchor="end" baseline-shift="-5" font-family="Helvetica">49.9</text>
<text fill="#000000" x="69.8755" y="243.645" font-size="10" text-anchor="end" baseline-shift="-5" font-family="Helvetica">49.95</text>
<text fill="#000000" x="74.88" y="389.482" font-size="10" text-anchor="middle" baseline-shift="-10" font-family="Helvetica">0</text>
<text fill="#000000" x="186.48" y="389.482" font-size="10" text-anchor="middle" baseline-shift="-10" font-family="Helvetica">100</text>
<text fill="#000000" x="69.8755" y="173.23" font-size="10" text-anchor="end" baseline-shift="-5" font-family="Helvetica">50</text>
<text fill="#000000" x="69.8755" y="102.815" font-size="10" text-anchor="end" baseline-shift="-5" font-family="Helvetica">50.05</text>
<text fill="#000000" x="69.8755" y="32.4" font-size="10" text-anchor="end" baseline-shift="-5" font-family="Helvetica">50.1</text>
<text fill="#000000" x="298.08" y="402.477" font-size="10" text-anchor="middle" baseline-shift="-10" font-family="Helvetica">time (10 seconds per unit)</text>
<text fill="#000000" x="42.8755" y="208.44" font-size="10" transform="rotate(-90, 42.8755, 208.44)" text-anchor="middle" baseline-shift="0" font-family="Helvetica">hertz (Hz)</text>
<polyline fill="none" stroke="#000000" stroke-width="0.5" stroke-dasharray="16,0" points="74.8789,32.3984 521.281,32.3984"/>
<polyline fill="none" stroke="#000000" stroke-width="0.5" stroke-dasharray="16,0" points="74.8789,384.473 74.8789,32.3984"/>
<polyline fill="none" stroke="#000000" stroke-width="0.5" stroke-dasharray="16,0" points="521.281,384.473 521.281,32.3984"/>
<polyline fill="none" stroke="#000000" stroke-width="0.5" stroke-dasharray="0,3,1,3,1,3,1,3,1,0" points="74.8789,384.473 74.8789,32.3984"/>
<polyline fill="none" stroke="#000000" stroke-width="0.5" stroke-dasharray="0,3,1,3,1,3,1,3,1,0" points="186.48,384.473 186.48,32.3984"/>
<polyline fill="none" stroke="#000000" stroke-width="0.5" stroke-dasharray="0,3,1,3,1,3,1,3,1,0" points="298.078,384.473 298.078,32.3984"/>
<polyline fill="none" stroke="#000000" stroke-width="0.5" stroke-dasharray="0,3,1,3,1,3,1,3,1,0" points="409.68,384.473 409.68,32.3984"/>
<polyline fill="none" stroke="#000000" stroke-width="0.5" stroke-dasharray="16,0" points="74.8789,384.473 521.281,384.473"/>
<polyline fill="none" stroke="#000000" stroke-width="0.5" stroke-dasharray="0,3,1,3,1,3,1,3,1,0" points="521.281,384.473 521.281,32.3984"/>
<polyline fill="none" stroke="#000000" stroke-width="0.5" stroke-dasharray="16,0" points="74.8789,384.473 74.8789,377.473"/>
<polyline fill="none" stroke="#000000" stroke-width="0.5" stroke-dasharray="16,0" points="74.8789,32.3984 74.8789,39.3984"/>
<polyline fill="none" stroke="#000000" stroke-width="0.5" stroke-dasharray="16,0" points="186.48,384.473 186.48,377.473"/>
<polyline fill="none" stroke="#000000" stroke-width="0.5" stroke-dasharray="16,0" points="186.48,32.3984 186.48,39.3984"/>
<polyline fill="none" stroke="#000000" stroke-width="0.5" stroke-dasharray="16,0" points="298.078,384.473 298.078,377.473"/>
<polyline fill="none" stroke="#000000" stroke-width="0.5" stroke-dasharray="16,0" points="298.078,32.3984 298.078,39.3984"/>
<polyline fill="none" stroke="#000000" stroke-width="0.5" stroke-dasharray="16,0" points="409.68,384.473 409.68,377.473"/>
<polyline fill="none" stroke="#000000" stroke-width="0.5" stroke-dasharray="16,0" points="409.68,32.3984 409.68,39.3984"/>
<polyline fill="none" stroke="#000000" stroke-width="0.5" stroke-dasharray="16,0" points="521.281,384.473 521.281,377.473"/>
<polyline fill="none" stroke="#000000" stroke-width="0.5" stroke-dasharray="16,0" points="521.281,32.3984 521.281,39.3984"/>
<polyline fill="none" stroke="#000000" stroke-width="0.5" stroke-dasharray="0,3,1,3,1,3,1,3,1,0" points="97.1992,384.473 97.1992,32.3984"/>
<polyline fill="none" stroke="#000000" stroke-width="0.5" stroke-dasharray="0,3,1,3,1,3,1,3,1,0" points="119.52,384.473 119.52,32.3984"/>
<polyline fill="none" stroke="#000000" stroke-width="0.5" stroke-dasharray="0,3,1,3,1,3,1,3,1,0" points="141.84,384.473 141.84,32.3984"/>
<polyline fill="none" stroke="#000000" stroke-width="0.5" stroke-dasharray="0,3,1,3,1,3,1,3,1,0" points="164.16,384.473 164.16,32.3984"/>
<polyline fill="none" stroke="#000000" stroke-width="0.5" stroke-dasharray="0,3,1,3,1,3,1,3,1,0" points="208.801,384.473 208.801,32.3984"/>
<polyline fill="none" stroke="#000000" stroke-width="0.5" stroke-dasharray="0,3,1,3,1,3,1,3,1,0" points="231.121,384.473 231.121,32.3984"/>
<polyline fill="none" stroke="#000000" stroke-width="0.5" stroke-dasharray="0,3,1,3,1,3,1,3,1,0" points="253.441,384.473 253.441,32.3984"/>
<polyline fill="none" stroke="#000000" stroke-width="0.5" stroke-dasharray="0,3,1,3,1,3,1,3,1,0" points="275.762,384.473 275.762,32.3984"/>
<polyline fill="none" stroke="#000000" stroke-width="0.5" stroke-dasharray="0,3,1,3,1,3,1,3,1,0" points="320.398,384.473 320.398,32.3984"/>
<polyline fill="none" stroke="#000000" stroke-width="0.5" stroke-dasharray="0,3,1,3,1,3,1,3,1,0" points="342.719,384.473 342.719,32.3984"/>
<polyline fill="none" stroke="#000000" stroke-width="0.5" stroke-dasharray="0,3,1,3,1,3,1,3,1,0" points="365.039,384.473 365.039,32.3984"/>
<polyline fill="none" stroke="#000000" stroke-width="0.5" stroke-dasharray="0,3,1,3,1,3,1,3,1,0" points="387.359,384.473 387.359,32.3984"/>
<polyline fill="none" stroke="#000000" stroke-width="0.5" stroke-dasharray="0,3,1,3,1,3,1,3,1,0" points="432,384.473 432,32.3984"/>
<polyline fill="none" stroke="#000000" stroke-width="0.5" stroke-dasharray="0,3,1,3,1,3,1,3,1,0" points="454.32,384.473 454.32,32.3984"/>
<polyline fill="none" stroke="#000000" stroke-width="0.5" stroke-dasharray="0,3,1,3,1,3,1,3,1,0" points="476.641,384.473 476.641,32.3984"/>
<polyline fill="none" stroke="#000000" stroke-width="0.5" stroke-dasharray="0,3,1,3,1,3,1,3,1,0" points="498.961,384.473 498.961,32.3984"/>
<polyline fill="none" stroke="#000000" stroke-width="0.5" stroke-dasharray="0,3,1,3,1,3,1,3,1,0" points="74.8789,384.473 521.281,384.473"/>
<polyline fill="none" stroke="#000000" stroke-width="0.5" stroke-dasharray="0,3,1,3,1,3,1,3,1,0" points="74.8789,314.055 521.281,314.055"/>
<polyline fill="none" stroke="#000000" stroke-width="0.5" stroke-dasharray="0,3,1,3,1,3,1,3,1,0" points="74.8789,243.641 521.281,243.641"/>
<polyline fill="none" stroke="#000000" stroke-width="0.5" stroke-dasharray="0,3,1,3,1,3,1,3,1,0" points="74.8789,173.227 521.281,173.227"/>
<polyline fill="none" stroke="#000000" stroke-width="0.5" stroke-dasharray="0,3,1,3,1,3,1,3,1,0" points="74.8789,102.812 521.281,102.812"/>
<polyline fill="none" stroke="#000000" stroke-width="0.5" stroke-dasharray="0,3,1,3,1,3,1,3,1,0" points="74.8789,32.3984 521.281,32.3984"/>
<polyline fill="none" stroke="#000000" stroke-width="0.5" stroke-dasharray="16,0" points="74.8789,384.473 81.8867,384.473"/>
<polyline fill="none" stroke="#000000" stroke-width="0.5" stroke-dasharray="16,0" points="521.281,384.473 514.273,384.473"/>
<polyline fill="none" stroke="#000000" stroke-width="0.5" stroke-dasharray="16,0" points="74.8789,314.055 81.8867,314.055"/>
<polyline fill="none" stroke="#000000" stroke-width="0.5" stroke-dasharray="16,0" points="521.281,314.055 514.273,314.055"/>
<polyline fill="none" stroke="#000000" stroke-width="0.5" stroke-dasharray="16,0" points="74.8789,243.641 81.8867,243.641"/>
<polyline fill="none" stroke="#000000" stroke-width="0.5" stroke-dasharray="16,0" points="521.281,243.641 514.273,243.641"/>
<polyline fill="none" stroke="#000000" stroke-width="0.5" stroke-dasharray="16,0" points="74.8789,173.227 81.8867,173.227"/>
<polyline fill="none" stroke="#000000" stroke-width="0.5" stroke-dasharray="16,0" points="521.281,173.227 514.273,173.227"/>
<polyline fill="none" stroke="#000000" stroke-width="0.5" stroke-dasharray="16,0" points="74.8789,102.812 81.8867,102.812"/>
<polyline fill="none" stroke="#000000" stroke-width="0.5" stroke-dasharray="16,0" points="521.281,102.812 514.273,102.812"/>
<polyline fill="none" stroke="#000000" stroke-width="0.5" stroke-dasharray="16,0" points="74.8789,32.3984 81.8867,32.3984"/>
<polyline fill="none" stroke="#000000" stroke-width="0.5" stroke-dasharray="16,0" points="521.281,32.3984 514.273,32.3984"/>
<polyline fill="none" stroke="#000000" stroke-width="0.5" stroke-dasharray="0,3,1,3,1,3,1,3,1,0" points="74.8789,370.395 521.281,370.395"/>
<polyline fill="none" stroke="#000000" stroke-width="0.5" stroke-dasharray="0,3,1,3,1,3,1,3,1,0" points="74.8789,356.305 521.281,356.305"/>
<polyline fill="none" stroke="#000000" stroke-width="0.5" stroke-dasharray="0,3,1,3,1,3,1,3,1,0" points="74.8789,342.219 521.281,342.219"/>
<polyline fill="none" stroke="#000000" stroke-width="0.5" stroke-dasharray="0,3,1,3,1,3,1,3,1,0" points="74.8789,328.141 521.281,328.141"/>
<polyline fill="none" stroke="#000000" stroke-width="0.5" stroke-dasharray="0,3,1,3,1,3,1,3,1,0" points="74.8789,299.973 521.281,299.973"/>
<polyline fill="none" stroke="#000000" stroke-width="0.5" stroke-dasharray="0,3,1,3,1,3,1,3,1,0" points="74.8789,285.895 521.281,285.895"/>
<polyline fill="none" stroke="#000000" stroke-width="0.5" stroke-dasharray="0,3,1,3,1,3,1,3,1,0" points="74.8789,271.805 521.281,271.805"/>
<polyline fill="none" stroke="#000000" stroke-width="0.5" stroke-dasharray="0,3,1,3,1,3,1,3,1,0" points="74.8789,257.727 521.281,257.727"/>
<polyline fill="none" stroke="#000000" stroke-width="0.5" stroke-dasharray="0,3,1,3,1,3,1,3,1,0" points="74.8789,229.559 521.281,229.559"/>
<polyline fill="none" stroke="#000000" stroke-width="0.5" stroke-dasharray="0,3,1,3,1,3,1,3,1,0" points="74.8789,215.473 521.281,215.473"/>
<polyline fill="none" stroke="#000000" stroke-width="0.5" stroke-dasharray="0,3,1,3,1,3,1,3,1,0" points="74.8789,201.395 521.281,201.395"/>
<polyline fill="none" stroke="#000000" stroke-width="0.5" stroke-dasharray="0,3,1,3,1,3,1,3,1,0" points="74.8789,187.305 521.281,187.305"/>
<polyline fill="none" stroke="#000000" stroke-width="0.5" stroke-dasharray="0,3,1,3,1,3,1,3,1,0" points="74.8789,159.145 521.281,159.145"/>
<polyline fill="none" stroke="#000000" stroke-width="0.5" stroke-dasharray="0,3,1,3,1,3,1,3,1,0" points="74.8789,145.059 521.281,145.059"/>
<polyline fill="none" stroke="#000000" stroke-width="0.5" stroke-dasharray="0,3,1,3,1,3,1,3,1,0" points="74.8789,130.98 521.281,130.98"/>
<polyline fill="none" stroke="#000000" stroke-width="0.5" stroke-dasharray="0,3,1,3,1,3,1,3,1,0" points="74.8789,116.891 521.281,116.891"/>
<polyline fill="none" stroke="#000000" stroke-width="0.5" stroke-dasharray="0,3,1,3,1,3,1,3,1,0" points="74.8789,88.7266 521.281,88.7266"/>
<polyline fill="none" stroke="#000000" stroke-width="0.5" stroke-dasharray="0,3,1,3,1,3,1,3,1,0" points="74.8789,74.6445 521.281,74.6445"/>
<polyline fill="none" stroke="#000000" stroke-width="0.5" stroke-dasharray="0,3,1,3,1,3,1,3,1,0" points="74.8789,60.5586 521.281,60.5586"/>
<polyline fill="none" stroke="#000000" stroke-width="0.5" stroke-dasharray="0,3,1,3,1,3,1,3,1,0" points="74.8789,46.4805 521.281,46.4805"/>
<polyline fill="none" stroke="#ff0000" stroke-width="1.5" points="75.9961,173.227 77.1133,173.227 78.2266,173.227 79.3438,173.227 80.4609,173.227 81.5742,173.227 82.6914,173.227 83.8086,173.227 84.9258,173.227 86.0391,173.227 87.1562,173.227 88.2734,173.227 89.3867,173.227 90.5039,173.227 91.6211,173.227 92.7344,173.227 93.8516,173.227 94.9688,173.227 96.0859,173.227 97.1992,173.227 98.3164,173.227 99.4336,173.227 100.547,173.227 101.664,173.227 102.781,173.227 103.895,173.227 105.012,173.227 106.129,173.227 107.242,173.227 108.359,173.227 109.477,173.227 110.594,173.227 111.707,173.227 112.824,173.227 113.941,173.227 115.055,173.227 116.172,173.227 117.289,173.227 118.402,173.227 119.52,173.227 120.637,173.227 121.754,173.227 122.867,173.227 123.984,173.227 125.102,173.227 126.215,173.227 127.332,173.227 128.449,173.227 129.562,173.227 130.68,173.227 131.797,173.227 132.91,173.227 134.027,173.227 135.145,173.227 136.262,173.227 137.375,173.227 138.492,173.227 139.609,173.227 140.723,173.227 141.84,173.227 142.957,173.227 144.07,173.227 145.188,173.227 146.305,173.227 147.422,173.227 148.535,173.227 149.652,173.227 150.77,173.227 151.883,173.227 153,173.227 154.117,173.227 155.23,173.227 156.348,173.227 157.465,173.227 158.578,314.055 159.695,173.227 160.812,173.227 161.93,314.055 163.043,173.227 164.16,173.227 165.277,173.227 166.391,173.227 167.508,173.227 168.625,173.227 169.738,173.227 170.855,173.227 171.973,173.227 173.09,173.227 174.203,173.227 175.32,173.227 176.438,173.227 177.551,173.227 178.668,173.227 179.785,173.227 180.898,173.227 182.016,173.227 183.133,173.227 184.246,173.227 185.363,314.055 186.48,173.227 187.598,173.227 188.711,173.227 189.828,314.055 190.945,173.227 192.059,173.227 193.176,173.227 194.293,173.227 195.406,314.055 196.523,173.227 197.641,173.227 198.758,173.227 199.871,173.227 200.988,173.227 202.105,173.227 203.219,173.227 204.336,173.227 205.453,173.227 206.566,173.227 207.684,173.227 208.801,173.227 209.914,173.227 211.031,173.227 212.148,173.227 213.266,173.227 214.379,173.227 215.496,173.227 216.613,173.227 217.727,173.227 218.844,173.227 219.961,173.227 221.074,173.227 222.191,173.227 223.309,173.227 224.426,173.227 225.539,173.227 226.656,173.227 227.773,173.227 228.887,173.227 230.004,173.227 231.121,173.227 232.234,173.227 233.352,173.227 234.469,173.227 235.586,173.227 236.699,314.055 237.816,173.227 238.934,173.227 240.047,173.227 241.164,173.227 242.281,173.227 243.395,173.227 244.512,173.227 245.629,173.227 246.742,173.227 247.859,173.227 248.977,173.227 250.094,173.227 251.207,173.227 252.324,173.227 253.441,173.227 254.555,173.227 255.672,173.227 256.789,173.227 257.902,173.227 259.02,173.227 260.137,173.227 261.254,173.227 262.367,173.227 263.484,173.227 264.602,173.227 265.715,173.227 266.832,173.227 267.949,173.227 269.062,173.227 270.18,314.055 271.297,314.055 272.41,314.055 273.527,173.227 274.645,314.055 275.762,314.055 276.875,314.055 277.992,173.227 279.109,173.227 280.223,173.227 281.34,173.227 282.457,173.227 283.57,173.227 284.688,173.227 285.805,173.227 286.922,173.227 288.035,173.227 289.152,173.227 290.27,173.227 291.383,173.227 292.5,173.227 293.617,173.227 294.73,173.227 295.848,173.227 296.965,173.227 298.078,173.227 299.195,173.227 300.312,173.227 301.43,173.227 302.543,173.227 303.66,173.227 304.777,173.227 305.891,173.227 307.008,173.227 308.125,173.227 309.238,173.227 310.355,173.227 311.473,173.227 312.59,173.227 313.703,173.227 314.82,173.227 315.938,173.227 317.051,173.227 318.168,173.227 319.285,173.227 320.398,173.227 321.516,173.227 322.633,173.227 323.746,173.227 324.863,173.227 325.98,173.227 327.098,173.227 328.211,173.227 329.328,173.227 330.445,173.227 331.559,173.227 332.676,173.227 333.793,173.227 334.906,173.227 336.023,173.227 337.141,173.227 338.258,173.227 339.371,173.227 340.488,173.227 341.605,173.227 342.719,173.227 343.836,173.227 344.953,173.227 346.066,173.227 347.184,173.227 348.301,173.227 349.414,173.227 350.531,173.227 351.648,173.227 352.766,173.227 353.879,173.227 354.996,173.227 356.113,173.227 357.227,173.227 358.344,173.227 359.461,173.227 360.574,173.227 361.691,173.227 362.809,173.227 363.926,173.227 365.039,173.227 366.156,173.227 367.273,173.227 368.387,173.227 369.504,173.227 370.621,173.227 371.734,173.227 372.852,173.227 373.969,173.227 375.082,173.227 376.199,173.227 377.316,173.227 378.434,173.227 379.547,173.227 380.664,173.227 381.781,173.227 382.895,173.227 384.012,173.227 385.129,173.227 386.242,173.227 387.359,173.227 388.477,173.227 389.594,173.227 390.707,173.227 391.824,173.227 392.941,173.227 394.055,173.227 395.172,173.227 396.289,173.227 397.402,173.227 398.52,173.227 399.637,173.227 400.75,173.227 401.867,173.227 402.984,173.227 404.102,173.227 405.215,173.227 406.332,173.227 407.449,173.227 408.562,173.227 409.68,173.227 410.797,173.227 411.91,173.227 413.027,173.227 414.145,173.227 415.262,173.227 416.375,173.227 417.492,173.227 418.609,173.227 419.723,173.227 420.84,173.227 421.957,173.227 423.07,173.227 424.188,32.3984 425.305,32.3984 426.422,173.227 427.535,173.227 428.652,173.227 429.77,173.227 430.883,173.227 432,173.227 433.117,173.227 434.23,32.3984 435.348,173.227 436.465,173.227 437.578,173.227 438.695,173.227 439.812,173.227 440.93,173.227 442.043,173.227 443.16,173.227 444.277,173.227 445.391,173.227 446.508,173.227 447.625,173.227 448.738,173.227 449.855,173.227 450.973,173.227 452.09,173.227 453.203,173.227 454.32,173.227 455.438,173.227 456.551,173.227 457.668,173.227 458.785,173.227 459.898,173.227 461.016,173.227 462.133,173.227 463.246,173.227 464.363,173.227 465.48,173.227 466.598,173.227 467.711,173.227 468.828,173.227 469.945,173.227 471.059,173.227 472.176,173.227 473.293,173.227 474.406,173.227 475.523,173.227"/>
<polyline fill="none" stroke="#000000" stroke-width="0.5" stroke-dasharray="16,0" points="521.281,384.473 521.281,384.473"/>
<polyline fill="none" stroke="#000000" stroke-width="0.5" stroke-dasharray="16,0" points="74.8789,384.473 74.8789,384.473"/>
<polyline fill="none" stroke="#000000" stroke-width="0.5" stroke-dasharray="16,0" points="74.8789,32.3984 74.8789,32.3984"/>
<polyline fill="none" stroke="#000000" stroke-width="0.5" stroke-dasharray="16,0" points="521.281,32.3984 521.281,32.3984"/>
<text fill="#000000" x="298.08" y="22.3968" font-size="10" text-anchor="middle" baseline-shift="0" font-family="Helvetica">Phone Treo PalmOne (frequency)</text>
<polyline fill="none" stroke="#000000" stroke-width="0.5" stroke-dasharray="16,0" points="521.281,384.473 521.281,32.3984"/>
<polyline fill="none" stroke="#000000" stroke-width="0.5" stroke-dasharray="16,0" points="74.8789,384.473 74.8789,32.3984 521.281,32.3984"/>
<polyline fill="none" stroke="#000000" stroke-width="0.5" stroke-dasharray="16,0" points="74.8789,384.473 521.281,384.473"/>
</g>
</svg>
