<?xml version="1.0" encoding="UTF-8" standalone="no"?>
<svg xmlns="http://www.w3.org/2000/svg"
     xmlns:xlink="http://www.w3.org/1999/xlink"
     width="576px" height="432px" viewBox="0 0 576 432">
<title>glps_renderer figure</title>
<desc>
Creator: GL2PS 1.3.5, (C) 1999-2009 C. Geuzaine
For: Octave
CreationDate: Fri Dec 23 15:28:48 2011
</desc>
<defs>
</defs>
<g shape-rendering="crispEdges">
<text fill="#000000" x="298.08" y="389.481" font-size="10" text-anchor="middle" baseline-shift="-10" font-family="Helvetica">200</text>
<text fill="#000000" x="409.68" y="389.481" font-size="10" text-anchor="middle" baseline-shift="-10" font-family="Helvetica">300</text>
<text fill="#000000" x="521.28" y="389.481" font-size="10" text-anchor="middle" baseline-shift="-10" font-family="Helvetica">400</text>
<text fill="#000000" x="69.8755" y="384.48" font-size="10" text-anchor="end" baseline-shift="-5" font-family="Helvetica">0</text>
<text fill="#000000" x="69.8755" y="334.183" font-size="10" text-anchor="end" baseline-shift="-5" font-family="Helvetica">1</text>
<text fill="#000000" x="69.8755" y="283.886" font-size="10" text-anchor="end" baseline-shift="-5" font-family="Helvetica">2</text>
<text fill="#000000" x="74.88" y="389.481" font-size="10" text-anchor="middle" baseline-shift="-10" font-family="Helvetica">0</text>
<text fill="#000000" x="186.48" y="389.481" font-size="10" text-anchor="middle" baseline-shift="-10" font-family="Helvetica">100</text>
<text fill="#000000" x="69.8755" y="233.589" font-size="10" text-anchor="end" baseline-shift="-5" font-family="Helvetica">3</text>
<text fill="#000000" x="69.8755" y="183.291" font-size="10" text-anchor="end" baseline-shift="-5" font-family="Helvetica">4</text>
<text fill="#000000" x="69.8755" y="132.994" font-size="10" text-anchor="end" baseline-shift="-5" font-family="Helvetica">5</text>
<text fill="#000000" x="69.8755" y="82.6971" font-size="10" text-anchor="end" baseline-shift="-5" font-family="Helvetica">6</text>
<text fill="#000000" x="69.8755" y="32.4" font-size="10" text-anchor="end" baseline-shift="-5" font-family="Helvetica">7</text>
<text fill="#000000" x="298.08" y="402.481" font-size="10" text-anchor="middle" baseline-shift="-10" font-family="Helvetica">time (10 seconds per unit)</text>
<text fill="#000000" x="63.8755" y="208.44" font-size="10" transform="rotate(-90, 63.8755, 208.44)" text-anchor="middle" baseline-shift="0" font-family="Helvetica">watt (W)</text>
<polyline fill="none" stroke="#000000" stroke-width="0.5" stroke-dasharray="16,0" points="74.8789,32.3984 521.281,32.3984"/>
<polyline fill="none" stroke="#000000" stroke-width="0.5" stroke-dasharray="16,0" points="74.8789,384.48 74.8789,32.3984"/>
<polyline fill="none" stroke="#000000" stroke-width="0.5" stroke-dasharray="16,0" points="521.281,384.48 521.281,32.3984"/>
<polyline fill="none" stroke="#000000" stroke-width="0.5" stroke-dasharray="0,3,1,3,1,3,1,3,1,0" points="74.8789,384.48 74.8789,32.3984"/>
<polyline fill="none" stroke="#000000" stroke-width="0.5" stroke-dasharray="0,3,1,3,1,3,1,3,1,0" points="186.48,384.48 186.48,32.3984"/>
<polyline fill="none" stroke="#000000" stroke-width="0.5" stroke-dasharray="0,3,1,3,1,3,1,3,1,0" points="298.078,384.48 298.078,32.3984"/>
<polyline fill="none" stroke="#000000" stroke-width="0.5" stroke-dasharray="0,3,1,3,1,3,1,3,1,0" points="409.68,384.48 409.68,32.3984"/>
<polyline fill="none" stroke="#000000" stroke-width="0.5" stroke-dasharray="16,0" points="74.8789,384.48 521.281,384.48"/>
<polyline fill="none" stroke="#000000" stroke-width="0.5" stroke-dasharray="0,3,1,3,1,3,1,3,1,0" points="521.281,384.48 521.281,32.3984"/>
<polyline fill="none" stroke="#000000" stroke-width="0.5" stroke-dasharray="16,0" points="74.8789,384.48 74.8789,377.477"/>
<polyline fill="none" stroke="#000000" stroke-width="0.5" stroke-dasharray="16,0" points="74.8789,32.3984 74.8789,39.4023"/>
<polyline fill="none" stroke="#000000" stroke-width="0.5" stroke-dasharray="16,0" points="186.48,384.48 186.48,377.477"/>
<polyline fill="none" stroke="#000000" stroke-width="0.5" stroke-dasharray="16,0" points="186.48,32.3984 186.48,39.4023"/>
<polyline fill="none" stroke="#000000" stroke-width="0.5" stroke-dasharray="16,0" points="298.078,384.48 298.078,377.477"/>
<polyline fill="none" stroke="#000000" stroke-width="0.5" stroke-dasharray="16,0" points="298.078,32.3984 298.078,39.4023"/>
<polyline fill="none" stroke="#000000" stroke-width="0.5" stroke-dasharray="16,0" points="409.68,384.48 409.68,377.477"/>
<polyline fill="none" stroke="#000000" stroke-width="0.5" stroke-dasharray="16,0" points="409.68,32.3984 409.68,39.4023"/>
<polyline fill="none" stroke="#000000" stroke-width="0.5" stroke-dasharray="16,0" points="521.281,384.48 521.281,377.477"/>
<polyline fill="none" stroke="#000000" stroke-width="0.5" stroke-dasharray="16,0" points="521.281,32.3984 521.281,39.4023"/>
<polyline fill="none" stroke="#000000" stroke-width="0.5" stroke-dasharray="0,3,1,3,1,3,1,3,1,0" points="97.1992,384.48 97.1992,32.3984"/>
<polyline fill="none" stroke="#000000" stroke-width="0.5" stroke-dasharray="0,3,1,3,1,3,1,3,1,0" points="119.52,384.48 119.52,32.3984"/>
<polyline fill="none" stroke="#000000" stroke-width="0.5" stroke-dasharray="0,3,1,3,1,3,1,3,1,0" points="141.84,384.48 141.84,32.3984"/>
<polyline fill="none" stroke="#000000" stroke-width="0.5" stroke-dasharray="0,3,1,3,1,3,1,3,1,0" points="164.16,384.48 164.16,32.3984"/>
<polyline fill="none" stroke="#000000" stroke-width="0.5" stroke-dasharray="0,3,1,3,1,3,1,3,1,0" points="208.801,384.48 208.801,32.3984"/>
<polyline fill="none" stroke="#000000" stroke-width="0.5" stroke-dasharray="0,3,1,3,1,3,1,3,1,0" points="231.121,384.48 231.121,32.3984"/>
<polyline fill="none" stroke="#000000" stroke-width="0.5" stroke-dasharray="0,3,1,3,1,3,1,3,1,0" points="253.441,384.48 253.441,32.3984"/>
<polyline fill="none" stroke="#000000" stroke-width="0.5" stroke-dasharray="0,3,1,3,1,3,1,3,1,0" points="275.762,384.48 275.762,32.3984"/>
<polyline fill="none" stroke="#000000" stroke-width="0.5" stroke-dasharray="0,3,1,3,1,3,1,3,1,0" points="320.398,384.48 320.398,32.3984"/>
<polyline fill="none" stroke="#000000" stroke-width="0.5" stroke-dasharray="0,3,1,3,1,3,1,3,1,0" points="342.719,384.48 342.719,32.3984"/>
<polyline fill="none" stroke="#000000" stroke-width="0.5" stroke-dasharray="0,3,1,3,1,3,1,3,1,0" points="365.039,384.48 365.039,32.3984"/>
<polyline fill="none" stroke="#000000" stroke-width="0.5" stroke-dasharray="0,3,1,3,1,3,1,3,1,0" points="387.359,384.48 387.359,32.3984"/>
<polyline fill="none" stroke="#000000" stroke-width="0.5" stroke-dasharray="0,3,1,3,1,3,1,3,1,0" points="432,384.48 432,32.3984"/>
<polyline fill="none" stroke="#000000" stroke-width="0.5" stroke-dasharray="0,3,1,3,1,3,1,3,1,0" points="454.32,384.48 454.32,32.3984"/>
<polyline fill="none" stroke="#000000" stroke-width="0.5" stroke-dasharray="0,3,1,3,1,3,1,3,1,0" points="476.641,384.48 476.641,32.3984"/>
<polyline fill="none" stroke="#000000" stroke-width="0.5" stroke-dasharray="0,3,1,3,1,3,1,3,1,0" points="498.961,384.48 498.961,32.3984"/>
<polyline fill="none" stroke="#000000" stroke-width="0.5" stroke-dasharray="0,3,1,3,1,3,1,3,1,0" points="74.8789,384.48 521.281,384.48"/>
<polyline fill="none" stroke="#000000" stroke-width="0.5" stroke-dasharray="0,3,1,3,1,3,1,3,1,0" points="74.8789,334.184 521.281,334.184"/>
<polyline fill="none" stroke="#000000" stroke-width="0.5" stroke-dasharray="0,3,1,3,1,3,1,3,1,0" points="74.8789,283.887 521.281,283.887"/>
<polyline fill="none" stroke="#000000" stroke-width="0.5" stroke-dasharray="0,3,1,3,1,3,1,3,1,0" points="74.8789,233.59 521.281,233.59"/>
<polyline fill="none" stroke="#000000" stroke-width="0.5" stroke-dasharray="0,3,1,3,1,3,1,3,1,0" points="74.8789,183.293 521.281,183.293"/>
<polyline fill="none" stroke="#000000" stroke-width="0.5" stroke-dasharray="0,3,1,3,1,3,1,3,1,0" points="74.8789,132.996 521.281,132.996"/>
<polyline fill="none" stroke="#000000" stroke-width="0.5" stroke-dasharray="0,3,1,3,1,3,1,3,1,0" points="74.8789,82.6953 521.281,82.6953"/>
<polyline fill="none" stroke="#000000" stroke-width="0.5" stroke-dasharray="0,3,1,3,1,3,1,3,1,0" points="74.8789,32.3984 521.281,32.3984"/>
<polyline fill="none" stroke="#000000" stroke-width="0.5" stroke-dasharray="16,0" points="74.8789,384.48 81.8867,384.48"/>
<polyline fill="none" stroke="#000000" stroke-width="0.5" stroke-dasharray="16,0" points="521.281,384.48 514.273,384.48"/>
<polyline fill="none" stroke="#000000" stroke-width="0.5" stroke-dasharray="16,0" points="74.8789,334.184 81.8867,334.184"/>
<polyline fill="none" stroke="#000000" stroke-width="0.5" stroke-dasharray="16,0" points="521.281,334.184 514.273,334.184"/>
<polyline fill="none" stroke="#000000" stroke-width="0.5" stroke-dasharray="16,0" points="74.8789,283.887 81.8867,283.887"/>
<polyline fill="none" stroke="#000000" stroke-width="0.5" stroke-dasharray="16,0" points="521.281,283.887 514.273,283.887"/>
<polyline fill="none" stroke="#000000" stroke-width="0.5" stroke-dasharray="16,0" points="74.8789,233.59 81.8867,233.59"/>
<polyline fill="none" stroke="#000000" stroke-width="0.5" stroke-dasharray="16,0" points="521.281,233.59 514.273,233.59"/>
<polyline fill="none" stroke="#000000" stroke-width="0.5" stroke-dasharray="16,0" points="74.8789,183.293 81.8867,183.293"/>
<polyline fill="none" stroke="#000000" stroke-width="0.5" stroke-dasharray="16,0" points="521.281,183.293 514.273,183.293"/>
<polyline fill="none" stroke="#000000" stroke-width="0.5" stroke-dasharray="16,0" points="74.8789,132.996 81.8867,132.996"/>
<polyline fill="none" stroke="#000000" stroke-width="0.5" stroke-dasharray="16,0" points="521.281,132.996 514.273,132.996"/>
<polyline fill="none" stroke="#000000" stroke-width="0.5" stroke-dasharray="16,0" points="74.8789,82.6953 81.8867,82.6953"/>
<polyline fill="none" stroke="#000000" stroke-width="0.5" stroke-dasharray="16,0" points="521.281,82.6953 514.273,82.6953"/>
<polyline fill="none" stroke="#000000" stroke-width="0.5" stroke-dasharray="16,0" points="74.8789,32.3984 81.8867,32.3984"/>
<polyline fill="none" stroke="#000000" stroke-width="0.5" stroke-dasharray="16,0" points="521.281,32.3984 514.273,32.3984"/>
<polyline fill="none" stroke="#000000" stroke-width="0.5" stroke-dasharray="0,3,1,3,1,3,1,3,1,0" points="74.8789,374.422 521.281,374.422"/>
<polyline fill="none" stroke="#000000" stroke-width="0.5" stroke-dasharray="0,3,1,3,1,3,1,3,1,0" points="74.8789,364.359 521.281,364.359"/>
<polyline fill="none" stroke="#000000" stroke-width="0.5" stroke-dasharray="0,3,1,3,1,3,1,3,1,0" points="74.8789,354.301 521.281,354.301"/>
<polyline fill="none" stroke="#000000" stroke-width="0.5" stroke-dasharray="0,3,1,3,1,3,1,3,1,0" points="74.8789,344.242 521.281,344.242"/>
<polyline fill="none" stroke="#000000" stroke-width="0.5" stroke-dasharray="0,3,1,3,1,3,1,3,1,0" points="74.8789,324.125 521.281,324.125"/>
<polyline fill="none" stroke="#000000" stroke-width="0.5" stroke-dasharray="0,3,1,3,1,3,1,3,1,0" points="74.8789,314.062 521.281,314.062"/>
<polyline fill="none" stroke="#000000" stroke-width="0.5" stroke-dasharray="0,3,1,3,1,3,1,3,1,0" points="74.8789,304.004 521.281,304.004"/>
<polyline fill="none" stroke="#000000" stroke-width="0.5" stroke-dasharray="0,3,1,3,1,3,1,3,1,0" points="74.8789,293.945 521.281,293.945"/>
<polyline fill="none" stroke="#000000" stroke-width="0.5" stroke-dasharray="0,3,1,3,1,3,1,3,1,0" points="74.8789,273.828 521.281,273.828"/>
<polyline fill="none" stroke="#000000" stroke-width="0.5" stroke-dasharray="0,3,1,3,1,3,1,3,1,0" points="74.8789,263.766 521.281,263.766"/>
<polyline fill="none" stroke="#000000" stroke-width="0.5" stroke-dasharray="0,3,1,3,1,3,1,3,1,0" points="74.8789,253.707 521.281,253.707"/>
<polyline fill="none" stroke="#000000" stroke-width="0.5" stroke-dasharray="0,3,1,3,1,3,1,3,1,0" points="74.8789,243.648 521.281,243.648"/>
<polyline fill="none" stroke="#000000" stroke-width="0.5" stroke-dasharray="0,3,1,3,1,3,1,3,1,0" points="74.8789,223.527 521.281,223.527"/>
<polyline fill="none" stroke="#000000" stroke-width="0.5" stroke-dasharray="0,3,1,3,1,3,1,3,1,0" points="74.8789,213.469 521.281,213.469"/>
<polyline fill="none" stroke="#000000" stroke-width="0.5" stroke-dasharray="0,3,1,3,1,3,1,3,1,0" points="74.8789,203.41 521.281,203.41"/>
<polyline fill="none" stroke="#000000" stroke-width="0.5" stroke-dasharray="0,3,1,3,1,3,1,3,1,0" points="74.8789,193.352 521.281,193.352"/>
<polyline fill="none" stroke="#000000" stroke-width="0.5" stroke-dasharray="0,3,1,3,1,3,1,3,1,0" points="74.8789,173.23 521.281,173.23"/>
<polyline fill="none" stroke="#000000" stroke-width="0.5" stroke-dasharray="0,3,1,3,1,3,1,3,1,0" points="74.8789,163.172 521.281,163.172"/>
<polyline fill="none" stroke="#000000" stroke-width="0.5" stroke-dasharray="0,3,1,3,1,3,1,3,1,0" points="74.8789,153.113 521.281,153.113"/>
<polyline fill="none" stroke="#000000" stroke-width="0.5" stroke-dasharray="0,3,1,3,1,3,1,3,1,0" points="74.8789,143.055 521.281,143.055"/>
<polyline fill="none" stroke="#000000" stroke-width="0.5" stroke-dasharray="0,3,1,3,1,3,1,3,1,0" points="74.8789,122.934 521.281,122.934"/>
<polyline fill="none" stroke="#000000" stroke-width="0.5" stroke-dasharray="0,3,1,3,1,3,1,3,1,0" points="74.8789,112.875 521.281,112.875"/>
<polyline fill="none" stroke="#000000" stroke-width="0.5" stroke-dasharray="0,3,1,3,1,3,1,3,1,0" points="74.8789,102.816 521.281,102.816"/>
<polyline fill="none" stroke="#000000" stroke-width="0.5" stroke-dasharray="0,3,1,3,1,3,1,3,1,0" points="74.8789,92.7578 521.281,92.7578"/>
<polyline fill="none" stroke="#000000" stroke-width="0.5" stroke-dasharray="0,3,1,3,1,3,1,3,1,0" points="74.8789,72.6367 521.281,72.6367"/>
<polyline fill="none" stroke="#000000" stroke-width="0.5" stroke-dasharray="0,3,1,3,1,3,1,3,1,0" points="74.8789,62.5781 521.281,62.5781"/>
<polyline fill="none" stroke="#000000" stroke-width="0.5" stroke-dasharray="0,3,1,3,1,3,1,3,1,0" points="74.8789,52.5195 521.281,52.5195"/>
<polyline fill="none" stroke="#000000" stroke-width="0.5" stroke-dasharray="0,3,1,3,1,3,1,3,1,0" points="74.8789,42.4609 521.281,42.4609"/>
<polyline fill="none" stroke="#ff0000" stroke-width="1.5" points="75.9961,384.48 77.1133,384.48 78.2266,384.48 79.3438,384.48 80.4609,384.48 81.5742,384.48 82.6914,384.48 83.8086,384.48 84.9258,347.863 86.0391,326.941 87.1562,169.863 88.2734,80.8867 89.3867,80.8867 90.5039,80.8867 91.6211,80.8867 92.7344,80.8867 93.8516,80.8867 94.9688,75.6562 96.0859,80.8867 97.1992,75.6562 98.3164,59.9609 99.4336,65.1953 100.547,70.4258 101.664,70.4258 102.781,75.6562 103.895,80.8867 105.012,80.8867 106.129,86.1172 107.242,86.1172 108.359,91.3477 109.477,91.3477 110.594,96.5781 111.707,96.5781 112.824,96.5781 113.941,101.809 115.055,101.809 116.172,101.809 117.289,107.039 118.402,107.039 119.52,112.273 120.637,112.273 121.754,112.273 122.867,117.504 123.984,117.504 125.102,122.785 126.215,122.785 127.332,122.785 128.449,128.016 129.562,128.016 130.68,128.016 131.797,133.246 132.91,133.246 134.027,133.246 135.145,138.477 136.262,138.477 137.375,138.477 138.492,143.707 139.609,143.707 140.723,143.707 141.84,143.707 142.957,148.938 144.07,148.938 145.188,154.168 146.305,154.168 147.422,384.48 148.535,358.324 149.652,175.094 150.77,112.273 151.883,128.016 153,143.707 154.117,148.938 155.23,154.168 156.348,159.398 157.465,164.633 158.578,164.633 159.695,169.863 160.812,169.863 161.93,175.094 163.043,175.094 164.16,175.094 165.277,180.324 166.391,180.324 167.508,180.324 168.625,185.555 169.738,185.555 170.855,185.555 171.973,190.836 173.09,190.836 174.203,190.836 175.32,190.836 176.438,196.066 177.551,196.066 178.668,196.066 179.785,201.297 180.898,201.297 182.016,201.297 183.133,201.297 184.246,206.527 185.363,206.527 186.48,206.527 187.598,206.527 188.711,206.527 189.828,211.758 190.945,211.758 192.059,211.758 193.176,216.992 194.293,216.992 195.406,216.992 196.523,216.992 197.641,216.992 198.758,222.223 199.871,222.223 200.988,222.223 202.105,222.223 203.219,227.453 204.336,227.453 205.453,227.453 206.566,232.684 207.684,232.684 208.801,232.684 209.914,232.684 211.031,232.684 212.148,237.914 213.266,237.914 214.379,237.914 215.496,237.914 216.613,237.914 217.727,237.914 218.844,243.145 219.961,243.145 221.074,243.145 222.191,243.145 223.309,248.375 224.426,248.375 225.539,248.375 226.656,248.375 227.773,248.375 228.887,253.656 230.004,253.656 231.121,253.656 232.234,253.656 233.352,258.887 234.469,258.887 235.586,258.887 236.699,258.887 237.816,258.887 238.934,258.887 240.047,264.117 241.164,264.117 242.281,264.117 243.395,264.117 244.512,264.117 245.629,269.352 246.742,269.352 247.859,269.352 248.977,269.352 250.094,269.352 251.207,274.582 252.324,274.582 253.441,274.582 254.555,274.582 255.672,274.582 256.789,279.812 257.902,279.812 259.02,279.812 260.137,279.812 261.254,279.812 262.367,279.812 263.484,285.043 264.602,285.043 265.715,285.043 266.832,285.043 267.949,285.043 269.062,285.043 270.18,285.043 271.297,290.273 272.41,290.273 273.527,290.273 274.645,290.273 275.762,290.273 276.875,290.273 277.992,290.273 279.109,290.273 280.223,290.273 281.34,295.504 282.457,295.504 283.57,295.504 284.688,295.504 285.805,295.504 286.922,295.504 288.035,295.504 289.152,300.734 290.27,300.734 291.383,300.734 292.5,300.734 293.617,300.734 294.73,300.734 295.848,300.734 296.965,305.965 298.078,305.965 299.195,305.965 300.312,305.965 301.43,305.965 302.543,305.965 303.66,305.965 304.777,305.965 305.891,305.965 307.008,305.965 308.125,305.965 309.238,311.195 310.355,311.195 311.473,311.195 312.59,311.195 313.703,311.195 314.82,311.195 315.938,311.195 317.051,311.195 318.168,311.195 319.285,316.43 320.398,316.43 321.516,316.43 322.633,316.43 323.746,316.43 324.863,316.43 325.98,316.43 327.098,316.43 328.211,316.43 329.328,316.43 330.445,316.43 331.559,316.43 332.676,316.43 333.793,321.711 334.906,321.711 336.023,321.711 337.141,321.711 338.258,321.711 339.371,321.711 340.488,321.711 341.605,321.711 342.719,321.711 343.836,384.48 344.953,248.375 346.066,321.711 347.184,321.711 348.301,321.711 349.414,321.711 350.531,326.941 351.648,326.941 352.766,326.941 353.879,326.941 354.996,326.941 356.113,326.941 357.227,326.941 358.344,326.941 359.461,326.941 360.574,332.172 361.691,332.172 362.809,332.172 363.926,332.172 365.039,332.172 366.156,332.172 367.273,332.172 368.387,332.172 369.504,332.172 370.621,332.172 371.734,332.172 372.852,332.172 373.969,332.172 375.082,332.172 376.199,332.172 377.316,337.402 378.434,337.402 379.547,337.402 380.664,337.402 381.781,337.402 382.895,337.402 384.012,337.402 385.129,337.402 386.242,337.402 387.359,337.402 388.477,337.402 389.594,337.402 390.707,337.402 391.824,337.402 392.941,337.402 394.055,337.402 395.172,337.402 396.289,342.633 397.402,337.402 398.52,342.633 399.637,342.633 400.75,342.633 401.867,342.633 402.984,342.633 404.102,337.402 405.215,337.402 406.332,342.633 407.449,342.633 408.562,342.633 409.68,342.633 410.797,342.633 411.91,342.633 413.027,342.633 414.145,342.633 415.262,342.633 416.375,342.633 417.492,342.633 418.609,342.633 419.723,342.633 420.84,342.633 421.957,342.633 423.07,342.633 424.188,342.633 425.305,342.633 426.422,347.863 427.535,347.863 428.652,347.863 429.77,347.863 430.883,347.863 432,347.863 433.117,347.863 434.23,347.863 435.348,347.863 436.465,347.863 437.578,347.863 438.695,347.863 439.812,347.863 440.93,347.863 442.043,347.863 443.16,347.863 444.277,347.863 445.391,347.863 446.508,347.863 447.625,347.863 448.738,353.094 449.855,353.094 450.973,347.863 452.09,347.863 453.203,353.094 454.32,353.094 455.438,353.094 456.551,353.094 457.668,353.094 458.785,353.094 459.898,353.094 461.016,353.094 462.133,353.094 463.246,353.094 464.363,353.094 465.48,353.094 466.598,353.094 467.711,353.094 468.828,353.094 469.945,353.094 471.059,353.094 472.176,353.094 473.293,353.094 474.406,353.094"/>
<polyline fill="none" stroke="#000000" stroke-width="0.5" stroke-dasharray="16,0" points="521.281,384.48 521.281,384.48"/>
<polyline fill="none" stroke="#000000" stroke-width="0.5" stroke-dasharray="16,0" points="74.8789,384.48 74.8789,384.48"/>
<polyline fill="none" stroke="#000000" stroke-width="0.5" stroke-dasharray="16,0" points="74.8789,32.3984 74.8789,32.3984"/>
<polyline fill="none" stroke="#000000" stroke-width="0.5" stroke-dasharray="16,0" points="521.281,32.3984 521.281,32.3984"/>
<text fill="#000000" x="298.08" y="22.4" font-size="10" text-anchor="middle" baseline-shift="0" font-family="Helvetica">Mobile Sony Ericsson (power)</text>
<polyline fill="none" stroke="#000000" stroke-width="0.5" stroke-dasharray="16,0" points="521.281,384.48 521.281,32.3984"/>
<polyline fill="none" stroke="#000000" stroke-width="0.5" stroke-dasharray="16,0" points="74.8789,384.48 74.8789,32.3984 521.281,32.3984"/>
<polyline fill="none" stroke="#000000" stroke-width="0.5" stroke-dasharray="16,0" points="74.8789,384.48 521.281,384.48"/>
</g>
</svg>
