<?xml version="1.0" encoding="UTF-8" standalone="no"?>
<svg xmlns="http://www.w3.org/2000/svg"
     xmlns:xlink="http://www.w3.org/1999/xlink"
     width="576px" height="432px" viewBox="0 0 576 432">
<title>glps_renderer figure</title>
<desc>
Creator: GL2PS 1.3.5, (C) 1999-2009 C. Geuzaine
For: Octave
CreationDate: Tue Jan 31 15:34:58 2012
</desc>
<defs>
</defs>
<g shape-rendering="crispEdges">
<text fill="#000000" x="298.08" y="389.481" font-size="10" text-anchor="middle" baseline-shift="-10" font-family="Helvetica">200</text>
<text fill="#000000" x="409.68" y="389.481" font-size="10" text-anchor="middle" baseline-shift="-10" font-family="Helvetica">300</text>
<text fill="#000000" x="521.28" y="389.481" font-size="10" text-anchor="middle" baseline-shift="-10" font-family="Helvetica">400</text>
<text fill="#000000" x="69.8755" y="384.48" font-size="10" text-anchor="end" baseline-shift="-5" font-family="Helvetica">20</text>
<text fill="#000000" x="69.8755" y="334.183" font-size="10" text-anchor="end" baseline-shift="-5" font-family="Helvetica">30</text>
<text fill="#000000" x="69.8755" y="283.886" font-size="10" text-anchor="end" baseline-shift="-5" font-family="Helvetica">40</text>
<text fill="#000000" x="74.88" y="389.481" font-size="10" text-anchor="middle" baseline-shift="-10" font-family="Helvetica">0</text>
<text fill="#000000" x="186.48" y="389.481" font-size="10" text-anchor="middle" baseline-shift="-10" font-family="Helvetica">100</text>
<text fill="#000000" x="69.8755" y="233.589" font-size="10" text-anchor="end" baseline-shift="-5" font-family="Helvetica">50</text>
<text fill="#000000" x="69.8755" y="183.291" font-size="10" text-anchor="end" baseline-shift="-5" font-family="Helvetica">60</text>
<text fill="#000000" x="69.8755" y="132.994" font-size="10" text-anchor="end" baseline-shift="-5" font-family="Helvetica">70</text>
<text fill="#000000" x="69.8755" y="82.6971" font-size="10" text-anchor="end" baseline-shift="-5" font-family="Helvetica">80</text>
<text fill="#000000" x="69.8755" y="32.4" font-size="10" text-anchor="end" baseline-shift="-5" font-family="Helvetica">90</text>
<text fill="#000000" x="298.08" y="402.481" font-size="10" text-anchor="middle" baseline-shift="-10" font-family="Helvetica">time (10 seconds per unit)</text>
<text fill="#000000" x="57.8755" y="208.44" font-size="10" transform="rotate(-90, 57.8755, 208.44)" text-anchor="middle" baseline-shift="0" font-family="Helvetica">degree (°)</text>
<polyline fill="none" stroke="#000000" stroke-width="0.5" stroke-dasharray="16,0" points="74.8789,32.3984 521.281,32.3984"/>
<polyline fill="none" stroke="#000000" stroke-width="0.5" stroke-dasharray="16,0" points="74.8789,384.48 74.8789,32.3984"/>
<polyline fill="none" stroke="#000000" stroke-width="0.5" stroke-dasharray="16,0" points="521.281,384.48 521.281,32.3984"/>
<polyline fill="none" stroke="#000000" stroke-width="0.5" stroke-dasharray="0,3,1,3,1,3,1,3,1,0" points="74.8789,384.48 74.8789,32.3984"/>
<polyline fill="none" stroke="#000000" stroke-width="0.5" stroke-dasharray="0,3,1,3,1,3,1,3,1,0" points="186.48,384.48 186.48,32.3984"/>
<polyline fill="none" stroke="#000000" stroke-width="0.5" stroke-dasharray="0,3,1,3,1,3,1,3,1,0" points="298.078,384.48 298.078,32.3984"/>
<polyline fill="none" stroke="#000000" stroke-width="0.5" stroke-dasharray="0,3,1,3,1,3,1,3,1,0" points="409.68,384.48 409.68,32.3984"/>
<polyline fill="none" stroke="#000000" stroke-width="0.5" stroke-dasharray="16,0" points="74.8789,384.48 521.281,384.48"/>
<polyline fill="none" stroke="#000000" stroke-width="0.5" stroke-dasharray="0,3,1,3,1,3,1,3,1,0" points="521.281,384.48 521.281,32.3984"/>
<polyline fill="none" stroke="#000000" stroke-width="0.5" stroke-dasharray="16,0" points="74.8789,384.48 74.8789,377.477"/>
<polyline fill="none" stroke="#000000" stroke-width="0.5" stroke-dasharray="16,0" points="74.8789,32.3984 74.8789,39.4023"/>
<polyline fill="none" stroke="#000000" stroke-width="0.5" stroke-dasharray="16,0" points="186.48,384.48 186.48,377.477"/>
<polyline fill="none" stroke="#000000" stroke-width="0.5" stroke-dasharray="16,0" points="186.48,32.3984 186.48,39.4023"/>
<polyline fill="none" stroke="#000000" stroke-width="0.5" stroke-dasharray="16,0" points="298.078,384.48 298.078,377.477"/>
<polyline fill="none" stroke="#000000" stroke-width="0.5" stroke-dasharray="16,0" points="298.078,32.3984 298.078,39.4023"/>
<polyline fill="none" stroke="#000000" stroke-width="0.5" stroke-dasharray="16,0" points="409.68,384.48 409.68,377.477"/>
<polyline fill="none" stroke="#000000" stroke-width="0.5" stroke-dasharray="16,0" points="409.68,32.3984 409.68,39.4023"/>
<polyline fill="none" stroke="#000000" stroke-width="0.5" stroke-dasharray="16,0" points="521.281,384.48 521.281,377.477"/>
<polyline fill="none" stroke="#000000" stroke-width="0.5" stroke-dasharray="16,0" points="521.281,32.3984 521.281,39.4023"/>
<polyline fill="none" stroke="#000000" stroke-width="0.5" stroke-dasharray="0,3,1,3,1,3,1,3,1,0" points="97.1992,384.48 97.1992,32.3984"/>
<polyline fill="none" stroke="#000000" stroke-width="0.5" stroke-dasharray="0,3,1,3,1,3,1,3,1,0" points="119.52,384.48 119.52,32.3984"/>
<polyline fill="none" stroke="#000000" stroke-width="0.5" stroke-dasharray="0,3,1,3,1,3,1,3,1,0" points="141.84,384.48 141.84,32.3984"/>
<polyline fill="none" stroke="#000000" stroke-width="0.5" stroke-dasharray="0,3,1,3,1,3,1,3,1,0" points="164.16,384.48 164.16,32.3984"/>
<polyline fill="none" stroke="#000000" stroke-width="0.5" stroke-dasharray="0,3,1,3,1,3,1,3,1,0" points="208.801,384.48 208.801,32.3984"/>
<polyline fill="none" stroke="#000000" stroke-width="0.5" stroke-dasharray="0,3,1,3,1,3,1,3,1,0" points="231.121,384.48 231.121,32.3984"/>
<polyline fill="none" stroke="#000000" stroke-width="0.5" stroke-dasharray="0,3,1,3,1,3,1,3,1,0" points="253.441,384.48 253.441,32.3984"/>
<polyline fill="none" stroke="#000000" stroke-width="0.5" stroke-dasharray="0,3,1,3,1,3,1,3,1,0" points="275.762,384.48 275.762,32.3984"/>
<polyline fill="none" stroke="#000000" stroke-width="0.5" stroke-dasharray="0,3,1,3,1,3,1,3,1,0" points="320.398,384.48 320.398,32.3984"/>
<polyline fill="none" stroke="#000000" stroke-width="0.5" stroke-dasharray="0,3,1,3,1,3,1,3,1,0" points="342.719,384.48 342.719,32.3984"/>
<polyline fill="none" stroke="#000000" stroke-width="0.5" stroke-dasharray="0,3,1,3,1,3,1,3,1,0" points="365.039,384.48 365.039,32.3984"/>
<polyline fill="none" stroke="#000000" stroke-width="0.5" stroke-dasharray="0,3,1,3,1,3,1,3,1,0" points="387.359,384.48 387.359,32.3984"/>
<polyline fill="none" stroke="#000000" stroke-width="0.5" stroke-dasharray="0,3,1,3,1,3,1,3,1,0" points="432,384.48 432,32.3984"/>
<polyline fill="none" stroke="#000000" stroke-width="0.5" stroke-dasharray="0,3,1,3,1,3,1,3,1,0" points="454.32,384.48 454.32,32.3984"/>
<polyline fill="none" stroke="#000000" stroke-width="0.5" stroke-dasharray="0,3,1,3,1,3,1,3,1,0" points="476.641,384.48 476.641,32.3984"/>
<polyline fill="none" stroke="#000000" stroke-width="0.5" stroke-dasharray="0,3,1,3,1,3,1,3,1,0" points="498.961,384.48 498.961,32.3984"/>
<polyline fill="none" stroke="#000000" stroke-width="0.5" stroke-dasharray="0,3,1,3,1,3,1,3,1,0" points="74.8789,384.48 521.281,384.48"/>
<polyline fill="none" stroke="#000000" stroke-width="0.5" stroke-dasharray="0,3,1,3,1,3,1,3,1,0" points="74.8789,334.184 521.281,334.184"/>
<polyline fill="none" stroke="#000000" stroke-width="0.5" stroke-dasharray="0,3,1,3,1,3,1,3,1,0" points="74.8789,283.887 521.281,283.887"/>
<polyline fill="none" stroke="#000000" stroke-width="0.5" stroke-dasharray="0,3,1,3,1,3,1,3,1,0" points="74.8789,233.59 521.281,233.59"/>
<polyline fill="none" stroke="#000000" stroke-width="0.5" stroke-dasharray="0,3,1,3,1,3,1,3,1,0" points="74.8789,183.293 521.281,183.293"/>
<polyline fill="none" stroke="#000000" stroke-width="0.5" stroke-dasharray="0,3,1,3,1,3,1,3,1,0" points="74.8789,132.996 521.281,132.996"/>
<polyline fill="none" stroke="#000000" stroke-width="0.5" stroke-dasharray="0,3,1,3,1,3,1,3,1,0" points="74.8789,82.6953 521.281,82.6953"/>
<polyline fill="none" stroke="#000000" stroke-width="0.5" stroke-dasharray="0,3,1,3,1,3,1,3,1,0" points="74.8789,32.3984 521.281,32.3984"/>
<polyline fill="none" stroke="#000000" stroke-width="0.5" stroke-dasharray="16,0" points="74.8789,384.48 81.8867,384.48"/>
<polyline fill="none" stroke="#000000" stroke-width="0.5" stroke-dasharray="16,0" points="521.281,384.48 514.273,384.48"/>
<polyline fill="none" stroke="#000000" stroke-width="0.5" stroke-dasharray="16,0" points="74.8789,334.184 81.8867,334.184"/>
<polyline fill="none" stroke="#000000" stroke-width="0.5" stroke-dasharray="16,0" points="521.281,334.184 514.273,334.184"/>
<polyline fill="none" stroke="#000000" stroke-width="0.5" stroke-dasharray="16,0" points="74.8789,283.887 81.8867,283.887"/>
<polyline fill="none" stroke="#000000" stroke-width="0.5" stroke-dasharray="16,0" points="521.281,283.887 514.273,283.887"/>
<polyline fill="none" stroke="#000000" stroke-width="0.5" stroke-dasharray="16,0" points="74.8789,233.59 81.8867,233.59"/>
<polyline fill="none" stroke="#000000" stroke-width="0.5" stroke-dasharray="16,0" points="521.281,233.59 514.273,233.59"/>
<polyline fill="none" stroke="#000000" stroke-width="0.5" stroke-dasharray="16,0" points="74.8789,183.293 81.8867,183.293"/>
<polyline fill="none" stroke="#000000" stroke-width="0.5" stroke-dasharray="16,0" points="521.281,183.293 514.273,183.293"/>
<polyline fill="none" stroke="#000000" stroke-width="0.5" stroke-dasharray="16,0" points="74.8789,132.996 81.8867,132.996"/>
<polyline fill="none" stroke="#000000" stroke-width="0.5" stroke-dasharray="16,0" points="521.281,132.996 514.273,132.996"/>
<polyline fill="none" stroke="#000000" stroke-width="0.5" stroke-dasharray="16,0" points="74.8789,82.6953 81.8867,82.6953"/>
<polyline fill="none" stroke="#000000" stroke-width="0.5" stroke-dasharray="16,0" points="521.281,82.6953 514.273,82.6953"/>
<polyline fill="none" stroke="#000000" stroke-width="0.5" stroke-dasharray="16,0" points="74.8789,32.3984 81.8867,32.3984"/>
<polyline fill="none" stroke="#000000" stroke-width="0.5" stroke-dasharray="16,0" points="521.281,32.3984 514.273,32.3984"/>
<polyline fill="none" stroke="#000000" stroke-width="0.5" stroke-dasharray="0,3,1,3,1,3,1,3,1,0" points="74.8789,374.422 521.281,374.422"/>
<polyline fill="none" stroke="#000000" stroke-width="0.5" stroke-dasharray="0,3,1,3,1,3,1,3,1,0" points="74.8789,364.359 521.281,364.359"/>
<polyline fill="none" stroke="#000000" stroke-width="0.5" stroke-dasharray="0,3,1,3,1,3,1,3,1,0" points="74.8789,354.301 521.281,354.301"/>
<polyline fill="none" stroke="#000000" stroke-width="0.5" stroke-dasharray="0,3,1,3,1,3,1,3,1,0" points="74.8789,344.242 521.281,344.242"/>
<polyline fill="none" stroke="#000000" stroke-width="0.5" stroke-dasharray="0,3,1,3,1,3,1,3,1,0" points="74.8789,324.125 521.281,324.125"/>
<polyline fill="none" stroke="#000000" stroke-width="0.5" stroke-dasharray="0,3,1,3,1,3,1,3,1,0" points="74.8789,314.062 521.281,314.062"/>
<polyline fill="none" stroke="#000000" stroke-width="0.5" stroke-dasharray="0,3,1,3,1,3,1,3,1,0" points="74.8789,304.004 521.281,304.004"/>
<polyline fill="none" stroke="#000000" stroke-width="0.5" stroke-dasharray="0,3,1,3,1,3,1,3,1,0" points="74.8789,293.945 521.281,293.945"/>
<polyline fill="none" stroke="#000000" stroke-width="0.5" stroke-dasharray="0,3,1,3,1,3,1,3,1,0" points="74.8789,273.828 521.281,273.828"/>
<polyline fill="none" stroke="#000000" stroke-width="0.5" stroke-dasharray="0,3,1,3,1,3,1,3,1,0" points="74.8789,263.766 521.281,263.766"/>
<polyline fill="none" stroke="#000000" stroke-width="0.5" stroke-dasharray="0,3,1,3,1,3,1,3,1,0" points="74.8789,253.707 521.281,253.707"/>
<polyline fill="none" stroke="#000000" stroke-width="0.5" stroke-dasharray="0,3,1,3,1,3,1,3,1,0" points="74.8789,243.648 521.281,243.648"/>
<polyline fill="none" stroke="#000000" stroke-width="0.5" stroke-dasharray="0,3,1,3,1,3,1,3,1,0" points="74.8789,223.527 521.281,223.527"/>
<polyline fill="none" stroke="#000000" stroke-width="0.5" stroke-dasharray="0,3,1,3,1,3,1,3,1,0" points="74.8789,213.469 521.281,213.469"/>
<polyline fill="none" stroke="#000000" stroke-width="0.5" stroke-dasharray="0,3,1,3,1,3,1,3,1,0" points="74.8789,203.41 521.281,203.41"/>
<polyline fill="none" stroke="#000000" stroke-width="0.5" stroke-dasharray="0,3,1,3,1,3,1,3,1,0" points="74.8789,193.352 521.281,193.352"/>
<polyline fill="none" stroke="#000000" stroke-width="0.5" stroke-dasharray="0,3,1,3,1,3,1,3,1,0" points="74.8789,173.23 521.281,173.23"/>
<polyline fill="none" stroke="#000000" stroke-width="0.5" stroke-dasharray="0,3,1,3,1,3,1,3,1,0" points="74.8789,163.172 521.281,163.172"/>
<polyline fill="none" stroke="#000000" stroke-width="0.5" stroke-dasharray="0,3,1,3,1,3,1,3,1,0" points="74.8789,153.113 521.281,153.113"/>
<polyline fill="none" stroke="#000000" stroke-width="0.5" stroke-dasharray="0,3,1,3,1,3,1,3,1,0" points="74.8789,143.055 521.281,143.055"/>
<polyline fill="none" stroke="#000000" stroke-width="0.5" stroke-dasharray="0,3,1,3,1,3,1,3,1,0" points="74.8789,122.934 521.281,122.934"/>
<polyline fill="none" stroke="#000000" stroke-width="0.5" stroke-dasharray="0,3,1,3,1,3,1,3,1,0" points="74.8789,112.875 521.281,112.875"/>
<polyline fill="none" stroke="#000000" stroke-width="0.5" stroke-dasharray="0,3,1,3,1,3,1,3,1,0" points="74.8789,102.816 521.281,102.816"/>
<polyline fill="none" stroke="#000000" stroke-width="0.5" stroke-dasharray="0,3,1,3,1,3,1,3,1,0" points="74.8789,92.7578 521.281,92.7578"/>
<polyline fill="none" stroke="#000000" stroke-width="0.5" stroke-dasharray="0,3,1,3,1,3,1,3,1,0" points="74.8789,72.6367 521.281,72.6367"/>
<polyline fill="none" stroke="#000000" stroke-width="0.5" stroke-dasharray="0,3,1,3,1,3,1,3,1,0" points="74.8789,62.5781 521.281,62.5781"/>
<polyline fill="none" stroke="#000000" stroke-width="0.5" stroke-dasharray="0,3,1,3,1,3,1,3,1,0" points="74.8789,52.5195 521.281,52.5195"/>
<polyline fill="none" stroke="#000000" stroke-width="0.5" stroke-dasharray="0,3,1,3,1,3,1,3,1,0" points="74.8789,42.4609 521.281,42.4609"/>
<polyline fill="none" stroke="#ff0000" stroke-width="1.5" points="75.9961,168.203 77.1133,168.203 78.2266,168.203 79.3438,168.203 80.4609,168.203 81.5742,168.203 82.6914,168.203 83.8086,168.203 84.9258,168.203 86.0391,168.203 87.1562,168.203 88.2734,168.203 89.3867,168.203 90.5039,168.203 91.6211,168.203 92.7344,168.203 93.8516,168.203 94.9688,168.203 96.0859,168.203 97.1992,168.203 98.3164,168.203 99.4336,168.203 100.547,168.203 101.664,168.203 102.781,168.203 103.895,168.203 105.012,168.203 106.129,168.203 107.242,168.203 108.359,168.203 109.477,168.203 110.594,168.203 111.707,168.203 112.824,168.203 113.941,168.203 115.055,168.203 116.172,168.203 117.289,168.203 118.402,168.203 119.52,168.203 120.637,168.203 121.754,168.203 122.867,168.203 123.984,168.203 125.102,168.203 126.215,168.203 127.332,168.203 128.449,168.203 129.562,168.203 130.68,168.203 131.797,168.203 132.91,168.203 134.027,168.203 135.145,168.203 136.262,168.203 137.375,168.203 138.492,168.203 139.609,168.203 140.723,168.203 141.84,168.203 142.957,168.203 144.07,168.203 145.188,168.203 146.305,168.203 147.422,168.203 148.535,168.203 149.652,168.203 150.77,168.203 151.883,168.203 153,168.203 154.117,168.203 155.23,168.203 156.348,168.203 157.465,168.203 158.578,168.203 159.695,168.203 160.812,168.203 161.93,168.203 163.043,168.203 164.16,168.203 165.277,168.203 166.391,168.203 167.508,168.203 168.625,168.203 169.738,168.203 170.855,168.203 171.973,168.203 173.09,168.203 174.203,168.203 175.32,168.203 176.438,168.203 177.551,168.203 178.668,168.203 179.785,168.203 180.898,168.203 182.016,168.203 183.133,168.203 184.246,168.203 185.363,168.203 186.48,168.203 187.598,168.203 188.711,168.203 189.828,168.203 190.945,168.203 192.059,168.203 193.176,168.203 194.293,168.203 195.406,168.203 196.523,168.203 197.641,168.203 198.758,168.203 199.871,168.203 200.988,168.203 202.105,168.203 203.219,168.203 204.336,168.203 205.453,168.203 206.566,168.203 207.684,168.203 208.801,168.203 209.914,168.203 211.031,168.203 212.148,168.203 213.266,168.203 214.379,168.203 215.496,168.203 216.613,168.203 217.727,168.203 218.844,168.203 219.961,168.203 221.074,168.203 222.191,168.203 223.309,168.203 224.426,168.203 225.539,168.203 226.656,168.203 227.773,168.203 228.887,168.203 230.004,168.203 231.121,168.203 232.234,168.203 233.352,168.203 234.469,168.203 235.586,168.203 236.699,168.203 237.816,168.203 238.934,168.203 240.047,168.203 241.164,168.203 242.281,168.203 243.395,168.203 244.512,168.203 245.629,168.203 246.742,168.203 247.859,168.203 248.977,168.203 250.094,168.203 251.207,168.203 252.324,168.203 253.441,168.203 254.555,168.203 255.672,168.203 256.789,168.203 257.902,168.203 259.02,168.203 260.137,168.203 261.254,168.203 262.367,168.203 263.484,168.203 264.602,168.203 265.715,168.203 266.832,168.203 267.949,168.203 269.062,168.203 270.18,168.203 271.297,168.203 272.41,168.203 273.527,168.203 274.645,168.203 275.762,168.203 276.875,168.203 277.992,168.203 279.109,168.203 280.223,168.203 281.34,168.203 282.457,168.203 283.57,168.203 284.688,168.203 285.805,168.203 286.922,168.203 288.035,168.203 289.152,168.203 290.27,168.203 291.383,168.203 292.5,168.203 293.617,168.203 294.73,168.203 295.848,168.203 296.965,168.203 298.078,168.203 299.195,168.203 300.312,168.203 301.43,168.203 302.543,168.203 303.66,168.203 304.777,168.203 305.891,168.203 307.008,168.203 308.125,168.203 309.238,168.203 310.355,168.203 311.473,168.203 312.59,168.203 313.703,168.203 314.82,168.203 315.938,168.203 317.051,168.203 318.168,168.203 319.285,168.203 320.398,168.203 321.516,168.203 322.633,168.203 323.746,168.203 324.863,168.203 325.98,168.203 327.098,168.203 328.211,168.203 329.328,168.203 330.445,168.203 331.559,168.203 332.676,168.203 333.793,168.203 334.906,168.203 336.023,168.203 337.141,168.203 338.258,168.203 339.371,168.203 340.488,168.203 341.605,168.203 342.719,168.203 343.836,168.203 344.953,168.203 346.066,168.203 347.184,168.203 348.301,168.203 349.414,168.203 350.531,168.203 351.648,168.203 352.766,168.203 353.879,168.203 354.996,168.203 356.113,168.203 357.227,168.203 358.344,168.203 359.461,168.203 360.574,168.203 361.691,168.203 362.809,168.203 363.926,168.203 365.039,168.203 366.156,168.203 367.273,258.738 368.387,258.738 369.504,258.738 370.621,258.738 371.734,258.738 372.852,258.738 373.969,258.738 375.082,258.738 376.199,258.738 377.316,258.738 378.434,258.738 379.547,258.738 380.664,258.738 381.781,258.738 382.895,258.738 384.012,258.738 385.129,258.738 386.242,258.738 387.359,258.738 388.477,258.738 389.594,258.738 390.707,258.738 391.824,258.738 392.941,258.738 394.055,258.738 395.172,258.738 396.289,349.273 397.402,349.273 398.52,349.273 399.637,168.203 400.75,168.203 401.867,168.203 402.984,32.3984 404.102,168.203 405.215,168.203 406.332,168.203 407.449,32.3984 408.562,168.203 409.68,168.203 410.797,168.203 411.91,168.203 413.027,168.203 414.145,168.203 415.262,168.203 416.375,168.203 417.492,32.3984 418.609,32.3984 419.723,32.3984 420.84,32.3984 421.957,32.3984 423.07,32.3984 424.188,32.3984 425.305,32.3984 426.422,32.3984 427.535,32.3984 428.652,32.3984 429.77,32.3984 430.883,32.3984 432,32.3984 433.117,32.3984 434.23,32.3984 435.348,32.3984 436.465,32.3984 437.578,32.3984 438.695,32.3984 439.812,32.3984 440.93,32.3984 442.043,32.3984 443.16,32.3984 444.277,32.3984 445.391,32.3984 446.508,32.3984 447.625,32.3984 448.738,32.3984 449.855,32.3984 450.973,32.3984 452.09,32.3984 453.203,32.3984 454.32,32.3984 455.438,32.3984 456.551,32.3984 457.668,32.3984 458.785,32.3984 459.898,32.3984 461.016,32.3984 462.133,32.3984 463.246,32.3984 464.363,32.3984 465.48,32.3984 466.598,32.3984 467.711,32.3984 468.828,32.3984 469.945,32.3984 471.059,32.3984 472.176,32.3984 473.293,32.3984 474.406,32.3984 475.523,168.203"/>
<polyline fill="none" stroke="#000000" stroke-width="0.5" stroke-dasharray="16,0" points="521.281,384.48 521.281,384.48"/>
<polyline fill="none" stroke="#000000" stroke-width="0.5" stroke-dasharray="16,0" points="74.8789,384.48 74.8789,384.48"/>
<polyline fill="none" stroke="#000000" stroke-width="0.5" stroke-dasharray="16,0" points="74.8789,32.3984 74.8789,32.3984"/>
<polyline fill="none" stroke="#000000" stroke-width="0.5" stroke-dasharray="16,0" points="521.281,32.3984 521.281,32.3984"/>
<text fill="#000000" x="298.08" y="22.4" font-size="10" text-anchor="middle" baseline-shift="0" font-family="Helvetica">Hifi Cat RCD3839 (phase angle)</text>
<polyline fill="none" stroke="#000000" stroke-width="0.5" stroke-dasharray="16,0" points="521.281,384.48 521.281,32.3984"/>
<polyline fill="none" stroke="#000000" stroke-width="0.5" stroke-dasharray="16,0" points="74.8789,384.48 74.8789,32.3984 521.281,32.3984"/>
<polyline fill="none" stroke="#000000" stroke-width="0.5" stroke-dasharray="16,0" points="74.8789,384.48 521.281,384.48"/>
</g>
</svg>
