<?xml version="1.0" encoding="UTF-8" standalone="no"?>
<svg xmlns="http://www.w3.org/2000/svg"
     xmlns:xlink="http://www.w3.org/1999/xlink"
     width="576px" height="432px" viewBox="0 0 576 432">
<title>glps_renderer figure</title>
<desc>
Creator: GL2PS 1.3.5, (C) 1999-2009 C. Geuzaine
For: Octave
CreationDate: Tue Jan 31 15:36:01 2012
</desc>
<defs>
</defs>
<g shape-rendering="crispEdges">
<text fill="#000000" x="298.08" y="389.481" font-size="10" text-anchor="middle" baseline-shift="-10" font-family="Helvetica">200</text>
<text fill="#000000" x="409.68" y="389.481" font-size="10" text-anchor="middle" baseline-shift="-10" font-family="Helvetica">300</text>
<text fill="#000000" x="521.28" y="389.481" font-size="10" text-anchor="middle" baseline-shift="-10" font-family="Helvetica">400</text>
<text fill="#000000" x="69.8755" y="384.48" font-size="10" text-anchor="end" baseline-shift="-5" font-family="Helvetica">220</text>
<text fill="#000000" x="69.8755" y="296.46" font-size="10" text-anchor="end" baseline-shift="-5" font-family="Helvetica">222</text>
<text fill="#000000" x="69.8755" y="208.44" font-size="10" text-anchor="end" baseline-shift="-5" font-family="Helvetica">224</text>
<text fill="#000000" x="74.88" y="389.481" font-size="10" text-anchor="middle" baseline-shift="-10" font-family="Helvetica">0</text>
<text fill="#000000" x="186.48" y="389.481" font-size="10" text-anchor="middle" baseline-shift="-10" font-family="Helvetica">100</text>
<text fill="#000000" x="69.8755" y="120.42" font-size="10" text-anchor="end" baseline-shift="-5" font-family="Helvetica">226</text>
<text fill="#000000" x="69.8755" y="32.4" font-size="10" text-anchor="end" baseline-shift="-5" font-family="Helvetica">228</text>
<text fill="#000000" x="298.08" y="402.481" font-size="10" text-anchor="middle" baseline-shift="-10" font-family="Helvetica">time (10 seconds per unit)</text>
<text fill="#000000" x="51.8755" y="208.44" font-size="10" transform="rotate(-90, 51.8755, 208.44)" text-anchor="middle" baseline-shift="0" font-family="Helvetica">volt (V)</text>
<polyline fill="none" stroke="#000000" stroke-width="0.5" stroke-dasharray="16,0" points="74.8789,32.3984 521.281,32.3984"/>
<polyline fill="none" stroke="#000000" stroke-width="0.5" stroke-dasharray="16,0" points="74.8789,384.48 74.8789,32.3984"/>
<polyline fill="none" stroke="#000000" stroke-width="0.5" stroke-dasharray="16,0" points="521.281,384.48 521.281,32.3984"/>
<polyline fill="none" stroke="#000000" stroke-width="0.5" stroke-dasharray="16,0" points="74.8789,384.48 74.8789,377.477"/>
<polyline fill="none" stroke="#000000" stroke-width="0.5" stroke-dasharray="16,0" points="74.8789,32.3984 74.8789,39.4023"/>
<polyline fill="none" stroke="#000000" stroke-width="0.5" stroke-dasharray="16,0" points="186.48,384.48 186.48,377.477"/>
<polyline fill="none" stroke="#000000" stroke-width="0.5" stroke-dasharray="16,0" points="186.48,32.3984 186.48,39.4023"/>
<polyline fill="none" stroke="#000000" stroke-width="0.5" stroke-dasharray="16,0" points="74.8789,384.48 521.281,384.48"/>
<polyline fill="none" stroke="#000000" stroke-width="0.5" stroke-dasharray="16,0" points="298.078,384.48 298.078,377.477"/>
<polyline fill="none" stroke="#000000" stroke-width="0.5" stroke-dasharray="16,0" points="298.078,32.3984 298.078,39.4023"/>
<polyline fill="none" stroke="#000000" stroke-width="0.5" stroke-dasharray="16,0" points="409.68,384.48 409.68,377.477"/>
<polyline fill="none" stroke="#000000" stroke-width="0.5" stroke-dasharray="16,0" points="409.68,32.3984 409.68,39.4023"/>
<polyline fill="none" stroke="#000000" stroke-width="0.5" stroke-dasharray="16,0" points="521.281,384.48 521.281,377.477"/>
<polyline fill="none" stroke="#000000" stroke-width="0.5" stroke-dasharray="16,0" points="521.281,32.3984 521.281,39.4023"/>
<polyline fill="none" stroke="#000000" stroke-width="0.5" stroke-dasharray="16,0" points="74.8789,384.48 81.8867,384.48"/>
<polyline fill="none" stroke="#000000" stroke-width="0.5" stroke-dasharray="16,0" points="521.281,384.48 514.273,384.48"/>
<polyline fill="none" stroke="#000000" stroke-width="0.5" stroke-dasharray="16,0" points="74.8789,296.461 81.8867,296.461"/>
<polyline fill="none" stroke="#000000" stroke-width="0.5" stroke-dasharray="16,0" points="521.281,296.461 514.273,296.461"/>
<polyline fill="none" stroke="#000000" stroke-width="0.5" stroke-dasharray="16,0" points="74.8789,208.441 81.8867,208.441"/>
<polyline fill="none" stroke="#000000" stroke-width="0.5" stroke-dasharray="16,0" points="521.281,208.441 514.273,208.441"/>
<polyline fill="none" stroke="#000000" stroke-width="0.5" stroke-dasharray="16,0" points="74.8789,120.418 81.8867,120.418"/>
<polyline fill="none" stroke="#000000" stroke-width="0.5" stroke-dasharray="16,0" points="521.281,120.418 514.273,120.418"/>
<polyline fill="none" stroke="#000000" stroke-width="0.5" stroke-dasharray="16,0" points="74.8789,32.3984 81.8867,32.3984"/>
<polyline fill="none" stroke="#000000" stroke-width="0.5" stroke-dasharray="16,0" points="521.281,32.3984 514.273,32.3984"/>
<polyline fill="none" stroke="#ff0000" stroke-width="1.5" points="75.9961,235.461 77.1133,228.816 78.2266,212.223 79.3438,235.023 80.4609,227.277 81.5742,219.355 82.6914,215.789 83.8086,242.328 84.9258,223.445 86.0391,226.617 87.1562,213.324 88.2734,195.5 89.3867,200.43 90.5039,193.918 91.6211,231.062 92.7344,255.707 93.8516,236.738 94.9688,210.066 96.0859,188.285 97.1992,171.074 98.3164,170.152 99.4336,204.434 100.547,211.566 101.664,230.402 102.781,214.91 103.895,230.137 105.012,204.48 106.129,230.973 107.242,197.789 108.359,221.293 109.477,192.684 110.594,192.246 111.707,165.707 112.824,198.098 113.941,171.734 115.055,190.484 116.172,172.879 117.289,197.789 118.402,166.938 119.52,189.207 120.637,177.547 121.754,232.383 122.867,212.004 123.984,241.977 125.102,208.352 126.215,227.938 127.332,207.031 128.449,223.492 129.562,203.949 130.68,227.32 131.797,197.965 132.91,218.297 134.027,198.273 135.145,217.285 136.262,208.879 137.375,227.805 138.492,205.184 139.609,228.375 140.723,224.195 141.84,239.293 142.957,221.379 144.07,222.215 145.188,339.809 146.305,381.004 147.422,227.363 148.535,257.863 149.652,226.352 150.77,295.535 151.883,263.363 153,291.047 154.117,231.238 155.23,258.832 156.348,222.566 157.465,293.906 158.578,269.438 159.695,244.617 160.812,278.945 161.93,293.336 163.043,247.258 164.16,252.758 165.277,255.488 166.391,261.383 167.508,260.988 168.625,266.578 169.738,247.215 170.855,260.238 171.973,245.805 173.09,252.273 174.203,254.695 175.32,236.297 176.438,251.965 177.551,256.191 178.668,246.289 179.785,245.938 180.898,263.629 182.016,274.367 183.133,266.535 184.246,260.461 185.363,260.105 186.48,264.246 187.598,259.535 188.711,266.797 189.828,271.461 190.945,271.109 192.059,266.664 193.176,269.043 194.293,240.348 195.406,253.508 196.523,240.965 197.641,248.887 198.758,255.531 199.871,258.961 200.988,268.207 202.105,261.957 203.219,279.164 204.336,270.801 205.453,289.902 206.566,277.184 207.684,323.438 208.801,335.629 209.914,202.41 211.031,276.305 212.148,266.84 213.266,245.41 214.379,262.793 215.496,237.355 216.613,264.465 217.727,241.402 218.844,242.945 219.961,227.453 221.074,253.375 222.191,231.324 223.309,252.539 224.426,229.52 225.539,247.785 226.656,223.141 227.773,256.41 228.887,233.262 230.004,246.508 231.121,232.027 232.234,257.16 233.352,239.379 234.469,258.609 235.586,244.484 236.699,276.613 237.816,241.801 238.934,257.949 240.047,239.027 241.164,265.301 242.281,240.125 243.395,268.512 244.512,248.094 245.629,268.117 246.742,239.555 247.859,249.723 248.977,270.449 250.094,243.691 251.207,261.691 252.324,240.258 253.441,272.078 254.555,244.746 255.672,278.152 256.789,251.57 257.902,271.992 259.02,249.281 260.137,281.453 261.254,272.695 262.367,299.762 263.484,281.715 264.602,309.926 265.715,159.5 266.832,237.047 267.949,212.004 269.062,219.004 270.18,151.449 271.297,173.363 272.41,148.852 273.527,170.723 274.645,145.418 275.762,164.695 276.875,142.953 277.992,179.656 279.109,155.012 280.223,171.781 281.34,152.105 282.457,171.34 283.57,164.828 284.688,191.539 285.805,166.895 286.922,194.137 288.035,172.262 289.152,191.188 290.27,166.234 291.383,187.625 292.5,167.73 293.617,182.121 294.73,150.082 295.848,176.137 296.965,159.852 298.078,189.164 299.195,155.539 300.312,190.57 301.43,158.883 302.543,187.445 303.66,164.781 304.777,186.918 305.891,197.348 307.008,242.68 308.125,211.652 309.238,239.863 310.355,221.422 311.473,248.27 312.59,178.645 313.703,212.621 314.82,177.984 315.938,203.203 317.051,174.641 318.168,202.453 319.285,186.566 320.398,200.078 321.516,182.035 322.633,203.645 323.746,199.902 324.863,231.414 325.98,200.121 327.098,285.062 328.211,248.27 329.328,181.328 330.445,160.426 331.559,190.043 332.676,152.371 333.793,171.648 334.906,152.941 336.023,174.066 337.141,148.148 338.258,166.629 339.371,148.852 340.488,170.062 341.605,146.387 342.719,164.562 343.836,147.266 344.953,161.043 346.066,146.297 347.184,168.434 348.301,144.668 349.414,178.863 350.531,159.5 351.648,181.988 352.766,159.941 353.879,177.984 354.996,151.535 356.113,172.309 357.227,153.559 358.344,174.902 359.461,147.793 360.574,156.199 361.691,140.797 362.809,159.723 363.926,123.414 365.039,139.254 366.156,120.113 367.273,146.254 368.387,117.207 369.504,141.852 370.621,123.543 371.734,142.469 372.852,129.223 373.969,151.621 375.082,122.355 376.199,143.523 377.316,119.145 378.434,141.633 379.547,118.836 380.664,137.629 381.781,118.617 382.895,140.531 384.012,122.18 385.129,182.824 386.242,171.34 387.359,181.02 388.477,118.176 389.594,125.965 390.707,94.7617 391.824,128.473 392.941,95.9492 394.055,127.242 395.172,97.7109 396.289,129.75 397.402,95.2891 398.52,112.41 399.637,94.8945 400.75,109.988 401.867,97.4922 402.984,119.363 404.102,83.8047 405.215,103.695 406.332,85.2539 407.449,95.6875 408.562,87.7656 409.68,103.609 410.797,88.4688 411.91,112.102 413.027,98.4609 414.145,116.945 415.262,84.2422 416.375,120.598 417.492,90.9336 418.609,116.105 419.723,95.3789 420.84,109.066 421.957,102.684 423.07,114.039 424.188,102.332 425.305,128.52 426.422,93.5312 427.535,116.766 428.652,88.1602 429.77,119.762 430.883,103.211 432,182.211 433.117,160.559 434.23,188.766 435.348,181.328 436.465,185.379 437.578,167.336 438.695,178.82 439.812,169.535 440.93,191.891 442.043,163.902 443.16,201.309 444.277,167.027 445.391,235.727 446.508,210.684 447.625,236.168 448.738,175.344 449.855,193.344 450.973,185.289 452.09,116.504 453.203,104.664 454.32,116.152 455.438,104.094 456.551,120.066 457.668,91.3711 458.785,118.262 459.898,92.2539 461.016,111.574 462.133,93.4844 463.246,42.3906 464.363,100.969 465.48,199.285 466.598,196.074 467.711,194.27 468.828,167.773 469.945,199.594 471.059,179.703 472.176,196.645 473.293,167.906 474.406,185.863"/>
<polyline fill="none" stroke="#000000" stroke-width="0.5" stroke-dasharray="16,0" points="521.281,384.48 521.281,384.48"/>
<polyline fill="none" stroke="#000000" stroke-width="0.5" stroke-dasharray="16,0" points="74.8789,384.48 74.8789,384.48"/>
<polyline fill="none" stroke="#000000" stroke-width="0.5" stroke-dasharray="16,0" points="74.8789,32.3984 74.8789,32.3984"/>
<polyline fill="none" stroke="#000000" stroke-width="0.5" stroke-dasharray="16,0" points="521.281,32.3984 521.281,32.3984"/>
<text fill="#000000" x="298.08" y="22.4001" font-size="10" text-anchor="middle" baseline-shift="0" font-family="Helvetica">Hifi Sony CDF-V10 (RMS voltage)</text>
<polyline fill="none" stroke="#000000" stroke-width="0.5" stroke-dasharray="16,0" points="521.281,384.48 521.281,32.3984"/>
<polyline fill="none" stroke="#000000" stroke-width="0.5" stroke-dasharray="16,0" points="74.8789,384.48 74.8789,32.3984 521.281,32.3984"/>
<polyline fill="none" stroke="#000000" stroke-width="0.5" stroke-dasharray="16,0" points="74.8789,384.48 521.281,384.48"/>
</g>
</svg>
