<?xml version="1.0" encoding="UTF-8" standalone="no"?>
<svg xmlns="http://www.w3.org/2000/svg"
     xmlns:xlink="http://www.w3.org/1999/xlink"
     width="576px" height="432px" viewBox="0 0 576 432">
<title>glps_renderer figure</title>
<desc>
Creator: GL2PS 1.3.5, (C) 1999-2009 C. Geuzaine
For: Octave
CreationDate: Tue Jan 31 15:34:14 2012
</desc>
<defs>
</defs>
<g shape-rendering="crispEdges">
<text fill="#000000" x="298.08" y="389.482" font-size="10" text-anchor="middle" baseline-shift="-10" font-family="Helvetica">200</text>
<text fill="#000000" x="409.68" y="389.482" font-size="10" text-anchor="middle" baseline-shift="-10" font-family="Helvetica">300</text>
<text fill="#000000" x="521.28" y="389.482" font-size="10" text-anchor="middle" baseline-shift="-10" font-family="Helvetica">400</text>
<text fill="#000000" x="69.8755" y="384.48" font-size="10" text-anchor="end" baseline-shift="-5" font-family="Helvetica">222</text>
<text fill="#000000" x="69.8755" y="314.064" font-size="10" text-anchor="end" baseline-shift="-5" font-family="Helvetica">223</text>
<text fill="#000000" x="69.8755" y="243.649" font-size="10" text-anchor="end" baseline-shift="-5" font-family="Helvetica">224</text>
<text fill="#000000" x="74.88" y="389.482" font-size="10" text-anchor="middle" baseline-shift="-10" font-family="Helvetica">0</text>
<text fill="#000000" x="186.48" y="389.482" font-size="10" text-anchor="middle" baseline-shift="-10" font-family="Helvetica">100</text>
<text fill="#000000" x="69.8755" y="173.233" font-size="10" text-anchor="end" baseline-shift="-5" font-family="Helvetica">225</text>
<text fill="#000000" x="69.8755" y="102.816" font-size="10" text-anchor="end" baseline-shift="-5" font-family="Helvetica">226</text>
<text fill="#000000" x="69.8755" y="32.4" font-size="10" text-anchor="end" baseline-shift="-5" font-family="Helvetica">227</text>
<text fill="#000000" x="298.08" y="402.481" font-size="10" text-anchor="middle" baseline-shift="-10" font-family="Helvetica">time (10 seconds per unit)</text>
<text fill="#000000" x="51.8755" y="208.44" font-size="10" transform="rotate(-90, 51.8755, 208.44)" text-anchor="middle" baseline-shift="0" font-family="Helvetica">volt (V)</text>
<polyline fill="none" stroke="#000000" stroke-width="0.5" stroke-dasharray="16,0" points="74.8789,32.3984 521.281,32.3984"/>
<polyline fill="none" stroke="#000000" stroke-width="0.5" stroke-dasharray="16,0" points="74.8789,384.48 74.8789,32.3984"/>
<polyline fill="none" stroke="#000000" stroke-width="0.5" stroke-dasharray="16,0" points="521.281,384.48 521.281,32.3984"/>
<polyline fill="none" stroke="#000000" stroke-width="0.5" stroke-dasharray="0,3,1,3,1,3,1,3,1,0" points="74.8789,384.48 74.8789,32.3984"/>
<polyline fill="none" stroke="#000000" stroke-width="0.5" stroke-dasharray="0,3,1,3,1,3,1,3,1,0" points="186.48,384.48 186.48,32.3984"/>
<polyline fill="none" stroke="#000000" stroke-width="0.5" stroke-dasharray="0,3,1,3,1,3,1,3,1,0" points="298.078,384.48 298.078,32.3984"/>
<polyline fill="none" stroke="#000000" stroke-width="0.5" stroke-dasharray="0,3,1,3,1,3,1,3,1,0" points="409.68,384.48 409.68,32.3984"/>
<polyline fill="none" stroke="#000000" stroke-width="0.5" stroke-dasharray="16,0" points="74.8789,384.48 521.281,384.48"/>
<polyline fill="none" stroke="#000000" stroke-width="0.5" stroke-dasharray="0,3,1,3,1,3,1,3,1,0" points="521.281,384.48 521.281,32.3984"/>
<polyline fill="none" stroke="#000000" stroke-width="0.5" stroke-dasharray="16,0" points="74.8789,384.48 74.8789,377.48"/>
<polyline fill="none" stroke="#000000" stroke-width="0.5" stroke-dasharray="16,0" points="74.8789,32.3984 74.8789,39.4023"/>
<polyline fill="none" stroke="#000000" stroke-width="0.5" stroke-dasharray="16,0" points="186.48,384.48 186.48,377.48"/>
<polyline fill="none" stroke="#000000" stroke-width="0.5" stroke-dasharray="16,0" points="186.48,32.3984 186.48,39.4023"/>
<polyline fill="none" stroke="#000000" stroke-width="0.5" stroke-dasharray="16,0" points="298.078,384.48 298.078,377.48"/>
<polyline fill="none" stroke="#000000" stroke-width="0.5" stroke-dasharray="16,0" points="298.078,32.3984 298.078,39.4023"/>
<polyline fill="none" stroke="#000000" stroke-width="0.5" stroke-dasharray="16,0" points="409.68,384.48 409.68,377.48"/>
<polyline fill="none" stroke="#000000" stroke-width="0.5" stroke-dasharray="16,0" points="409.68,32.3984 409.68,39.4023"/>
<polyline fill="none" stroke="#000000" stroke-width="0.5" stroke-dasharray="16,0" points="521.281,384.48 521.281,377.48"/>
<polyline fill="none" stroke="#000000" stroke-width="0.5" stroke-dasharray="16,0" points="521.281,32.3984 521.281,39.4023"/>
<polyline fill="none" stroke="#000000" stroke-width="0.5" stroke-dasharray="0,3,1,3,1,3,1,3,1,0" points="97.1992,384.48 97.1992,32.3984"/>
<polyline fill="none" stroke="#000000" stroke-width="0.5" stroke-dasharray="0,3,1,3,1,3,1,3,1,0" points="119.52,384.48 119.52,32.3984"/>
<polyline fill="none" stroke="#000000" stroke-width="0.5" stroke-dasharray="0,3,1,3,1,3,1,3,1,0" points="141.84,384.48 141.84,32.3984"/>
<polyline fill="none" stroke="#000000" stroke-width="0.5" stroke-dasharray="0,3,1,3,1,3,1,3,1,0" points="164.16,384.48 164.16,32.3984"/>
<polyline fill="none" stroke="#000000" stroke-width="0.5" stroke-dasharray="0,3,1,3,1,3,1,3,1,0" points="208.801,384.48 208.801,32.3984"/>
<polyline fill="none" stroke="#000000" stroke-width="0.5" stroke-dasharray="0,3,1,3,1,3,1,3,1,0" points="231.121,384.48 231.121,32.3984"/>
<polyline fill="none" stroke="#000000" stroke-width="0.5" stroke-dasharray="0,3,1,3,1,3,1,3,1,0" points="253.441,384.48 253.441,32.3984"/>
<polyline fill="none" stroke="#000000" stroke-width="0.5" stroke-dasharray="0,3,1,3,1,3,1,3,1,0" points="275.762,384.48 275.762,32.3984"/>
<polyline fill="none" stroke="#000000" stroke-width="0.5" stroke-dasharray="0,3,1,3,1,3,1,3,1,0" points="320.398,384.48 320.398,32.3984"/>
<polyline fill="none" stroke="#000000" stroke-width="0.5" stroke-dasharray="0,3,1,3,1,3,1,3,1,0" points="342.719,384.48 342.719,32.3984"/>
<polyline fill="none" stroke="#000000" stroke-width="0.5" stroke-dasharray="0,3,1,3,1,3,1,3,1,0" points="365.039,384.48 365.039,32.3984"/>
<polyline fill="none" stroke="#000000" stroke-width="0.5" stroke-dasharray="0,3,1,3,1,3,1,3,1,0" points="387.359,384.48 387.359,32.3984"/>
<polyline fill="none" stroke="#000000" stroke-width="0.5" stroke-dasharray="0,3,1,3,1,3,1,3,1,0" points="432,384.48 432,32.3984"/>
<polyline fill="none" stroke="#000000" stroke-width="0.5" stroke-dasharray="0,3,1,3,1,3,1,3,1,0" points="454.32,384.48 454.32,32.3984"/>
<polyline fill="none" stroke="#000000" stroke-width="0.5" stroke-dasharray="0,3,1,3,1,3,1,3,1,0" points="476.641,384.48 476.641,32.3984"/>
<polyline fill="none" stroke="#000000" stroke-width="0.5" stroke-dasharray="0,3,1,3,1,3,1,3,1,0" points="498.961,384.48 498.961,32.3984"/>
<polyline fill="none" stroke="#000000" stroke-width="0.5" stroke-dasharray="0,3,1,3,1,3,1,3,1,0" points="74.8789,384.48 521.281,384.48"/>
<polyline fill="none" stroke="#000000" stroke-width="0.5" stroke-dasharray="0,3,1,3,1,3,1,3,1,0" points="74.8789,314.066 521.281,314.066"/>
<polyline fill="none" stroke="#000000" stroke-width="0.5" stroke-dasharray="0,3,1,3,1,3,1,3,1,0" points="74.8789,243.648 521.281,243.648"/>
<polyline fill="none" stroke="#000000" stroke-width="0.5" stroke-dasharray="0,3,1,3,1,3,1,3,1,0" points="74.8789,173.234 521.281,173.234"/>
<polyline fill="none" stroke="#000000" stroke-width="0.5" stroke-dasharray="0,3,1,3,1,3,1,3,1,0" points="74.8789,102.816 521.281,102.816"/>
<polyline fill="none" stroke="#000000" stroke-width="0.5" stroke-dasharray="0,3,1,3,1,3,1,3,1,0" points="74.8789,32.3984 521.281,32.3984"/>
<polyline fill="none" stroke="#000000" stroke-width="0.5" stroke-dasharray="16,0" points="74.8789,384.48 81.8867,384.48"/>
<polyline fill="none" stroke="#000000" stroke-width="0.5" stroke-dasharray="16,0" points="521.281,384.48 514.273,384.48"/>
<polyline fill="none" stroke="#000000" stroke-width="0.5" stroke-dasharray="16,0" points="74.8789,314.066 81.8867,314.066"/>
<polyline fill="none" stroke="#000000" stroke-width="0.5" stroke-dasharray="16,0" points="521.281,314.066 514.273,314.066"/>
<polyline fill="none" stroke="#000000" stroke-width="0.5" stroke-dasharray="16,0" points="74.8789,243.648 81.8867,243.648"/>
<polyline fill="none" stroke="#000000" stroke-width="0.5" stroke-dasharray="16,0" points="521.281,243.648 514.273,243.648"/>
<polyline fill="none" stroke="#000000" stroke-width="0.5" stroke-dasharray="16,0" points="74.8789,173.234 81.8867,173.234"/>
<polyline fill="none" stroke="#000000" stroke-width="0.5" stroke-dasharray="16,0" points="521.281,173.234 514.273,173.234"/>
<polyline fill="none" stroke="#000000" stroke-width="0.5" stroke-dasharray="16,0" points="74.8789,102.816 81.8867,102.816"/>
<polyline fill="none" stroke="#000000" stroke-width="0.5" stroke-dasharray="16,0" points="521.281,102.816 514.273,102.816"/>
<polyline fill="none" stroke="#000000" stroke-width="0.5" stroke-dasharray="16,0" points="74.8789,32.3984 81.8867,32.3984"/>
<polyline fill="none" stroke="#000000" stroke-width="0.5" stroke-dasharray="16,0" points="521.281,32.3984 514.273,32.3984"/>
<polyline fill="none" stroke="#000000" stroke-width="0.5" stroke-dasharray="0,3,1,3,1,3,1,3,1,0" points="74.8789,370.395 521.281,370.395"/>
<polyline fill="none" stroke="#000000" stroke-width="0.5" stroke-dasharray="0,3,1,3,1,3,1,3,1,0" points="74.8789,356.316 521.281,356.316"/>
<polyline fill="none" stroke="#000000" stroke-width="0.5" stroke-dasharray="0,3,1,3,1,3,1,3,1,0" points="74.8789,342.23 521.281,342.23"/>
<polyline fill="none" stroke="#000000" stroke-width="0.5" stroke-dasharray="0,3,1,3,1,3,1,3,1,0" points="74.8789,328.145 521.281,328.145"/>
<polyline fill="none" stroke="#000000" stroke-width="0.5" stroke-dasharray="0,3,1,3,1,3,1,3,1,0" points="74.8789,299.98 521.281,299.98"/>
<polyline fill="none" stroke="#000000" stroke-width="0.5" stroke-dasharray="0,3,1,3,1,3,1,3,1,0" points="74.8789,285.898 521.281,285.898"/>
<polyline fill="none" stroke="#000000" stroke-width="0.5" stroke-dasharray="0,3,1,3,1,3,1,3,1,0" points="74.8789,271.812 521.281,271.812"/>
<polyline fill="none" stroke="#000000" stroke-width="0.5" stroke-dasharray="0,3,1,3,1,3,1,3,1,0" points="74.8789,257.73 521.281,257.73"/>
<polyline fill="none" stroke="#000000" stroke-width="0.5" stroke-dasharray="0,3,1,3,1,3,1,3,1,0" points="74.8789,229.562 521.281,229.562"/>
<polyline fill="none" stroke="#000000" stroke-width="0.5" stroke-dasharray="0,3,1,3,1,3,1,3,1,0" points="74.8789,215.484 521.281,215.484"/>
<polyline fill="none" stroke="#000000" stroke-width="0.5" stroke-dasharray="0,3,1,3,1,3,1,3,1,0" points="74.8789,201.398 521.281,201.398"/>
<polyline fill="none" stroke="#000000" stroke-width="0.5" stroke-dasharray="0,3,1,3,1,3,1,3,1,0" points="74.8789,187.312 521.281,187.312"/>
<polyline fill="none" stroke="#000000" stroke-width="0.5" stroke-dasharray="0,3,1,3,1,3,1,3,1,0" points="74.8789,159.148 521.281,159.148"/>
<polyline fill="none" stroke="#000000" stroke-width="0.5" stroke-dasharray="0,3,1,3,1,3,1,3,1,0" points="74.8789,145.066 521.281,145.066"/>
<polyline fill="none" stroke="#000000" stroke-width="0.5" stroke-dasharray="0,3,1,3,1,3,1,3,1,0" points="74.8789,130.98 521.281,130.98"/>
<polyline fill="none" stroke="#000000" stroke-width="0.5" stroke-dasharray="0,3,1,3,1,3,1,3,1,0" points="74.8789,116.898 521.281,116.898"/>
<polyline fill="none" stroke="#000000" stroke-width="0.5" stroke-dasharray="0,3,1,3,1,3,1,3,1,0" points="74.8789,88.7305 521.281,88.7305"/>
<polyline fill="none" stroke="#000000" stroke-width="0.5" stroke-dasharray="0,3,1,3,1,3,1,3,1,0" points="74.8789,74.6523 521.281,74.6523"/>
<polyline fill="none" stroke="#000000" stroke-width="0.5" stroke-dasharray="0,3,1,3,1,3,1,3,1,0" points="74.8789,60.5664 521.281,60.5664"/>
<polyline fill="none" stroke="#000000" stroke-width="0.5" stroke-dasharray="0,3,1,3,1,3,1,3,1,0" points="74.8789,46.4805 521.281,46.4805"/>
<polyline fill="none" stroke="#ff0000" stroke-width="1.5" points="75.9961,256.395 77.1133,232.242 78.2266,256.039 79.3438,272.52 80.4609,284.77 81.5742,267.52 82.6914,256.039 83.8086,286.742 84.9258,272.445 86.0391,273.363 87.1562,300.617 88.2734,268.504 89.3867,260.898 90.5039,247.801 91.6211,268.293 92.7344,258.926 93.8516,286.039 94.9688,248.227 96.0859,305.754 97.1992,274.492 98.3164,335.824 99.4336,368.145 100.547,300.824 101.664,252.52 102.781,304.133 103.895,256.184 105.012,276.883 106.129,286.531 107.242,306.953 108.359,277.445 109.477,309.133 110.594,280.969 111.707,268.223 112.824,238.086 113.941,267.73 115.055,264.703 116.172,279.77 117.289,242.875 118.402,276.391 119.52,258.859 120.637,259.141 121.754,251.535 122.867,244.844 123.984,238.156 125.102,232.594 126.215,209.145 127.332,231.957 128.449,244.492 129.562,285.547 130.68,251.887 131.797,277.52 132.91,265.055 134.027,323.641 135.145,290.336 136.262,319.906 137.375,299.559 138.492,327.441 139.609,264.492 140.723,262.59 141.84,236.395 142.957,243.086 144.07,235.551 145.188,250.477 146.305,242.875 147.422,339.484 148.535,242.031 149.652,260.125 150.77,287.52 151.883,276.531 153,245.762 154.117,276.742 155.23,244.422 156.348,276.25 157.465,211.188 158.578,296.461 159.695,228.156 160.812,253.859 161.93,254.984 163.043,332.723 164.16,270.688 165.277,309.98 166.391,255.832 167.508,283.082 168.625,263.152 169.738,263.789 170.855,238.156 171.973,217.523 173.09,255.055 174.203,241.535 175.32,213.301 176.438,215.059 177.551,181.891 178.668,174.219 179.785,183.02 180.898,168.234 182.016,171.402 183.133,148.938 184.246,173.793 185.363,169.852 186.48,176.965 187.598,193.793 188.711,170.273 189.828,150.277 190.945,140.98 192.059,130.633 193.176,127.883 194.293,123.66 195.406,112.25 196.523,74.7891 197.641,102.395 198.758,110.773 199.871,109.645 200.988,130.418 202.105,110.281 203.219,169.922 204.336,154.008 205.453,169.078 206.566,148.234 207.684,129.082 208.801,146.688 209.914,158.16 211.031,181.332 212.148,176.191 213.266,187.387 214.379,139.293 215.496,125.844 216.613,91.125 217.727,151.121 218.844,129.996 219.961,147.672 221.074,102.254 222.191,127.18 223.309,95.4922 224.426,80.1406 225.539,85.1406 226.656,132.883 227.773,127.25 228.887,176.121 230.004,168.656 231.121,174.641 232.234,155.77 233.352,177.738 234.469,151.895 235.586,106.195 236.699,68.3828 237.816,145.207 238.934,104.223 240.047,122.531 241.164,123.449 242.281,125.562 243.395,121.406 244.512,145.84 245.629,166.188 246.742,227.594 247.859,255.688 248.977,257.73 250.094,216.539 251.207,233.016 252.324,230.199 253.441,286.953 254.555,316.316 255.672,324.203 256.789,324.766 257.902,333.289 259.02,350.117 260.137,299.98 261.254,322.301 262.367,360.609 263.484,309.348 264.602,300.332 265.715,287.234 266.832,315.613 267.949,299.207 269.062,310.543 270.18,308.852 271.297,343.848 272.41,268.223 273.527,296.883 274.645,255.973 275.762,306.812 276.875,283.434 277.992,291.812 279.109,256.395 280.223,260.195 281.34,291.25 282.457,264.352 283.57,301.531 284.688,238.016 285.805,261.395 286.922,263.859 288.035,279.84 289.152,258.504 290.27,283.785 291.383,227.945 292.5,270.617 293.617,285.262 294.73,306.316 295.848,321.738 296.965,367.297 298.078,312.164 299.195,284.699 300.312,213.227 301.43,266.672 302.543,270.547 303.66,259.633 304.777,265.547 305.891,264.281 307.008,251.605 308.125,265.195 309.238,247.168 310.355,303.078 311.473,277.52 312.59,273.785 313.703,256.254 314.82,257.59 315.938,295.402 317.051,316.105 318.168,303.711 319.285,334.555 320.398,342.934 321.516,345.891 322.633,356.664 323.746,312.445 324.863,306.461 325.98,326.246 327.098,328.145 328.211,304.133 329.328,319.625 330.445,288.715 331.559,288.715 332.676,259.422 333.793,304.77 334.906,297.656 336.023,280.125 337.141,272.941 338.258,278.152 339.371,277.379 340.488,261.957 341.605,266.605 342.719,246.957 343.836,273.645 344.953,303.148 346.066,285.473 347.184,269.281 348.301,252.168 349.414,297.305 350.531,260.828 351.648,270.688 352.766,295.473 353.879,267.379 354.996,265.758 356.113,253.082 357.227,230.762 358.344,239.07 359.461,215.34 360.574,234.211 361.691,164.852 362.809,168.445 363.926,191.891 365.039,227.805 366.156,194.074 367.273,231.887 368.387,217.734 369.504,243.648 370.621,232.098 371.734,249.352 372.852,259.352 373.969,257.168 375.082,263.012 376.199,263.859 377.316,234.848 378.434,251.465 379.547,263.363 380.664,258.152 381.781,245.34 382.895,243.367 384.012,211.961 385.129,259.492 386.242,225.48 387.359,271.18 388.477,253.648 389.594,270.758 390.707,276.883 391.824,250.617 392.941,242.734 394.055,189.426 395.172,221.184 396.289,199.496 397.402,168.445 398.52,174.57 399.637,174.57 400.75,175.273 401.867,159.078 402.984,169.43 404.102,167.949 405.215,200.34 406.332,171.895 407.449,163.445 408.562,187.457 409.68,213.016 410.797,197.879 411.91,168.371 413.027,187.809 414.145,183.934 415.262,179.5 416.375,198.863 417.492,171.754 418.609,179.852 419.723,151.262 420.84,160.91 421.957,170.344 423.07,228.367 424.188,167.457 425.305,148.797 426.422,174.359 427.535,150.98 428.652,195.977 429.77,198.863 430.883,196.609 432,198.16 433.117,179.43 434.23,187.879 435.348,220.902 436.465,166.121 437.578,175.344 438.695,168.02 439.812,209.496 440.93,133.516 442.043,192.102 443.16,146.543 444.277,166.121 445.391,154.008 446.508,214.566 447.625,196.609 448.738,234.141 449.855,190.203 450.973,230.059 452.09,204.285 453.203,232.594 454.32,185.906 455.438,259.844 456.551,305.473 457.668,313.57 458.785,265.617 459.898,281.461 461.016,254.633 462.133,281.883 463.246,260.828 464.363,300.895 465.48,255.973 466.598,317.301 467.711,273.574 468.828,259.844 469.945,261.605 471.059,285.473 472.176,239.773 473.293,179.852"/>
<polyline fill="none" stroke="#000000" stroke-width="0.5" stroke-dasharray="16,0" points="521.281,384.48 521.281,384.48"/>
<polyline fill="none" stroke="#000000" stroke-width="0.5" stroke-dasharray="16,0" points="74.8789,384.48 74.8789,384.48"/>
<polyline fill="none" stroke="#000000" stroke-width="0.5" stroke-dasharray="16,0" points="74.8789,32.3984 74.8789,32.3984"/>
<polyline fill="none" stroke="#000000" stroke-width="0.5" stroke-dasharray="16,0" points="521.281,32.3984 521.281,32.3984"/>
<text fill="#000000" x="298.08" y="22.4008" font-size="10" text-anchor="middle" baseline-shift="0" font-family="Helvetica">Hifi Cat RCD3839 (RMS voltage)</text>
<polyline fill="none" stroke="#000000" stroke-width="0.5" stroke-dasharray="16,0" points="521.281,384.48 521.281,32.3984"/>
<polyline fill="none" stroke="#000000" stroke-width="0.5" stroke-dasharray="16,0" points="74.8789,384.48 74.8789,32.3984 521.281,32.3984"/>
<polyline fill="none" stroke="#000000" stroke-width="0.5" stroke-dasharray="16,0" points="74.8789,384.48 521.281,384.48"/>
</g>
</svg>
