<?xml version="1.0" encoding="UTF-8" standalone="no"?>
<svg xmlns="http://www.w3.org/2000/svg"
     xmlns:xlink="http://www.w3.org/1999/xlink"
     width="576px" height="432px" viewBox="0 0 576 432">
<title>glps_renderer figure</title>
<desc>
Creator: GL2PS 1.3.5, (C) 1999-2009 C. Geuzaine
For: Octave
CreationDate: Fri Dec 23 15:29:45 2011
</desc>
<defs>
</defs>
<g shape-rendering="crispEdges">
<text fill="#000000" x="298.08" y="389.481" font-size="10" text-anchor="middle" baseline-shift="-10" font-family="Helvetica">200</text>
<text fill="#000000" x="409.68" y="389.481" font-size="10" text-anchor="middle" baseline-shift="-10" font-family="Helvetica">300</text>
<text fill="#000000" x="521.28" y="389.481" font-size="10" text-anchor="middle" baseline-shift="-10" font-family="Helvetica">400</text>
<text fill="#000000" x="69.8755" y="384.48" font-size="10" text-anchor="end" baseline-shift="-5" font-family="Helvetica">-7</text>
<text fill="#000000" x="69.8755" y="314.064" font-size="10" text-anchor="end" baseline-shift="-5" font-family="Helvetica">-6.5</text>
<text fill="#000000" x="69.8755" y="243.648" font-size="10" text-anchor="end" baseline-shift="-5" font-family="Helvetica">-6</text>
<text fill="#000000" x="74.88" y="389.481" font-size="10" text-anchor="middle" baseline-shift="-10" font-family="Helvetica">0</text>
<text fill="#000000" x="186.48" y="389.481" font-size="10" text-anchor="middle" baseline-shift="-10" font-family="Helvetica">100</text>
<text fill="#000000" x="69.8755" y="173.232" font-size="10" text-anchor="end" baseline-shift="-5" font-family="Helvetica">-5.5</text>
<text fill="#000000" x="69.8755" y="102.816" font-size="10" text-anchor="end" baseline-shift="-5" font-family="Helvetica">-5</text>
<text fill="#000000" x="69.8755" y="32.4001" font-size="10" text-anchor="end" baseline-shift="-5" font-family="Helvetica">-4.5</text>
<text fill="#000000" x="298.08" y="402.481" font-size="10" text-anchor="middle" baseline-shift="-10" font-family="Helvetica">time (10 seconds per unit)</text>
<text fill="#000000" x="51.8755" y="208.44" font-size="10" transform="rotate(-90, 51.8755, 208.44)" text-anchor="middle" baseline-shift="0" font-family="Helvetica">volt-ampere reactive (var)</text>
<polyline fill="none" stroke="#000000" stroke-width="0.5" stroke-dasharray="16,0" points="74.8789,32.3984 521.281,32.3984"/>
<polyline fill="none" stroke="#000000" stroke-width="0.5" stroke-dasharray="16,0" points="74.8789,384.48 74.8789,32.3984"/>
<polyline fill="none" stroke="#000000" stroke-width="0.5" stroke-dasharray="16,0" points="521.281,384.48 521.281,32.3984"/>
<polyline fill="none" stroke="#000000" stroke-width="0.5" stroke-dasharray="0,3,1,3,1,3,1,3,1,0" points="74.8789,384.48 74.8789,32.3984"/>
<polyline fill="none" stroke="#000000" stroke-width="0.5" stroke-dasharray="0,3,1,3,1,3,1,3,1,0" points="186.48,384.48 186.48,32.3984"/>
<polyline fill="none" stroke="#000000" stroke-width="0.5" stroke-dasharray="0,3,1,3,1,3,1,3,1,0" points="298.078,384.48 298.078,32.3984"/>
<polyline fill="none" stroke="#000000" stroke-width="0.5" stroke-dasharray="0,3,1,3,1,3,1,3,1,0" points="409.68,384.48 409.68,32.3984"/>
<polyline fill="none" stroke="#000000" stroke-width="0.5" stroke-dasharray="16,0" points="74.8789,384.48 521.281,384.48"/>
<polyline fill="none" stroke="#000000" stroke-width="0.5" stroke-dasharray="0,3,1,3,1,3,1,3,1,0" points="521.281,384.48 521.281,32.3984"/>
<polyline fill="none" stroke="#000000" stroke-width="0.5" stroke-dasharray="16,0" points="74.8789,384.48 74.8789,377.477"/>
<polyline fill="none" stroke="#000000" stroke-width="0.5" stroke-dasharray="16,0" points="74.8789,32.3984 74.8789,39.4023"/>
<polyline fill="none" stroke="#000000" stroke-width="0.5" stroke-dasharray="16,0" points="186.48,384.48 186.48,377.477"/>
<polyline fill="none" stroke="#000000" stroke-width="0.5" stroke-dasharray="16,0" points="186.48,32.3984 186.48,39.4023"/>
<polyline fill="none" stroke="#000000" stroke-width="0.5" stroke-dasharray="16,0" points="298.078,384.48 298.078,377.477"/>
<polyline fill="none" stroke="#000000" stroke-width="0.5" stroke-dasharray="16,0" points="298.078,32.3984 298.078,39.4023"/>
<polyline fill="none" stroke="#000000" stroke-width="0.5" stroke-dasharray="16,0" points="409.68,384.48 409.68,377.477"/>
<polyline fill="none" stroke="#000000" stroke-width="0.5" stroke-dasharray="16,0" points="409.68,32.3984 409.68,39.4023"/>
<polyline fill="none" stroke="#000000" stroke-width="0.5" stroke-dasharray="16,0" points="521.281,384.48 521.281,377.477"/>
<polyline fill="none" stroke="#000000" stroke-width="0.5" stroke-dasharray="16,0" points="521.281,32.3984 521.281,39.4023"/>
<polyline fill="none" stroke="#000000" stroke-width="0.5" stroke-dasharray="0,3,1,3,1,3,1,3,1,0" points="97.1992,384.48 97.1992,32.3984"/>
<polyline fill="none" stroke="#000000" stroke-width="0.5" stroke-dasharray="0,3,1,3,1,3,1,3,1,0" points="119.52,384.48 119.52,32.3984"/>
<polyline fill="none" stroke="#000000" stroke-width="0.5" stroke-dasharray="0,3,1,3,1,3,1,3,1,0" points="141.84,384.48 141.84,32.3984"/>
<polyline fill="none" stroke="#000000" stroke-width="0.5" stroke-dasharray="0,3,1,3,1,3,1,3,1,0" points="164.16,384.48 164.16,32.3984"/>
<polyline fill="none" stroke="#000000" stroke-width="0.5" stroke-dasharray="0,3,1,3,1,3,1,3,1,0" points="208.801,384.48 208.801,32.3984"/>
<polyline fill="none" stroke="#000000" stroke-width="0.5" stroke-dasharray="0,3,1,3,1,3,1,3,1,0" points="231.121,384.48 231.121,32.3984"/>
<polyline fill="none" stroke="#000000" stroke-width="0.5" stroke-dasharray="0,3,1,3,1,3,1,3,1,0" points="253.441,384.48 253.441,32.3984"/>
<polyline fill="none" stroke="#000000" stroke-width="0.5" stroke-dasharray="0,3,1,3,1,3,1,3,1,0" points="275.762,384.48 275.762,32.3984"/>
<polyline fill="none" stroke="#000000" stroke-width="0.5" stroke-dasharray="0,3,1,3,1,3,1,3,1,0" points="320.398,384.48 320.398,32.3984"/>
<polyline fill="none" stroke="#000000" stroke-width="0.5" stroke-dasharray="0,3,1,3,1,3,1,3,1,0" points="342.719,384.48 342.719,32.3984"/>
<polyline fill="none" stroke="#000000" stroke-width="0.5" stroke-dasharray="0,3,1,3,1,3,1,3,1,0" points="365.039,384.48 365.039,32.3984"/>
<polyline fill="none" stroke="#000000" stroke-width="0.5" stroke-dasharray="0,3,1,3,1,3,1,3,1,0" points="387.359,384.48 387.359,32.3984"/>
<polyline fill="none" stroke="#000000" stroke-width="0.5" stroke-dasharray="0,3,1,3,1,3,1,3,1,0" points="432,384.48 432,32.3984"/>
<polyline fill="none" stroke="#000000" stroke-width="0.5" stroke-dasharray="0,3,1,3,1,3,1,3,1,0" points="454.32,384.48 454.32,32.3984"/>
<polyline fill="none" stroke="#000000" stroke-width="0.5" stroke-dasharray="0,3,1,3,1,3,1,3,1,0" points="476.641,384.48 476.641,32.3984"/>
<polyline fill="none" stroke="#000000" stroke-width="0.5" stroke-dasharray="0,3,1,3,1,3,1,3,1,0" points="498.961,384.48 498.961,32.3984"/>
<polyline fill="none" stroke="#000000" stroke-width="0.5" stroke-dasharray="0,3,1,3,1,3,1,3,1,0" points="74.8789,384.48 521.281,384.48"/>
<polyline fill="none" stroke="#000000" stroke-width="0.5" stroke-dasharray="0,3,1,3,1,3,1,3,1,0" points="74.8789,314.062 521.281,314.062"/>
<polyline fill="none" stroke="#000000" stroke-width="0.5" stroke-dasharray="0,3,1,3,1,3,1,3,1,0" points="74.8789,243.648 521.281,243.648"/>
<polyline fill="none" stroke="#000000" stroke-width="0.5" stroke-dasharray="0,3,1,3,1,3,1,3,1,0" points="74.8789,173.23 521.281,173.23"/>
<polyline fill="none" stroke="#000000" stroke-width="0.5" stroke-dasharray="0,3,1,3,1,3,1,3,1,0" points="74.8789,102.816 521.281,102.816"/>
<polyline fill="none" stroke="#000000" stroke-width="0.5" stroke-dasharray="0,3,1,3,1,3,1,3,1,0" points="74.8789,32.3984 521.281,32.3984"/>
<polyline fill="none" stroke="#000000" stroke-width="0.5" stroke-dasharray="16,0" points="74.8789,384.48 81.8867,384.48"/>
<polyline fill="none" stroke="#000000" stroke-width="0.5" stroke-dasharray="16,0" points="521.281,384.48 514.273,384.48"/>
<polyline fill="none" stroke="#000000" stroke-width="0.5" stroke-dasharray="16,0" points="74.8789,314.062 81.8867,314.062"/>
<polyline fill="none" stroke="#000000" stroke-width="0.5" stroke-dasharray="16,0" points="521.281,314.062 514.273,314.062"/>
<polyline fill="none" stroke="#000000" stroke-width="0.5" stroke-dasharray="16,0" points="74.8789,243.648 81.8867,243.648"/>
<polyline fill="none" stroke="#000000" stroke-width="0.5" stroke-dasharray="16,0" points="521.281,243.648 514.273,243.648"/>
<polyline fill="none" stroke="#000000" stroke-width="0.5" stroke-dasharray="16,0" points="74.8789,173.23 81.8867,173.23"/>
<polyline fill="none" stroke="#000000" stroke-width="0.5" stroke-dasharray="16,0" points="521.281,173.23 514.273,173.23"/>
<polyline fill="none" stroke="#000000" stroke-width="0.5" stroke-dasharray="16,0" points="74.8789,102.816 81.8867,102.816"/>
<polyline fill="none" stroke="#000000" stroke-width="0.5" stroke-dasharray="16,0" points="521.281,102.816 514.273,102.816"/>
<polyline fill="none" stroke="#000000" stroke-width="0.5" stroke-dasharray="16,0" points="74.8789,32.3984 81.8867,32.3984"/>
<polyline fill="none" stroke="#000000" stroke-width="0.5" stroke-dasharray="16,0" points="521.281,32.3984 514.273,32.3984"/>
<polyline fill="none" stroke="#000000" stroke-width="0.5" stroke-dasharray="0,3,1,3,1,3,1,3,1,0" points="74.8789,370.398 521.281,370.398"/>
<polyline fill="none" stroke="#000000" stroke-width="0.5" stroke-dasharray="0,3,1,3,1,3,1,3,1,0" points="74.8789,356.312 521.281,356.312"/>
<polyline fill="none" stroke="#000000" stroke-width="0.5" stroke-dasharray="0,3,1,3,1,3,1,3,1,0" points="74.8789,342.23 521.281,342.23"/>
<polyline fill="none" stroke="#000000" stroke-width="0.5" stroke-dasharray="0,3,1,3,1,3,1,3,1,0" points="74.8789,328.148 521.281,328.148"/>
<polyline fill="none" stroke="#000000" stroke-width="0.5" stroke-dasharray="0,3,1,3,1,3,1,3,1,0" points="74.8789,299.98 521.281,299.98"/>
<polyline fill="none" stroke="#000000" stroke-width="0.5" stroke-dasharray="0,3,1,3,1,3,1,3,1,0" points="74.8789,285.898 521.281,285.898"/>
<polyline fill="none" stroke="#000000" stroke-width="0.5" stroke-dasharray="0,3,1,3,1,3,1,3,1,0" points="74.8789,271.812 521.281,271.812"/>
<polyline fill="none" stroke="#000000" stroke-width="0.5" stroke-dasharray="0,3,1,3,1,3,1,3,1,0" points="74.8789,257.73 521.281,257.73"/>
<polyline fill="none" stroke="#000000" stroke-width="0.5" stroke-dasharray="0,3,1,3,1,3,1,3,1,0" points="74.8789,229.566 521.281,229.566"/>
<polyline fill="none" stroke="#000000" stroke-width="0.5" stroke-dasharray="0,3,1,3,1,3,1,3,1,0" points="74.8789,215.48 521.281,215.48"/>
<polyline fill="none" stroke="#000000" stroke-width="0.5" stroke-dasharray="0,3,1,3,1,3,1,3,1,0" points="74.8789,201.398 521.281,201.398"/>
<polyline fill="none" stroke="#000000" stroke-width="0.5" stroke-dasharray="0,3,1,3,1,3,1,3,1,0" points="74.8789,187.316 521.281,187.316"/>
<polyline fill="none" stroke="#000000" stroke-width="0.5" stroke-dasharray="0,3,1,3,1,3,1,3,1,0" points="74.8789,159.148 521.281,159.148"/>
<polyline fill="none" stroke="#000000" stroke-width="0.5" stroke-dasharray="0,3,1,3,1,3,1,3,1,0" points="74.8789,145.066 521.281,145.066"/>
<polyline fill="none" stroke="#000000" stroke-width="0.5" stroke-dasharray="0,3,1,3,1,3,1,3,1,0" points="74.8789,130.98 521.281,130.98"/>
<polyline fill="none" stroke="#000000" stroke-width="0.5" stroke-dasharray="0,3,1,3,1,3,1,3,1,0" points="74.8789,116.898 521.281,116.898"/>
<polyline fill="none" stroke="#000000" stroke-width="0.5" stroke-dasharray="0,3,1,3,1,3,1,3,1,0" points="74.8789,88.7344 521.281,88.7344"/>
<polyline fill="none" stroke="#000000" stroke-width="0.5" stroke-dasharray="0,3,1,3,1,3,1,3,1,0" points="74.8789,74.6484 521.281,74.6484"/>
<polyline fill="none" stroke="#000000" stroke-width="0.5" stroke-dasharray="0,3,1,3,1,3,1,3,1,0" points="74.8789,60.5664 521.281,60.5664"/>
<polyline fill="none" stroke="#000000" stroke-width="0.5" stroke-dasharray="0,3,1,3,1,3,1,3,1,0" points="74.8789,46.4844 521.281,46.4844"/>
<polyline fill="none" stroke="#ff0000" stroke-width="1.5" points="75.9961,127.602 77.1133,127.602 78.2266,127.602 79.3438,112.957 80.4609,98.3086 81.5742,98.3086 82.6914,112.957 83.8086,360.82 84.9258,360.82 86.0391,360.82 87.1562,360.82 88.2734,156.754 89.3867,127.602 90.5039,127.602 91.6211,112.957 92.7344,127.602 93.8516,112.957 94.9688,98.3086 96.0859,98.3086 97.1992,112.957 98.3164,98.3086 99.4336,112.957 100.547,98.3086 101.664,112.957 102.781,83.8047 103.895,54.6523 105.012,54.6523 106.129,69.1562 107.242,54.6523 108.359,142.109 109.477,69.1562 110.594,69.1562 111.707,83.8047 112.824,83.8047 113.941,83.8047 115.055,83.8047 116.172,83.8047 117.289,83.8047 118.402,69.1562 119.52,69.1562 120.637,83.8047 121.754,69.1562 122.867,69.1562 123.984,69.1562 125.102,54.6523 126.215,69.1562 127.332,54.6523 128.449,69.1562 129.562,69.1562 130.68,54.6523 131.797,54.6523 132.91,54.6523 134.027,54.6523 135.145,54.6523 136.262,54.6523 137.375,54.6523 138.492,54.6523 139.609,54.6523 140.723,54.6523 141.84,69.1562 142.957,69.1562 144.07,54.6523 145.188,54.6523 146.305,54.6523 147.422,69.1562 148.535,69.1562 149.652,69.1562 150.77,83.8047 151.883,69.1562 153,69.1562 154.117,54.6523 155.23,69.1562 156.348,98.3086 157.465,98.3086 158.578,98.3086 159.695,83.8047 160.812,83.8047 161.93,98.3086 163.043,360.82 164.16,360.82 165.277,360.82 166.391,360.82 167.508,360.82 168.625,360.82 169.738,360.82 170.855,360.82 171.973,360.82 173.09,360.82 174.203,360.82 175.32,360.82 176.438,360.82 177.551,360.82 178.668,360.82 179.785,360.82 180.898,360.82 182.016,360.82 183.133,360.82 184.246,360.82 185.363,360.82 186.48,360.82 187.598,360.82 188.711,360.82 189.828,360.82 190.945,360.82 192.059,360.82 193.176,360.82 194.293,360.82 195.406,360.82 196.523,360.82 197.641,360.82 198.758,360.82 199.871,360.82 200.988,360.82 202.105,360.82 203.219,360.82 204.336,360.82 205.453,360.82 206.566,360.82 207.684,360.82 208.801,360.82 209.914,360.82 211.031,360.82 212.148,360.82 213.266,360.82 214.379,360.82 215.496,360.82 216.613,360.82 217.727,360.82 218.844,360.82 219.961,360.82 221.074,360.82 222.191,360.82 223.309,360.82 224.426,360.82 225.539,360.82 226.656,360.82 227.773,360.82 228.887,360.82 230.004,360.82 231.121,360.82 232.234,360.82 233.352,360.82 234.469,360.82 235.586,360.82 236.699,360.82 237.816,360.82 238.934,360.82 240.047,360.82 241.164,375.324 242.281,360.82 243.395,360.82 244.512,375.324 245.629,375.324 246.742,375.324 247.859,375.324 248.977,360.82 250.094,375.324 251.207,375.324 252.324,375.324 253.441,375.324 254.555,375.324 255.672,375.324 256.789,375.324 257.902,375.324 259.02,360.82 260.137,375.324 261.254,360.82 262.367,360.82 263.484,360.82 264.602,360.82 265.715,360.82 266.832,360.82 267.949,360.82 269.062,360.82 270.18,360.82 271.297,360.82 272.41,360.82 273.527,360.82 274.645,360.82 275.762,360.82 276.875,360.82 277.992,375.324 279.109,360.82 280.223,375.324 281.34,375.324 282.457,360.82 283.57,375.324 284.688,375.324 285.805,375.324 286.922,375.324 288.035,375.324 289.152,375.324 290.27,375.324 291.383,360.82 292.5,360.82 293.617,360.82 294.73,360.82 295.848,360.82 296.965,360.82 298.078,360.82 299.195,360.82 300.312,360.82 301.43,360.82 302.543,360.82 303.66,360.82 304.777,360.82 305.891,346.172 307.008,346.172 308.125,346.172 309.238,346.172 310.355,360.82 311.473,360.82 312.59,360.82 313.703,360.82 314.82,360.82 315.938,360.82 317.051,346.172 318.168,346.172 319.285,346.172 320.398,360.82 321.516,360.82 322.633,360.82 323.746,360.82 324.863,360.82 325.98,360.82 327.098,156.754 328.211,156.754 329.328,156.754 330.445,156.754 331.559,156.754 332.676,156.754 333.793,171.262 334.906,156.754 336.023,156.754 337.141,156.754 338.258,171.262 339.371,171.262 340.488,171.262 341.605,156.754 342.719,156.754 343.836,156.754 344.953,156.754 346.066,156.754 347.184,171.262 348.301,171.262 349.414,171.262 350.531,171.262 351.648,171.262 352.766,171.262 353.879,156.754 354.996,156.754 356.113,156.754 357.227,156.754 358.344,156.754 359.461,171.262 360.574,171.262 361.691,156.754 362.809,171.262 363.926,171.262 365.039,171.262 366.156,171.262 367.273,156.754 368.387,171.262 369.504,156.754 370.621,156.754 371.734,171.262 372.852,156.754 373.969,171.262 375.082,171.262 376.199,171.262 377.316,185.906 378.434,185.906 379.547,185.906 380.664,200.414 381.781,200.414 382.895,200.414 384.012,185.906 385.129,185.906 386.242,185.906 387.359,185.906 388.477,200.414 389.594,185.906 390.707,185.906 391.824,185.906 392.941,185.906 394.055,185.906 395.172,200.414 396.289,200.414 397.402,185.906 398.52,185.906 399.637,185.906 400.75,185.906 401.867,171.262 402.984,185.906 404.102,171.262 405.215,171.262 406.332,185.906 407.449,171.262 408.562,171.262 409.68,171.262 410.797,171.262 411.91,156.754 413.027,156.754 414.145,156.754 415.262,156.754 416.375,142.109 417.492,142.109 418.609,156.754 419.723,142.109 420.84,156.754 421.957,156.754 423.07,171.262 424.188,171.262 425.305,171.262 426.422,171.262 427.535,171.262 428.652,185.906 429.77,171.262 430.883,171.262 432,171.262 433.117,171.262 434.23,185.906 435.348,185.906 436.465,171.262 437.578,171.262 438.695,171.262 439.812,156.754 440.93,185.906 442.043,171.262 443.16,171.262 444.277,171.262 445.391,171.262 446.508,171.262 447.625,171.262 448.738,185.906 449.855,156.754 450.973,171.262 452.09,171.262 453.203,171.262 454.32,171.262 455.438,171.262 456.551,171.262 457.668,171.262 458.785,171.262 459.898,171.262 461.016,185.906 462.133,171.262 463.246,185.906 464.363,185.906 465.48,171.262 466.598,185.906 467.711,185.906 468.828,185.906 469.945,185.906 471.059,171.262 472.176,171.262 473.293,171.262 474.406,171.262 475.523,171.262"/>
<polyline fill="none" stroke="#000000" stroke-width="0.5" stroke-dasharray="16,0" points="521.281,384.48 521.281,384.48"/>
<polyline fill="none" stroke="#000000" stroke-width="0.5" stroke-dasharray="16,0" points="74.8789,384.48 74.8789,384.48"/>
<polyline fill="none" stroke="#000000" stroke-width="0.5" stroke-dasharray="16,0" points="74.8789,32.3984 74.8789,32.3984"/>
<polyline fill="none" stroke="#000000" stroke-width="0.5" stroke-dasharray="16,0" points="521.281,32.3984 521.281,32.3984"/>
<text fill="#000000" x="298.08" y="22.4" font-size="10" text-anchor="middle" baseline-shift="0" font-family="Helvetica">Monitor Philips (reactive power)</text>
<polyline fill="none" stroke="#000000" stroke-width="0.5" stroke-dasharray="16,0" points="521.281,384.48 521.281,32.3984"/>
<polyline fill="none" stroke="#000000" stroke-width="0.5" stroke-dasharray="16,0" points="74.8789,384.48 74.8789,32.3984 521.281,32.3984"/>
<polyline fill="none" stroke="#000000" stroke-width="0.5" stroke-dasharray="16,0" points="74.8789,384.48 521.281,384.48"/>
</g>
</svg>
