<?xml version="1.0" encoding="UTF-8" standalone="no"?>
<svg xmlns="http://www.w3.org/2000/svg"
     xmlns:xlink="http://www.w3.org/1999/xlink"
     width="576px" height="432px" viewBox="0 0 576 432">
<title>glps_renderer figure</title>
<desc>
Creator: GL2PS 1.3.5, (C) 1999-2009 C. Geuzaine
For: Octave
CreationDate: Fri Dec 23 15:29:43 2011
</desc>
<defs>
</defs>
<g shape-rendering="crispEdges">
<text fill="#000000" x="298.08" y="389.481" font-size="10" text-anchor="middle" baseline-shift="-10" font-family="Helvetica">200</text>
<text fill="#000000" x="409.68" y="389.481" font-size="10" text-anchor="middle" baseline-shift="-10" font-family="Helvetica">300</text>
<text fill="#000000" x="521.28" y="389.481" font-size="10" text-anchor="middle" baseline-shift="-10" font-family="Helvetica">400</text>
<text fill="#000000" x="69.8755" y="384.48" font-size="10" text-anchor="end" baseline-shift="-5" font-family="Helvetica">260</text>
<text fill="#000000" x="69.8755" y="314.064" font-size="10" text-anchor="end" baseline-shift="-5" font-family="Helvetica">280</text>
<text fill="#000000" x="69.8755" y="243.648" font-size="10" text-anchor="end" baseline-shift="-5" font-family="Helvetica">300</text>
<text fill="#000000" x="74.88" y="389.481" font-size="10" text-anchor="middle" baseline-shift="-10" font-family="Helvetica">0</text>
<text fill="#000000" x="186.48" y="389.481" font-size="10" text-anchor="middle" baseline-shift="-10" font-family="Helvetica">100</text>
<text fill="#000000" x="69.8755" y="173.232" font-size="10" text-anchor="end" baseline-shift="-5" font-family="Helvetica">320</text>
<text fill="#000000" x="69.8755" y="102.816" font-size="10" text-anchor="end" baseline-shift="-5" font-family="Helvetica">340</text>
<text fill="#000000" x="69.8755" y="32.4" font-size="10" text-anchor="end" baseline-shift="-5" font-family="Helvetica">360</text>
<text fill="#000000" x="298.08" y="402.481" font-size="10" text-anchor="middle" baseline-shift="-10" font-family="Helvetica">time (10 seconds per unit)</text>
<text fill="#000000" x="51.8755" y="208.44" font-size="10" transform="rotate(-90, 51.8755, 208.44)" text-anchor="middle" baseline-shift="0" font-family="Helvetica">degree (°)</text>
<polyline fill="none" stroke="#000000" stroke-width="0.5" stroke-dasharray="16,0" points="74.8789,32.3984 521.281,32.3984"/>
<polyline fill="none" stroke="#000000" stroke-width="0.5" stroke-dasharray="16,0" points="74.8789,384.48 74.8789,32.3984"/>
<polyline fill="none" stroke="#000000" stroke-width="0.5" stroke-dasharray="16,0" points="521.281,384.48 521.281,32.3984"/>
<polyline fill="none" stroke="#000000" stroke-width="0.5" stroke-dasharray="0,3,1,3,1,3,1,3,1,0" points="74.8789,384.48 74.8789,32.3984"/>
<polyline fill="none" stroke="#000000" stroke-width="0.5" stroke-dasharray="0,3,1,3,1,3,1,3,1,0" points="186.48,384.48 186.48,32.3984"/>
<polyline fill="none" stroke="#000000" stroke-width="0.5" stroke-dasharray="0,3,1,3,1,3,1,3,1,0" points="298.078,384.48 298.078,32.3984"/>
<polyline fill="none" stroke="#000000" stroke-width="0.5" stroke-dasharray="0,3,1,3,1,3,1,3,1,0" points="409.68,384.48 409.68,32.3984"/>
<polyline fill="none" stroke="#000000" stroke-width="0.5" stroke-dasharray="16,0" points="74.8789,384.48 521.281,384.48"/>
<polyline fill="none" stroke="#000000" stroke-width="0.5" stroke-dasharray="0,3,1,3,1,3,1,3,1,0" points="521.281,384.48 521.281,32.3984"/>
<polyline fill="none" stroke="#000000" stroke-width="0.5" stroke-dasharray="16,0" points="74.8789,384.48 74.8789,377.477"/>
<polyline fill="none" stroke="#000000" stroke-width="0.5" stroke-dasharray="16,0" points="74.8789,32.3984 74.8789,39.4023"/>
<polyline fill="none" stroke="#000000" stroke-width="0.5" stroke-dasharray="16,0" points="186.48,384.48 186.48,377.477"/>
<polyline fill="none" stroke="#000000" stroke-width="0.5" stroke-dasharray="16,0" points="186.48,32.3984 186.48,39.4023"/>
<polyline fill="none" stroke="#000000" stroke-width="0.5" stroke-dasharray="16,0" points="298.078,384.48 298.078,377.477"/>
<polyline fill="none" stroke="#000000" stroke-width="0.5" stroke-dasharray="16,0" points="298.078,32.3984 298.078,39.4023"/>
<polyline fill="none" stroke="#000000" stroke-width="0.5" stroke-dasharray="16,0" points="409.68,384.48 409.68,377.477"/>
<polyline fill="none" stroke="#000000" stroke-width="0.5" stroke-dasharray="16,0" points="409.68,32.3984 409.68,39.4023"/>
<polyline fill="none" stroke="#000000" stroke-width="0.5" stroke-dasharray="16,0" points="521.281,384.48 521.281,377.477"/>
<polyline fill="none" stroke="#000000" stroke-width="0.5" stroke-dasharray="16,0" points="521.281,32.3984 521.281,39.4023"/>
<polyline fill="none" stroke="#000000" stroke-width="0.5" stroke-dasharray="0,3,1,3,1,3,1,3,1,0" points="97.1992,384.48 97.1992,32.3984"/>
<polyline fill="none" stroke="#000000" stroke-width="0.5" stroke-dasharray="0,3,1,3,1,3,1,3,1,0" points="119.52,384.48 119.52,32.3984"/>
<polyline fill="none" stroke="#000000" stroke-width="0.5" stroke-dasharray="0,3,1,3,1,3,1,3,1,0" points="141.84,384.48 141.84,32.3984"/>
<polyline fill="none" stroke="#000000" stroke-width="0.5" stroke-dasharray="0,3,1,3,1,3,1,3,1,0" points="164.16,384.48 164.16,32.3984"/>
<polyline fill="none" stroke="#000000" stroke-width="0.5" stroke-dasharray="0,3,1,3,1,3,1,3,1,0" points="208.801,384.48 208.801,32.3984"/>
<polyline fill="none" stroke="#000000" stroke-width="0.5" stroke-dasharray="0,3,1,3,1,3,1,3,1,0" points="231.121,384.48 231.121,32.3984"/>
<polyline fill="none" stroke="#000000" stroke-width="0.5" stroke-dasharray="0,3,1,3,1,3,1,3,1,0" points="253.441,384.48 253.441,32.3984"/>
<polyline fill="none" stroke="#000000" stroke-width="0.5" stroke-dasharray="0,3,1,3,1,3,1,3,1,0" points="275.762,384.48 275.762,32.3984"/>
<polyline fill="none" stroke="#000000" stroke-width="0.5" stroke-dasharray="0,3,1,3,1,3,1,3,1,0" points="320.398,384.48 320.398,32.3984"/>
<polyline fill="none" stroke="#000000" stroke-width="0.5" stroke-dasharray="0,3,1,3,1,3,1,3,1,0" points="342.719,384.48 342.719,32.3984"/>
<polyline fill="none" stroke="#000000" stroke-width="0.5" stroke-dasharray="0,3,1,3,1,3,1,3,1,0" points="365.039,384.48 365.039,32.3984"/>
<polyline fill="none" stroke="#000000" stroke-width="0.5" stroke-dasharray="0,3,1,3,1,3,1,3,1,0" points="387.359,384.48 387.359,32.3984"/>
<polyline fill="none" stroke="#000000" stroke-width="0.5" stroke-dasharray="0,3,1,3,1,3,1,3,1,0" points="432,384.48 432,32.3984"/>
<polyline fill="none" stroke="#000000" stroke-width="0.5" stroke-dasharray="0,3,1,3,1,3,1,3,1,0" points="454.32,384.48 454.32,32.3984"/>
<polyline fill="none" stroke="#000000" stroke-width="0.5" stroke-dasharray="0,3,1,3,1,3,1,3,1,0" points="476.641,384.48 476.641,32.3984"/>
<polyline fill="none" stroke="#000000" stroke-width="0.5" stroke-dasharray="0,3,1,3,1,3,1,3,1,0" points="498.961,384.48 498.961,32.3984"/>
<polyline fill="none" stroke="#000000" stroke-width="0.5" stroke-dasharray="0,3,1,3,1,3,1,3,1,0" points="74.8789,384.48 521.281,384.48"/>
<polyline fill="none" stroke="#000000" stroke-width="0.5" stroke-dasharray="0,3,1,3,1,3,1,3,1,0" points="74.8789,314.062 521.281,314.062"/>
<polyline fill="none" stroke="#000000" stroke-width="0.5" stroke-dasharray="0,3,1,3,1,3,1,3,1,0" points="74.8789,243.648 521.281,243.648"/>
<polyline fill="none" stroke="#000000" stroke-width="0.5" stroke-dasharray="0,3,1,3,1,3,1,3,1,0" points="74.8789,173.23 521.281,173.23"/>
<polyline fill="none" stroke="#000000" stroke-width="0.5" stroke-dasharray="0,3,1,3,1,3,1,3,1,0" points="74.8789,102.816 521.281,102.816"/>
<polyline fill="none" stroke="#000000" stroke-width="0.5" stroke-dasharray="0,3,1,3,1,3,1,3,1,0" points="74.8789,32.3984 521.281,32.3984"/>
<polyline fill="none" stroke="#000000" stroke-width="0.5" stroke-dasharray="16,0" points="74.8789,384.48 81.8867,384.48"/>
<polyline fill="none" stroke="#000000" stroke-width="0.5" stroke-dasharray="16,0" points="521.281,384.48 514.273,384.48"/>
<polyline fill="none" stroke="#000000" stroke-width="0.5" stroke-dasharray="16,0" points="74.8789,314.062 81.8867,314.062"/>
<polyline fill="none" stroke="#000000" stroke-width="0.5" stroke-dasharray="16,0" points="521.281,314.062 514.273,314.062"/>
<polyline fill="none" stroke="#000000" stroke-width="0.5" stroke-dasharray="16,0" points="74.8789,243.648 81.8867,243.648"/>
<polyline fill="none" stroke="#000000" stroke-width="0.5" stroke-dasharray="16,0" points="521.281,243.648 514.273,243.648"/>
<polyline fill="none" stroke="#000000" stroke-width="0.5" stroke-dasharray="16,0" points="74.8789,173.23 81.8867,173.23"/>
<polyline fill="none" stroke="#000000" stroke-width="0.5" stroke-dasharray="16,0" points="521.281,173.23 514.273,173.23"/>
<polyline fill="none" stroke="#000000" stroke-width="0.5" stroke-dasharray="16,0" points="74.8789,102.816 81.8867,102.816"/>
<polyline fill="none" stroke="#000000" stroke-width="0.5" stroke-dasharray="16,0" points="521.281,102.816 514.273,102.816"/>
<polyline fill="none" stroke="#000000" stroke-width="0.5" stroke-dasharray="16,0" points="74.8789,32.3984 81.8867,32.3984"/>
<polyline fill="none" stroke="#000000" stroke-width="0.5" stroke-dasharray="16,0" points="521.281,32.3984 514.273,32.3984"/>
<polyline fill="none" stroke="#000000" stroke-width="0.5" stroke-dasharray="0,3,1,3,1,3,1,3,1,0" points="74.8789,370.398 521.281,370.398"/>
<polyline fill="none" stroke="#000000" stroke-width="0.5" stroke-dasharray="0,3,1,3,1,3,1,3,1,0" points="74.8789,356.312 521.281,356.312"/>
<polyline fill="none" stroke="#000000" stroke-width="0.5" stroke-dasharray="0,3,1,3,1,3,1,3,1,0" points="74.8789,342.23 521.281,342.23"/>
<polyline fill="none" stroke="#000000" stroke-width="0.5" stroke-dasharray="0,3,1,3,1,3,1,3,1,0" points="74.8789,328.148 521.281,328.148"/>
<polyline fill="none" stroke="#000000" stroke-width="0.5" stroke-dasharray="0,3,1,3,1,3,1,3,1,0" points="74.8789,299.98 521.281,299.98"/>
<polyline fill="none" stroke="#000000" stroke-width="0.5" stroke-dasharray="0,3,1,3,1,3,1,3,1,0" points="74.8789,285.898 521.281,285.898"/>
<polyline fill="none" stroke="#000000" stroke-width="0.5" stroke-dasharray="0,3,1,3,1,3,1,3,1,0" points="74.8789,271.812 521.281,271.812"/>
<polyline fill="none" stroke="#000000" stroke-width="0.5" stroke-dasharray="0,3,1,3,1,3,1,3,1,0" points="74.8789,257.73 521.281,257.73"/>
<polyline fill="none" stroke="#000000" stroke-width="0.5" stroke-dasharray="0,3,1,3,1,3,1,3,1,0" points="74.8789,229.566 521.281,229.566"/>
<polyline fill="none" stroke="#000000" stroke-width="0.5" stroke-dasharray="0,3,1,3,1,3,1,3,1,0" points="74.8789,215.48 521.281,215.48"/>
<polyline fill="none" stroke="#000000" stroke-width="0.5" stroke-dasharray="0,3,1,3,1,3,1,3,1,0" points="74.8789,201.398 521.281,201.398"/>
<polyline fill="none" stroke="#000000" stroke-width="0.5" stroke-dasharray="0,3,1,3,1,3,1,3,1,0" points="74.8789,187.316 521.281,187.316"/>
<polyline fill="none" stroke="#000000" stroke-width="0.5" stroke-dasharray="0,3,1,3,1,3,1,3,1,0" points="74.8789,159.148 521.281,159.148"/>
<polyline fill="none" stroke="#000000" stroke-width="0.5" stroke-dasharray="0,3,1,3,1,3,1,3,1,0" points="74.8789,145.066 521.281,145.066"/>
<polyline fill="none" stroke="#000000" stroke-width="0.5" stroke-dasharray="0,3,1,3,1,3,1,3,1,0" points="74.8789,130.98 521.281,130.98"/>
<polyline fill="none" stroke="#000000" stroke-width="0.5" stroke-dasharray="0,3,1,3,1,3,1,3,1,0" points="74.8789,116.898 521.281,116.898"/>
<polyline fill="none" stroke="#000000" stroke-width="0.5" stroke-dasharray="0,3,1,3,1,3,1,3,1,0" points="74.8789,88.7344 521.281,88.7344"/>
<polyline fill="none" stroke="#000000" stroke-width="0.5" stroke-dasharray="0,3,1,3,1,3,1,3,1,0" points="74.8789,74.6484 521.281,74.6484"/>
<polyline fill="none" stroke="#000000" stroke-width="0.5" stroke-dasharray="0,3,1,3,1,3,1,3,1,0" points="74.8789,60.5664 521.281,60.5664"/>
<polyline fill="none" stroke="#000000" stroke-width="0.5" stroke-dasharray="0,3,1,3,1,3,1,3,1,0" points="74.8789,46.4844 521.281,46.4844"/>
<polyline fill="none" stroke="#ff0000" stroke-width="1.5" points="75.9961,60.5664 77.1133,60.5664 78.2266,60.5664 79.3438,60.5664 80.4609,60.5664 81.5742,60.5664 82.6914,60.5664 83.8086,331.668 84.9258,331.668 86.0391,331.668 87.1562,331.668 88.2734,60.5664 89.3867,60.5664 90.5039,60.5664 91.6211,60.5664 92.7344,60.5664 93.8516,60.5664 94.9688,60.5664 96.0859,60.5664 97.1992,60.5664 98.3164,60.5664 99.4336,60.5664 100.547,60.5664 101.664,60.5664 102.781,67.6094 103.895,71.1289 105.012,71.1289 106.129,71.1289 107.242,71.1289 108.359,60.5664 109.477,71.1289 110.594,71.1289 111.707,71.1289 112.824,71.1289 113.941,71.1289 115.055,71.1289 116.172,71.1289 117.289,71.1289 118.402,71.1289 119.52,71.1289 120.637,71.1289 121.754,71.1289 122.867,71.1289 123.984,71.1289 125.102,71.1289 126.215,71.1289 127.332,71.1289 128.449,71.1289 129.562,71.1289 130.68,71.1289 131.797,71.1289 132.91,71.1289 134.027,71.1289 135.145,71.1289 136.262,71.1289 137.375,71.1289 138.492,71.1289 139.609,71.1289 140.723,71.1289 141.84,71.1289 142.957,71.1289 144.07,71.1289 145.188,71.1289 146.305,71.1289 147.422,71.1289 148.535,71.1289 149.652,71.1289 150.77,71.1289 151.883,71.1289 153,71.1289 154.117,71.1289 155.23,71.1289 156.348,71.1289 157.465,71.1289 158.578,71.1289 159.695,71.1289 160.812,71.1289 161.93,71.1289 163.043,331.668 164.16,331.668 165.277,331.668 166.391,331.668 167.508,331.668 168.625,331.668 169.738,331.668 170.855,331.668 171.973,331.668 173.09,331.668 174.203,331.668 175.32,331.668 176.438,331.668 177.551,331.668 178.668,331.668 179.785,331.668 180.898,331.668 182.016,331.668 183.133,331.668 184.246,331.668 185.363,331.668 186.48,331.668 187.598,331.668 188.711,331.668 189.828,331.668 190.945,331.668 192.059,331.668 193.176,331.668 194.293,331.668 195.406,331.668 196.523,331.668 197.641,331.668 198.758,331.668 199.871,331.668 200.988,331.668 202.105,331.668 203.219,331.668 204.336,331.668 205.453,331.668 206.566,331.668 207.684,331.668 208.801,331.668 209.914,331.668 211.031,331.668 212.148,331.668 213.266,331.668 214.379,331.668 215.496,331.668 216.613,331.668 217.727,331.668 218.844,331.668 219.961,331.668 221.074,331.668 222.191,331.668 223.309,331.668 224.426,331.668 225.539,331.668 226.656,331.668 227.773,331.668 228.887,331.668 230.004,331.668 231.121,331.668 232.234,331.668 233.352,331.668 234.469,331.668 235.586,331.668 236.699,331.668 237.816,331.668 238.934,331.668 240.047,331.668 241.164,331.668 242.281,331.668 243.395,331.668 244.512,331.668 245.629,331.668 246.742,331.668 247.859,331.668 248.977,331.668 250.094,331.668 251.207,331.668 252.324,331.668 253.441,331.668 254.555,331.668 255.672,331.668 256.789,331.668 257.902,331.668 259.02,331.668 260.137,331.668 261.254,328.148 262.367,331.668 263.484,331.668 264.602,331.668 265.715,331.668 266.832,331.668 267.949,331.668 269.062,331.668 270.18,331.668 271.297,331.668 272.41,331.668 273.527,331.668 274.645,331.668 275.762,331.668 276.875,331.668 277.992,331.668 279.109,331.668 280.223,331.668 281.34,331.668 282.457,331.668 283.57,331.668 284.688,331.668 285.805,331.668 286.922,331.668 288.035,331.668 289.152,331.668 290.27,331.668 291.383,331.668 292.5,331.668 293.617,331.668 294.73,331.668 295.848,331.668 296.965,331.668 298.078,331.668 299.195,331.668 300.312,331.668 301.43,331.668 302.543,331.668 303.66,331.668 304.777,331.668 305.891,331.668 307.008,331.668 308.125,331.668 309.238,331.668 310.355,331.668 311.473,331.668 312.59,331.668 313.703,331.668 314.82,331.668 315.938,331.668 317.051,331.668 318.168,331.668 319.285,331.668 320.398,331.668 321.516,331.668 322.633,331.668 323.746,331.668 324.863,331.668 325.98,331.668 327.098,71.1289 328.211,71.1289 329.328,71.1289 330.445,71.1289 331.559,71.1289 332.676,71.1289 333.793,71.1289 334.906,71.1289 336.023,71.1289 337.141,71.1289 338.258,71.1289 339.371,71.1289 340.488,71.1289 341.605,71.1289 342.719,71.1289 343.836,71.1289 344.953,71.1289 346.066,71.1289 347.184,67.6094 348.301,67.6094 349.414,67.6094 350.531,67.6094 351.648,71.1289 352.766,71.1289 353.879,67.6094 354.996,67.6094 356.113,71.1289 357.227,67.6094 358.344,67.6094 359.461,67.6094 360.574,71.1289 361.691,67.6094 362.809,71.1289 363.926,67.6094 365.039,71.1289 366.156,71.1289 367.273,71.1289 368.387,71.1289 369.504,71.1289 370.621,71.1289 371.734,71.1289 372.852,71.1289 373.969,71.1289 375.082,71.1289 376.199,71.1289 377.316,71.1289 378.434,71.1289 379.547,71.1289 380.664,71.1289 381.781,71.1289 382.895,71.1289 384.012,71.1289 385.129,71.1289 386.242,71.1289 387.359,71.1289 388.477,71.1289 389.594,71.1289 390.707,71.1289 391.824,71.1289 392.941,71.1289 394.055,71.1289 395.172,71.1289 396.289,71.1289 397.402,71.1289 398.52,71.1289 399.637,71.1289 400.75,71.1289 401.867,71.1289 402.984,71.1289 404.102,71.1289 405.215,71.1289 406.332,71.1289 407.449,71.1289 408.562,71.1289 409.68,71.1289 410.797,71.1289 411.91,71.1289 413.027,71.1289 414.145,71.1289 415.262,71.1289 416.375,71.1289 417.492,71.1289 418.609,71.1289 419.723,71.1289 420.84,71.1289 421.957,71.1289 423.07,71.1289 424.188,71.1289 425.305,71.1289 426.422,71.1289 427.535,71.1289 428.652,71.1289 429.77,71.1289 430.883,71.1289 432,71.1289 433.117,71.1289 434.23,71.1289 435.348,71.1289 436.465,71.1289 437.578,71.1289 438.695,71.1289 439.812,71.1289 440.93,71.1289 442.043,71.1289 443.16,71.1289 444.277,71.1289 445.391,71.1289 446.508,71.1289 447.625,71.1289 448.738,71.1289 449.855,71.1289 450.973,71.1289 452.09,71.1289 453.203,71.1289 454.32,71.1289 455.438,71.1289 456.551,71.1289 457.668,71.1289 458.785,71.1289 459.898,71.1289 461.016,71.1289 462.133,71.1289 463.246,71.1289 464.363,71.1289 465.48,71.1289 466.598,71.1289 467.711,71.1289 468.828,71.1289 469.945,71.1289 471.059,71.1289 472.176,71.1289 473.293,71.1289 474.406,71.1289 475.523,71.1289"/>
<polyline fill="none" stroke="#000000" stroke-width="0.5" stroke-dasharray="16,0" points="521.281,384.48 521.281,384.48"/>
<polyline fill="none" stroke="#000000" stroke-width="0.5" stroke-dasharray="16,0" points="74.8789,384.48 74.8789,384.48"/>
<polyline fill="none" stroke="#000000" stroke-width="0.5" stroke-dasharray="16,0" points="74.8789,32.3984 74.8789,32.3984"/>
<polyline fill="none" stroke="#000000" stroke-width="0.5" stroke-dasharray="16,0" points="521.281,32.3984 521.281,32.3984"/>
<text fill="#000000" x="298.08" y="22.4" font-size="10" text-anchor="middle" baseline-shift="0" font-family="Helvetica">Monitor Philips (phase angle)</text>
<polyline fill="none" stroke="#000000" stroke-width="0.5" stroke-dasharray="16,0" points="521.281,384.48 521.281,32.3984"/>
<polyline fill="none" stroke="#000000" stroke-width="0.5" stroke-dasharray="16,0" points="74.8789,384.48 74.8789,32.3984 521.281,32.3984"/>
<polyline fill="none" stroke="#000000" stroke-width="0.5" stroke-dasharray="16,0" points="74.8789,384.48 521.281,384.48"/>
</g>
</svg>
