<?xml version="1.0" encoding="UTF-8" standalone="no"?>
<svg xmlns="http://www.w3.org/2000/svg"
     xmlns:xlink="http://www.w3.org/1999/xlink"
     width="576px" height="432px" viewBox="0 0 576 432">
<title>glps_renderer figure</title>
<desc>
Creator: GL2PS 1.3.5, (C) 1999-2009 C. Geuzaine
For: Octave
CreationDate: Tue Jan 31 15:47:54 2012
</desc>
<defs>
</defs>
<g shape-rendering="crispEdges">
<text fill="#000000" x="298.08" y="389.481" font-size="10" text-anchor="middle" baseline-shift="-10" font-family="Helvetica">200</text>
<text fill="#000000" x="409.68" y="389.481" font-size="10" text-anchor="middle" baseline-shift="-10" font-family="Helvetica">300</text>
<text fill="#000000" x="521.28" y="389.481" font-size="10" text-anchor="middle" baseline-shift="-10" font-family="Helvetica">400</text>
<text fill="#000000" x="69.8755" y="384.48" font-size="10" text-anchor="end" baseline-shift="-5" font-family="Helvetica">-3</text>
<text fill="#000000" x="69.8755" y="296.46" font-size="10" text-anchor="end" baseline-shift="-5" font-family="Helvetica">-2.5</text>
<text fill="#000000" x="69.8755" y="208.44" font-size="10" text-anchor="end" baseline-shift="-5" font-family="Helvetica">-2</text>
<text fill="#000000" x="74.88" y="389.481" font-size="10" text-anchor="middle" baseline-shift="-10" font-family="Helvetica">0</text>
<text fill="#000000" x="186.48" y="389.481" font-size="10" text-anchor="middle" baseline-shift="-10" font-family="Helvetica">100</text>
<text fill="#000000" x="69.8755" y="120.42" font-size="10" text-anchor="end" baseline-shift="-5" font-family="Helvetica">-1.5</text>
<text fill="#000000" x="69.8755" y="32.4" font-size="10" text-anchor="end" baseline-shift="-5" font-family="Helvetica">-1</text>
<text fill="#000000" x="298.08" y="402.481" font-size="10" text-anchor="middle" baseline-shift="-10" font-family="Helvetica">time (10 seconds per unit)</text>
<text fill="#000000" x="51.8755" y="208.44" font-size="10" transform="rotate(-90, 51.8755, 208.44)" text-anchor="middle" baseline-shift="0" font-family="Helvetica">volt-ampere reactive (var)</text>
<polyline fill="none" stroke="#000000" stroke-width="0.5" stroke-dasharray="16,0" points="74.8789,32.3984 521.281,32.3984"/>
<polyline fill="none" stroke="#000000" stroke-width="0.5" stroke-dasharray="16,0" points="74.8789,384.48 74.8789,32.3984"/>
<polyline fill="none" stroke="#000000" stroke-width="0.5" stroke-dasharray="16,0" points="521.281,384.48 521.281,32.3984"/>
<polyline fill="none" stroke="#000000" stroke-width="0.5" stroke-dasharray="0,3,1,3,1,3,1,3,1,0" points="74.8789,384.48 74.8789,32.3984"/>
<polyline fill="none" stroke="#000000" stroke-width="0.5" stroke-dasharray="0,3,1,3,1,3,1,3,1,0" points="186.48,384.48 186.48,32.3984"/>
<polyline fill="none" stroke="#000000" stroke-width="0.5" stroke-dasharray="0,3,1,3,1,3,1,3,1,0" points="298.078,384.48 298.078,32.3984"/>
<polyline fill="none" stroke="#000000" stroke-width="0.5" stroke-dasharray="0,3,1,3,1,3,1,3,1,0" points="409.68,384.48 409.68,32.3984"/>
<polyline fill="none" stroke="#000000" stroke-width="0.5" stroke-dasharray="16,0" points="74.8789,384.48 521.281,384.48"/>
<polyline fill="none" stroke="#000000" stroke-width="0.5" stroke-dasharray="0,3,1,3,1,3,1,3,1,0" points="521.281,384.48 521.281,32.3984"/>
<polyline fill="none" stroke="#000000" stroke-width="0.5" stroke-dasharray="16,0" points="74.8789,384.48 74.8789,377.477"/>
<polyline fill="none" stroke="#000000" stroke-width="0.5" stroke-dasharray="16,0" points="74.8789,32.3984 74.8789,39.4023"/>
<polyline fill="none" stroke="#000000" stroke-width="0.5" stroke-dasharray="16,0" points="186.48,384.48 186.48,377.477"/>
<polyline fill="none" stroke="#000000" stroke-width="0.5" stroke-dasharray="16,0" points="186.48,32.3984 186.48,39.4023"/>
<polyline fill="none" stroke="#000000" stroke-width="0.5" stroke-dasharray="16,0" points="298.078,384.48 298.078,377.477"/>
<polyline fill="none" stroke="#000000" stroke-width="0.5" stroke-dasharray="16,0" points="298.078,32.3984 298.078,39.4023"/>
<polyline fill="none" stroke="#000000" stroke-width="0.5" stroke-dasharray="16,0" points="409.68,384.48 409.68,377.477"/>
<polyline fill="none" stroke="#000000" stroke-width="0.5" stroke-dasharray="16,0" points="409.68,32.3984 409.68,39.4023"/>
<polyline fill="none" stroke="#000000" stroke-width="0.5" stroke-dasharray="16,0" points="521.281,384.48 521.281,377.477"/>
<polyline fill="none" stroke="#000000" stroke-width="0.5" stroke-dasharray="16,0" points="521.281,32.3984 521.281,39.4023"/>
<polyline fill="none" stroke="#000000" stroke-width="0.5" stroke-dasharray="0,3,1,3,1,3,1,3,1,0" points="97.1992,384.48 97.1992,32.3984"/>
<polyline fill="none" stroke="#000000" stroke-width="0.5" stroke-dasharray="0,3,1,3,1,3,1,3,1,0" points="119.52,384.48 119.52,32.3984"/>
<polyline fill="none" stroke="#000000" stroke-width="0.5" stroke-dasharray="0,3,1,3,1,3,1,3,1,0" points="141.84,384.48 141.84,32.3984"/>
<polyline fill="none" stroke="#000000" stroke-width="0.5" stroke-dasharray="0,3,1,3,1,3,1,3,1,0" points="164.16,384.48 164.16,32.3984"/>
<polyline fill="none" stroke="#000000" stroke-width="0.5" stroke-dasharray="0,3,1,3,1,3,1,3,1,0" points="208.801,384.48 208.801,32.3984"/>
<polyline fill="none" stroke="#000000" stroke-width="0.5" stroke-dasharray="0,3,1,3,1,3,1,3,1,0" points="231.121,384.48 231.121,32.3984"/>
<polyline fill="none" stroke="#000000" stroke-width="0.5" stroke-dasharray="0,3,1,3,1,3,1,3,1,0" points="253.441,384.48 253.441,32.3984"/>
<polyline fill="none" stroke="#000000" stroke-width="0.5" stroke-dasharray="0,3,1,3,1,3,1,3,1,0" points="275.762,384.48 275.762,32.3984"/>
<polyline fill="none" stroke="#000000" stroke-width="0.5" stroke-dasharray="0,3,1,3,1,3,1,3,1,0" points="320.398,384.48 320.398,32.3984"/>
<polyline fill="none" stroke="#000000" stroke-width="0.5" stroke-dasharray="0,3,1,3,1,3,1,3,1,0" points="342.719,384.48 342.719,32.3984"/>
<polyline fill="none" stroke="#000000" stroke-width="0.5" stroke-dasharray="0,3,1,3,1,3,1,3,1,0" points="365.039,384.48 365.039,32.3984"/>
<polyline fill="none" stroke="#000000" stroke-width="0.5" stroke-dasharray="0,3,1,3,1,3,1,3,1,0" points="387.359,384.48 387.359,32.3984"/>
<polyline fill="none" stroke="#000000" stroke-width="0.5" stroke-dasharray="0,3,1,3,1,3,1,3,1,0" points="432,384.48 432,32.3984"/>
<polyline fill="none" stroke="#000000" stroke-width="0.5" stroke-dasharray="0,3,1,3,1,3,1,3,1,0" points="454.32,384.48 454.32,32.3984"/>
<polyline fill="none" stroke="#000000" stroke-width="0.5" stroke-dasharray="0,3,1,3,1,3,1,3,1,0" points="476.641,384.48 476.641,32.3984"/>
<polyline fill="none" stroke="#000000" stroke-width="0.5" stroke-dasharray="0,3,1,3,1,3,1,3,1,0" points="498.961,384.48 498.961,32.3984"/>
<polyline fill="none" stroke="#000000" stroke-width="0.5" stroke-dasharray="0,3,1,3,1,3,1,3,1,0" points="74.8789,384.48 521.281,384.48"/>
<polyline fill="none" stroke="#000000" stroke-width="0.5" stroke-dasharray="0,3,1,3,1,3,1,3,1,0" points="74.8789,296.461 521.281,296.461"/>
<polyline fill="none" stroke="#000000" stroke-width="0.5" stroke-dasharray="0,3,1,3,1,3,1,3,1,0" points="74.8789,208.441 521.281,208.441"/>
<polyline fill="none" stroke="#000000" stroke-width="0.5" stroke-dasharray="0,3,1,3,1,3,1,3,1,0" points="74.8789,120.422 521.281,120.422"/>
<polyline fill="none" stroke="#000000" stroke-width="0.5" stroke-dasharray="0,3,1,3,1,3,1,3,1,0" points="74.8789,32.3984 521.281,32.3984"/>
<polyline fill="none" stroke="#000000" stroke-width="0.5" stroke-dasharray="16,0" points="74.8789,384.48 81.8867,384.48"/>
<polyline fill="none" stroke="#000000" stroke-width="0.5" stroke-dasharray="16,0" points="521.281,384.48 514.273,384.48"/>
<polyline fill="none" stroke="#000000" stroke-width="0.5" stroke-dasharray="16,0" points="74.8789,296.461 81.8867,296.461"/>
<polyline fill="none" stroke="#000000" stroke-width="0.5" stroke-dasharray="16,0" points="521.281,296.461 514.273,296.461"/>
<polyline fill="none" stroke="#000000" stroke-width="0.5" stroke-dasharray="16,0" points="74.8789,208.441 81.8867,208.441"/>
<polyline fill="none" stroke="#000000" stroke-width="0.5" stroke-dasharray="16,0" points="521.281,208.441 514.273,208.441"/>
<polyline fill="none" stroke="#000000" stroke-width="0.5" stroke-dasharray="16,0" points="74.8789,120.422 81.8867,120.422"/>
<polyline fill="none" stroke="#000000" stroke-width="0.5" stroke-dasharray="16,0" points="521.281,120.422 514.273,120.422"/>
<polyline fill="none" stroke="#000000" stroke-width="0.5" stroke-dasharray="16,0" points="74.8789,32.3984 81.8867,32.3984"/>
<polyline fill="none" stroke="#000000" stroke-width="0.5" stroke-dasharray="16,0" points="521.281,32.3984 514.273,32.3984"/>
<polyline fill="none" stroke="#000000" stroke-width="0.5" stroke-dasharray="0,3,1,3,1,3,1,3,1,0" points="74.8789,366.875 521.281,366.875"/>
<polyline fill="none" stroke="#000000" stroke-width="0.5" stroke-dasharray="0,3,1,3,1,3,1,3,1,0" points="74.8789,349.273 521.281,349.273"/>
<polyline fill="none" stroke="#000000" stroke-width="0.5" stroke-dasharray="0,3,1,3,1,3,1,3,1,0" points="74.8789,331.668 521.281,331.668"/>
<polyline fill="none" stroke="#000000" stroke-width="0.5" stroke-dasharray="0,3,1,3,1,3,1,3,1,0" points="74.8789,314.062 521.281,314.062"/>
<polyline fill="none" stroke="#000000" stroke-width="0.5" stroke-dasharray="0,3,1,3,1,3,1,3,1,0" points="74.8789,278.855 521.281,278.855"/>
<polyline fill="none" stroke="#000000" stroke-width="0.5" stroke-dasharray="0,3,1,3,1,3,1,3,1,0" points="74.8789,261.254 521.281,261.254"/>
<polyline fill="none" stroke="#000000" stroke-width="0.5" stroke-dasharray="0,3,1,3,1,3,1,3,1,0" points="74.8789,243.648 521.281,243.648"/>
<polyline fill="none" stroke="#000000" stroke-width="0.5" stroke-dasharray="0,3,1,3,1,3,1,3,1,0" points="74.8789,226.043 521.281,226.043"/>
<polyline fill="none" stroke="#000000" stroke-width="0.5" stroke-dasharray="0,3,1,3,1,3,1,3,1,0" points="74.8789,190.836 521.281,190.836"/>
<polyline fill="none" stroke="#000000" stroke-width="0.5" stroke-dasharray="0,3,1,3,1,3,1,3,1,0" points="74.8789,173.23 521.281,173.23"/>
<polyline fill="none" stroke="#000000" stroke-width="0.5" stroke-dasharray="0,3,1,3,1,3,1,3,1,0" points="74.8789,155.629 521.281,155.629"/>
<polyline fill="none" stroke="#000000" stroke-width="0.5" stroke-dasharray="0,3,1,3,1,3,1,3,1,0" points="74.8789,138.023 521.281,138.023"/>
<polyline fill="none" stroke="#000000" stroke-width="0.5" stroke-dasharray="0,3,1,3,1,3,1,3,1,0" points="74.8789,102.816 521.281,102.816"/>
<polyline fill="none" stroke="#000000" stroke-width="0.5" stroke-dasharray="0,3,1,3,1,3,1,3,1,0" points="74.8789,85.2109 521.281,85.2109"/>
<polyline fill="none" stroke="#000000" stroke-width="0.5" stroke-dasharray="0,3,1,3,1,3,1,3,1,0" points="74.8789,67.6094 521.281,67.6094"/>
<polyline fill="none" stroke="#000000" stroke-width="0.5" stroke-dasharray="0,3,1,3,1,3,1,3,1,0" points="74.8789,50.0039 521.281,50.0039"/>
<polyline fill="none" stroke="#ff0000" stroke-width="1.5" points="75.9961,131.16 77.1133,131.16 78.2266,131.16 79.3438,131.16 80.4609,131.16 81.5742,131.16 82.6914,131.16 83.8086,131.16 84.9258,131.16 86.0391,131.16 87.1562,131.16 88.2734,131.16 89.3867,131.16 90.5039,131.16 91.6211,131.16 92.7344,131.16 93.8516,131.16 94.9688,131.16 96.0859,131.16 97.1992,131.16 98.3164,131.16 99.4336,131.16 100.547,131.16 101.664,131.16 102.781,131.16 103.895,149.465 105.012,149.465 106.129,131.16 107.242,131.16 108.359,149.465 109.477,131.16 110.594,131.16 111.707,131.16 112.824,131.16 113.941,131.16 115.055,131.16 116.172,131.16 117.289,131.16 118.402,131.16 119.52,131.16 120.637,131.16 121.754,131.16 122.867,131.16 123.984,131.16 125.102,131.16 126.215,131.16 127.332,131.16 128.449,131.16 129.562,131.16 130.68,131.16 131.797,131.16 132.91,131.16 134.027,131.16 135.145,149.465 136.262,131.16 137.375,131.16 138.492,131.16 139.609,131.16 140.723,131.16 141.84,131.16 142.957,131.16 144.07,131.16 145.188,131.16 146.305,131.16 147.422,131.16 148.535,131.16 149.652,131.16 150.77,131.16 151.883,131.16 153,131.16 154.117,131.16 155.23,131.16 156.348,131.16 157.465,131.16 158.578,131.16 159.695,131.16 160.812,131.16 161.93,131.16 163.043,131.16 164.16,131.16 165.277,131.16 166.391,131.16 167.508,131.16 168.625,131.16 169.738,131.16 170.855,131.16 171.973,131.16 173.09,131.16 174.203,131.16 175.32,131.16 176.438,131.16 177.551,131.16 178.668,131.16 179.785,131.16 180.898,131.16 182.016,131.16 183.133,131.16 184.246,131.16 185.363,131.16 186.48,131.16 187.598,131.16 188.711,131.16 189.828,131.16 190.945,131.16 192.059,131.16 193.176,131.16 194.293,131.16 195.406,131.16 196.523,131.16 197.641,131.16 198.758,131.16 199.871,131.16 200.988,131.16 202.105,131.16 203.219,131.16 204.336,131.16 205.453,131.16 206.566,131.16 207.684,131.16 208.801,131.16 209.914,131.16 211.031,131.16 212.148,131.16 213.266,131.16 214.379,131.16 215.496,131.16 216.613,131.16 217.727,131.16 218.844,131.16 219.961,131.16 221.074,131.16 222.191,131.16 223.309,131.16 224.426,131.16 225.539,131.16 226.656,149.465 227.773,131.16 228.887,149.465 230.004,131.16 231.121,131.16 232.234,131.16 233.352,131.16 234.469,131.16 235.586,131.16 236.699,131.16 237.816,131.16 238.934,131.16 240.047,131.16 241.164,131.16 242.281,131.16 243.395,222.699 244.512,222.699 245.629,186.082 246.742,241.008 247.859,241.008 248.977,222.699 250.094,204.391 251.207,131.16 252.324,186.082 253.441,131.16 254.555,131.16 255.672,131.16 256.789,131.16 257.902,131.16 259.02,131.16 260.137,131.16 261.254,131.16 262.367,131.16 263.484,131.16 264.602,131.16 265.715,131.16 266.832,131.16 267.949,131.16 269.062,131.16 270.18,131.16 271.297,131.16 272.41,131.16 273.527,131.16 274.645,131.16 275.762,131.16 276.875,131.16 277.992,131.16 279.109,131.16 280.223,131.16 281.34,131.16 282.457,131.16 283.57,131.16 284.688,131.16 285.805,131.16 286.922,131.16 288.035,131.16 289.152,131.16 290.27,131.16 291.383,131.16 292.5,131.16 293.617,131.16 294.73,131.16 295.848,131.16 296.965,131.16 298.078,131.16 299.195,131.16 300.312,131.16 301.43,131.16 302.543,131.16 303.66,131.16 304.777,131.16 305.891,131.16 307.008,131.16 308.125,131.16 309.238,131.16 310.355,131.16 311.473,131.16 312.59,131.16 313.703,131.16 314.82,131.16 315.938,131.16 317.051,131.16 318.168,131.16 319.285,131.16 320.398,131.16 321.516,131.16 322.633,131.16 323.746,131.16 324.863,131.16 325.98,131.16 327.098,131.16 328.211,131.16 329.328,131.16 330.445,131.16 331.559,131.16 332.676,131.16 333.793,131.16 334.906,131.16 336.023,131.16 337.141,131.16 338.258,131.16 339.371,131.16 340.488,131.16 341.605,131.16 342.719,131.16 343.836,131.16 344.953,131.16 346.066,131.16 347.184,131.16 348.301,131.16 349.414,131.16 350.531,131.16 351.648,369.34 352.766,222.699 353.879,222.699 354.996,222.699 356.113,241.008 357.227,222.699 358.344,149.465 359.461,186.082 360.574,131.16 361.691,131.16 362.809,131.16 363.926,131.16 365.039,131.16 366.156,131.16 367.273,131.16 368.387,131.16 369.504,131.16 370.621,131.16 371.734,131.16 372.852,131.16 373.969,131.16 375.082,131.16 376.199,131.16 377.316,131.16 378.434,131.16 379.547,131.16 380.664,131.16 381.781,131.16 382.895,149.465 384.012,149.465 385.129,131.16 386.242,131.16 387.359,131.16 388.477,149.465 389.594,131.16 390.707,131.16 391.824,131.16 392.941,131.16 394.055,131.16 395.172,131.16 396.289,131.16 397.402,131.16 398.52,131.16 399.637,131.16 400.75,149.465 401.867,149.465 402.984,131.16 404.102,131.16 405.215,131.16 406.332,167.773 407.449,149.465 408.562,131.16 409.68,131.16 410.797,131.16 411.91,131.16 413.027,131.16 414.145,149.465 415.262,131.16 416.375,131.16 417.492,131.16 418.609,131.16 419.723,149.465 420.84,149.465 421.957,131.16 423.07,131.16 424.188,131.16 425.305,131.16 426.422,149.465 427.535,149.465 428.652,131.16 429.77,131.16 430.883,131.16 432,131.16 433.117,222.699 434.23,259.316 435.348,241.008 436.465,222.699 437.578,222.699 438.695,241.008 439.812,222.699 440.93,222.699 442.043,149.465 443.16,222.699 444.277,167.773 445.391,131.16 446.508,131.16 447.625,131.16 448.738,131.16 449.855,131.16 450.973,131.16 452.09,131.16 453.203,131.16 454.32,131.16 455.438,131.16 456.551,131.16 457.668,131.16 458.785,131.16 459.898,131.16 461.016,131.16 462.133,149.465 463.246,131.16 464.363,131.16 465.48,149.465 466.598,131.16 467.711,131.16 468.828,149.465 469.945,131.16 471.059,131.16 472.176,149.465 473.293,131.16 474.406,131.16 475.523,131.16 476.641,149.465"/>
<polyline fill="none" stroke="#000000" stroke-width="0.5" stroke-dasharray="16,0" points="521.281,384.48 521.281,384.48"/>
<polyline fill="none" stroke="#000000" stroke-width="0.5" stroke-dasharray="16,0" points="74.8789,384.48 74.8789,384.48"/>
<polyline fill="none" stroke="#000000" stroke-width="0.5" stroke-dasharray="16,0" points="74.8789,32.3984 74.8789,32.3984"/>
<polyline fill="none" stroke="#000000" stroke-width="0.5" stroke-dasharray="16,0" points="521.281,32.3984 521.281,32.3984"/>
<text fill="#000000" x="298.08" y="22.4" font-size="10" text-anchor="middle" baseline-shift="0" font-family="Helvetica">Printer Hp Deskjet3940 (reactive power)</text>
<polyline fill="none" stroke="#000000" stroke-width="0.5" stroke-dasharray="16,0" points="521.281,384.48 521.281,32.3984"/>
<polyline fill="none" stroke="#000000" stroke-width="0.5" stroke-dasharray="16,0" points="74.8789,384.48 74.8789,32.3984 521.281,32.3984"/>
<polyline fill="none" stroke="#000000" stroke-width="0.5" stroke-dasharray="16,0" points="74.8789,384.48 521.281,384.48"/>
</g>
</svg>
