<?xml version="1.0" encoding="UTF-8" standalone="no"?>
<svg xmlns="http://www.w3.org/2000/svg"
     xmlns:xlink="http://www.w3.org/1999/xlink"
     width="576px" height="432px" viewBox="0 0 576 432">
<title>glps_renderer figure</title>
<desc>
Creator: GL2PS 1.3.5, (C) 1999-2009 C. Geuzaine
For: Octave
CreationDate: Tue Jan 31 15:48:11 2012
</desc>
<defs>
</defs>
<g shape-rendering="crispEdges">
<text fill="#000000" x="298.08" y="389.482" font-size="10" text-anchor="middle" baseline-shift="-10" font-family="Helvetica">200</text>
<text fill="#000000" x="409.68" y="389.482" font-size="10" text-anchor="middle" baseline-shift="-10" font-family="Helvetica">300</text>
<text fill="#000000" x="521.28" y="389.482" font-size="10" text-anchor="middle" baseline-shift="-10" font-family="Helvetica">400</text>
<text fill="#000000" x="69.8755" y="384.48" font-size="10" text-anchor="end" baseline-shift="-5" font-family="Helvetica">222</text>
<text fill="#000000" x="69.8755" y="314.064" font-size="10" text-anchor="end" baseline-shift="-5" font-family="Helvetica">223</text>
<text fill="#000000" x="69.8755" y="243.649" font-size="10" text-anchor="end" baseline-shift="-5" font-family="Helvetica">224</text>
<text fill="#000000" x="74.88" y="389.482" font-size="10" text-anchor="middle" baseline-shift="-10" font-family="Helvetica">0</text>
<text fill="#000000" x="186.48" y="389.482" font-size="10" text-anchor="middle" baseline-shift="-10" font-family="Helvetica">100</text>
<text fill="#000000" x="69.8755" y="173.233" font-size="10" text-anchor="end" baseline-shift="-5" font-family="Helvetica">225</text>
<text fill="#000000" x="69.8755" y="102.816" font-size="10" text-anchor="end" baseline-shift="-5" font-family="Helvetica">226</text>
<text fill="#000000" x="69.8755" y="32.4" font-size="10" text-anchor="end" baseline-shift="-5" font-family="Helvetica">227</text>
<text fill="#000000" x="298.08" y="402.481" font-size="10" text-anchor="middle" baseline-shift="-10" font-family="Helvetica">time (10 seconds per unit)</text>
<text fill="#000000" x="51.8755" y="208.44" font-size="10" transform="rotate(-90, 51.8755, 208.44)" text-anchor="middle" baseline-shift="0" font-family="Helvetica">volt (V)</text>
<polyline fill="none" stroke="#000000" stroke-width="0.5" stroke-dasharray="16,0" points="74.8789,32.3984 521.281,32.3984"/>
<polyline fill="none" stroke="#000000" stroke-width="0.5" stroke-dasharray="16,0" points="74.8789,384.48 74.8789,32.3984"/>
<polyline fill="none" stroke="#000000" stroke-width="0.5" stroke-dasharray="16,0" points="521.281,384.48 521.281,32.3984"/>
<polyline fill="none" stroke="#000000" stroke-width="0.5" stroke-dasharray="0,3,1,3,1,3,1,3,1,0" points="74.8789,384.48 74.8789,32.3984"/>
<polyline fill="none" stroke="#000000" stroke-width="0.5" stroke-dasharray="0,3,1,3,1,3,1,3,1,0" points="186.48,384.48 186.48,32.3984"/>
<polyline fill="none" stroke="#000000" stroke-width="0.5" stroke-dasharray="0,3,1,3,1,3,1,3,1,0" points="298.078,384.48 298.078,32.3984"/>
<polyline fill="none" stroke="#000000" stroke-width="0.5" stroke-dasharray="0,3,1,3,1,3,1,3,1,0" points="409.68,384.48 409.68,32.3984"/>
<polyline fill="none" stroke="#000000" stroke-width="0.5" stroke-dasharray="16,0" points="74.8789,384.48 521.281,384.48"/>
<polyline fill="none" stroke="#000000" stroke-width="0.5" stroke-dasharray="0,3,1,3,1,3,1,3,1,0" points="521.281,384.48 521.281,32.3984"/>
<polyline fill="none" stroke="#000000" stroke-width="0.5" stroke-dasharray="16,0" points="74.8789,384.48 74.8789,377.48"/>
<polyline fill="none" stroke="#000000" stroke-width="0.5" stroke-dasharray="16,0" points="74.8789,32.3984 74.8789,39.4023"/>
<polyline fill="none" stroke="#000000" stroke-width="0.5" stroke-dasharray="16,0" points="186.48,384.48 186.48,377.48"/>
<polyline fill="none" stroke="#000000" stroke-width="0.5" stroke-dasharray="16,0" points="186.48,32.3984 186.48,39.4023"/>
<polyline fill="none" stroke="#000000" stroke-width="0.5" stroke-dasharray="16,0" points="298.078,384.48 298.078,377.48"/>
<polyline fill="none" stroke="#000000" stroke-width="0.5" stroke-dasharray="16,0" points="298.078,32.3984 298.078,39.4023"/>
<polyline fill="none" stroke="#000000" stroke-width="0.5" stroke-dasharray="16,0" points="409.68,384.48 409.68,377.48"/>
<polyline fill="none" stroke="#000000" stroke-width="0.5" stroke-dasharray="16,0" points="409.68,32.3984 409.68,39.4023"/>
<polyline fill="none" stroke="#000000" stroke-width="0.5" stroke-dasharray="16,0" points="521.281,384.48 521.281,377.48"/>
<polyline fill="none" stroke="#000000" stroke-width="0.5" stroke-dasharray="16,0" points="521.281,32.3984 521.281,39.4023"/>
<polyline fill="none" stroke="#000000" stroke-width="0.5" stroke-dasharray="0,3,1,3,1,3,1,3,1,0" points="97.1992,384.48 97.1992,32.3984"/>
<polyline fill="none" stroke="#000000" stroke-width="0.5" stroke-dasharray="0,3,1,3,1,3,1,3,1,0" points="119.52,384.48 119.52,32.3984"/>
<polyline fill="none" stroke="#000000" stroke-width="0.5" stroke-dasharray="0,3,1,3,1,3,1,3,1,0" points="141.84,384.48 141.84,32.3984"/>
<polyline fill="none" stroke="#000000" stroke-width="0.5" stroke-dasharray="0,3,1,3,1,3,1,3,1,0" points="164.16,384.48 164.16,32.3984"/>
<polyline fill="none" stroke="#000000" stroke-width="0.5" stroke-dasharray="0,3,1,3,1,3,1,3,1,0" points="208.801,384.48 208.801,32.3984"/>
<polyline fill="none" stroke="#000000" stroke-width="0.5" stroke-dasharray="0,3,1,3,1,3,1,3,1,0" points="231.121,384.48 231.121,32.3984"/>
<polyline fill="none" stroke="#000000" stroke-width="0.5" stroke-dasharray="0,3,1,3,1,3,1,3,1,0" points="253.441,384.48 253.441,32.3984"/>
<polyline fill="none" stroke="#000000" stroke-width="0.5" stroke-dasharray="0,3,1,3,1,3,1,3,1,0" points="275.762,384.48 275.762,32.3984"/>
<polyline fill="none" stroke="#000000" stroke-width="0.5" stroke-dasharray="0,3,1,3,1,3,1,3,1,0" points="320.398,384.48 320.398,32.3984"/>
<polyline fill="none" stroke="#000000" stroke-width="0.5" stroke-dasharray="0,3,1,3,1,3,1,3,1,0" points="342.719,384.48 342.719,32.3984"/>
<polyline fill="none" stroke="#000000" stroke-width="0.5" stroke-dasharray="0,3,1,3,1,3,1,3,1,0" points="365.039,384.48 365.039,32.3984"/>
<polyline fill="none" stroke="#000000" stroke-width="0.5" stroke-dasharray="0,3,1,3,1,3,1,3,1,0" points="387.359,384.48 387.359,32.3984"/>
<polyline fill="none" stroke="#000000" stroke-width="0.5" stroke-dasharray="0,3,1,3,1,3,1,3,1,0" points="432,384.48 432,32.3984"/>
<polyline fill="none" stroke="#000000" stroke-width="0.5" stroke-dasharray="0,3,1,3,1,3,1,3,1,0" points="454.32,384.48 454.32,32.3984"/>
<polyline fill="none" stroke="#000000" stroke-width="0.5" stroke-dasharray="0,3,1,3,1,3,1,3,1,0" points="476.641,384.48 476.641,32.3984"/>
<polyline fill="none" stroke="#000000" stroke-width="0.5" stroke-dasharray="0,3,1,3,1,3,1,3,1,0" points="498.961,384.48 498.961,32.3984"/>
<polyline fill="none" stroke="#000000" stroke-width="0.5" stroke-dasharray="0,3,1,3,1,3,1,3,1,0" points="74.8789,384.48 521.281,384.48"/>
<polyline fill="none" stroke="#000000" stroke-width="0.5" stroke-dasharray="0,3,1,3,1,3,1,3,1,0" points="74.8789,314.066 521.281,314.066"/>
<polyline fill="none" stroke="#000000" stroke-width="0.5" stroke-dasharray="0,3,1,3,1,3,1,3,1,0" points="74.8789,243.648 521.281,243.648"/>
<polyline fill="none" stroke="#000000" stroke-width="0.5" stroke-dasharray="0,3,1,3,1,3,1,3,1,0" points="74.8789,173.234 521.281,173.234"/>
<polyline fill="none" stroke="#000000" stroke-width="0.5" stroke-dasharray="0,3,1,3,1,3,1,3,1,0" points="74.8789,102.816 521.281,102.816"/>
<polyline fill="none" stroke="#000000" stroke-width="0.5" stroke-dasharray="0,3,1,3,1,3,1,3,1,0" points="74.8789,32.3984 521.281,32.3984"/>
<polyline fill="none" stroke="#000000" stroke-width="0.5" stroke-dasharray="16,0" points="74.8789,384.48 81.8867,384.48"/>
<polyline fill="none" stroke="#000000" stroke-width="0.5" stroke-dasharray="16,0" points="521.281,384.48 514.273,384.48"/>
<polyline fill="none" stroke="#000000" stroke-width="0.5" stroke-dasharray="16,0" points="74.8789,314.066 81.8867,314.066"/>
<polyline fill="none" stroke="#000000" stroke-width="0.5" stroke-dasharray="16,0" points="521.281,314.066 514.273,314.066"/>
<polyline fill="none" stroke="#000000" stroke-width="0.5" stroke-dasharray="16,0" points="74.8789,243.648 81.8867,243.648"/>
<polyline fill="none" stroke="#000000" stroke-width="0.5" stroke-dasharray="16,0" points="521.281,243.648 514.273,243.648"/>
<polyline fill="none" stroke="#000000" stroke-width="0.5" stroke-dasharray="16,0" points="74.8789,173.234 81.8867,173.234"/>
<polyline fill="none" stroke="#000000" stroke-width="0.5" stroke-dasharray="16,0" points="521.281,173.234 514.273,173.234"/>
<polyline fill="none" stroke="#000000" stroke-width="0.5" stroke-dasharray="16,0" points="74.8789,102.816 81.8867,102.816"/>
<polyline fill="none" stroke="#000000" stroke-width="0.5" stroke-dasharray="16,0" points="521.281,102.816 514.273,102.816"/>
<polyline fill="none" stroke="#000000" stroke-width="0.5" stroke-dasharray="16,0" points="74.8789,32.3984 81.8867,32.3984"/>
<polyline fill="none" stroke="#000000" stroke-width="0.5" stroke-dasharray="16,0" points="521.281,32.3984 514.273,32.3984"/>
<polyline fill="none" stroke="#000000" stroke-width="0.5" stroke-dasharray="0,3,1,3,1,3,1,3,1,0" points="74.8789,370.395 521.281,370.395"/>
<polyline fill="none" stroke="#000000" stroke-width="0.5" stroke-dasharray="0,3,1,3,1,3,1,3,1,0" points="74.8789,356.316 521.281,356.316"/>
<polyline fill="none" stroke="#000000" stroke-width="0.5" stroke-dasharray="0,3,1,3,1,3,1,3,1,0" points="74.8789,342.23 521.281,342.23"/>
<polyline fill="none" stroke="#000000" stroke-width="0.5" stroke-dasharray="0,3,1,3,1,3,1,3,1,0" points="74.8789,328.145 521.281,328.145"/>
<polyline fill="none" stroke="#000000" stroke-width="0.5" stroke-dasharray="0,3,1,3,1,3,1,3,1,0" points="74.8789,299.98 521.281,299.98"/>
<polyline fill="none" stroke="#000000" stroke-width="0.5" stroke-dasharray="0,3,1,3,1,3,1,3,1,0" points="74.8789,285.898 521.281,285.898"/>
<polyline fill="none" stroke="#000000" stroke-width="0.5" stroke-dasharray="0,3,1,3,1,3,1,3,1,0" points="74.8789,271.812 521.281,271.812"/>
<polyline fill="none" stroke="#000000" stroke-width="0.5" stroke-dasharray="0,3,1,3,1,3,1,3,1,0" points="74.8789,257.73 521.281,257.73"/>
<polyline fill="none" stroke="#000000" stroke-width="0.5" stroke-dasharray="0,3,1,3,1,3,1,3,1,0" points="74.8789,229.562 521.281,229.562"/>
<polyline fill="none" stroke="#000000" stroke-width="0.5" stroke-dasharray="0,3,1,3,1,3,1,3,1,0" points="74.8789,215.484 521.281,215.484"/>
<polyline fill="none" stroke="#000000" stroke-width="0.5" stroke-dasharray="0,3,1,3,1,3,1,3,1,0" points="74.8789,201.398 521.281,201.398"/>
<polyline fill="none" stroke="#000000" stroke-width="0.5" stroke-dasharray="0,3,1,3,1,3,1,3,1,0" points="74.8789,187.312 521.281,187.312"/>
<polyline fill="none" stroke="#000000" stroke-width="0.5" stroke-dasharray="0,3,1,3,1,3,1,3,1,0" points="74.8789,159.148 521.281,159.148"/>
<polyline fill="none" stroke="#000000" stroke-width="0.5" stroke-dasharray="0,3,1,3,1,3,1,3,1,0" points="74.8789,145.066 521.281,145.066"/>
<polyline fill="none" stroke="#000000" stroke-width="0.5" stroke-dasharray="0,3,1,3,1,3,1,3,1,0" points="74.8789,130.98 521.281,130.98"/>
<polyline fill="none" stroke="#000000" stroke-width="0.5" stroke-dasharray="0,3,1,3,1,3,1,3,1,0" points="74.8789,116.898 521.281,116.898"/>
<polyline fill="none" stroke="#000000" stroke-width="0.5" stroke-dasharray="0,3,1,3,1,3,1,3,1,0" points="74.8789,88.7305 521.281,88.7305"/>
<polyline fill="none" stroke="#000000" stroke-width="0.5" stroke-dasharray="0,3,1,3,1,3,1,3,1,0" points="74.8789,74.6523 521.281,74.6523"/>
<polyline fill="none" stroke="#000000" stroke-width="0.5" stroke-dasharray="0,3,1,3,1,3,1,3,1,0" points="74.8789,60.5664 521.281,60.5664"/>
<polyline fill="none" stroke="#000000" stroke-width="0.5" stroke-dasharray="0,3,1,3,1,3,1,3,1,0" points="74.8789,46.4805 521.281,46.4805"/>
<polyline fill="none" stroke="#ff0000" stroke-width="1.5" points="75.9961,237.875 77.1133,275.266 78.2266,276.18 79.3438,281.883 80.4609,313.781 81.5742,292.375 82.6914,296.039 83.8086,307.445 84.9258,296.883 86.0391,310.191 87.1562,328.078 88.2734,305.262 89.3867,306.672 90.5039,344.555 91.6211,346.949 92.7344,300.965 93.8516,274.348 94.9688,282.801 96.0859,313.992 97.1992,302.234 98.3164,265.406 99.4336,253.012 100.547,297.516 101.664,263.715 102.781,248.719 103.895,243.719 105.012,234.633 106.129,245.898 107.242,221.184 108.359,191.469 109.477,192.246 110.594,208.582 111.707,246.605 112.824,262.379 113.941,247.449 115.055,337.16 116.172,342.23 117.289,362.16 118.402,383.141 119.52,363.918 120.637,342.863 121.754,347.301 122.867,359.977 123.984,342.23 125.102,150.559 126.215,134.152 127.332,148.164 128.449,137.742 129.562,152.105 130.68,127.883 131.797,133.305 132.91,124.574 134.027,134.008 135.145,178.441 136.262,179.57 137.375,171.262 138.492,144.785 139.609,129.926 140.723,150.066 141.84,139.152 142.957,158.094 144.07,150.277 145.188,177.598 146.305,141.969 147.422,123.379 148.535,161.543 149.652,134.504 150.77,116.266 151.883,129.293 153,97.7461 154.117,112.391 155.23,153.375 156.348,143.516 157.465,120.207 158.578,130.98 159.695,178.02 160.812,144.504 161.93,124.574 163.043,146.543 164.16,145.137 165.277,135.84 166.391,120.773 167.508,126.688 168.625,124.363 169.738,128.797 170.855,162.387 171.973,169.008 173.09,126.266 174.203,153.164 175.32,145.137 176.438,173.793 177.551,135.699 178.668,148.164 179.785,147.531 180.898,142.391 182.016,153.727 183.133,102.043 184.246,97.3242 185.363,82.1836 186.48,122.883 187.598,115.207 188.711,117.391 189.828,125.633 190.945,142.812 192.059,141.051 193.176,174.781 194.293,151.824 195.406,136.402 196.523,168.09 197.641,185.062 198.758,135.699 199.871,129.008 200.988,153.516 202.105,156.965 203.219,132.039 204.336,144.855 205.453,145.066 206.566,136.969 207.684,155.207 208.801,142.812 209.914,124.926 211.031,144.43 212.148,167.598 213.266,134.574 214.379,143.516 215.496,178.23 216.613,117.32 217.727,106.195 218.844,105.066 219.961,164.078 221.074,149.574 222.191,169.711 223.309,228.93 224.426,222.734 225.539,215.762 226.656,198.371 227.773,204.355 228.887,186.188 230.004,222.805 231.121,174.781 232.234,177.387 233.352,147.672 234.469,144.293 235.586,173.793 236.699,200.625 237.816,207.312 238.934,178.441 240.047,170.203 241.164,166.895 242.281,161.754 243.395,147.602 244.512,172.387 245.629,161.754 246.742,130.98 247.859,156.051 248.977,162.246 250.094,171.188 251.207,154.289 252.324,129.363 253.441,127.109 254.555,143.516 255.672,148.164 256.789,175.695 257.902,160.062 259.02,173.16 260.137,137.25 261.254,155.699 262.367,189.359 263.484,196.82 264.602,200.484 265.715,192.668 266.832,207.312 267.949,209.566 269.062,145.348 270.18,182.879 271.297,182.738 272.41,149.504 273.527,65.4961 274.645,60.5664 275.762,81.1992 276.875,81.4805 277.992,103.801 279.109,118.59 280.223,102.18 281.34,72.4688 282.457,68.6641 283.57,61.9727 284.688,89.2969 285.805,43.7383 286.922,42.4688 288.035,60.4961 289.152,93.7305 290.27,89.2969 291.383,59.6523 292.5,35.7812 293.617,47.9609 294.73,67.0469 295.848,79.9297 296.965,81.7617 298.078,64.793 299.195,94.6484 300.312,63.4531 301.43,47.75 302.543,49.0195 303.66,45.5 304.777,87.8164 305.891,101.758 307.008,94.3672 308.125,140.98 309.238,99.3672 310.355,95.1406 311.473,85.7734 312.59,89.4375 313.703,86.9023 314.82,108.449 315.938,119.434 317.051,139.996 318.168,54.0195 319.285,62.1133 320.398,62.4688 321.516,72.6055 322.633,99.2969 323.746,115.703 324.863,90 325.98,141.051 327.098,139.574 328.211,132.039 329.328,117.461 330.445,140.77 331.559,130.633 332.676,84.0156 333.793,55.8477 334.906,64.7227 336.023,83.2383 337.141,266.531 338.258,258.645 339.371,238.438 340.488,264.492 341.605,256.109 342.719,290.051 343.836,268.223 344.953,224.988 346.066,209.988 347.184,263.293 348.301,254.141 349.414,231.887 350.531,249.211 351.648,277.59 352.766,261.395 353.879,293.715 354.996,287.094 356.113,268.926 357.227,289.137 358.344,272.801 359.461,260.688 360.574,305.191 361.691,291.602 362.809,293.148 363.926,234.07 365.039,275.051 366.156,278.504 367.273,244.281 368.387,293.715 369.504,334.906 370.621,306.105 371.734,291.953 372.852,300.402 373.969,276.742 375.082,264.066 376.199,318.852 377.316,294.277 378.434,304.133 379.547,285.688 380.664,322.301 381.781,265.758 382.895,257.168 384.012,256.676 385.129,277.309 386.242,288.645 387.359,274.348 388.477,275.828 389.594,313.219 390.707,314.91 391.824,337.371 392.941,315.191 394.055,351.453 395.172,257.73 396.289,279.629 397.402,316.668 398.52,303.289 399.637,282.52 400.75,279.418 401.867,282.586 402.984,275.828 404.102,302.305 405.215,288.012 406.332,302.375 407.449,332.656 408.562,381.383 409.68,363.707 410.797,372.719 411.91,285.406 413.027,290.898 414.145,285.406 415.262,287.375 416.375,290.758 417.492,276.461 418.609,293.5 419.723,300.754 420.84,278.574 421.957,255.266 423.07,271.953 424.188,298.434 425.305,281.742 426.422,285.547 427.535,271.953 428.652,290.262 429.77,278.012 430.883,303.148 432,268.363 433.117,272.379 434.23,277.379 435.348,272.445 436.465,274.207 437.578,295.262 438.695,277.801 439.812,290.191 440.93,276.32 442.043,291.883 443.16,305.191 444.277,300.617 445.391,289.066 446.508,253.719 447.625,245.621 448.738,250.195 449.855,252.449 450.973,287.375 452.09,287.164 453.203,277.023 454.32,293.434 455.438,290.051 456.551,280.547 457.668,283.012 458.785,273.293 459.898,276.391 461.016,276.602 462.133,265.688 463.246,267.871 464.363,249.773 465.48,236.465 466.598,208.438 467.711,211.043 468.828,185.625 469.945,220.691 471.059,168.586 472.176,142.32 473.293,250.195 474.406,137.953 475.523,126.121"/>
<polyline fill="none" stroke="#000000" stroke-width="0.5" stroke-dasharray="16,0" points="521.281,384.48 521.281,384.48"/>
<polyline fill="none" stroke="#000000" stroke-width="0.5" stroke-dasharray="16,0" points="74.8789,384.48 74.8789,384.48"/>
<polyline fill="none" stroke="#000000" stroke-width="0.5" stroke-dasharray="16,0" points="74.8789,32.3984 74.8789,32.3984"/>
<polyline fill="none" stroke="#000000" stroke-width="0.5" stroke-dasharray="16,0" points="521.281,32.3984 521.281,32.3984"/>
<text fill="#000000" x="298.08" y="22.4008" font-size="10" text-anchor="middle" baseline-shift="0" font-family="Helvetica">Printer Hp Deskjet3940 (RMS voltage)</text>
<polyline fill="none" stroke="#000000" stroke-width="0.5" stroke-dasharray="16,0" points="521.281,384.48 521.281,32.3984"/>
<polyline fill="none" stroke="#000000" stroke-width="0.5" stroke-dasharray="16,0" points="74.8789,384.48 74.8789,32.3984 521.281,32.3984"/>
<polyline fill="none" stroke="#000000" stroke-width="0.5" stroke-dasharray="16,0" points="74.8789,384.48 521.281,384.48"/>
</g>
</svg>
