<?xml version="1.0" encoding="UTF-8" standalone="no"?>
<svg xmlns="http://www.w3.org/2000/svg"
     xmlns:xlink="http://www.w3.org/1999/xlink"
     width="576px" height="432px" viewBox="0 0 576 432">
<title>glps_renderer figure</title>
<desc>
Creator: GL2PS 1.3.5, (C) 1999-2009 C. Geuzaine
For: Octave
CreationDate: Tue Jan 31 15:47:57 2012
</desc>
<defs>
</defs>
<g shape-rendering="crispEdges">
<text fill="#000000" x="298.08" y="389.482" font-size="10" text-anchor="middle" baseline-shift="-10" font-family="Helvetica">200</text>
<text fill="#000000" x="409.68" y="389.482" font-size="10" text-anchor="middle" baseline-shift="-10" font-family="Helvetica">300</text>
<text fill="#000000" x="521.28" y="389.482" font-size="10" text-anchor="middle" baseline-shift="-10" font-family="Helvetica">400</text>
<text fill="#000000" x="69.8755" y="384.48" font-size="10" text-anchor="end" baseline-shift="-5" font-family="Helvetica">222</text>
<text fill="#000000" x="69.8755" y="314.064" font-size="10" text-anchor="end" baseline-shift="-5" font-family="Helvetica">223</text>
<text fill="#000000" x="69.8755" y="243.649" font-size="10" text-anchor="end" baseline-shift="-5" font-family="Helvetica">224</text>
<text fill="#000000" x="74.88" y="389.482" font-size="10" text-anchor="middle" baseline-shift="-10" font-family="Helvetica">0</text>
<text fill="#000000" x="186.48" y="389.482" font-size="10" text-anchor="middle" baseline-shift="-10" font-family="Helvetica">100</text>
<text fill="#000000" x="69.8755" y="173.233" font-size="10" text-anchor="end" baseline-shift="-5" font-family="Helvetica">225</text>
<text fill="#000000" x="69.8755" y="102.816" font-size="10" text-anchor="end" baseline-shift="-5" font-family="Helvetica">226</text>
<text fill="#000000" x="69.8755" y="32.4" font-size="10" text-anchor="end" baseline-shift="-5" font-family="Helvetica">227</text>
<text fill="#000000" x="298.08" y="402.481" font-size="10" text-anchor="middle" baseline-shift="-10" font-family="Helvetica">time (10 seconds per unit)</text>
<text fill="#000000" x="51.8755" y="208.44" font-size="10" transform="rotate(-90, 51.8755, 208.44)" text-anchor="middle" baseline-shift="0" font-family="Helvetica">volt (V)</text>
<polyline fill="none" stroke="#000000" stroke-width="0.5" stroke-dasharray="16,0" points="74.8789,32.3984 521.281,32.3984"/>
<polyline fill="none" stroke="#000000" stroke-width="0.5" stroke-dasharray="16,0" points="74.8789,384.48 74.8789,32.3984"/>
<polyline fill="none" stroke="#000000" stroke-width="0.5" stroke-dasharray="16,0" points="521.281,384.48 521.281,32.3984"/>
<polyline fill="none" stroke="#000000" stroke-width="0.5" stroke-dasharray="0,3,1,3,1,3,1,3,1,0" points="74.8789,384.48 74.8789,32.3984"/>
<polyline fill="none" stroke="#000000" stroke-width="0.5" stroke-dasharray="0,3,1,3,1,3,1,3,1,0" points="186.48,384.48 186.48,32.3984"/>
<polyline fill="none" stroke="#000000" stroke-width="0.5" stroke-dasharray="0,3,1,3,1,3,1,3,1,0" points="298.078,384.48 298.078,32.3984"/>
<polyline fill="none" stroke="#000000" stroke-width="0.5" stroke-dasharray="0,3,1,3,1,3,1,3,1,0" points="409.68,384.48 409.68,32.3984"/>
<polyline fill="none" stroke="#000000" stroke-width="0.5" stroke-dasharray="16,0" points="74.8789,384.48 521.281,384.48"/>
<polyline fill="none" stroke="#000000" stroke-width="0.5" stroke-dasharray="0,3,1,3,1,3,1,3,1,0" points="521.281,384.48 521.281,32.3984"/>
<polyline fill="none" stroke="#000000" stroke-width="0.5" stroke-dasharray="16,0" points="74.8789,384.48 74.8789,377.48"/>
<polyline fill="none" stroke="#000000" stroke-width="0.5" stroke-dasharray="16,0" points="74.8789,32.3984 74.8789,39.4023"/>
<polyline fill="none" stroke="#000000" stroke-width="0.5" stroke-dasharray="16,0" points="186.48,384.48 186.48,377.48"/>
<polyline fill="none" stroke="#000000" stroke-width="0.5" stroke-dasharray="16,0" points="186.48,32.3984 186.48,39.4023"/>
<polyline fill="none" stroke="#000000" stroke-width="0.5" stroke-dasharray="16,0" points="298.078,384.48 298.078,377.48"/>
<polyline fill="none" stroke="#000000" stroke-width="0.5" stroke-dasharray="16,0" points="298.078,32.3984 298.078,39.4023"/>
<polyline fill="none" stroke="#000000" stroke-width="0.5" stroke-dasharray="16,0" points="409.68,384.48 409.68,377.48"/>
<polyline fill="none" stroke="#000000" stroke-width="0.5" stroke-dasharray="16,0" points="409.68,32.3984 409.68,39.4023"/>
<polyline fill="none" stroke="#000000" stroke-width="0.5" stroke-dasharray="16,0" points="521.281,384.48 521.281,377.48"/>
<polyline fill="none" stroke="#000000" stroke-width="0.5" stroke-dasharray="16,0" points="521.281,32.3984 521.281,39.4023"/>
<polyline fill="none" stroke="#000000" stroke-width="0.5" stroke-dasharray="0,3,1,3,1,3,1,3,1,0" points="97.1992,384.48 97.1992,32.3984"/>
<polyline fill="none" stroke="#000000" stroke-width="0.5" stroke-dasharray="0,3,1,3,1,3,1,3,1,0" points="119.52,384.48 119.52,32.3984"/>
<polyline fill="none" stroke="#000000" stroke-width="0.5" stroke-dasharray="0,3,1,3,1,3,1,3,1,0" points="141.84,384.48 141.84,32.3984"/>
<polyline fill="none" stroke="#000000" stroke-width="0.5" stroke-dasharray="0,3,1,3,1,3,1,3,1,0" points="164.16,384.48 164.16,32.3984"/>
<polyline fill="none" stroke="#000000" stroke-width="0.5" stroke-dasharray="0,3,1,3,1,3,1,3,1,0" points="208.801,384.48 208.801,32.3984"/>
<polyline fill="none" stroke="#000000" stroke-width="0.5" stroke-dasharray="0,3,1,3,1,3,1,3,1,0" points="231.121,384.48 231.121,32.3984"/>
<polyline fill="none" stroke="#000000" stroke-width="0.5" stroke-dasharray="0,3,1,3,1,3,1,3,1,0" points="253.441,384.48 253.441,32.3984"/>
<polyline fill="none" stroke="#000000" stroke-width="0.5" stroke-dasharray="0,3,1,3,1,3,1,3,1,0" points="275.762,384.48 275.762,32.3984"/>
<polyline fill="none" stroke="#000000" stroke-width="0.5" stroke-dasharray="0,3,1,3,1,3,1,3,1,0" points="320.398,384.48 320.398,32.3984"/>
<polyline fill="none" stroke="#000000" stroke-width="0.5" stroke-dasharray="0,3,1,3,1,3,1,3,1,0" points="342.719,384.48 342.719,32.3984"/>
<polyline fill="none" stroke="#000000" stroke-width="0.5" stroke-dasharray="0,3,1,3,1,3,1,3,1,0" points="365.039,384.48 365.039,32.3984"/>
<polyline fill="none" stroke="#000000" stroke-width="0.5" stroke-dasharray="0,3,1,3,1,3,1,3,1,0" points="387.359,384.48 387.359,32.3984"/>
<polyline fill="none" stroke="#000000" stroke-width="0.5" stroke-dasharray="0,3,1,3,1,3,1,3,1,0" points="432,384.48 432,32.3984"/>
<polyline fill="none" stroke="#000000" stroke-width="0.5" stroke-dasharray="0,3,1,3,1,3,1,3,1,0" points="454.32,384.48 454.32,32.3984"/>
<polyline fill="none" stroke="#000000" stroke-width="0.5" stroke-dasharray="0,3,1,3,1,3,1,3,1,0" points="476.641,384.48 476.641,32.3984"/>
<polyline fill="none" stroke="#000000" stroke-width="0.5" stroke-dasharray="0,3,1,3,1,3,1,3,1,0" points="498.961,384.48 498.961,32.3984"/>
<polyline fill="none" stroke="#000000" stroke-width="0.5" stroke-dasharray="0,3,1,3,1,3,1,3,1,0" points="74.8789,384.48 521.281,384.48"/>
<polyline fill="none" stroke="#000000" stroke-width="0.5" stroke-dasharray="0,3,1,3,1,3,1,3,1,0" points="74.8789,314.066 521.281,314.066"/>
<polyline fill="none" stroke="#000000" stroke-width="0.5" stroke-dasharray="0,3,1,3,1,3,1,3,1,0" points="74.8789,243.648 521.281,243.648"/>
<polyline fill="none" stroke="#000000" stroke-width="0.5" stroke-dasharray="0,3,1,3,1,3,1,3,1,0" points="74.8789,173.234 521.281,173.234"/>
<polyline fill="none" stroke="#000000" stroke-width="0.5" stroke-dasharray="0,3,1,3,1,3,1,3,1,0" points="74.8789,102.816 521.281,102.816"/>
<polyline fill="none" stroke="#000000" stroke-width="0.5" stroke-dasharray="0,3,1,3,1,3,1,3,1,0" points="74.8789,32.3984 521.281,32.3984"/>
<polyline fill="none" stroke="#000000" stroke-width="0.5" stroke-dasharray="16,0" points="74.8789,384.48 81.8867,384.48"/>
<polyline fill="none" stroke="#000000" stroke-width="0.5" stroke-dasharray="16,0" points="521.281,384.48 514.273,384.48"/>
<polyline fill="none" stroke="#000000" stroke-width="0.5" stroke-dasharray="16,0" points="74.8789,314.066 81.8867,314.066"/>
<polyline fill="none" stroke="#000000" stroke-width="0.5" stroke-dasharray="16,0" points="521.281,314.066 514.273,314.066"/>
<polyline fill="none" stroke="#000000" stroke-width="0.5" stroke-dasharray="16,0" points="74.8789,243.648 81.8867,243.648"/>
<polyline fill="none" stroke="#000000" stroke-width="0.5" stroke-dasharray="16,0" points="521.281,243.648 514.273,243.648"/>
<polyline fill="none" stroke="#000000" stroke-width="0.5" stroke-dasharray="16,0" points="74.8789,173.234 81.8867,173.234"/>
<polyline fill="none" stroke="#000000" stroke-width="0.5" stroke-dasharray="16,0" points="521.281,173.234 514.273,173.234"/>
<polyline fill="none" stroke="#000000" stroke-width="0.5" stroke-dasharray="16,0" points="74.8789,102.816 81.8867,102.816"/>
<polyline fill="none" stroke="#000000" stroke-width="0.5" stroke-dasharray="16,0" points="521.281,102.816 514.273,102.816"/>
<polyline fill="none" stroke="#000000" stroke-width="0.5" stroke-dasharray="16,0" points="74.8789,32.3984 81.8867,32.3984"/>
<polyline fill="none" stroke="#000000" stroke-width="0.5" stroke-dasharray="16,0" points="521.281,32.3984 514.273,32.3984"/>
<polyline fill="none" stroke="#000000" stroke-width="0.5" stroke-dasharray="0,3,1,3,1,3,1,3,1,0" points="74.8789,370.395 521.281,370.395"/>
<polyline fill="none" stroke="#000000" stroke-width="0.5" stroke-dasharray="0,3,1,3,1,3,1,3,1,0" points="74.8789,356.316 521.281,356.316"/>
<polyline fill="none" stroke="#000000" stroke-width="0.5" stroke-dasharray="0,3,1,3,1,3,1,3,1,0" points="74.8789,342.23 521.281,342.23"/>
<polyline fill="none" stroke="#000000" stroke-width="0.5" stroke-dasharray="0,3,1,3,1,3,1,3,1,0" points="74.8789,328.145 521.281,328.145"/>
<polyline fill="none" stroke="#000000" stroke-width="0.5" stroke-dasharray="0,3,1,3,1,3,1,3,1,0" points="74.8789,299.98 521.281,299.98"/>
<polyline fill="none" stroke="#000000" stroke-width="0.5" stroke-dasharray="0,3,1,3,1,3,1,3,1,0" points="74.8789,285.898 521.281,285.898"/>
<polyline fill="none" stroke="#000000" stroke-width="0.5" stroke-dasharray="0,3,1,3,1,3,1,3,1,0" points="74.8789,271.812 521.281,271.812"/>
<polyline fill="none" stroke="#000000" stroke-width="0.5" stroke-dasharray="0,3,1,3,1,3,1,3,1,0" points="74.8789,257.73 521.281,257.73"/>
<polyline fill="none" stroke="#000000" stroke-width="0.5" stroke-dasharray="0,3,1,3,1,3,1,3,1,0" points="74.8789,229.562 521.281,229.562"/>
<polyline fill="none" stroke="#000000" stroke-width="0.5" stroke-dasharray="0,3,1,3,1,3,1,3,1,0" points="74.8789,215.484 521.281,215.484"/>
<polyline fill="none" stroke="#000000" stroke-width="0.5" stroke-dasharray="0,3,1,3,1,3,1,3,1,0" points="74.8789,201.398 521.281,201.398"/>
<polyline fill="none" stroke="#000000" stroke-width="0.5" stroke-dasharray="0,3,1,3,1,3,1,3,1,0" points="74.8789,187.312 521.281,187.312"/>
<polyline fill="none" stroke="#000000" stroke-width="0.5" stroke-dasharray="0,3,1,3,1,3,1,3,1,0" points="74.8789,159.148 521.281,159.148"/>
<polyline fill="none" stroke="#000000" stroke-width="0.5" stroke-dasharray="0,3,1,3,1,3,1,3,1,0" points="74.8789,145.066 521.281,145.066"/>
<polyline fill="none" stroke="#000000" stroke-width="0.5" stroke-dasharray="0,3,1,3,1,3,1,3,1,0" points="74.8789,130.98 521.281,130.98"/>
<polyline fill="none" stroke="#000000" stroke-width="0.5" stroke-dasharray="0,3,1,3,1,3,1,3,1,0" points="74.8789,116.898 521.281,116.898"/>
<polyline fill="none" stroke="#000000" stroke-width="0.5" stroke-dasharray="0,3,1,3,1,3,1,3,1,0" points="74.8789,88.7305 521.281,88.7305"/>
<polyline fill="none" stroke="#000000" stroke-width="0.5" stroke-dasharray="0,3,1,3,1,3,1,3,1,0" points="74.8789,74.6523 521.281,74.6523"/>
<polyline fill="none" stroke="#000000" stroke-width="0.5" stroke-dasharray="0,3,1,3,1,3,1,3,1,0" points="74.8789,60.5664 521.281,60.5664"/>
<polyline fill="none" stroke="#000000" stroke-width="0.5" stroke-dasharray="0,3,1,3,1,3,1,3,1,0" points="74.8789,46.4805 521.281,46.4805"/>
<polyline fill="none" stroke="#ff0000" stroke-width="1.5" points="75.9961,297.586 77.1133,318.148 78.2266,350.047 79.3438,290.898 80.4609,306.461 81.5742,245.125 82.6914,241.465 83.8086,249.703 84.9258,239.422 86.0391,227.875 87.1562,225.832 88.2734,222.172 89.3867,227.734 90.5039,218.934 91.6211,205.273 92.7344,240.406 93.8516,233.719 94.9688,224.285 96.0859,232.945 97.1992,216.117 98.3164,202.668 99.4336,205.34 100.547,211.328 101.664,199.566 102.781,208.863 103.895,217.383 105.012,239.211 106.129,208.582 107.242,212.242 108.359,182.316 109.477,177.879 110.594,228.227 111.707,200.695 112.824,237.379 113.941,253.504 115.055,213.934 116.172,241.254 117.289,266.672 118.402,225.129 119.52,217.453 120.637,240.48 121.754,241.113 122.867,242.664 123.984,227.379 125.102,220.691 126.215,231.043 127.332,214.707 128.449,180.414 129.562,183.16 130.68,197.176 131.797,158.305 132.91,121.617 134.027,145.91 135.145,142.25 136.262,167.457 137.375,158.234 138.492,173.234 139.609,158.234 140.723,190.133 141.84,241.184 142.957,200.906 144.07,172.176 145.188,174.5 146.305,205.41 147.422,181.613 148.535,200.695 149.652,207.805 150.77,210.199 151.883,270.688 153,167.246 154.117,160.84 155.23,157.602 156.348,110.422 157.465,222.664 158.578,142.461 159.695,124.504 160.812,222.172 161.93,217.523 163.043,202.172 164.16,236.746 165.277,250.688 166.391,244.984 167.508,257.027 168.625,225.691 169.738,249.211 170.855,253.504 171.973,301.105 173.09,258.082 174.203,265.336 175.32,254.703 176.438,261.25 177.551,266.25 178.668,250.336 179.785,247.945 180.898,213.086 182.016,220.762 183.133,231.324 184.246,211.68 185.363,174.711 186.48,184.219 187.598,184.219 188.711,204.355 189.828,234.848 190.945,212.523 192.059,299.84 193.176,238.859 194.293,203.863 195.406,223.438 196.523,254.562 197.641,219.988 198.758,203.723 199.871,238.367 200.988,227.523 202.105,223.578 203.219,249.633 204.336,213.934 205.453,218.438 206.566,217.172 207.684,225.973 208.801,229.707 209.914,211.961 211.031,227.734 212.148,224 213.266,194.566 214.379,194.637 215.496,181.891 216.613,173.371 217.727,205.129 218.844,201.539 219.961,148.094 221.074,191.965 222.191,199.777 223.309,163.094 224.426,196.117 225.539,203.582 226.656,189.359 227.773,169.359 228.887,182.949 230.004,151.824 231.121,173.512 232.234,181.188 233.352,161.613 234.469,159.289 235.586,175.625 236.699,151.543 237.816,189.359 238.934,148.164 240.047,168.445 241.164,162.246 242.281,177.879 243.395,178.582 244.512,176.824 245.629,174.289 246.742,160.91 247.859,133.727 248.977,165.91 250.094,146.969 251.207,141.754 252.324,151.262 253.441,132.531 254.555,157.387 255.672,168.586 256.789,135.84 257.902,129.152 259.02,161.613 260.137,130.137 261.254,160.207 262.367,187.809 263.484,169.641 264.602,157.387 265.715,150.066 266.832,148.445 267.949,136.266 269.062,146.191 270.18,165.344 271.297,175.062 272.41,149.008 273.527,169.43 274.645,163.797 275.762,161.684 276.875,184.641 277.992,158.938 279.109,157.176 280.223,141.191 281.34,144.574 282.457,176.824 283.57,151.824 284.688,126.055 285.805,123.871 286.922,127.109 288.035,150.277 289.152,112.113 290.27,98.8711 291.383,103.52 292.5,104.574 293.617,113.309 294.73,101.547 295.848,85.0703 296.965,86.7617 298.078,103.238 299.195,101.199 300.312,104.719 301.43,88.5938 302.543,115.703 303.66,110.422 304.777,113.168 305.891,93.0977 307.008,104.859 308.125,107.816 309.238,156.824 310.355,123.168 311.473,90.6328 312.59,87.7461 313.703,83.4531 314.82,77.2539 315.938,87.2539 317.051,84.7891 318.168,92.3945 319.285,92.8867 320.398,73.8047 321.516,104.508 322.633,110.281 323.746,108.238 324.863,104.012 325.98,98.4492 327.098,87.1133 328.211,106.828 329.328,99.6484 330.445,101.266 331.559,98.0273 332.676,116.125 333.793,116.898 334.906,118.168 336.023,181.613 337.141,173.586 338.258,142.039 339.371,165.98 340.488,170.977 341.605,139.219 342.719,140.77 343.836,141.898 344.953,147.883 346.066,122.531 347.184,144.574 348.301,108.379 349.414,112.25 350.531,142.672 351.648,120.277 352.766,129.363 353.879,94.9297 354.996,84.0156 356.113,73.2422 357.227,104.434 358.344,119.152 359.461,112.32 360.574,104.363 361.691,83.3828 362.809,90.2812 363.926,117.746 365.039,114.719 366.156,106.055 367.273,132.953 368.387,117.746 369.504,108.66 370.621,57.3945 371.734,74.5078 372.852,89.1562 373.969,72.8203 375.082,55.918 376.199,63.0312 377.316,66.9727 378.434,66.3398 379.547,40.6367 380.664,53.7344 381.781,80.1406 382.895,87.6758 384.012,57.4688 385.129,66.0586 386.242,62.8906 387.359,39.0898 388.477,62.8906 389.594,72.1836 390.707,60.9883 391.824,62.9609 392.941,60.3555 394.055,78.0273 395.172,84.7188 396.289,96.6211 397.402,107.602 398.52,85.0703 399.637,84.5078 400.75,106.969 401.867,113.238 402.984,83.5938 404.102,105.066 405.215,99.3672 406.332,134.785 407.449,126.336 408.562,153.516 409.68,143.164 410.797,133.445 411.91,129.996 413.027,116.266 414.145,150.348 415.262,125.844 416.375,121.477 417.492,140.488 418.609,158.375 419.723,144.293 420.84,114.645 421.957,109.223 423.07,133.445 424.188,154.148 425.305,105.984 426.422,141.754 427.535,171.402 428.652,95.8438 429.77,136.266 430.883,147.109 432,140.137 433.117,111.688 434.23,115 435.348,163.375 436.465,118.379 437.578,243.438 438.695,102.535 439.812,123.305 440.93,92.043 442.043,93.875 443.16,88.0977 444.277,109.363 445.391,122.746 446.508,134.645 447.625,156.754 448.738,110.984 449.855,150.84 450.973,106.969 452.09,84.7188 453.203,86.0547 454.32,98.7305 455.438,98.3789 456.551,91.832 457.668,147.18 458.785,147.602 459.898,114.012 461.016,101.688 462.133,106.125 463.246,122.602 464.363,73.5938 465.48,100.352 466.598,117.039 467.711,96.9727 468.828,80.3516 469.945,141.332 471.059,128.094 472.176,107.25 473.293,97.043 474.406,70.2852 475.523,64.1562 476.641,73.1016"/>
<polyline fill="none" stroke="#000000" stroke-width="0.5" stroke-dasharray="16,0" points="521.281,384.48 521.281,384.48"/>
<polyline fill="none" stroke="#000000" stroke-width="0.5" stroke-dasharray="16,0" points="74.8789,384.48 74.8789,384.48"/>
<polyline fill="none" stroke="#000000" stroke-width="0.5" stroke-dasharray="16,0" points="74.8789,32.3984 74.8789,32.3984"/>
<polyline fill="none" stroke="#000000" stroke-width="0.5" stroke-dasharray="16,0" points="521.281,32.3984 521.281,32.3984"/>
<text fill="#000000" x="298.08" y="22.4008" font-size="10" text-anchor="middle" baseline-shift="0" font-family="Helvetica">Printer Hp Deskjet3940 (RMS voltage)</text>
<polyline fill="none" stroke="#000000" stroke-width="0.5" stroke-dasharray="16,0" points="521.281,384.48 521.281,32.3984"/>
<polyline fill="none" stroke="#000000" stroke-width="0.5" stroke-dasharray="16,0" points="74.8789,384.48 74.8789,32.3984 521.281,32.3984"/>
<polyline fill="none" stroke="#000000" stroke-width="0.5" stroke-dasharray="16,0" points="74.8789,384.48 521.281,384.48"/>
</g>
</svg>
