<?xml version="1.0" encoding="UTF-8" standalone="no"?>
<svg xmlns="http://www.w3.org/2000/svg"
     xmlns:xlink="http://www.w3.org/1999/xlink"
     width="576px" height="432px" viewBox="0 0 576 432">
<title>glps_renderer figure</title>
<desc>
Creator: GL2PS 1.3.5, (C) 1999-2009 C. Geuzaine
For: Octave
CreationDate: Wed Feb 15 13:53:28 2012
</desc>
<defs>
</defs>
<g shape-rendering="crispEdges">
<text fill="#000000" x="298.08" y="389.481" font-size="10" text-anchor="middle" baseline-shift="-10" font-family="Helvetica">200</text>
<text fill="#000000" x="409.68" y="389.481" font-size="10" text-anchor="middle" baseline-shift="-10" font-family="Helvetica">300</text>
<text fill="#000000" x="521.28" y="389.481" font-size="10" text-anchor="middle" baseline-shift="-10" font-family="Helvetica">400</text>
<text fill="#000000" x="69.8755" y="384.48" font-size="10" text-anchor="end" baseline-shift="-5" font-family="Helvetica">0</text>
<text fill="#000000" x="69.8755" y="325.8" font-size="10" text-anchor="end" baseline-shift="-5" font-family="Helvetica">50</text>
<text fill="#000000" x="69.8755" y="267.12" font-size="10" text-anchor="end" baseline-shift="-5" font-family="Helvetica">100</text>
<text fill="#000000" x="74.88" y="389.481" font-size="10" text-anchor="middle" baseline-shift="-10" font-family="Helvetica">0</text>
<text fill="#000000" x="186.48" y="389.481" font-size="10" text-anchor="middle" baseline-shift="-10" font-family="Helvetica">100</text>
<text fill="#000000" x="69.8755" y="208.44" font-size="10" text-anchor="end" baseline-shift="-5" font-family="Helvetica">150</text>
<text fill="#000000" x="69.8755" y="149.76" font-size="10" text-anchor="end" baseline-shift="-5" font-family="Helvetica">200</text>
<text fill="#000000" x="69.8755" y="91.08" font-size="10" text-anchor="end" baseline-shift="-5" font-family="Helvetica">250</text>
<text fill="#000000" x="69.8755" y="32.4" font-size="10" text-anchor="end" baseline-shift="-5" font-family="Helvetica">300</text>
<text fill="#000000" x="298.08" y="402.481" font-size="10" text-anchor="middle" baseline-shift="-10" font-family="Helvetica">time (10 seconds per unit)</text>
<text fill="#000000" x="51.8755" y="208.44" font-size="10" transform="rotate(-90, 51.8755, 208.44)" text-anchor="middle" baseline-shift="0" font-family="Helvetica">degree (°)</text>
<polyline fill="none" stroke="#000000" stroke-width="0.5" stroke-dasharray="16,0" points="74.8789,32.3984 521.281,32.3984"/>
<polyline fill="none" stroke="#000000" stroke-width="0.5" stroke-dasharray="16,0" points="74.8789,384.48 74.8789,32.3984"/>
<polyline fill="none" stroke="#000000" stroke-width="0.5" stroke-dasharray="16,0" points="521.281,384.48 521.281,32.3984"/>
<polyline fill="none" stroke="#000000" stroke-width="0.5" stroke-dasharray="0,3,1,3,1,3,1,3,1,0" points="74.8789,384.48 74.8789,32.3984"/>
<polyline fill="none" stroke="#000000" stroke-width="0.5" stroke-dasharray="0,3,1,3,1,3,1,3,1,0" points="186.48,384.48 186.48,32.3984"/>
<polyline fill="none" stroke="#000000" stroke-width="0.5" stroke-dasharray="0,3,1,3,1,3,1,3,1,0" points="298.078,384.48 298.078,32.3984"/>
<polyline fill="none" stroke="#000000" stroke-width="0.5" stroke-dasharray="0,3,1,3,1,3,1,3,1,0" points="409.68,384.48 409.68,32.3984"/>
<polyline fill="none" stroke="#000000" stroke-width="0.5" stroke-dasharray="16,0" points="74.8789,384.48 521.281,384.48"/>
<polyline fill="none" stroke="#000000" stroke-width="0.5" stroke-dasharray="0,3,1,3,1,3,1,3,1,0" points="521.281,384.48 521.281,32.3984"/>
<polyline fill="none" stroke="#000000" stroke-width="0.5" stroke-dasharray="16,0" points="74.8789,384.48 74.8789,377.477"/>
<polyline fill="none" stroke="#000000" stroke-width="0.5" stroke-dasharray="16,0" points="74.8789,32.3984 74.8789,39.4023"/>
<polyline fill="none" stroke="#000000" stroke-width="0.5" stroke-dasharray="16,0" points="186.48,384.48 186.48,377.477"/>
<polyline fill="none" stroke="#000000" stroke-width="0.5" stroke-dasharray="16,0" points="186.48,32.3984 186.48,39.4023"/>
<polyline fill="none" stroke="#000000" stroke-width="0.5" stroke-dasharray="16,0" points="298.078,384.48 298.078,377.477"/>
<polyline fill="none" stroke="#000000" stroke-width="0.5" stroke-dasharray="16,0" points="298.078,32.3984 298.078,39.4023"/>
<polyline fill="none" stroke="#000000" stroke-width="0.5" stroke-dasharray="16,0" points="409.68,384.48 409.68,377.477"/>
<polyline fill="none" stroke="#000000" stroke-width="0.5" stroke-dasharray="16,0" points="409.68,32.3984 409.68,39.4023"/>
<polyline fill="none" stroke="#000000" stroke-width="0.5" stroke-dasharray="16,0" points="521.281,384.48 521.281,377.477"/>
<polyline fill="none" stroke="#000000" stroke-width="0.5" stroke-dasharray="16,0" points="521.281,32.3984 521.281,39.4023"/>
<polyline fill="none" stroke="#000000" stroke-width="0.5" stroke-dasharray="0,3,1,3,1,3,1,3,1,0" points="97.1992,384.48 97.1992,32.3984"/>
<polyline fill="none" stroke="#000000" stroke-width="0.5" stroke-dasharray="0,3,1,3,1,3,1,3,1,0" points="119.52,384.48 119.52,32.3984"/>
<polyline fill="none" stroke="#000000" stroke-width="0.5" stroke-dasharray="0,3,1,3,1,3,1,3,1,0" points="141.84,384.48 141.84,32.3984"/>
<polyline fill="none" stroke="#000000" stroke-width="0.5" stroke-dasharray="0,3,1,3,1,3,1,3,1,0" points="164.16,384.48 164.16,32.3984"/>
<polyline fill="none" stroke="#000000" stroke-width="0.5" stroke-dasharray="0,3,1,3,1,3,1,3,1,0" points="208.801,384.48 208.801,32.3984"/>
<polyline fill="none" stroke="#000000" stroke-width="0.5" stroke-dasharray="0,3,1,3,1,3,1,3,1,0" points="231.121,384.48 231.121,32.3984"/>
<polyline fill="none" stroke="#000000" stroke-width="0.5" stroke-dasharray="0,3,1,3,1,3,1,3,1,0" points="253.441,384.48 253.441,32.3984"/>
<polyline fill="none" stroke="#000000" stroke-width="0.5" stroke-dasharray="0,3,1,3,1,3,1,3,1,0" points="275.762,384.48 275.762,32.3984"/>
<polyline fill="none" stroke="#000000" stroke-width="0.5" stroke-dasharray="0,3,1,3,1,3,1,3,1,0" points="320.398,384.48 320.398,32.3984"/>
<polyline fill="none" stroke="#000000" stroke-width="0.5" stroke-dasharray="0,3,1,3,1,3,1,3,1,0" points="342.719,384.48 342.719,32.3984"/>
<polyline fill="none" stroke="#000000" stroke-width="0.5" stroke-dasharray="0,3,1,3,1,3,1,3,1,0" points="365.039,384.48 365.039,32.3984"/>
<polyline fill="none" stroke="#000000" stroke-width="0.5" stroke-dasharray="0,3,1,3,1,3,1,3,1,0" points="387.359,384.48 387.359,32.3984"/>
<polyline fill="none" stroke="#000000" stroke-width="0.5" stroke-dasharray="0,3,1,3,1,3,1,3,1,0" points="432,384.48 432,32.3984"/>
<polyline fill="none" stroke="#000000" stroke-width="0.5" stroke-dasharray="0,3,1,3,1,3,1,3,1,0" points="454.32,384.48 454.32,32.3984"/>
<polyline fill="none" stroke="#000000" stroke-width="0.5" stroke-dasharray="0,3,1,3,1,3,1,3,1,0" points="476.641,384.48 476.641,32.3984"/>
<polyline fill="none" stroke="#000000" stroke-width="0.5" stroke-dasharray="0,3,1,3,1,3,1,3,1,0" points="498.961,384.48 498.961,32.3984"/>
<polyline fill="none" stroke="#000000" stroke-width="0.5" stroke-dasharray="0,3,1,3,1,3,1,3,1,0" points="74.8789,384.48 521.281,384.48"/>
<polyline fill="none" stroke="#000000" stroke-width="0.5" stroke-dasharray="0,3,1,3,1,3,1,3,1,0" points="74.8789,325.801 521.281,325.801"/>
<polyline fill="none" stroke="#000000" stroke-width="0.5" stroke-dasharray="0,3,1,3,1,3,1,3,1,0" points="74.8789,267.121 521.281,267.121"/>
<polyline fill="none" stroke="#000000" stroke-width="0.5" stroke-dasharray="0,3,1,3,1,3,1,3,1,0" points="74.8789,208.441 521.281,208.441"/>
<polyline fill="none" stroke="#000000" stroke-width="0.5" stroke-dasharray="0,3,1,3,1,3,1,3,1,0" points="74.8789,149.762 521.281,149.762"/>
<polyline fill="none" stroke="#000000" stroke-width="0.5" stroke-dasharray="0,3,1,3,1,3,1,3,1,0" points="74.8789,91.0781 521.281,91.0781"/>
<polyline fill="none" stroke="#000000" stroke-width="0.5" stroke-dasharray="0,3,1,3,1,3,1,3,1,0" points="74.8789,32.3984 521.281,32.3984"/>
<polyline fill="none" stroke="#000000" stroke-width="0.5" stroke-dasharray="16,0" points="74.8789,384.48 81.8867,384.48"/>
<polyline fill="none" stroke="#000000" stroke-width="0.5" stroke-dasharray="16,0" points="521.281,384.48 514.273,384.48"/>
<polyline fill="none" stroke="#000000" stroke-width="0.5" stroke-dasharray="16,0" points="74.8789,325.801 81.8867,325.801"/>
<polyline fill="none" stroke="#000000" stroke-width="0.5" stroke-dasharray="16,0" points="521.281,325.801 514.273,325.801"/>
<polyline fill="none" stroke="#000000" stroke-width="0.5" stroke-dasharray="16,0" points="74.8789,267.121 81.8867,267.121"/>
<polyline fill="none" stroke="#000000" stroke-width="0.5" stroke-dasharray="16,0" points="521.281,267.121 514.273,267.121"/>
<polyline fill="none" stroke="#000000" stroke-width="0.5" stroke-dasharray="16,0" points="74.8789,208.441 81.8867,208.441"/>
<polyline fill="none" stroke="#000000" stroke-width="0.5" stroke-dasharray="16,0" points="521.281,208.441 514.273,208.441"/>
<polyline fill="none" stroke="#000000" stroke-width="0.5" stroke-dasharray="16,0" points="74.8789,149.762 81.8867,149.762"/>
<polyline fill="none" stroke="#000000" stroke-width="0.5" stroke-dasharray="16,0" points="521.281,149.762 514.273,149.762"/>
<polyline fill="none" stroke="#000000" stroke-width="0.5" stroke-dasharray="16,0" points="74.8789,91.0781 81.8867,91.0781"/>
<polyline fill="none" stroke="#000000" stroke-width="0.5" stroke-dasharray="16,0" points="521.281,91.0781 514.273,91.0781"/>
<polyline fill="none" stroke="#000000" stroke-width="0.5" stroke-dasharray="16,0" points="74.8789,32.3984 81.8867,32.3984"/>
<polyline fill="none" stroke="#000000" stroke-width="0.5" stroke-dasharray="16,0" points="521.281,32.3984 514.273,32.3984"/>
<polyline fill="none" stroke="#000000" stroke-width="0.5" stroke-dasharray="0,3,1,3,1,3,1,3,1,0" points="74.8789,372.742 521.281,372.742"/>
<polyline fill="none" stroke="#000000" stroke-width="0.5" stroke-dasharray="0,3,1,3,1,3,1,3,1,0" points="74.8789,361.008 521.281,361.008"/>
<polyline fill="none" stroke="#000000" stroke-width="0.5" stroke-dasharray="0,3,1,3,1,3,1,3,1,0" points="74.8789,349.273 521.281,349.273"/>
<polyline fill="none" stroke="#000000" stroke-width="0.5" stroke-dasharray="0,3,1,3,1,3,1,3,1,0" points="74.8789,337.535 521.281,337.535"/>
<polyline fill="none" stroke="#000000" stroke-width="0.5" stroke-dasharray="0,3,1,3,1,3,1,3,1,0" points="74.8789,314.062 521.281,314.062"/>
<polyline fill="none" stroke="#000000" stroke-width="0.5" stroke-dasharray="0,3,1,3,1,3,1,3,1,0" points="74.8789,302.328 521.281,302.328"/>
<polyline fill="none" stroke="#000000" stroke-width="0.5" stroke-dasharray="0,3,1,3,1,3,1,3,1,0" points="74.8789,290.594 521.281,290.594"/>
<polyline fill="none" stroke="#000000" stroke-width="0.5" stroke-dasharray="0,3,1,3,1,3,1,3,1,0" points="74.8789,278.855 521.281,278.855"/>
<polyline fill="none" stroke="#000000" stroke-width="0.5" stroke-dasharray="0,3,1,3,1,3,1,3,1,0" points="74.8789,255.383 521.281,255.383"/>
<polyline fill="none" stroke="#000000" stroke-width="0.5" stroke-dasharray="0,3,1,3,1,3,1,3,1,0" points="74.8789,243.648 521.281,243.648"/>
<polyline fill="none" stroke="#000000" stroke-width="0.5" stroke-dasharray="0,3,1,3,1,3,1,3,1,0" points="74.8789,231.91 521.281,231.91"/>
<polyline fill="none" stroke="#000000" stroke-width="0.5" stroke-dasharray="0,3,1,3,1,3,1,3,1,0" points="74.8789,220.176 521.281,220.176"/>
<polyline fill="none" stroke="#000000" stroke-width="0.5" stroke-dasharray="0,3,1,3,1,3,1,3,1,0" points="74.8789,196.703 521.281,196.703"/>
<polyline fill="none" stroke="#000000" stroke-width="0.5" stroke-dasharray="0,3,1,3,1,3,1,3,1,0" points="74.8789,184.969 521.281,184.969"/>
<polyline fill="none" stroke="#000000" stroke-width="0.5" stroke-dasharray="0,3,1,3,1,3,1,3,1,0" points="74.8789,173.23 521.281,173.23"/>
<polyline fill="none" stroke="#000000" stroke-width="0.5" stroke-dasharray="0,3,1,3,1,3,1,3,1,0" points="74.8789,161.496 521.281,161.496"/>
<polyline fill="none" stroke="#000000" stroke-width="0.5" stroke-dasharray="0,3,1,3,1,3,1,3,1,0" points="74.8789,138.023 521.281,138.023"/>
<polyline fill="none" stroke="#000000" stroke-width="0.5" stroke-dasharray="0,3,1,3,1,3,1,3,1,0" points="74.8789,126.289 521.281,126.289"/>
<polyline fill="none" stroke="#000000" stroke-width="0.5" stroke-dasharray="0,3,1,3,1,3,1,3,1,0" points="74.8789,114.551 521.281,114.551"/>
<polyline fill="none" stroke="#000000" stroke-width="0.5" stroke-dasharray="0,3,1,3,1,3,1,3,1,0" points="74.8789,102.816 521.281,102.816"/>
<polyline fill="none" stroke="#000000" stroke-width="0.5" stroke-dasharray="0,3,1,3,1,3,1,3,1,0" points="74.8789,79.3438 521.281,79.3438"/>
<polyline fill="none" stroke="#000000" stroke-width="0.5" stroke-dasharray="0,3,1,3,1,3,1,3,1,0" points="74.8789,67.6094 521.281,67.6094"/>
<polyline fill="none" stroke="#000000" stroke-width="0.5" stroke-dasharray="0,3,1,3,1,3,1,3,1,0" points="74.8789,55.8711 521.281,55.8711"/>
<polyline fill="none" stroke="#000000" stroke-width="0.5" stroke-dasharray="0,3,1,3,1,3,1,3,1,0" points="74.8789,44.1367 521.281,44.1367"/>
<polyline fill="none" stroke="#ff0000" stroke-width="1.5" points="75.9961,66.4336 77.1133,66.4336 78.2266,66.4336 79.3438,66.4336 80.4609,66.4336 81.5742,66.4336 82.6914,66.4336 83.8086,66.4336 84.9258,66.4336 86.0391,66.4336 87.1562,66.4336 88.2734,66.4336 89.3867,66.4336 90.5039,66.4336 91.6211,66.4336 92.7344,66.4336 93.8516,66.4336 94.9688,66.4336 96.0859,66.4336 97.1992,66.4336 98.3164,66.4336 99.4336,66.4336 100.547,66.4336 101.664,66.4336 102.781,66.4336 103.895,66.4336 105.012,66.4336 106.129,66.4336 107.242,66.4336 108.359,66.4336 109.477,66.4336 110.594,66.4336 111.707,66.4336 112.824,66.4336 113.941,66.4336 115.055,66.4336 116.172,66.4336 117.289,66.4336 118.402,66.4336 119.52,66.4336 120.637,66.4336 121.754,66.4336 122.867,66.4336 123.984,66.4336 125.102,66.4336 126.215,66.4336 127.332,66.4336 128.449,66.4336 129.562,66.4336 130.68,66.4336 131.797,66.4336 132.91,66.4336 134.027,66.4336 135.145,66.4336 136.262,66.4336 137.375,66.4336 138.492,66.4336 139.609,66.4336 140.723,66.4336 141.84,66.4336 142.957,66.4336 144.07,66.4336 145.188,66.4336 146.305,66.4336 147.422,66.4336 148.535,66.4336 149.652,66.4336 150.77,66.4336 151.883,66.4336 153,66.4336 154.117,66.4336 155.23,66.4336 156.348,66.4336 157.465,66.4336 158.578,66.4336 159.695,66.4336 160.812,66.4336 161.93,66.4336 163.043,66.4336 164.16,66.4336 165.277,66.4336 166.391,66.4336 167.508,66.4336 168.625,66.4336 169.738,66.4336 170.855,66.4336 171.973,66.4336 173.09,66.4336 174.203,66.4336 175.32,66.4336 176.438,66.4336 177.551,66.4336 178.668,66.4336 179.785,66.4336 180.898,66.4336 182.016,66.4336 183.133,66.4336 184.246,66.4336 185.363,66.4336 186.48,66.4336 187.598,66.4336 188.711,66.4336 189.828,66.4336 190.945,66.4336 192.059,66.4336 193.176,66.4336 194.293,66.4336 195.406,66.4336 196.523,66.4336 197.641,66.4336 198.758,66.4336 199.871,66.4336 200.988,66.4336 202.105,66.4336 203.219,66.4336 204.336,66.4336 205.453,66.4336 206.566,66.4336 207.684,66.4336 208.801,66.4336 209.914,66.4336 211.031,66.4336 212.148,66.4336 213.266,66.4336 214.379,66.4336 215.496,66.4336 216.613,66.4336 217.727,66.4336 218.844,66.4336 219.961,66.4336 221.074,66.4336 222.191,66.4336 223.309,66.4336 224.426,66.4336 225.539,66.4336 226.656,66.4336 227.773,66.4336 228.887,66.4336 230.004,66.4336 231.121,66.4336 232.234,66.4336 233.352,66.4336 234.469,66.4336 235.586,66.4336 236.699,66.4336 237.816,66.4336 238.934,66.4336 240.047,66.4336 241.164,66.4336 242.281,351.621 243.395,375.09 244.512,375.09 245.629,351.621 246.742,375.09 247.859,376.266 248.977,351.621 250.094,376.266 251.207,376.266 252.324,351.621 253.441,377.438 254.555,66.4336 255.672,66.4336 256.789,66.4336 257.902,66.4336 259.02,66.4336 260.137,66.4336 261.254,66.4336 262.367,66.4336 263.484,66.4336 264.602,66.4336 265.715,66.4336 266.832,66.4336 267.949,66.4336 269.062,66.4336 270.18,66.4336 271.297,66.4336 272.41,66.4336 273.527,66.4336 274.645,66.4336 275.762,66.4336 276.875,66.4336 277.992,66.4336 279.109,66.4336 280.223,66.4336 281.34,66.4336 282.457,66.4336 283.57,66.4336 284.688,66.4336 285.805,66.4336 286.922,66.4336 288.035,66.4336 289.152,66.4336 290.27,66.4336 291.383,66.4336 292.5,66.4336 293.617,66.4336 294.73,66.4336 295.848,66.4336 296.965,66.4336 298.078,66.4336 299.195,66.4336 300.312,66.4336 301.43,66.4336 302.543,66.4336 303.66,66.4336 304.777,66.4336 305.891,66.4336 307.008,66.4336 308.125,66.4336 309.238,66.4336 310.355,66.4336 311.473,66.4336 312.59,66.4336 313.703,66.4336 314.82,66.4336 315.938,66.4336 317.051,66.4336 318.168,66.4336 319.285,66.4336 320.398,66.4336 321.516,66.4336 322.633,66.4336 323.746,66.4336 324.863,66.4336 325.98,66.4336 327.098,66.4336 328.211,66.4336 329.328,66.4336 330.445,66.4336 331.559,66.4336 332.676,66.4336 333.793,66.4336 334.906,66.4336 336.023,66.4336 337.141,66.4336 338.258,66.4336 339.371,66.4336 340.488,66.4336 341.605,66.4336 342.719,66.4336 343.836,66.4336 344.953,66.4336 346.066,66.4336 347.184,66.4336 348.301,66.4336 349.414,66.4336 350.531,66.4336 351.648,66.4336 352.766,66.4336 353.879,66.4336 354.996,66.4336 356.113,66.4336 357.227,66.4336 358.344,66.4336 359.461,66.4336 360.574,66.4336 361.691,66.4336 362.809,66.4336 363.926,66.4336 365.039,66.4336 366.156,66.4336 367.273,66.4336 368.387,66.4336 369.504,66.4336 370.621,66.4336 371.734,66.4336 372.852,66.4336 373.969,66.4336 375.082,66.4336 376.199,66.4336 377.316,66.4336 378.434,66.4336 379.547,66.4336 380.664,66.4336 381.781,66.4336 382.895,66.4336 384.012,66.4336 385.129,66.4336 386.242,66.4336 387.359,66.4336 388.477,66.4336 389.594,66.4336 390.707,66.4336 391.824,66.4336 392.941,66.4336 394.055,66.4336 395.172,66.4336 396.289,66.4336 397.402,66.4336 398.52,66.4336 399.637,66.4336 400.75,66.4336 401.867,66.4336 402.984,66.4336 404.102,66.4336 405.215,66.4336 406.332,66.4336 407.449,66.4336 408.562,66.4336 409.68,66.4336 410.797,66.4336 411.91,66.4336 413.027,66.4336 414.145,66.4336 415.262,66.4336 416.375,66.4336 417.492,66.4336 418.609,66.4336 419.723,66.4336 420.84,66.4336 421.957,66.4336 423.07,66.4336 424.188,66.4336 425.305,66.4336 426.422,66.4336 427.535,66.4336 428.652,66.4336 429.77,66.4336 430.883,66.4336 432,66.4336 433.117,66.4336 434.23,66.4336 435.348,66.4336 436.465,66.4336 437.578,350.445 438.695,298.809 439.812,376.266 440.93,352.793 442.043,301.156 443.16,376.266 444.277,352.793 445.391,298.809 446.508,377.438 447.625,352.793 448.738,299.98 449.855,378.613 450.973,351.621 452.09,298.809 453.203,378.613 454.32,352.793 455.438,352.793 456.551,379.785 457.668,351.621 458.785,66.4336 459.898,66.4336 461.016,66.4336 462.133,66.4336 463.246,66.4336 464.363,66.4336 465.48,66.4336 466.598,66.4336 467.711,66.4336 468.828,66.4336 469.945,66.4336 471.059,66.4336 472.176,66.4336 473.293,66.4336 474.406,66.4336 475.523,66.4336 476.641,66.4336"/>
<polyline fill="none" stroke="#000000" stroke-width="0.5" stroke-dasharray="16,0" points="521.281,384.48 521.281,384.48"/>
<polyline fill="none" stroke="#000000" stroke-width="0.5" stroke-dasharray="16,0" points="74.8789,384.48 74.8789,384.48"/>
<polyline fill="none" stroke="#000000" stroke-width="0.5" stroke-dasharray="16,0" points="74.8789,32.3984 74.8789,32.3984"/>
<polyline fill="none" stroke="#000000" stroke-width="0.5" stroke-dasharray="16,0" points="521.281,32.3984 521.281,32.3984"/>
<text fill="#000000" x="298.08" y="22.4" font-size="10" text-anchor="middle" baseline-shift="0" font-family="Helvetica">Microwave Siemens (phase angle)</text>
<polyline fill="none" stroke="#000000" stroke-width="0.5" stroke-dasharray="16,0" points="521.281,384.48 521.281,32.3984"/>
<polyline fill="none" stroke="#000000" stroke-width="0.5" stroke-dasharray="16,0" points="74.8789,384.48 74.8789,32.3984 521.281,32.3984"/>
<polyline fill="none" stroke="#000000" stroke-width="0.5" stroke-dasharray="16,0" points="74.8789,384.48 521.281,384.48"/>
</g>
</svg>
