<?xml version="1.0" encoding="UTF-8" standalone="no"?>
<svg xmlns="http://www.w3.org/2000/svg"
     xmlns:xlink="http://www.w3.org/1999/xlink"
     width="576px" height="432px" viewBox="0 0 576 432">
<title>glps_renderer figure</title>
<desc>
Creator: GL2PS 1.3.5, (C) 1999-2009 C. Geuzaine
For: Octave
CreationDate: Wed Feb 15 13:53:31 2012
</desc>
<defs>
</defs>
<g shape-rendering="crispEdges">
<text fill="#000000" x="298.08" y="389.481" font-size="10" text-anchor="middle" baseline-shift="-10" font-family="Helvetica">200</text>
<text fill="#000000" x="409.68" y="389.481" font-size="10" text-anchor="middle" baseline-shift="-10" font-family="Helvetica">300</text>
<text fill="#000000" x="521.28" y="389.481" font-size="10" text-anchor="middle" baseline-shift="-10" font-family="Helvetica">400</text>
<text fill="#000000" x="69.8755" y="384.48" font-size="10" text-anchor="end" baseline-shift="-5" font-family="Helvetica">-100</text>
<text fill="#000000" x="69.8755" y="325.8" font-size="10" text-anchor="end" baseline-shift="-5" font-family="Helvetica">0</text>
<text fill="#000000" x="69.8755" y="267.12" font-size="10" text-anchor="end" baseline-shift="-5" font-family="Helvetica">100</text>
<text fill="#000000" x="74.88" y="389.481" font-size="10" text-anchor="middle" baseline-shift="-10" font-family="Helvetica">0</text>
<text fill="#000000" x="186.48" y="389.481" font-size="10" text-anchor="middle" baseline-shift="-10" font-family="Helvetica">100</text>
<text fill="#000000" x="69.8755" y="208.44" font-size="10" text-anchor="end" baseline-shift="-5" font-family="Helvetica">200</text>
<text fill="#000000" x="69.8755" y="149.76" font-size="10" text-anchor="end" baseline-shift="-5" font-family="Helvetica">300</text>
<text fill="#000000" x="69.8755" y="91.08" font-size="10" text-anchor="end" baseline-shift="-5" font-family="Helvetica">400</text>
<text fill="#000000" x="69.8755" y="32.4" font-size="10" text-anchor="end" baseline-shift="-5" font-family="Helvetica">500</text>
<text fill="#000000" x="298.08" y="402.481" font-size="10" text-anchor="middle" baseline-shift="-10" font-family="Helvetica">time (10 seconds per unit)</text>
<text fill="#000000" x="48.8755" y="208.44" font-size="10" transform="rotate(-90, 48.8755, 208.44)" text-anchor="middle" baseline-shift="0" font-family="Helvetica">volt-ampere reactive (var)</text>
<polyline fill="none" stroke="#000000" stroke-width="0.5" stroke-dasharray="16,0" points="74.8789,32.3984 521.281,32.3984"/>
<polyline fill="none" stroke="#000000" stroke-width="0.5" stroke-dasharray="16,0" points="74.8789,384.48 74.8789,32.3984"/>
<polyline fill="none" stroke="#000000" stroke-width="0.5" stroke-dasharray="16,0" points="521.281,384.48 521.281,32.3984"/>
<polyline fill="none" stroke="#000000" stroke-width="0.5" stroke-dasharray="0,3,1,3,1,3,1,3,1,0" points="74.8789,384.48 74.8789,32.3984"/>
<polyline fill="none" stroke="#000000" stroke-width="0.5" stroke-dasharray="0,3,1,3,1,3,1,3,1,0" points="186.48,384.48 186.48,32.3984"/>
<polyline fill="none" stroke="#000000" stroke-width="0.5" stroke-dasharray="0,3,1,3,1,3,1,3,1,0" points="298.078,384.48 298.078,32.3984"/>
<polyline fill="none" stroke="#000000" stroke-width="0.5" stroke-dasharray="0,3,1,3,1,3,1,3,1,0" points="409.68,384.48 409.68,32.3984"/>
<polyline fill="none" stroke="#000000" stroke-width="0.5" stroke-dasharray="16,0" points="74.8789,384.48 521.281,384.48"/>
<polyline fill="none" stroke="#000000" stroke-width="0.5" stroke-dasharray="0,3,1,3,1,3,1,3,1,0" points="521.281,384.48 521.281,32.3984"/>
<polyline fill="none" stroke="#000000" stroke-width="0.5" stroke-dasharray="16,0" points="74.8789,384.48 74.8789,377.477"/>
<polyline fill="none" stroke="#000000" stroke-width="0.5" stroke-dasharray="16,0" points="74.8789,32.3984 74.8789,39.4023"/>
<polyline fill="none" stroke="#000000" stroke-width="0.5" stroke-dasharray="16,0" points="186.48,384.48 186.48,377.477"/>
<polyline fill="none" stroke="#000000" stroke-width="0.5" stroke-dasharray="16,0" points="186.48,32.3984 186.48,39.4023"/>
<polyline fill="none" stroke="#000000" stroke-width="0.5" stroke-dasharray="16,0" points="298.078,384.48 298.078,377.477"/>
<polyline fill="none" stroke="#000000" stroke-width="0.5" stroke-dasharray="16,0" points="298.078,32.3984 298.078,39.4023"/>
<polyline fill="none" stroke="#000000" stroke-width="0.5" stroke-dasharray="16,0" points="409.68,384.48 409.68,377.477"/>
<polyline fill="none" stroke="#000000" stroke-width="0.5" stroke-dasharray="16,0" points="409.68,32.3984 409.68,39.4023"/>
<polyline fill="none" stroke="#000000" stroke-width="0.5" stroke-dasharray="16,0" points="521.281,384.48 521.281,377.477"/>
<polyline fill="none" stroke="#000000" stroke-width="0.5" stroke-dasharray="16,0" points="521.281,32.3984 521.281,39.4023"/>
<polyline fill="none" stroke="#000000" stroke-width="0.5" stroke-dasharray="0,3,1,3,1,3,1,3,1,0" points="97.1992,384.48 97.1992,32.3984"/>
<polyline fill="none" stroke="#000000" stroke-width="0.5" stroke-dasharray="0,3,1,3,1,3,1,3,1,0" points="119.52,384.48 119.52,32.3984"/>
<polyline fill="none" stroke="#000000" stroke-width="0.5" stroke-dasharray="0,3,1,3,1,3,1,3,1,0" points="141.84,384.48 141.84,32.3984"/>
<polyline fill="none" stroke="#000000" stroke-width="0.5" stroke-dasharray="0,3,1,3,1,3,1,3,1,0" points="164.16,384.48 164.16,32.3984"/>
<polyline fill="none" stroke="#000000" stroke-width="0.5" stroke-dasharray="0,3,1,3,1,3,1,3,1,0" points="208.801,384.48 208.801,32.3984"/>
<polyline fill="none" stroke="#000000" stroke-width="0.5" stroke-dasharray="0,3,1,3,1,3,1,3,1,0" points="231.121,384.48 231.121,32.3984"/>
<polyline fill="none" stroke="#000000" stroke-width="0.5" stroke-dasharray="0,3,1,3,1,3,1,3,1,0" points="253.441,384.48 253.441,32.3984"/>
<polyline fill="none" stroke="#000000" stroke-width="0.5" stroke-dasharray="0,3,1,3,1,3,1,3,1,0" points="275.762,384.48 275.762,32.3984"/>
<polyline fill="none" stroke="#000000" stroke-width="0.5" stroke-dasharray="0,3,1,3,1,3,1,3,1,0" points="320.398,384.48 320.398,32.3984"/>
<polyline fill="none" stroke="#000000" stroke-width="0.5" stroke-dasharray="0,3,1,3,1,3,1,3,1,0" points="342.719,384.48 342.719,32.3984"/>
<polyline fill="none" stroke="#000000" stroke-width="0.5" stroke-dasharray="0,3,1,3,1,3,1,3,1,0" points="365.039,384.48 365.039,32.3984"/>
<polyline fill="none" stroke="#000000" stroke-width="0.5" stroke-dasharray="0,3,1,3,1,3,1,3,1,0" points="387.359,384.48 387.359,32.3984"/>
<polyline fill="none" stroke="#000000" stroke-width="0.5" stroke-dasharray="0,3,1,3,1,3,1,3,1,0" points="432,384.48 432,32.3984"/>
<polyline fill="none" stroke="#000000" stroke-width="0.5" stroke-dasharray="0,3,1,3,1,3,1,3,1,0" points="454.32,384.48 454.32,32.3984"/>
<polyline fill="none" stroke="#000000" stroke-width="0.5" stroke-dasharray="0,3,1,3,1,3,1,3,1,0" points="476.641,384.48 476.641,32.3984"/>
<polyline fill="none" stroke="#000000" stroke-width="0.5" stroke-dasharray="0,3,1,3,1,3,1,3,1,0" points="498.961,384.48 498.961,32.3984"/>
<polyline fill="none" stroke="#000000" stroke-width="0.5" stroke-dasharray="0,3,1,3,1,3,1,3,1,0" points="74.8789,384.48 521.281,384.48"/>
<polyline fill="none" stroke="#000000" stroke-width="0.5" stroke-dasharray="0,3,1,3,1,3,1,3,1,0" points="74.8789,325.801 521.281,325.801"/>
<polyline fill="none" stroke="#000000" stroke-width="0.5" stroke-dasharray="0,3,1,3,1,3,1,3,1,0" points="74.8789,267.121 521.281,267.121"/>
<polyline fill="none" stroke="#000000" stroke-width="0.5" stroke-dasharray="0,3,1,3,1,3,1,3,1,0" points="74.8789,208.441 521.281,208.441"/>
<polyline fill="none" stroke="#000000" stroke-width="0.5" stroke-dasharray="0,3,1,3,1,3,1,3,1,0" points="74.8789,149.762 521.281,149.762"/>
<polyline fill="none" stroke="#000000" stroke-width="0.5" stroke-dasharray="0,3,1,3,1,3,1,3,1,0" points="74.8789,91.0781 521.281,91.0781"/>
<polyline fill="none" stroke="#000000" stroke-width="0.5" stroke-dasharray="0,3,1,3,1,3,1,3,1,0" points="74.8789,32.3984 521.281,32.3984"/>
<polyline fill="none" stroke="#000000" stroke-width="0.5" stroke-dasharray="16,0" points="74.8789,384.48 81.8867,384.48"/>
<polyline fill="none" stroke="#000000" stroke-width="0.5" stroke-dasharray="16,0" points="521.281,384.48 514.273,384.48"/>
<polyline fill="none" stroke="#000000" stroke-width="0.5" stroke-dasharray="16,0" points="74.8789,325.801 81.8867,325.801"/>
<polyline fill="none" stroke="#000000" stroke-width="0.5" stroke-dasharray="16,0" points="521.281,325.801 514.273,325.801"/>
<polyline fill="none" stroke="#000000" stroke-width="0.5" stroke-dasharray="16,0" points="74.8789,267.121 81.8867,267.121"/>
<polyline fill="none" stroke="#000000" stroke-width="0.5" stroke-dasharray="16,0" points="521.281,267.121 514.273,267.121"/>
<polyline fill="none" stroke="#000000" stroke-width="0.5" stroke-dasharray="16,0" points="74.8789,208.441 81.8867,208.441"/>
<polyline fill="none" stroke="#000000" stroke-width="0.5" stroke-dasharray="16,0" points="521.281,208.441 514.273,208.441"/>
<polyline fill="none" stroke="#000000" stroke-width="0.5" stroke-dasharray="16,0" points="74.8789,149.762 81.8867,149.762"/>
<polyline fill="none" stroke="#000000" stroke-width="0.5" stroke-dasharray="16,0" points="521.281,149.762 514.273,149.762"/>
<polyline fill="none" stroke="#000000" stroke-width="0.5" stroke-dasharray="16,0" points="74.8789,91.0781 81.8867,91.0781"/>
<polyline fill="none" stroke="#000000" stroke-width="0.5" stroke-dasharray="16,0" points="521.281,91.0781 514.273,91.0781"/>
<polyline fill="none" stroke="#000000" stroke-width="0.5" stroke-dasharray="16,0" points="74.8789,32.3984 81.8867,32.3984"/>
<polyline fill="none" stroke="#000000" stroke-width="0.5" stroke-dasharray="16,0" points="521.281,32.3984 514.273,32.3984"/>
<polyline fill="none" stroke="#000000" stroke-width="0.5" stroke-dasharray="0,3,1,3,1,3,1,3,1,0" points="74.8789,372.742 521.281,372.742"/>
<polyline fill="none" stroke="#000000" stroke-width="0.5" stroke-dasharray="0,3,1,3,1,3,1,3,1,0" points="74.8789,361.008 521.281,361.008"/>
<polyline fill="none" stroke="#000000" stroke-width="0.5" stroke-dasharray="0,3,1,3,1,3,1,3,1,0" points="74.8789,349.273 521.281,349.273"/>
<polyline fill="none" stroke="#000000" stroke-width="0.5" stroke-dasharray="0,3,1,3,1,3,1,3,1,0" points="74.8789,337.535 521.281,337.535"/>
<polyline fill="none" stroke="#000000" stroke-width="0.5" stroke-dasharray="0,3,1,3,1,3,1,3,1,0" points="74.8789,314.062 521.281,314.062"/>
<polyline fill="none" stroke="#000000" stroke-width="0.5" stroke-dasharray="0,3,1,3,1,3,1,3,1,0" points="74.8789,302.328 521.281,302.328"/>
<polyline fill="none" stroke="#000000" stroke-width="0.5" stroke-dasharray="0,3,1,3,1,3,1,3,1,0" points="74.8789,290.594 521.281,290.594"/>
<polyline fill="none" stroke="#000000" stroke-width="0.5" stroke-dasharray="0,3,1,3,1,3,1,3,1,0" points="74.8789,278.855 521.281,278.855"/>
<polyline fill="none" stroke="#000000" stroke-width="0.5" stroke-dasharray="0,3,1,3,1,3,1,3,1,0" points="74.8789,255.383 521.281,255.383"/>
<polyline fill="none" stroke="#000000" stroke-width="0.5" stroke-dasharray="0,3,1,3,1,3,1,3,1,0" points="74.8789,243.648 521.281,243.648"/>
<polyline fill="none" stroke="#000000" stroke-width="0.5" stroke-dasharray="0,3,1,3,1,3,1,3,1,0" points="74.8789,231.91 521.281,231.91"/>
<polyline fill="none" stroke="#000000" stroke-width="0.5" stroke-dasharray="0,3,1,3,1,3,1,3,1,0" points="74.8789,220.176 521.281,220.176"/>
<polyline fill="none" stroke="#000000" stroke-width="0.5" stroke-dasharray="0,3,1,3,1,3,1,3,1,0" points="74.8789,196.703 521.281,196.703"/>
<polyline fill="none" stroke="#000000" stroke-width="0.5" stroke-dasharray="0,3,1,3,1,3,1,3,1,0" points="74.8789,184.969 521.281,184.969"/>
<polyline fill="none" stroke="#000000" stroke-width="0.5" stroke-dasharray="0,3,1,3,1,3,1,3,1,0" points="74.8789,173.23 521.281,173.23"/>
<polyline fill="none" stroke="#000000" stroke-width="0.5" stroke-dasharray="0,3,1,3,1,3,1,3,1,0" points="74.8789,161.496 521.281,161.496"/>
<polyline fill="none" stroke="#000000" stroke-width="0.5" stroke-dasharray="0,3,1,3,1,3,1,3,1,0" points="74.8789,138.023 521.281,138.023"/>
<polyline fill="none" stroke="#000000" stroke-width="0.5" stroke-dasharray="0,3,1,3,1,3,1,3,1,0" points="74.8789,126.289 521.281,126.289"/>
<polyline fill="none" stroke="#000000" stroke-width="0.5" stroke-dasharray="0,3,1,3,1,3,1,3,1,0" points="74.8789,114.551 521.281,114.551"/>
<polyline fill="none" stroke="#000000" stroke-width="0.5" stroke-dasharray="0,3,1,3,1,3,1,3,1,0" points="74.8789,102.816 521.281,102.816"/>
<polyline fill="none" stroke="#000000" stroke-width="0.5" stroke-dasharray="0,3,1,3,1,3,1,3,1,0" points="74.8789,79.3438 521.281,79.3438"/>
<polyline fill="none" stroke="#000000" stroke-width="0.5" stroke-dasharray="0,3,1,3,1,3,1,3,1,0" points="74.8789,67.6094 521.281,67.6094"/>
<polyline fill="none" stroke="#000000" stroke-width="0.5" stroke-dasharray="0,3,1,3,1,3,1,3,1,0" points="74.8789,55.8711 521.281,55.8711"/>
<polyline fill="none" stroke="#000000" stroke-width="0.5" stroke-dasharray="0,3,1,3,1,3,1,3,1,0" points="74.8789,44.1367 521.281,44.1367"/>
<polyline fill="none" stroke="#ff0000" stroke-width="1.5" points="75.9961,329.16 77.1133,329.16 78.2266,329.16 79.3438,329.16 80.4609,329.16 81.5742,329.16 82.6914,329.16 83.8086,329.16 84.9258,329.16 86.0391,329.16 87.1562,329.16 88.2734,329.16 89.3867,329.16 90.5039,329.16 91.6211,329.098 92.7344,329.098 93.8516,329.098 94.9688,329.098 96.0859,329.098 97.1992,329.098 98.3164,329.098 99.4336,329.098 100.547,329.098 101.664,329.098 102.781,329.035 103.895,329.035 105.012,329.035 106.129,329.035 107.242,329.035 108.359,329.035 109.477,329.035 110.594,329.035 111.707,329.035 112.824,329.035 113.941,329.035 115.055,329.035 116.172,329.035 117.289,329.035 118.402,329.035 119.52,329.035 120.637,329.035 121.754,329.035 122.867,329.035 123.984,329.035 125.102,329.035 126.215,329.035 127.332,329.035 128.449,329.035 129.562,329.035 130.68,329.035 131.797,329.035 132.91,329.035 134.027,329.035 135.145,329.035 136.262,329.035 137.375,329.035 138.492,329.035 139.609,329.035 140.723,329.035 141.84,329.035 142.957,329.035 144.07,329.035 145.188,329.035 146.305,329.035 147.422,329.035 148.535,329.035 149.652,329.035 150.77,329.035 151.883,329.035 153,329.035 154.117,329.035 155.23,329.035 156.348,329.035 157.465,329.035 158.578,329.035 159.695,329.035 160.812,329.035 161.93,329.035 163.043,329.035 164.16,329.035 165.277,329.035 166.391,329.035 167.508,329.035 168.625,329.035 169.738,329.035 170.855,329.035 171.973,329.035 173.09,329.035 174.203,329.035 175.32,329.035 176.438,329.035 177.551,329.035 178.668,329.035 179.785,329.035 180.898,329.035 182.016,329.035 183.133,329.035 184.246,329.035 185.363,329.035 186.48,329.035 187.598,329.035 188.711,329.035 189.828,329.035 190.945,329.035 192.059,328.977 193.176,329.035 194.293,329.035 195.406,329.035 196.523,329.035 197.641,329.035 198.758,329.035 199.871,329.035 200.988,329.035 202.105,329.035 203.219,329.035 204.336,329.035 205.453,329.035 206.566,329.035 207.684,329.035 208.801,328.977 209.914,329.035 211.031,329.035 212.148,329.035 213.266,329.035 214.379,329.035 215.496,329.035 216.613,329.035 217.727,329.035 218.844,329.035 219.961,329.035 221.074,329.035 222.191,329.035 223.309,329.035 224.426,329.035 225.539,329.035 226.656,329.035 227.773,329.035 228.887,329.035 230.004,329.035 231.121,329.035 232.234,329.035 233.352,329.035 234.469,329.035 235.586,329.035 236.699,329.035 237.816,329.035 238.934,329.035 240.047,329.035 241.164,329.035 242.281,311.938 243.395,222.402 244.512,216.234 245.629,312.242 246.742,222.098 247.859,230.523 248.977,312.426 250.094,236.633 251.207,239.195 252.324,312.547 253.441,245.242 254.555,329.035 255.672,329.035 256.789,329.035 257.902,329.035 259.02,329.035 260.137,329.035 261.254,329.035 262.367,328.977 263.484,329.035 264.602,328.977 265.715,329.035 266.832,328.852 267.949,328.852 269.062,328.852 270.18,329.035 271.297,328.977 272.41,329.035 273.527,328.977 274.645,329.035 275.762,329.035 276.875,328.977 277.992,328.977 279.109,328.977 280.223,329.035 281.34,328.977 282.457,328.977 283.57,329.035 284.688,328.977 285.805,328.977 286.922,328.977 288.035,328.977 289.152,328.977 290.27,328.977 291.383,328.977 292.5,329.035 293.617,328.977 294.73,328.977 295.848,328.977 296.965,328.977 298.078,329.035 299.195,328.977 300.312,328.977 301.43,328.977 302.543,329.035 303.66,329.035 304.777,329.035 305.891,329.035 307.008,329.035 308.125,329.035 309.238,329.035 310.355,329.035 311.473,329.035 312.59,329.035 313.703,329.035 314.82,329.035 315.938,329.035 317.051,329.035 318.168,329.035 319.285,329.035 320.398,329.035 321.516,329.035 322.633,329.035 323.746,329.035 324.863,329.035 325.98,329.035 327.098,329.035 328.211,329.035 329.328,329.035 330.445,329.035 331.559,329.035 332.676,329.035 333.793,329.035 334.906,329.035 336.023,329.035 337.141,329.035 338.258,329.035 339.371,329.035 340.488,329.035 341.605,329.035 342.719,329.035 343.836,329.035 344.953,329.035 346.066,329.035 347.184,329.035 348.301,329.035 349.414,329.035 350.531,329.035 351.648,329.035 352.766,329.035 353.879,329.035 354.996,329.035 356.113,329.035 357.227,329.035 358.344,329.035 359.461,329.035 360.574,329.035 361.691,329.035 362.809,329.035 363.926,329.035 365.039,329.035 366.156,329.035 367.273,329.035 368.387,329.035 369.504,329.035 370.621,329.035 371.734,329.035 372.852,329.035 373.969,329.035 375.082,329.035 376.199,329.035 377.316,329.035 378.434,329.035 379.547,329.035 380.664,329.035 381.781,329.035 382.895,329.035 384.012,329.035 385.129,329.035 386.242,329.035 387.359,329.035 388.477,329.035 389.594,329.035 390.707,329.035 391.824,329.035 392.941,329.035 394.055,329.035 395.172,329.035 396.289,329.035 397.402,329.035 398.52,329.035 399.637,329.035 400.75,329.035 401.867,329.035 402.984,329.035 404.102,329.035 405.215,329.035 406.332,329.035 407.449,329.035 408.562,329.035 409.68,329.035 410.797,329.035 411.91,329.035 413.027,329.035 414.145,329.035 415.262,329.035 416.375,329.035 417.492,329.035 418.609,329.035 419.723,329.035 420.84,329.035 421.957,329.035 423.07,329.035 424.188,329.035 425.305,329.035 426.422,329.035 427.535,329.035 428.652,329.035 429.77,329.035 430.883,329.035 432,329.035 433.117,329.035 434.23,329.035 435.348,329.035 436.465,329.035 437.578,311.812 438.695,35.8828 439.812,231.746 440.93,312.059 442.043,38.1406 443.16,241.395 444.277,312.426 445.391,42.1133 446.508,250.312 447.625,312.426 448.738,43.0273 449.855,258.129 450.973,312.609 452.09,44.1289 453.203,265.703 454.32,312.668 455.438,42.5391 456.551,272.973 457.668,312.668 458.785,329.035 459.898,329.035 461.016,329.035 462.133,329.035 463.246,329.035 464.363,329.035 465.48,329.035 466.598,329.035 467.711,329.035 468.828,329.035 469.945,329.035 471.059,329.035 472.176,329.035 473.293,329.035 474.406,329.035 475.523,328.977 476.641,329.035"/>
<polyline fill="none" stroke="#000000" stroke-width="0.5" stroke-dasharray="16,0" points="521.281,384.48 521.281,384.48"/>
<polyline fill="none" stroke="#000000" stroke-width="0.5" stroke-dasharray="16,0" points="74.8789,384.48 74.8789,384.48"/>
<polyline fill="none" stroke="#000000" stroke-width="0.5" stroke-dasharray="16,0" points="74.8789,32.3984 74.8789,32.3984"/>
<polyline fill="none" stroke="#000000" stroke-width="0.5" stroke-dasharray="16,0" points="521.281,32.3984 521.281,32.3984"/>
<text fill="#000000" x="298.08" y="22.4" font-size="10" text-anchor="middle" baseline-shift="0" font-family="Helvetica">Microwave Siemens (reactive power)</text>
<polyline fill="none" stroke="#000000" stroke-width="0.5" stroke-dasharray="16,0" points="521.281,384.48 521.281,32.3984"/>
<polyline fill="none" stroke="#000000" stroke-width="0.5" stroke-dasharray="16,0" points="74.8789,384.48 74.8789,32.3984 521.281,32.3984"/>
<polyline fill="none" stroke="#000000" stroke-width="0.5" stroke-dasharray="16,0" points="74.8789,384.48 521.281,384.48"/>
</g>
</svg>
