<?xml version="1.0" encoding="UTF-8" standalone="no"?>
<svg xmlns="http://www.w3.org/2000/svg"
     xmlns:xlink="http://www.w3.org/1999/xlink"
     width="576px" height="432px" viewBox="0 0 576 432">
<title>glps_renderer figure</title>
<desc>
Creator: GL2PS 1.3.5, (C) 1999-2009 C. Geuzaine
For: Octave
CreationDate: Fri Dec 23 15:27:53 2011
</desc>
<defs>
</defs>
<g shape-rendering="crispEdges">
<text fill="#000000" x="298.08" y="389.481" font-size="10" text-anchor="middle" baseline-shift="-10" font-family="Helvetica">200</text>
<text fill="#000000" x="409.68" y="389.481" font-size="10" text-anchor="middle" baseline-shift="-10" font-family="Helvetica">300</text>
<text fill="#000000" x="521.28" y="389.481" font-size="10" text-anchor="middle" baseline-shift="-10" font-family="Helvetica">400</text>
<text fill="#000000" x="69.8755" y="384.48" font-size="10" text-anchor="end" baseline-shift="-5" font-family="Helvetica">-5</text>
<text fill="#000000" x="69.8755" y="314.064" font-size="10" text-anchor="end" baseline-shift="-5" font-family="Helvetica">-4</text>
<text fill="#000000" x="69.8755" y="243.648" font-size="10" text-anchor="end" baseline-shift="-5" font-family="Helvetica">-3</text>
<text fill="#000000" x="74.88" y="389.481" font-size="10" text-anchor="middle" baseline-shift="-10" font-family="Helvetica">0</text>
<text fill="#000000" x="186.48" y="389.481" font-size="10" text-anchor="middle" baseline-shift="-10" font-family="Helvetica">100</text>
<text fill="#000000" x="69.8755" y="173.232" font-size="10" text-anchor="end" baseline-shift="-5" font-family="Helvetica">-2</text>
<text fill="#000000" x="69.8755" y="102.816" font-size="10" text-anchor="end" baseline-shift="-5" font-family="Helvetica">-1</text>
<text fill="#000000" x="69.8755" y="32.4" font-size="10" text-anchor="end" baseline-shift="-5" font-family="Helvetica">0</text>
<text fill="#000000" x="298.08" y="402.481" font-size="10" text-anchor="middle" baseline-shift="-10" font-family="Helvetica">time (10 seconds per unit)</text>
<text fill="#000000" x="60.8755" y="208.44" font-size="10" transform="rotate(-90, 60.8755, 208.44)" text-anchor="middle" baseline-shift="0" font-family="Helvetica">volt-ampere reactive (var)</text>
<polyline fill="none" stroke="#000000" stroke-width="0.5" stroke-dasharray="16,0" points="74.8789,32.3984 521.281,32.3984"/>
<polyline fill="none" stroke="#000000" stroke-width="0.5" stroke-dasharray="16,0" points="74.8789,384.48 74.8789,32.3984"/>
<polyline fill="none" stroke="#000000" stroke-width="0.5" stroke-dasharray="16,0" points="521.281,384.48 521.281,32.3984"/>
<polyline fill="none" stroke="#000000" stroke-width="0.5" stroke-dasharray="0,3,1,3,1,3,1,3,1,0" points="74.8789,384.48 74.8789,32.3984"/>
<polyline fill="none" stroke="#000000" stroke-width="0.5" stroke-dasharray="0,3,1,3,1,3,1,3,1,0" points="186.48,384.48 186.48,32.3984"/>
<polyline fill="none" stroke="#000000" stroke-width="0.5" stroke-dasharray="0,3,1,3,1,3,1,3,1,0" points="298.078,384.48 298.078,32.3984"/>
<polyline fill="none" stroke="#000000" stroke-width="0.5" stroke-dasharray="0,3,1,3,1,3,1,3,1,0" points="409.68,384.48 409.68,32.3984"/>
<polyline fill="none" stroke="#000000" stroke-width="0.5" stroke-dasharray="16,0" points="74.8789,384.48 521.281,384.48"/>
<polyline fill="none" stroke="#000000" stroke-width="0.5" stroke-dasharray="0,3,1,3,1,3,1,3,1,0" points="521.281,384.48 521.281,32.3984"/>
<polyline fill="none" stroke="#000000" stroke-width="0.5" stroke-dasharray="16,0" points="74.8789,384.48 74.8789,377.477"/>
<polyline fill="none" stroke="#000000" stroke-width="0.5" stroke-dasharray="16,0" points="74.8789,32.3984 74.8789,39.4023"/>
<polyline fill="none" stroke="#000000" stroke-width="0.5" stroke-dasharray="16,0" points="186.48,384.48 186.48,377.477"/>
<polyline fill="none" stroke="#000000" stroke-width="0.5" stroke-dasharray="16,0" points="186.48,32.3984 186.48,39.4023"/>
<polyline fill="none" stroke="#000000" stroke-width="0.5" stroke-dasharray="16,0" points="298.078,384.48 298.078,377.477"/>
<polyline fill="none" stroke="#000000" stroke-width="0.5" stroke-dasharray="16,0" points="298.078,32.3984 298.078,39.4023"/>
<polyline fill="none" stroke="#000000" stroke-width="0.5" stroke-dasharray="16,0" points="409.68,384.48 409.68,377.477"/>
<polyline fill="none" stroke="#000000" stroke-width="0.5" stroke-dasharray="16,0" points="409.68,32.3984 409.68,39.4023"/>
<polyline fill="none" stroke="#000000" stroke-width="0.5" stroke-dasharray="16,0" points="521.281,384.48 521.281,377.477"/>
<polyline fill="none" stroke="#000000" stroke-width="0.5" stroke-dasharray="16,0" points="521.281,32.3984 521.281,39.4023"/>
<polyline fill="none" stroke="#000000" stroke-width="0.5" stroke-dasharray="0,3,1,3,1,3,1,3,1,0" points="97.1992,384.48 97.1992,32.3984"/>
<polyline fill="none" stroke="#000000" stroke-width="0.5" stroke-dasharray="0,3,1,3,1,3,1,3,1,0" points="119.52,384.48 119.52,32.3984"/>
<polyline fill="none" stroke="#000000" stroke-width="0.5" stroke-dasharray="0,3,1,3,1,3,1,3,1,0" points="141.84,384.48 141.84,32.3984"/>
<polyline fill="none" stroke="#000000" stroke-width="0.5" stroke-dasharray="0,3,1,3,1,3,1,3,1,0" points="164.16,384.48 164.16,32.3984"/>
<polyline fill="none" stroke="#000000" stroke-width="0.5" stroke-dasharray="0,3,1,3,1,3,1,3,1,0" points="208.801,384.48 208.801,32.3984"/>
<polyline fill="none" stroke="#000000" stroke-width="0.5" stroke-dasharray="0,3,1,3,1,3,1,3,1,0" points="231.121,384.48 231.121,32.3984"/>
<polyline fill="none" stroke="#000000" stroke-width="0.5" stroke-dasharray="0,3,1,3,1,3,1,3,1,0" points="253.441,384.48 253.441,32.3984"/>
<polyline fill="none" stroke="#000000" stroke-width="0.5" stroke-dasharray="0,3,1,3,1,3,1,3,1,0" points="275.762,384.48 275.762,32.3984"/>
<polyline fill="none" stroke="#000000" stroke-width="0.5" stroke-dasharray="0,3,1,3,1,3,1,3,1,0" points="320.398,384.48 320.398,32.3984"/>
<polyline fill="none" stroke="#000000" stroke-width="0.5" stroke-dasharray="0,3,1,3,1,3,1,3,1,0" points="342.719,384.48 342.719,32.3984"/>
<polyline fill="none" stroke="#000000" stroke-width="0.5" stroke-dasharray="0,3,1,3,1,3,1,3,1,0" points="365.039,384.48 365.039,32.3984"/>
<polyline fill="none" stroke="#000000" stroke-width="0.5" stroke-dasharray="0,3,1,3,1,3,1,3,1,0" points="387.359,384.48 387.359,32.3984"/>
<polyline fill="none" stroke="#000000" stroke-width="0.5" stroke-dasharray="0,3,1,3,1,3,1,3,1,0" points="432,384.48 432,32.3984"/>
<polyline fill="none" stroke="#000000" stroke-width="0.5" stroke-dasharray="0,3,1,3,1,3,1,3,1,0" points="454.32,384.48 454.32,32.3984"/>
<polyline fill="none" stroke="#000000" stroke-width="0.5" stroke-dasharray="0,3,1,3,1,3,1,3,1,0" points="476.641,384.48 476.641,32.3984"/>
<polyline fill="none" stroke="#000000" stroke-width="0.5" stroke-dasharray="0,3,1,3,1,3,1,3,1,0" points="498.961,384.48 498.961,32.3984"/>
<polyline fill="none" stroke="#000000" stroke-width="0.5" stroke-dasharray="0,3,1,3,1,3,1,3,1,0" points="74.8789,384.48 521.281,384.48"/>
<polyline fill="none" stroke="#000000" stroke-width="0.5" stroke-dasharray="0,3,1,3,1,3,1,3,1,0" points="74.8789,314.062 521.281,314.062"/>
<polyline fill="none" stroke="#000000" stroke-width="0.5" stroke-dasharray="0,3,1,3,1,3,1,3,1,0" points="74.8789,243.648 521.281,243.648"/>
<polyline fill="none" stroke="#000000" stroke-width="0.5" stroke-dasharray="0,3,1,3,1,3,1,3,1,0" points="74.8789,173.23 521.281,173.23"/>
<polyline fill="none" stroke="#000000" stroke-width="0.5" stroke-dasharray="0,3,1,3,1,3,1,3,1,0" points="74.8789,102.816 521.281,102.816"/>
<polyline fill="none" stroke="#000000" stroke-width="0.5" stroke-dasharray="0,3,1,3,1,3,1,3,1,0" points="74.8789,32.3984 521.281,32.3984"/>
<polyline fill="none" stroke="#000000" stroke-width="0.5" stroke-dasharray="16,0" points="74.8789,384.48 81.8867,384.48"/>
<polyline fill="none" stroke="#000000" stroke-width="0.5" stroke-dasharray="16,0" points="521.281,384.48 514.273,384.48"/>
<polyline fill="none" stroke="#000000" stroke-width="0.5" stroke-dasharray="16,0" points="74.8789,314.062 81.8867,314.062"/>
<polyline fill="none" stroke="#000000" stroke-width="0.5" stroke-dasharray="16,0" points="521.281,314.062 514.273,314.062"/>
<polyline fill="none" stroke="#000000" stroke-width="0.5" stroke-dasharray="16,0" points="74.8789,243.648 81.8867,243.648"/>
<polyline fill="none" stroke="#000000" stroke-width="0.5" stroke-dasharray="16,0" points="521.281,243.648 514.273,243.648"/>
<polyline fill="none" stroke="#000000" stroke-width="0.5" stroke-dasharray="16,0" points="74.8789,173.23 81.8867,173.23"/>
<polyline fill="none" stroke="#000000" stroke-width="0.5" stroke-dasharray="16,0" points="521.281,173.23 514.273,173.23"/>
<polyline fill="none" stroke="#000000" stroke-width="0.5" stroke-dasharray="16,0" points="74.8789,102.816 81.8867,102.816"/>
<polyline fill="none" stroke="#000000" stroke-width="0.5" stroke-dasharray="16,0" points="521.281,102.816 514.273,102.816"/>
<polyline fill="none" stroke="#000000" stroke-width="0.5" stroke-dasharray="16,0" points="74.8789,32.3984 81.8867,32.3984"/>
<polyline fill="none" stroke="#000000" stroke-width="0.5" stroke-dasharray="16,0" points="521.281,32.3984 514.273,32.3984"/>
<polyline fill="none" stroke="#000000" stroke-width="0.5" stroke-dasharray="0,3,1,3,1,3,1,3,1,0" points="74.8789,370.398 521.281,370.398"/>
<polyline fill="none" stroke="#000000" stroke-width="0.5" stroke-dasharray="0,3,1,3,1,3,1,3,1,0" points="74.8789,356.312 521.281,356.312"/>
<polyline fill="none" stroke="#000000" stroke-width="0.5" stroke-dasharray="0,3,1,3,1,3,1,3,1,0" points="74.8789,342.23 521.281,342.23"/>
<polyline fill="none" stroke="#000000" stroke-width="0.5" stroke-dasharray="0,3,1,3,1,3,1,3,1,0" points="74.8789,328.148 521.281,328.148"/>
<polyline fill="none" stroke="#000000" stroke-width="0.5" stroke-dasharray="0,3,1,3,1,3,1,3,1,0" points="74.8789,299.98 521.281,299.98"/>
<polyline fill="none" stroke="#000000" stroke-width="0.5" stroke-dasharray="0,3,1,3,1,3,1,3,1,0" points="74.8789,285.898 521.281,285.898"/>
<polyline fill="none" stroke="#000000" stroke-width="0.5" stroke-dasharray="0,3,1,3,1,3,1,3,1,0" points="74.8789,271.812 521.281,271.812"/>
<polyline fill="none" stroke="#000000" stroke-width="0.5" stroke-dasharray="0,3,1,3,1,3,1,3,1,0" points="74.8789,257.73 521.281,257.73"/>
<polyline fill="none" stroke="#000000" stroke-width="0.5" stroke-dasharray="0,3,1,3,1,3,1,3,1,0" points="74.8789,229.566 521.281,229.566"/>
<polyline fill="none" stroke="#000000" stroke-width="0.5" stroke-dasharray="0,3,1,3,1,3,1,3,1,0" points="74.8789,215.48 521.281,215.48"/>
<polyline fill="none" stroke="#000000" stroke-width="0.5" stroke-dasharray="0,3,1,3,1,3,1,3,1,0" points="74.8789,201.398 521.281,201.398"/>
<polyline fill="none" stroke="#000000" stroke-width="0.5" stroke-dasharray="0,3,1,3,1,3,1,3,1,0" points="74.8789,187.316 521.281,187.316"/>
<polyline fill="none" stroke="#000000" stroke-width="0.5" stroke-dasharray="0,3,1,3,1,3,1,3,1,0" points="74.8789,159.148 521.281,159.148"/>
<polyline fill="none" stroke="#000000" stroke-width="0.5" stroke-dasharray="0,3,1,3,1,3,1,3,1,0" points="74.8789,145.066 521.281,145.066"/>
<polyline fill="none" stroke="#000000" stroke-width="0.5" stroke-dasharray="0,3,1,3,1,3,1,3,1,0" points="74.8789,130.98 521.281,130.98"/>
<polyline fill="none" stroke="#000000" stroke-width="0.5" stroke-dasharray="0,3,1,3,1,3,1,3,1,0" points="74.8789,116.898 521.281,116.898"/>
<polyline fill="none" stroke="#000000" stroke-width="0.5" stroke-dasharray="0,3,1,3,1,3,1,3,1,0" points="74.8789,88.7344 521.281,88.7344"/>
<polyline fill="none" stroke="#000000" stroke-width="0.5" stroke-dasharray="0,3,1,3,1,3,1,3,1,0" points="74.8789,74.6484 521.281,74.6484"/>
<polyline fill="none" stroke="#000000" stroke-width="0.5" stroke-dasharray="0,3,1,3,1,3,1,3,1,0" points="74.8789,60.5664 521.281,60.5664"/>
<polyline fill="none" stroke="#000000" stroke-width="0.5" stroke-dasharray="0,3,1,3,1,3,1,3,1,0" points="74.8789,46.4844 521.281,46.4844"/>
<polyline fill="none" stroke="#ff0000" stroke-width="1.5" points="75.9961,120.277 77.1133,120.277 78.2266,120.277 79.3438,134.996 80.4609,112.957 81.5742,112.957 82.6914,105.633 83.8086,112.957 84.9258,105.633 86.0391,127.672 87.1562,134.996 88.2734,156.965 89.3867,120.277 90.5039,120.277 91.6211,120.277 92.7344,127.672 93.8516,120.277 94.9688,120.277 96.0859,127.672 97.1992,134.996 98.3164,112.957 99.4336,112.957 100.547,112.957 101.664,112.957 102.781,105.633 103.895,105.633 105.012,105.633 106.129,98.3086 107.242,112.957 108.359,105.633 109.477,112.957 110.594,98.3086 111.707,98.3086 112.824,105.633 113.941,98.3086 115.055,98.3086 116.172,98.3086 117.289,98.3086 118.402,105.633 119.52,98.3086 120.637,105.633 121.754,98.3086 122.867,112.957 123.984,105.633 125.102,112.957 126.215,127.672 127.332,112.957 128.449,112.957 129.562,112.957 130.68,120.277 131.797,120.277 132.91,120.277 134.027,127.672 135.145,127.672 136.262,120.277 137.375,112.957 138.492,105.633 139.609,112.957 140.723,105.633 141.84,105.633 142.957,105.633 144.07,98.3086 145.188,105.633 146.305,112.957 147.422,105.633 148.535,105.633 149.652,105.633 150.77,105.633 151.883,98.3086 153,98.3086 154.117,90.9844 155.23,98.3086 156.348,98.3086 157.465,98.3086 158.578,105.633 159.695,98.3086 160.812,90.9844 161.93,98.3086 163.043,105.633 164.16,98.3086 165.277,98.3086 166.391,83.6641 167.508,98.3086 168.625,98.3086 169.738,105.633 170.855,105.633 171.973,120.277 173.09,112.957 174.203,112.957 175.32,112.957 176.438,120.277 177.551,105.633 178.668,112.957 179.785,112.957 180.898,98.3086 182.016,112.957 183.133,112.957 184.246,127.672 185.363,120.277 186.48,120.277 187.598,347.512 188.711,347.512 189.828,186.258 190.945,171.613 192.059,171.613 193.176,164.289 194.293,164.289 195.406,164.289 196.523,164.289 197.641,171.613 198.758,120.277 199.871,120.277 200.988,112.957 202.105,127.672 203.219,120.277 204.336,112.957 205.453,120.277 206.566,112.957 207.684,105.633 208.801,112.957 209.914,112.957 211.031,112.957 212.148,112.957 213.266,120.277 214.379,120.277 215.496,171.613 216.613,164.289 217.727,164.289 218.844,149.645 219.961,149.645 221.074,149.645 222.191,142.32 223.309,149.645 224.426,156.965 225.539,178.938 226.656,156.965 227.773,156.965 228.887,134.996 230.004,156.965 231.121,149.645 232.234,134.996 233.352,142.32 234.469,142.32 235.586,149.645 236.699,149.645 237.816,120.277 238.934,134.996 240.047,127.672 241.164,134.996 242.281,164.289 243.395,127.672 244.512,149.645 245.629,156.965 246.742,134.996 247.859,149.645 248.977,142.32 250.094,156.965 251.207,127.672 252.324,142.32 253.441,142.32 254.555,149.645 255.672,156.965 256.789,142.32 257.902,127.672 259.02,120.277 260.137,120.277 261.254,112.957 262.367,112.957 263.484,112.957 264.602,120.277 265.715,112.957 266.832,244.914 267.949,178.938 269.062,127.672 270.18,127.672 271.297,156.965 272.41,186.258 273.527,178.938 274.645,171.613 275.762,178.938 276.875,171.613 277.992,171.613 279.109,156.965 280.223,178.938 281.34,171.613 282.457,156.965 283.57,164.289 284.688,164.289 285.805,171.613 286.922,156.965 288.035,149.645 289.152,186.258 290.27,120.277 291.383,105.633 292.5,105.633 293.617,112.957 294.73,105.633 295.848,112.957 296.965,171.613 298.078,120.277 299.195,120.277 300.312,112.957 301.43,112.957 302.543,112.957 303.66,112.957 304.777,105.633 305.891,98.3086 307.008,105.633 308.125,105.633 309.238,112.957 310.355,105.633 311.473,105.633 312.59,105.633 313.703,105.633 314.82,90.9844 315.938,98.3086 317.051,105.633 318.168,105.633 319.285,105.633 320.398,98.3086 321.516,98.3086 322.633,105.633 323.746,98.3086 324.863,105.633 325.98,98.3086 327.098,105.633 328.211,105.633 329.328,98.3086 330.445,105.633 331.559,98.3086 332.676,105.633 333.793,112.957 334.906,105.633 336.023,105.633 337.141,112.957 338.258,98.3086 339.371,105.633 340.488,112.957 341.605,105.633 342.719,105.633 343.836,112.957 344.953,105.633 346.066,112.957 347.184,120.277 348.301,105.633 349.414,105.633 350.531,112.957 351.648,105.633 352.766,98.3086 353.879,98.3086 354.996,90.9844 356.113,105.633 357.227,112.957 358.344,105.633 359.461,112.957 360.574,112.957 361.691,98.3086 362.809,105.633 363.926,105.633 365.039,98.3086 366.156,98.3086 367.273,112.957 368.387,98.3086 369.504,105.633 370.621,120.277 371.734,105.633 372.852,105.633 373.969,112.957 375.082,112.957 376.199,120.277 377.316,105.633 378.434,105.633 379.547,98.3086 380.664,105.633 381.781,98.3086 382.895,288.855 384.012,164.289 385.129,142.32 386.242,164.289 387.359,149.645 388.477,127.672 389.594,127.672 390.707,127.672 391.824,127.672 392.941,120.277 394.055,127.672 395.172,112.957 396.289,120.277 397.402,134.996 398.52,281.531 399.637,171.613 400.75,186.258 401.867,164.289 402.984,178.938 404.102,186.258 405.215,164.289 406.332,171.613 407.449,171.613 408.562,134.996 409.68,230.27 410.797,252.238 411.91,178.938 413.027,171.613 414.145,178.938 415.262,156.965 416.375,156.965 417.492,149.645 418.609,164.289 419.723,164.289 420.84,156.965 421.957,142.32 423.07,156.965 424.188,164.289 425.305,164.289 426.422,164.289 427.535,142.32 428.652,149.645 429.77,156.965 430.883,164.289 432,134.996 433.117,149.645 434.23,164.289 435.348,156.965 436.465,127.672 437.578,142.32 438.695,149.645 439.812,149.645 440.93,142.32 442.043,142.32 443.16,142.32 444.277,134.996 445.391,134.996 446.508,127.672 447.625,149.645 448.738,142.32 449.855,171.613 450.973,149.645 452.09,149.645 453.203,149.645 454.32,178.938 455.438,149.645 456.551,120.277 457.668,142.32 458.785,105.633 459.898,98.3086 461.016,90.9844 462.133,90.9844 463.246,98.3086 464.363,90.9844 465.48,120.277 466.598,83.6641 467.711,90.9844 468.828,83.6641 469.945,83.6641 471.059,83.6641 472.176,83.6641 473.293,83.6641 474.406,83.6641 475.523,83.6641"/>
<polyline fill="none" stroke="#000000" stroke-width="0.5" stroke-dasharray="16,0" points="521.281,384.48 521.281,384.48"/>
<polyline fill="none" stroke="#000000" stroke-width="0.5" stroke-dasharray="16,0" points="74.8789,384.48 74.8789,384.48"/>
<polyline fill="none" stroke="#000000" stroke-width="0.5" stroke-dasharray="16,0" points="74.8789,32.3984 74.8789,32.3984"/>
<polyline fill="none" stroke="#000000" stroke-width="0.5" stroke-dasharray="16,0" points="521.281,32.3984 521.281,32.3984"/>
<text fill="#000000" x="298.08" y="22.4" font-size="10" text-anchor="middle" baseline-shift="0" font-family="Helvetica">Laptop Asus (reactive power)</text>
<polyline fill="none" stroke="#000000" stroke-width="0.5" stroke-dasharray="16,0" points="521.281,384.48 521.281,32.3984"/>
<polyline fill="none" stroke="#000000" stroke-width="0.5" stroke-dasharray="16,0" points="74.8789,384.48 74.8789,32.3984 521.281,32.3984"/>
<polyline fill="none" stroke="#000000" stroke-width="0.5" stroke-dasharray="16,0" points="74.8789,384.48 521.281,384.48"/>
</g>
</svg>
