<?xml version="1.0" encoding="UTF-8" standalone="no"?>
<svg xmlns="http://www.w3.org/2000/svg"
     xmlns:xlink="http://www.w3.org/1999/xlink"
     width="576px" height="432px" viewBox="0 0 576 432">
<title>glps_renderer figure</title>
<desc>
Creator: GL2PS 1.3.5, (C) 1999-2009 C. Geuzaine
For: Octave
CreationDate: Fri Dec 23 15:27:55 2011
</desc>
<defs>
</defs>
<g shape-rendering="crispEdges">
<text fill="#000000" x="298.08" y="389.482" font-size="10" text-anchor="middle" baseline-shift="-10" font-family="Helvetica">200</text>
<text fill="#000000" x="409.68" y="389.482" font-size="10" text-anchor="middle" baseline-shift="-10" font-family="Helvetica">300</text>
<text fill="#000000" x="521.28" y="389.482" font-size="10" text-anchor="middle" baseline-shift="-10" font-family="Helvetica">400</text>
<text fill="#000000" x="69.8755" y="384.48" font-size="10" text-anchor="end" baseline-shift="-5" font-family="Helvetica">232</text>
<text fill="#000000" x="69.8755" y="314.064" font-size="10" text-anchor="end" baseline-shift="-5" font-family="Helvetica">233</text>
<text fill="#000000" x="69.8755" y="243.649" font-size="10" text-anchor="end" baseline-shift="-5" font-family="Helvetica">234</text>
<text fill="#000000" x="74.88" y="389.482" font-size="10" text-anchor="middle" baseline-shift="-10" font-family="Helvetica">0</text>
<text fill="#000000" x="186.48" y="389.482" font-size="10" text-anchor="middle" baseline-shift="-10" font-family="Helvetica">100</text>
<text fill="#000000" x="69.8755" y="173.233" font-size="10" text-anchor="end" baseline-shift="-5" font-family="Helvetica">235</text>
<text fill="#000000" x="69.8755" y="102.816" font-size="10" text-anchor="end" baseline-shift="-5" font-family="Helvetica">236</text>
<text fill="#000000" x="69.8755" y="32.4" font-size="10" text-anchor="end" baseline-shift="-5" font-family="Helvetica">237</text>
<text fill="#000000" x="298.08" y="402.481" font-size="10" text-anchor="middle" baseline-shift="-10" font-family="Helvetica">time (10 seconds per unit)</text>
<text fill="#000000" x="51.8755" y="208.44" font-size="10" transform="rotate(-90, 51.8755, 208.44)" text-anchor="middle" baseline-shift="0" font-family="Helvetica">volt (V)</text>
<polyline fill="none" stroke="#000000" stroke-width="0.5" stroke-dasharray="16,0" points="74.8789,32.3984 521.281,32.3984"/>
<polyline fill="none" stroke="#000000" stroke-width="0.5" stroke-dasharray="16,0" points="74.8789,384.477 74.8789,32.3984"/>
<polyline fill="none" stroke="#000000" stroke-width="0.5" stroke-dasharray="16,0" points="521.281,384.477 521.281,32.3984"/>
<polyline fill="none" stroke="#000000" stroke-width="0.5" stroke-dasharray="0,3,1,3,1,3,1,3,1,0" points="74.8789,384.477 74.8789,32.3984"/>
<polyline fill="none" stroke="#000000" stroke-width="0.5" stroke-dasharray="0,3,1,3,1,3,1,3,1,0" points="186.48,384.477 186.48,32.3984"/>
<polyline fill="none" stroke="#000000" stroke-width="0.5" stroke-dasharray="0,3,1,3,1,3,1,3,1,0" points="298.078,384.477 298.078,32.3984"/>
<polyline fill="none" stroke="#000000" stroke-width="0.5" stroke-dasharray="0,3,1,3,1,3,1,3,1,0" points="409.68,384.477 409.68,32.3984"/>
<polyline fill="none" stroke="#000000" stroke-width="0.5" stroke-dasharray="16,0" points="74.8789,384.477 521.281,384.477"/>
<polyline fill="none" stroke="#000000" stroke-width="0.5" stroke-dasharray="0,3,1,3,1,3,1,3,1,0" points="521.281,384.477 521.281,32.3984"/>
<polyline fill="none" stroke="#000000" stroke-width="0.5" stroke-dasharray="16,0" points="74.8789,384.477 74.8789,377.477"/>
<polyline fill="none" stroke="#000000" stroke-width="0.5" stroke-dasharray="16,0" points="74.8789,32.3984 74.8789,39.3984"/>
<polyline fill="none" stroke="#000000" stroke-width="0.5" stroke-dasharray="16,0" points="186.48,384.477 186.48,377.477"/>
<polyline fill="none" stroke="#000000" stroke-width="0.5" stroke-dasharray="16,0" points="186.48,32.3984 186.48,39.3984"/>
<polyline fill="none" stroke="#000000" stroke-width="0.5" stroke-dasharray="16,0" points="298.078,384.477 298.078,377.477"/>
<polyline fill="none" stroke="#000000" stroke-width="0.5" stroke-dasharray="16,0" points="298.078,32.3984 298.078,39.3984"/>
<polyline fill="none" stroke="#000000" stroke-width="0.5" stroke-dasharray="16,0" points="409.68,384.477 409.68,377.477"/>
<polyline fill="none" stroke="#000000" stroke-width="0.5" stroke-dasharray="16,0" points="409.68,32.3984 409.68,39.3984"/>
<polyline fill="none" stroke="#000000" stroke-width="0.5" stroke-dasharray="16,0" points="521.281,384.477 521.281,377.477"/>
<polyline fill="none" stroke="#000000" stroke-width="0.5" stroke-dasharray="16,0" points="521.281,32.3984 521.281,39.3984"/>
<polyline fill="none" stroke="#000000" stroke-width="0.5" stroke-dasharray="0,3,1,3,1,3,1,3,1,0" points="97.1992,384.477 97.1992,32.3984"/>
<polyline fill="none" stroke="#000000" stroke-width="0.5" stroke-dasharray="0,3,1,3,1,3,1,3,1,0" points="119.52,384.477 119.52,32.3984"/>
<polyline fill="none" stroke="#000000" stroke-width="0.5" stroke-dasharray="0,3,1,3,1,3,1,3,1,0" points="141.84,384.477 141.84,32.3984"/>
<polyline fill="none" stroke="#000000" stroke-width="0.5" stroke-dasharray="0,3,1,3,1,3,1,3,1,0" points="164.16,384.477 164.16,32.3984"/>
<polyline fill="none" stroke="#000000" stroke-width="0.5" stroke-dasharray="0,3,1,3,1,3,1,3,1,0" points="208.801,384.477 208.801,32.3984"/>
<polyline fill="none" stroke="#000000" stroke-width="0.5" stroke-dasharray="0,3,1,3,1,3,1,3,1,0" points="231.121,384.477 231.121,32.3984"/>
<polyline fill="none" stroke="#000000" stroke-width="0.5" stroke-dasharray="0,3,1,3,1,3,1,3,1,0" points="253.441,384.477 253.441,32.3984"/>
<polyline fill="none" stroke="#000000" stroke-width="0.5" stroke-dasharray="0,3,1,3,1,3,1,3,1,0" points="275.762,384.477 275.762,32.3984"/>
<polyline fill="none" stroke="#000000" stroke-width="0.5" stroke-dasharray="0,3,1,3,1,3,1,3,1,0" points="320.398,384.477 320.398,32.3984"/>
<polyline fill="none" stroke="#000000" stroke-width="0.5" stroke-dasharray="0,3,1,3,1,3,1,3,1,0" points="342.719,384.477 342.719,32.3984"/>
<polyline fill="none" stroke="#000000" stroke-width="0.5" stroke-dasharray="0,3,1,3,1,3,1,3,1,0" points="365.039,384.477 365.039,32.3984"/>
<polyline fill="none" stroke="#000000" stroke-width="0.5" stroke-dasharray="0,3,1,3,1,3,1,3,1,0" points="387.359,384.477 387.359,32.3984"/>
<polyline fill="none" stroke="#000000" stroke-width="0.5" stroke-dasharray="0,3,1,3,1,3,1,3,1,0" points="432,384.477 432,32.3984"/>
<polyline fill="none" stroke="#000000" stroke-width="0.5" stroke-dasharray="0,3,1,3,1,3,1,3,1,0" points="454.32,384.477 454.32,32.3984"/>
<polyline fill="none" stroke="#000000" stroke-width="0.5" stroke-dasharray="0,3,1,3,1,3,1,3,1,0" points="476.641,384.477 476.641,32.3984"/>
<polyline fill="none" stroke="#000000" stroke-width="0.5" stroke-dasharray="0,3,1,3,1,3,1,3,1,0" points="498.961,384.477 498.961,32.3984"/>
<polyline fill="none" stroke="#000000" stroke-width="0.5" stroke-dasharray="0,3,1,3,1,3,1,3,1,0" points="74.8789,384.477 521.281,384.477"/>
<polyline fill="none" stroke="#000000" stroke-width="0.5" stroke-dasharray="0,3,1,3,1,3,1,3,1,0" points="74.8789,314.062 521.281,314.062"/>
<polyline fill="none" stroke="#000000" stroke-width="0.5" stroke-dasharray="0,3,1,3,1,3,1,3,1,0" points="74.8789,243.645 521.281,243.645"/>
<polyline fill="none" stroke="#000000" stroke-width="0.5" stroke-dasharray="0,3,1,3,1,3,1,3,1,0" points="74.8789,173.23 521.281,173.23"/>
<polyline fill="none" stroke="#000000" stroke-width="0.5" stroke-dasharray="0,3,1,3,1,3,1,3,1,0" points="74.8789,102.812 521.281,102.812"/>
<polyline fill="none" stroke="#000000" stroke-width="0.5" stroke-dasharray="0,3,1,3,1,3,1,3,1,0" points="74.8789,32.3984 521.281,32.3984"/>
<polyline fill="none" stroke="#000000" stroke-width="0.5" stroke-dasharray="16,0" points="74.8789,384.477 81.8867,384.477"/>
<polyline fill="none" stroke="#000000" stroke-width="0.5" stroke-dasharray="16,0" points="521.281,384.477 514.273,384.477"/>
<polyline fill="none" stroke="#000000" stroke-width="0.5" stroke-dasharray="16,0" points="74.8789,314.062 81.8867,314.062"/>
<polyline fill="none" stroke="#000000" stroke-width="0.5" stroke-dasharray="16,0" points="521.281,314.062 514.273,314.062"/>
<polyline fill="none" stroke="#000000" stroke-width="0.5" stroke-dasharray="16,0" points="74.8789,243.645 81.8867,243.645"/>
<polyline fill="none" stroke="#000000" stroke-width="0.5" stroke-dasharray="16,0" points="521.281,243.645 514.273,243.645"/>
<polyline fill="none" stroke="#000000" stroke-width="0.5" stroke-dasharray="16,0" points="74.8789,173.23 81.8867,173.23"/>
<polyline fill="none" stroke="#000000" stroke-width="0.5" stroke-dasharray="16,0" points="521.281,173.23 514.273,173.23"/>
<polyline fill="none" stroke="#000000" stroke-width="0.5" stroke-dasharray="16,0" points="74.8789,102.812 81.8867,102.812"/>
<polyline fill="none" stroke="#000000" stroke-width="0.5" stroke-dasharray="16,0" points="521.281,102.812 514.273,102.812"/>
<polyline fill="none" stroke="#000000" stroke-width="0.5" stroke-dasharray="16,0" points="74.8789,32.3984 81.8867,32.3984"/>
<polyline fill="none" stroke="#000000" stroke-width="0.5" stroke-dasharray="16,0" points="521.281,32.3984 514.273,32.3984"/>
<polyline fill="none" stroke="#000000" stroke-width="0.5" stroke-dasharray="0,3,1,3,1,3,1,3,1,0" points="74.8789,370.395 521.281,370.395"/>
<polyline fill="none" stroke="#000000" stroke-width="0.5" stroke-dasharray="0,3,1,3,1,3,1,3,1,0" points="74.8789,356.312 521.281,356.312"/>
<polyline fill="none" stroke="#000000" stroke-width="0.5" stroke-dasharray="0,3,1,3,1,3,1,3,1,0" points="74.8789,342.227 521.281,342.227"/>
<polyline fill="none" stroke="#000000" stroke-width="0.5" stroke-dasharray="0,3,1,3,1,3,1,3,1,0" points="74.8789,328.145 521.281,328.145"/>
<polyline fill="none" stroke="#000000" stroke-width="0.5" stroke-dasharray="0,3,1,3,1,3,1,3,1,0" points="74.8789,299.98 521.281,299.98"/>
<polyline fill="none" stroke="#000000" stroke-width="0.5" stroke-dasharray="0,3,1,3,1,3,1,3,1,0" points="74.8789,285.895 521.281,285.895"/>
<polyline fill="none" stroke="#000000" stroke-width="0.5" stroke-dasharray="0,3,1,3,1,3,1,3,1,0" points="74.8789,271.812 521.281,271.812"/>
<polyline fill="none" stroke="#000000" stroke-width="0.5" stroke-dasharray="0,3,1,3,1,3,1,3,1,0" points="74.8789,257.73 521.281,257.73"/>
<polyline fill="none" stroke="#000000" stroke-width="0.5" stroke-dasharray="0,3,1,3,1,3,1,3,1,0" points="74.8789,229.562 521.281,229.562"/>
<polyline fill="none" stroke="#000000" stroke-width="0.5" stroke-dasharray="0,3,1,3,1,3,1,3,1,0" points="74.8789,215.48 521.281,215.48"/>
<polyline fill="none" stroke="#000000" stroke-width="0.5" stroke-dasharray="0,3,1,3,1,3,1,3,1,0" points="74.8789,201.395 521.281,201.395"/>
<polyline fill="none" stroke="#000000" stroke-width="0.5" stroke-dasharray="0,3,1,3,1,3,1,3,1,0" points="74.8789,187.312 521.281,187.312"/>
<polyline fill="none" stroke="#000000" stroke-width="0.5" stroke-dasharray="0,3,1,3,1,3,1,3,1,0" points="74.8789,159.148 521.281,159.148"/>
<polyline fill="none" stroke="#000000" stroke-width="0.5" stroke-dasharray="0,3,1,3,1,3,1,3,1,0" points="74.8789,145.062 521.281,145.062"/>
<polyline fill="none" stroke="#000000" stroke-width="0.5" stroke-dasharray="0,3,1,3,1,3,1,3,1,0" points="74.8789,130.98 521.281,130.98"/>
<polyline fill="none" stroke="#000000" stroke-width="0.5" stroke-dasharray="0,3,1,3,1,3,1,3,1,0" points="74.8789,116.898 521.281,116.898"/>
<polyline fill="none" stroke="#000000" stroke-width="0.5" stroke-dasharray="0,3,1,3,1,3,1,3,1,0" points="74.8789,88.7305 521.281,88.7305"/>
<polyline fill="none" stroke="#000000" stroke-width="0.5" stroke-dasharray="0,3,1,3,1,3,1,3,1,0" points="74.8789,74.6484 521.281,74.6484"/>
<polyline fill="none" stroke="#000000" stroke-width="0.5" stroke-dasharray="0,3,1,3,1,3,1,3,1,0" points="74.8789,60.5664 521.281,60.5664"/>
<polyline fill="none" stroke="#000000" stroke-width="0.5" stroke-dasharray="0,3,1,3,1,3,1,3,1,0" points="74.8789,46.4805 521.281,46.4805"/>
<polyline fill="none" stroke="#ff0000" stroke-width="1.5" points="75.9961,368.352 77.1133,355.961 78.2266,320.824 79.3438,340.609 80.4609,324.484 81.5742,326.527 82.6914,336.668 83.8086,309.277 84.9258,302.586 86.0391,310.684 87.1562,322.723 88.2734,326.527 89.3867,316.035 90.5039,337.371 91.6211,321.949 92.7344,335.891 93.8516,347.371 94.9688,330.188 96.0859,328.922 97.1992,327.02 98.3164,347.863 99.4336,338.637 100.547,331.879 101.664,334.836 102.781,320.191 103.895,325.75 105.012,309.699 106.129,307.652 107.242,332.02 108.359,297.094 109.477,297.164 110.594,337.723 111.707,324.062 112.824,331.035 113.941,309.699 115.055,299.559 116.172,318.078 117.289,307.23 118.402,288.43 119.52,298.148 120.637,287.164 121.754,283.711 122.867,300.262 123.984,305.262 125.102,298.289 126.215,313.43 127.332,306.105 128.449,306.598 129.562,306.879 130.68,319.062 131.797,312.797 132.91,312.652 134.027,343.355 135.145,356.102 136.262,341.875 137.375,323.355 138.492,292.375 139.609,304.91 140.723,307.938 141.84,297.938 142.957,309.344 144.07,322.863 145.188,328.355 146.305,364.832 147.422,331.668 148.535,339.555 149.652,341.738 150.77,344.41 151.883,351.594 153,357.086 154.117,369.48 155.23,333.992 156.348,333.145 157.465,362.93 158.578,333.777 159.695,333.215 160.812,340.188 161.93,334.273 163.043,326.594 164.16,316.598 165.277,329.133 166.391,326.594 167.508,332.863 168.625,332.863 169.738,332.723 170.855,328.426 171.973,332.793 173.09,327.301 174.203,347.441 175.32,324.133 176.438,312.867 177.551,320.191 178.668,319.414 179.785,325.891 180.898,318.219 182.016,293.289 183.133,307.375 184.246,320.328 185.363,309.133 186.48,306.598 187.598,319.836 188.711,329.906 189.828,328.355 190.945,320.965 192.059,320.398 193.176,310.824 194.293,315.824 195.406,296.809 196.523,290.402 197.641,319.977 198.758,312.441 199.871,317.652 200.988,309.484 202.105,301.527 203.219,295.332 204.336,291.527 205.453,315.543 206.566,326.172 207.684,312.727 208.801,329.273 209.914,282.305 211.031,283.219 212.148,276.18 213.266,287.023 214.379,278.715 215.496,279.629 216.613,285.473 217.727,294.98 218.844,292.938 219.961,299.559 221.074,304.414 222.191,307.516 223.309,305.473 224.426,295.613 225.539,295.402 226.656,307.797 227.773,312.652 228.887,310.047 230.004,324.977 231.121,324.625 232.234,345.328 233.352,311.879 234.469,313.922 235.586,318.992 236.699,318.992 237.816,311.738 238.934,314.484 240.047,315.402 241.164,306.809 242.281,339.133 243.395,308.43 244.512,307.938 245.629,305.191 246.742,312.516 247.859,303.43 248.977,293.711 250.094,296.035 251.207,302.305 252.324,289.77 253.441,295.051 254.555,288.289 255.672,286.953 256.789,281.883 257.902,305.613 259.02,289.77 260.137,281.391 261.254,280.051 262.367,267.871 263.484,257.52 264.602,274.207 265.715,273.152 266.832,290.684 267.949,271.32 269.062,261.25 270.18,268.152 271.297,263.785 272.41,271.18 273.527,272.797 274.645,273.078 275.762,282.656 276.875,288.008 277.992,310.543 279.109,358.496 280.223,351.312 281.34,312.305 282.457,309.133 283.57,309.133 284.688,306.879 285.805,317.301 286.922,286.672 288.035,284.066 289.152,291.246 290.27,283.289 291.383,271.18 292.5,284.137 293.617,291.18 294.73,290.613 295.848,288.008 296.965,287.305 298.078,298.711 299.195,294.77 300.312,291.812 301.43,292.727 302.543,284.699 303.66,297.727 304.777,279.98 305.891,265.406 307.008,275.191 308.125,285.758 309.238,272.797 310.355,271.602 311.473,257.59 312.59,258.223 313.703,252.379 314.82,260.055 315.938,266.391 317.051,298.992 318.168,285.262 319.285,282.727 320.398,265.195 321.516,273.434 322.633,272.656 323.746,267.52 324.863,302.02 325.98,270.969 327.098,277.656 328.211,283.078 329.328,286.742 330.445,271.812 331.559,269.066 332.676,258.855 333.793,270.336 334.906,268.996 336.023,266.32 337.141,263.574 338.258,266.812 339.371,267.801 340.488,259.492 341.605,254.211 342.719,263.223 343.836,259.914 344.953,253.926 346.066,256.887 347.184,255.969 348.301,268.293 349.414,236.887 350.531,226.254 351.648,218.438 352.766,200.762 353.879,192.879 354.996,198.156 356.113,199.004 357.227,165.062 358.344,157.668 359.461,209.988 360.574,226.816 361.691,205.059 362.809,198.02 363.926,191.328 365.039,209.145 366.156,204.918 367.273,212.523 368.387,197.594 369.504,213.227 370.621,254.348 371.734,243.012 372.852,236.535 373.969,188.16 375.082,178.23 376.199,189.285 377.316,182.598 378.434,184.145 379.547,181.469 380.664,185.059 381.781,192.523 382.895,183.16 384.012,176.754 385.129,207.734 386.242,198.156 387.359,194.707 388.477,205.34 389.594,220.691 390.707,204.426 391.824,214.281 392.941,197.031 394.055,197.734 395.172,91.4062 396.289,63.1719 397.402,47.75 398.52,102.18 399.637,157.246 400.75,186.258 401.867,164.359 402.984,164.215 404.102,183.441 405.215,178.371 406.332,179.359 407.449,190.551 408.562,191.188 409.68,190.977 410.797,196.891 411.91,201.465 413.027,185.555 414.145,190.059 415.262,187.102 416.375,205.832 417.492,202.945 418.609,207.242 419.723,207.875 420.84,217.664 421.957,218.93 423.07,212.805 424.188,199.988 425.305,187.598 426.422,192.102 427.535,187.312 428.652,183.652 429.77,203.648 430.883,187.453 432,187.598 433.117,178.652 434.23,197.242 435.348,190.129 436.465,188.301 437.578,180.344 438.695,184.426 439.812,207.664 440.93,229.07 442.043,231.465 443.16,217.242 444.277,205.551 445.391,190.836 446.508,195.48 447.625,242.168 448.738,270.617 449.855,258.293 450.973,252.098 452.09,230.828 453.203,213.508 454.32,203.934 455.438,210.27 456.551,208.512 457.668,205.34 458.785,194.566 459.898,198.934 461.016,191.609 462.133,182.598 463.246,192.879 464.363,206.328 465.48,204.426 466.598,197.453 467.711,193.934 468.828,200.27 469.945,195.34 471.059,205.762 472.176,206.609 473.293,208.859 474.406,196.75 475.523,194.145"/>
<polyline fill="none" stroke="#000000" stroke-width="0.5" stroke-dasharray="16,0" points="521.281,384.477 521.281,384.477"/>
<polyline fill="none" stroke="#000000" stroke-width="0.5" stroke-dasharray="16,0" points="74.8789,384.477 74.8789,384.477"/>
<polyline fill="none" stroke="#000000" stroke-width="0.5" stroke-dasharray="16,0" points="74.8789,32.3984 74.8789,32.3984"/>
<polyline fill="none" stroke="#000000" stroke-width="0.5" stroke-dasharray="16,0" points="521.281,32.3984 521.281,32.3984"/>
<text fill="#000000" x="298.08" y="22.4008" font-size="10" text-anchor="middle" baseline-shift="0" font-family="Helvetica">Laptop Asus (RMS voltage)</text>
<polyline fill="none" stroke="#000000" stroke-width="0.5" stroke-dasharray="16,0" points="521.281,384.477 521.281,32.3984"/>
<polyline fill="none" stroke="#000000" stroke-width="0.5" stroke-dasharray="16,0" points="74.8789,384.477 74.8789,32.3984 521.281,32.3984"/>
<polyline fill="none" stroke="#000000" stroke-width="0.5" stroke-dasharray="16,0" points="74.8789,384.477 521.281,384.477"/>
</g>
</svg>
