<?xml version="1.0" encoding="UTF-8" standalone="no"?>
<svg xmlns="http://www.w3.org/2000/svg"
     xmlns:xlink="http://www.w3.org/1999/xlink"
     width="576px" height="432px" viewBox="0 0 576 432">
<title>glps_renderer figure</title>
<desc>
Creator: GL2PS 1.3.5, (C) 1999-2009 C. Geuzaine
For: Octave
CreationDate: Fri Dec 23 15:27:56 2011
</desc>
<defs>
</defs>
<g shape-rendering="crispEdges">
<text fill="#000000" x="298.08" y="389.481" font-size="10" text-anchor="middle" baseline-shift="-10" font-family="Helvetica">200</text>
<text fill="#000000" x="409.68" y="389.481" font-size="10" text-anchor="middle" baseline-shift="-10" font-family="Helvetica">300</text>
<text fill="#000000" x="521.28" y="389.481" font-size="10" text-anchor="middle" baseline-shift="-10" font-family="Helvetica">400</text>
<text fill="#000000" x="69.8755" y="384.48" font-size="10" text-anchor="end" baseline-shift="-5" font-family="Helvetica">0.14</text>
<text fill="#000000" x="69.8755" y="314.064" font-size="10" text-anchor="end" baseline-shift="-5" font-family="Helvetica">0.16</text>
<text fill="#000000" x="69.8755" y="243.648" font-size="10" text-anchor="end" baseline-shift="-5" font-family="Helvetica">0.18</text>
<text fill="#000000" x="74.88" y="389.481" font-size="10" text-anchor="middle" baseline-shift="-10" font-family="Helvetica">0</text>
<text fill="#000000" x="186.48" y="389.481" font-size="10" text-anchor="middle" baseline-shift="-10" font-family="Helvetica">100</text>
<text fill="#000000" x="69.8755" y="173.232" font-size="10" text-anchor="end" baseline-shift="-5" font-family="Helvetica">0.2</text>
<text fill="#000000" x="69.8755" y="102.816" font-size="10" text-anchor="end" baseline-shift="-5" font-family="Helvetica">0.22</text>
<text fill="#000000" x="69.8755" y="32.4001" font-size="10" text-anchor="end" baseline-shift="-5" font-family="Helvetica">0.24</text>
<text fill="#000000" x="298.08" y="402.481" font-size="10" text-anchor="middle" baseline-shift="-10" font-family="Helvetica">time (10 seconds per unit)</text>
<text fill="#000000" x="48.8755" y="208.44" font-size="10" transform="rotate(-90, 48.8755, 208.44)" text-anchor="middle" baseline-shift="0" font-family="Helvetica">ampere (A)</text>
<polyline fill="none" stroke="#000000" stroke-width="0.5" stroke-dasharray="16,0" points="74.8789,32.3984 521.281,32.3984"/>
<polyline fill="none" stroke="#000000" stroke-width="0.5" stroke-dasharray="16,0" points="74.8789,384.48 74.8789,32.3984"/>
<polyline fill="none" stroke="#000000" stroke-width="0.5" stroke-dasharray="16,0" points="521.281,384.48 521.281,32.3984"/>
<polyline fill="none" stroke="#000000" stroke-width="0.5" stroke-dasharray="0,3,1,3,1,3,1,3,1,0" points="74.8789,384.48 74.8789,32.3984"/>
<polyline fill="none" stroke="#000000" stroke-width="0.5" stroke-dasharray="0,3,1,3,1,3,1,3,1,0" points="186.48,384.48 186.48,32.3984"/>
<polyline fill="none" stroke="#000000" stroke-width="0.5" stroke-dasharray="0,3,1,3,1,3,1,3,1,0" points="298.078,384.48 298.078,32.3984"/>
<polyline fill="none" stroke="#000000" stroke-width="0.5" stroke-dasharray="0,3,1,3,1,3,1,3,1,0" points="409.68,384.48 409.68,32.3984"/>
<polyline fill="none" stroke="#000000" stroke-width="0.5" stroke-dasharray="16,0" points="74.8789,384.48 521.281,384.48"/>
<polyline fill="none" stroke="#000000" stroke-width="0.5" stroke-dasharray="0,3,1,3,1,3,1,3,1,0" points="521.281,384.48 521.281,32.3984"/>
<polyline fill="none" stroke="#000000" stroke-width="0.5" stroke-dasharray="16,0" points="74.8789,384.48 74.8789,377.477"/>
<polyline fill="none" stroke="#000000" stroke-width="0.5" stroke-dasharray="16,0" points="74.8789,32.3984 74.8789,39.4023"/>
<polyline fill="none" stroke="#000000" stroke-width="0.5" stroke-dasharray="16,0" points="186.48,384.48 186.48,377.477"/>
<polyline fill="none" stroke="#000000" stroke-width="0.5" stroke-dasharray="16,0" points="186.48,32.3984 186.48,39.4023"/>
<polyline fill="none" stroke="#000000" stroke-width="0.5" stroke-dasharray="16,0" points="298.078,384.48 298.078,377.477"/>
<polyline fill="none" stroke="#000000" stroke-width="0.5" stroke-dasharray="16,0" points="298.078,32.3984 298.078,39.4023"/>
<polyline fill="none" stroke="#000000" stroke-width="0.5" stroke-dasharray="16,0" points="409.68,384.48 409.68,377.477"/>
<polyline fill="none" stroke="#000000" stroke-width="0.5" stroke-dasharray="16,0" points="409.68,32.3984 409.68,39.4023"/>
<polyline fill="none" stroke="#000000" stroke-width="0.5" stroke-dasharray="16,0" points="521.281,384.48 521.281,377.477"/>
<polyline fill="none" stroke="#000000" stroke-width="0.5" stroke-dasharray="16,0" points="521.281,32.3984 521.281,39.4023"/>
<polyline fill="none" stroke="#000000" stroke-width="0.5" stroke-dasharray="0,3,1,3,1,3,1,3,1,0" points="97.1992,384.48 97.1992,32.3984"/>
<polyline fill="none" stroke="#000000" stroke-width="0.5" stroke-dasharray="0,3,1,3,1,3,1,3,1,0" points="119.52,384.48 119.52,32.3984"/>
<polyline fill="none" stroke="#000000" stroke-width="0.5" stroke-dasharray="0,3,1,3,1,3,1,3,1,0" points="141.84,384.48 141.84,32.3984"/>
<polyline fill="none" stroke="#000000" stroke-width="0.5" stroke-dasharray="0,3,1,3,1,3,1,3,1,0" points="164.16,384.48 164.16,32.3984"/>
<polyline fill="none" stroke="#000000" stroke-width="0.5" stroke-dasharray="0,3,1,3,1,3,1,3,1,0" points="208.801,384.48 208.801,32.3984"/>
<polyline fill="none" stroke="#000000" stroke-width="0.5" stroke-dasharray="0,3,1,3,1,3,1,3,1,0" points="231.121,384.48 231.121,32.3984"/>
<polyline fill="none" stroke="#000000" stroke-width="0.5" stroke-dasharray="0,3,1,3,1,3,1,3,1,0" points="253.441,384.48 253.441,32.3984"/>
<polyline fill="none" stroke="#000000" stroke-width="0.5" stroke-dasharray="0,3,1,3,1,3,1,3,1,0" points="275.762,384.48 275.762,32.3984"/>
<polyline fill="none" stroke="#000000" stroke-width="0.5" stroke-dasharray="0,3,1,3,1,3,1,3,1,0" points="320.398,384.48 320.398,32.3984"/>
<polyline fill="none" stroke="#000000" stroke-width="0.5" stroke-dasharray="0,3,1,3,1,3,1,3,1,0" points="342.719,384.48 342.719,32.3984"/>
<polyline fill="none" stroke="#000000" stroke-width="0.5" stroke-dasharray="0,3,1,3,1,3,1,3,1,0" points="365.039,384.48 365.039,32.3984"/>
<polyline fill="none" stroke="#000000" stroke-width="0.5" stroke-dasharray="0,3,1,3,1,3,1,3,1,0" points="387.359,384.48 387.359,32.3984"/>
<polyline fill="none" stroke="#000000" stroke-width="0.5" stroke-dasharray="0,3,1,3,1,3,1,3,1,0" points="432,384.48 432,32.3984"/>
<polyline fill="none" stroke="#000000" stroke-width="0.5" stroke-dasharray="0,3,1,3,1,3,1,3,1,0" points="454.32,384.48 454.32,32.3984"/>
<polyline fill="none" stroke="#000000" stroke-width="0.5" stroke-dasharray="0,3,1,3,1,3,1,3,1,0" points="476.641,384.48 476.641,32.3984"/>
<polyline fill="none" stroke="#000000" stroke-width="0.5" stroke-dasharray="0,3,1,3,1,3,1,3,1,0" points="498.961,384.48 498.961,32.3984"/>
<polyline fill="none" stroke="#000000" stroke-width="0.5" stroke-dasharray="0,3,1,3,1,3,1,3,1,0" points="74.8789,384.48 521.281,384.48"/>
<polyline fill="none" stroke="#000000" stroke-width="0.5" stroke-dasharray="0,3,1,3,1,3,1,3,1,0" points="74.8789,314.062 521.281,314.062"/>
<polyline fill="none" stroke="#000000" stroke-width="0.5" stroke-dasharray="0,3,1,3,1,3,1,3,1,0" points="74.8789,243.648 521.281,243.648"/>
<polyline fill="none" stroke="#000000" stroke-width="0.5" stroke-dasharray="0,3,1,3,1,3,1,3,1,0" points="74.8789,173.23 521.281,173.23"/>
<polyline fill="none" stroke="#000000" stroke-width="0.5" stroke-dasharray="0,3,1,3,1,3,1,3,1,0" points="74.8789,102.816 521.281,102.816"/>
<polyline fill="none" stroke="#000000" stroke-width="0.5" stroke-dasharray="0,3,1,3,1,3,1,3,1,0" points="74.8789,32.3984 521.281,32.3984"/>
<polyline fill="none" stroke="#000000" stroke-width="0.5" stroke-dasharray="16,0" points="74.8789,384.48 81.8867,384.48"/>
<polyline fill="none" stroke="#000000" stroke-width="0.5" stroke-dasharray="16,0" points="521.281,384.48 514.273,384.48"/>
<polyline fill="none" stroke="#000000" stroke-width="0.5" stroke-dasharray="16,0" points="74.8789,314.062 81.8867,314.062"/>
<polyline fill="none" stroke="#000000" stroke-width="0.5" stroke-dasharray="16,0" points="521.281,314.062 514.273,314.062"/>
<polyline fill="none" stroke="#000000" stroke-width="0.5" stroke-dasharray="16,0" points="74.8789,243.648 81.8867,243.648"/>
<polyline fill="none" stroke="#000000" stroke-width="0.5" stroke-dasharray="16,0" points="521.281,243.648 514.273,243.648"/>
<polyline fill="none" stroke="#000000" stroke-width="0.5" stroke-dasharray="16,0" points="74.8789,173.23 81.8867,173.23"/>
<polyline fill="none" stroke="#000000" stroke-width="0.5" stroke-dasharray="16,0" points="521.281,173.23 514.273,173.23"/>
<polyline fill="none" stroke="#000000" stroke-width="0.5" stroke-dasharray="16,0" points="74.8789,102.816 81.8867,102.816"/>
<polyline fill="none" stroke="#000000" stroke-width="0.5" stroke-dasharray="16,0" points="521.281,102.816 514.273,102.816"/>
<polyline fill="none" stroke="#000000" stroke-width="0.5" stroke-dasharray="16,0" points="74.8789,32.3984 81.8867,32.3984"/>
<polyline fill="none" stroke="#000000" stroke-width="0.5" stroke-dasharray="16,0" points="521.281,32.3984 514.273,32.3984"/>
<polyline fill="none" stroke="#000000" stroke-width="0.5" stroke-dasharray="0,3,1,3,1,3,1,3,1,0" points="74.8789,370.398 521.281,370.398"/>
<polyline fill="none" stroke="#000000" stroke-width="0.5" stroke-dasharray="0,3,1,3,1,3,1,3,1,0" points="74.8789,356.312 521.281,356.312"/>
<polyline fill="none" stroke="#000000" stroke-width="0.5" stroke-dasharray="0,3,1,3,1,3,1,3,1,0" points="74.8789,342.23 521.281,342.23"/>
<polyline fill="none" stroke="#000000" stroke-width="0.5" stroke-dasharray="0,3,1,3,1,3,1,3,1,0" points="74.8789,328.148 521.281,328.148"/>
<polyline fill="none" stroke="#000000" stroke-width="0.5" stroke-dasharray="0,3,1,3,1,3,1,3,1,0" points="74.8789,299.98 521.281,299.98"/>
<polyline fill="none" stroke="#000000" stroke-width="0.5" stroke-dasharray="0,3,1,3,1,3,1,3,1,0" points="74.8789,285.898 521.281,285.898"/>
<polyline fill="none" stroke="#000000" stroke-width="0.5" stroke-dasharray="0,3,1,3,1,3,1,3,1,0" points="74.8789,271.812 521.281,271.812"/>
<polyline fill="none" stroke="#000000" stroke-width="0.5" stroke-dasharray="0,3,1,3,1,3,1,3,1,0" points="74.8789,257.73 521.281,257.73"/>
<polyline fill="none" stroke="#000000" stroke-width="0.5" stroke-dasharray="0,3,1,3,1,3,1,3,1,0" points="74.8789,229.566 521.281,229.566"/>
<polyline fill="none" stroke="#000000" stroke-width="0.5" stroke-dasharray="0,3,1,3,1,3,1,3,1,0" points="74.8789,215.48 521.281,215.48"/>
<polyline fill="none" stroke="#000000" stroke-width="0.5" stroke-dasharray="0,3,1,3,1,3,1,3,1,0" points="74.8789,201.398 521.281,201.398"/>
<polyline fill="none" stroke="#000000" stroke-width="0.5" stroke-dasharray="0,3,1,3,1,3,1,3,1,0" points="74.8789,187.316 521.281,187.316"/>
<polyline fill="none" stroke="#000000" stroke-width="0.5" stroke-dasharray="0,3,1,3,1,3,1,3,1,0" points="74.8789,159.148 521.281,159.148"/>
<polyline fill="none" stroke="#000000" stroke-width="0.5" stroke-dasharray="0,3,1,3,1,3,1,3,1,0" points="74.8789,145.066 521.281,145.066"/>
<polyline fill="none" stroke="#000000" stroke-width="0.5" stroke-dasharray="0,3,1,3,1,3,1,3,1,0" points="74.8789,130.98 521.281,130.98"/>
<polyline fill="none" stroke="#000000" stroke-width="0.5" stroke-dasharray="0,3,1,3,1,3,1,3,1,0" points="74.8789,116.898 521.281,116.898"/>
<polyline fill="none" stroke="#000000" stroke-width="0.5" stroke-dasharray="0,3,1,3,1,3,1,3,1,0" points="74.8789,88.7344 521.281,88.7344"/>
<polyline fill="none" stroke="#000000" stroke-width="0.5" stroke-dasharray="0,3,1,3,1,3,1,3,1,0" points="74.8789,74.6484 521.281,74.6484"/>
<polyline fill="none" stroke="#000000" stroke-width="0.5" stroke-dasharray="0,3,1,3,1,3,1,3,1,0" points="74.8789,60.5664 521.281,60.5664"/>
<polyline fill="none" stroke="#000000" stroke-width="0.5" stroke-dasharray="0,3,1,3,1,3,1,3,1,0" points="74.8789,46.4844 521.281,46.4844"/>
<polyline fill="none" stroke="#ff0000" stroke-width="1.5" points="75.9961,314.062 77.1133,310.543 78.2266,299.98 79.3438,292.938 80.4609,310.543 81.5742,310.543 82.6914,317.586 83.8086,307.023 84.9258,314.062 86.0391,303.5 87.1562,296.461 88.2734,289.418 89.3867,307.023 90.5039,307.023 91.6211,307.023 92.7344,310.543 93.8516,310.543 94.9688,307.023 96.0859,310.543 97.1992,310.543 98.3164,310.543 99.4336,310.543 100.547,310.543 101.664,314.062 102.781,314.062 103.895,314.062 105.012,317.586 106.129,317.586 107.242,310.543 108.359,314.062 109.477,314.062 110.594,317.586 111.707,317.586 112.824,317.586 113.941,317.586 115.055,317.586 116.172,317.586 117.289,321.105 118.402,321.105 119.52,321.105 120.637,317.586 121.754,317.586 122.867,314.062 123.984,317.586 125.102,321.105 126.215,321.105 127.332,317.586 128.449,317.586 129.562,317.586 130.68,314.062 131.797,317.586 132.91,321.105 134.027,317.586 135.145,303.5 136.262,314.062 137.375,314.062 138.492,317.586 139.609,321.105 140.723,317.586 141.84,321.105 142.957,317.586 144.07,314.062 145.188,314.062 146.305,317.586 147.422,321.105 148.535,321.105 149.652,321.105 150.77,317.586 151.883,317.586 153,317.586 154.117,321.105 155.23,317.586 156.348,307.023 157.465,310.543 158.578,310.543 159.695,310.543 160.812,314.062 161.93,310.543 163.043,310.543 164.16,310.543 165.277,310.543 166.391,317.586 167.508,321.105 168.625,317.586 169.738,317.586 170.855,314.062 171.973,314.062 173.09,314.062 174.203,317.586 175.32,317.586 176.438,321.105 177.551,317.586 178.668,317.586 179.785,317.586 180.898,317.586 182.016,317.586 183.133,321.105 184.246,314.062 185.363,314.062 186.48,314.062 187.598,99.2969 188.711,81.6914 189.828,240.129 190.945,257.73 192.059,257.73 193.176,257.73 194.293,254.211 195.406,254.211 196.523,261.254 197.641,243.648 198.758,314.062 199.871,299.98 200.988,317.586 202.105,303.5 203.219,314.062 204.336,310.543 205.453,314.062 206.566,317.586 207.684,317.586 208.801,314.062 209.914,317.586 211.031,317.586 212.148,317.586 213.266,317.586 214.379,317.586 215.496,275.336 216.613,278.855 217.727,275.336 218.844,282.375 219.961,278.855 221.074,278.855 222.191,278.855 223.309,285.898 224.426,278.855 225.539,257.73 226.656,275.336 227.773,271.812 228.887,275.336 230.004,271.812 231.121,275.336 232.234,282.375 233.352,282.375 234.469,275.336 235.586,268.293 236.699,268.293 237.816,278.855 238.934,278.855 240.047,278.855 241.164,278.855 242.281,261.254 243.395,275.336 244.512,282.375 245.629,275.336 246.742,278.855 247.859,278.855 248.977,278.855 250.094,278.855 251.207,282.375 252.324,282.375 253.441,282.375 254.555,271.812 255.672,268.293 256.789,271.812 257.902,299.98 259.02,310.543 260.137,310.543 261.254,310.543 262.367,314.062 263.484,314.062 264.602,307.023 265.715,310.543 266.832,183.793 267.949,236.605 269.062,289.418 270.18,289.418 271.297,254.211 272.41,236.605 273.527,243.648 274.645,250.691 275.762,247.168 276.875,254.211 277.992,250.691 279.109,250.691 280.223,250.691 281.34,254.211 282.457,261.254 283.57,257.73 284.688,254.211 285.805,236.605 286.922,257.73 288.035,257.73 289.152,243.648 290.27,299.98 291.383,303.5 292.5,310.543 293.617,310.543 294.73,307.023 295.848,307.023 296.965,299.98 298.078,310.543 299.195,307.023 300.312,310.543 301.43,314.062 302.543,310.543 303.66,314.062 304.777,314.062 305.891,314.062 307.008,314.062 308.125,314.062 309.238,314.062 310.355,310.543 311.473,314.062 312.59,314.062 313.703,314.062 314.82,314.062 315.938,314.062 317.051,314.062 318.168,303.5 319.285,314.062 320.398,314.062 321.516,314.062 322.633,314.062 323.746,314.062 324.863,314.062 325.98,314.062 327.098,314.062 328.211,314.062 329.328,314.062 330.445,310.543 331.559,314.062 332.676,310.543 333.793,310.543 334.906,314.062 336.023,317.586 337.141,307.023 338.258,314.062 339.371,317.586 340.488,310.543 341.605,317.586 342.719,317.586 343.836,307.023 344.953,317.586 346.066,317.586 347.184,303.5 348.301,317.586 349.414,314.062 350.531,310.543 351.648,317.586 352.766,317.586 353.879,310.543 354.996,321.105 356.113,321.105 357.227,314.062 358.344,317.586 359.461,310.543 360.574,310.543 361.691,321.105 362.809,317.586 363.926,310.543 365.039,317.586 366.156,321.105 367.273,310.543 368.387,321.105 369.504,321.105 370.621,307.023 371.734,321.105 372.852,321.105 373.969,310.543 375.082,314.062 376.199,317.586 377.316,314.062 378.434,321.105 379.547,321.105 380.664,321.105 381.781,317.586 382.895,201.398 384.012,254.211 385.129,282.375 386.242,268.293 387.359,292.938 388.477,296.461 389.594,296.461 390.707,303.5 391.824,292.938 392.941,303.5 394.055,292.938 395.172,307.023 396.289,299.98 397.402,285.898 398.52,148.586 399.637,264.773 400.75,243.648 401.867,254.211 402.984,261.254 404.102,243.648 405.215,268.293 406.332,257.73 407.449,250.691 408.562,289.418 409.68,187.316 410.797,183.793 411.91,254.211 413.027,254.211 414.145,250.691 415.262,261.254 416.375,257.73 417.492,257.73 418.609,261.254 419.723,261.254 420.84,261.254 421.957,261.254 423.07,264.773 424.188,261.254 425.305,264.773 426.422,261.254 427.535,264.773 428.652,261.254 429.77,261.254 430.883,261.254 432,264.773 433.117,261.254 434.23,261.254 435.348,261.254 436.465,257.73 437.578,264.773 438.695,264.773 439.812,264.773 440.93,264.773 442.043,261.254 443.16,264.773 444.277,268.293 445.391,268.293 446.508,268.293 447.625,271.812 448.738,264.773 449.855,240.129 450.973,264.773 452.09,264.773 453.203,264.773 454.32,264.773 455.438,264.773 456.551,289.418 457.668,278.855 458.785,310.543 459.898,310.543 461.016,317.586 462.133,321.105 463.246,321.105 464.363,321.105 465.48,324.625 466.598,314.062 467.711,317.586 468.828,321.105 469.945,321.105 471.059,324.625 472.176,324.625 473.293,317.586 474.406,321.105 475.523,321.105"/>
<polyline fill="none" stroke="#000000" stroke-width="0.5" stroke-dasharray="16,0" points="521.281,384.48 521.281,384.48"/>
<polyline fill="none" stroke="#000000" stroke-width="0.5" stroke-dasharray="16,0" points="74.8789,384.48 74.8789,384.48"/>
<polyline fill="none" stroke="#000000" stroke-width="0.5" stroke-dasharray="16,0" points="74.8789,32.3984 74.8789,32.3984"/>
<polyline fill="none" stroke="#000000" stroke-width="0.5" stroke-dasharray="16,0" points="521.281,32.3984 521.281,32.3984"/>
<text fill="#000000" x="298.08" y="22.4" font-size="10" text-anchor="middle" baseline-shift="0" font-family="Helvetica">Laptop Asus (RMS current)</text>
<polyline fill="none" stroke="#000000" stroke-width="0.5" stroke-dasharray="16,0" points="521.281,384.48 521.281,32.3984"/>
<polyline fill="none" stroke="#000000" stroke-width="0.5" stroke-dasharray="16,0" points="74.8789,384.48 74.8789,32.3984 521.281,32.3984"/>
<polyline fill="none" stroke="#000000" stroke-width="0.5" stroke-dasharray="16,0" points="74.8789,384.48 521.281,384.48"/>
</g>
</svg>
