<?xml version="1.0" encoding="UTF-8" standalone="no"?>
<svg xmlns="http://www.w3.org/2000/svg"
     xmlns:xlink="http://www.w3.org/1999/xlink"
     width="576px" height="432px" viewBox="0 0 576 432">
<title>glps_renderer figure</title>
<desc>
Creator: GL2PS 1.3.5, (C) 1999-2009 C. Geuzaine
For: Octave
CreationDate: Tue Jan 31 15:44:45 2012
</desc>
<defs>
</defs>
<g shape-rendering="crispEdges">
<text fill="#000000" x="298.08" y="389.481" font-size="10" text-anchor="middle" baseline-shift="-10" font-family="Helvetica">200</text>
<text fill="#000000" x="409.68" y="389.481" font-size="10" text-anchor="middle" baseline-shift="-10" font-family="Helvetica">300</text>
<text fill="#000000" x="521.28" y="389.481" font-size="10" text-anchor="middle" baseline-shift="-10" font-family="Helvetica">400</text>
<text fill="#000000" x="69.8755" y="384.48" font-size="10" text-anchor="end" baseline-shift="-5" font-family="Helvetica">-35</text>
<text fill="#000000" x="69.8755" y="296.46" font-size="10" text-anchor="end" baseline-shift="-5" font-family="Helvetica">-30</text>
<text fill="#000000" x="69.8755" y="208.44" font-size="10" text-anchor="end" baseline-shift="-5" font-family="Helvetica">-25</text>
<text fill="#000000" x="74.88" y="389.481" font-size="10" text-anchor="middle" baseline-shift="-10" font-family="Helvetica">0</text>
<text fill="#000000" x="186.48" y="389.481" font-size="10" text-anchor="middle" baseline-shift="-10" font-family="Helvetica">100</text>
<text fill="#000000" x="69.8755" y="120.42" font-size="10" text-anchor="end" baseline-shift="-5" font-family="Helvetica">-20</text>
<text fill="#000000" x="69.8755" y="32.4" font-size="10" text-anchor="end" baseline-shift="-5" font-family="Helvetica">-15</text>
<text fill="#000000" x="298.08" y="402.481" font-size="10" text-anchor="middle" baseline-shift="-10" font-family="Helvetica">time (10 seconds per unit)</text>
<text fill="#000000" x="54.8755" y="208.44" font-size="10" transform="rotate(-90, 54.8755, 208.44)" text-anchor="middle" baseline-shift="0" font-family="Helvetica">volt-ampere reactive (var)</text>
<polyline fill="none" stroke="#000000" stroke-width="0.5" stroke-dasharray="16,0" points="74.8789,32.3984 521.281,32.3984"/>
<polyline fill="none" stroke="#000000" stroke-width="0.5" stroke-dasharray="16,0" points="74.8789,384.48 74.8789,32.3984"/>
<polyline fill="none" stroke="#000000" stroke-width="0.5" stroke-dasharray="16,0" points="521.281,384.48 521.281,32.3984"/>
<polyline fill="none" stroke="#000000" stroke-width="0.5" stroke-dasharray="0,3,1,3,1,3,1,3,1,0" points="74.8789,384.48 74.8789,32.3984"/>
<polyline fill="none" stroke="#000000" stroke-width="0.5" stroke-dasharray="0,3,1,3,1,3,1,3,1,0" points="186.48,384.48 186.48,32.3984"/>
<polyline fill="none" stroke="#000000" stroke-width="0.5" stroke-dasharray="0,3,1,3,1,3,1,3,1,0" points="298.078,384.48 298.078,32.3984"/>
<polyline fill="none" stroke="#000000" stroke-width="0.5" stroke-dasharray="0,3,1,3,1,3,1,3,1,0" points="409.68,384.48 409.68,32.3984"/>
<polyline fill="none" stroke="#000000" stroke-width="0.5" stroke-dasharray="16,0" points="74.8789,384.48 521.281,384.48"/>
<polyline fill="none" stroke="#000000" stroke-width="0.5" stroke-dasharray="0,3,1,3,1,3,1,3,1,0" points="521.281,384.48 521.281,32.3984"/>
<polyline fill="none" stroke="#000000" stroke-width="0.5" stroke-dasharray="16,0" points="74.8789,384.48 74.8789,377.477"/>
<polyline fill="none" stroke="#000000" stroke-width="0.5" stroke-dasharray="16,0" points="74.8789,32.3984 74.8789,39.4023"/>
<polyline fill="none" stroke="#000000" stroke-width="0.5" stroke-dasharray="16,0" points="186.48,384.48 186.48,377.477"/>
<polyline fill="none" stroke="#000000" stroke-width="0.5" stroke-dasharray="16,0" points="186.48,32.3984 186.48,39.4023"/>
<polyline fill="none" stroke="#000000" stroke-width="0.5" stroke-dasharray="16,0" points="298.078,384.48 298.078,377.477"/>
<polyline fill="none" stroke="#000000" stroke-width="0.5" stroke-dasharray="16,0" points="298.078,32.3984 298.078,39.4023"/>
<polyline fill="none" stroke="#000000" stroke-width="0.5" stroke-dasharray="16,0" points="409.68,384.48 409.68,377.477"/>
<polyline fill="none" stroke="#000000" stroke-width="0.5" stroke-dasharray="16,0" points="409.68,32.3984 409.68,39.4023"/>
<polyline fill="none" stroke="#000000" stroke-width="0.5" stroke-dasharray="16,0" points="521.281,384.48 521.281,377.477"/>
<polyline fill="none" stroke="#000000" stroke-width="0.5" stroke-dasharray="16,0" points="521.281,32.3984 521.281,39.4023"/>
<polyline fill="none" stroke="#000000" stroke-width="0.5" stroke-dasharray="0,3,1,3,1,3,1,3,1,0" points="97.1992,384.48 97.1992,32.3984"/>
<polyline fill="none" stroke="#000000" stroke-width="0.5" stroke-dasharray="0,3,1,3,1,3,1,3,1,0" points="119.52,384.48 119.52,32.3984"/>
<polyline fill="none" stroke="#000000" stroke-width="0.5" stroke-dasharray="0,3,1,3,1,3,1,3,1,0" points="141.84,384.48 141.84,32.3984"/>
<polyline fill="none" stroke="#000000" stroke-width="0.5" stroke-dasharray="0,3,1,3,1,3,1,3,1,0" points="164.16,384.48 164.16,32.3984"/>
<polyline fill="none" stroke="#000000" stroke-width="0.5" stroke-dasharray="0,3,1,3,1,3,1,3,1,0" points="208.801,384.48 208.801,32.3984"/>
<polyline fill="none" stroke="#000000" stroke-width="0.5" stroke-dasharray="0,3,1,3,1,3,1,3,1,0" points="231.121,384.48 231.121,32.3984"/>
<polyline fill="none" stroke="#000000" stroke-width="0.5" stroke-dasharray="0,3,1,3,1,3,1,3,1,0" points="253.441,384.48 253.441,32.3984"/>
<polyline fill="none" stroke="#000000" stroke-width="0.5" stroke-dasharray="0,3,1,3,1,3,1,3,1,0" points="275.762,384.48 275.762,32.3984"/>
<polyline fill="none" stroke="#000000" stroke-width="0.5" stroke-dasharray="0,3,1,3,1,3,1,3,1,0" points="320.398,384.48 320.398,32.3984"/>
<polyline fill="none" stroke="#000000" stroke-width="0.5" stroke-dasharray="0,3,1,3,1,3,1,3,1,0" points="342.719,384.48 342.719,32.3984"/>
<polyline fill="none" stroke="#000000" stroke-width="0.5" stroke-dasharray="0,3,1,3,1,3,1,3,1,0" points="365.039,384.48 365.039,32.3984"/>
<polyline fill="none" stroke="#000000" stroke-width="0.5" stroke-dasharray="0,3,1,3,1,3,1,3,1,0" points="387.359,384.48 387.359,32.3984"/>
<polyline fill="none" stroke="#000000" stroke-width="0.5" stroke-dasharray="0,3,1,3,1,3,1,3,1,0" points="432,384.48 432,32.3984"/>
<polyline fill="none" stroke="#000000" stroke-width="0.5" stroke-dasharray="0,3,1,3,1,3,1,3,1,0" points="454.32,384.48 454.32,32.3984"/>
<polyline fill="none" stroke="#000000" stroke-width="0.5" stroke-dasharray="0,3,1,3,1,3,1,3,1,0" points="476.641,384.48 476.641,32.3984"/>
<polyline fill="none" stroke="#000000" stroke-width="0.5" stroke-dasharray="0,3,1,3,1,3,1,3,1,0" points="498.961,384.48 498.961,32.3984"/>
<polyline fill="none" stroke="#000000" stroke-width="0.5" stroke-dasharray="0,3,1,3,1,3,1,3,1,0" points="74.8789,384.48 521.281,384.48"/>
<polyline fill="none" stroke="#000000" stroke-width="0.5" stroke-dasharray="0,3,1,3,1,3,1,3,1,0" points="74.8789,296.461 521.281,296.461"/>
<polyline fill="none" stroke="#000000" stroke-width="0.5" stroke-dasharray="0,3,1,3,1,3,1,3,1,0" points="74.8789,208.441 521.281,208.441"/>
<polyline fill="none" stroke="#000000" stroke-width="0.5" stroke-dasharray="0,3,1,3,1,3,1,3,1,0" points="74.8789,120.422 521.281,120.422"/>
<polyline fill="none" stroke="#000000" stroke-width="0.5" stroke-dasharray="0,3,1,3,1,3,1,3,1,0" points="74.8789,32.3984 521.281,32.3984"/>
<polyline fill="none" stroke="#000000" stroke-width="0.5" stroke-dasharray="16,0" points="74.8789,384.48 81.8867,384.48"/>
<polyline fill="none" stroke="#000000" stroke-width="0.5" stroke-dasharray="16,0" points="521.281,384.48 514.273,384.48"/>
<polyline fill="none" stroke="#000000" stroke-width="0.5" stroke-dasharray="16,0" points="74.8789,296.461 81.8867,296.461"/>
<polyline fill="none" stroke="#000000" stroke-width="0.5" stroke-dasharray="16,0" points="521.281,296.461 514.273,296.461"/>
<polyline fill="none" stroke="#000000" stroke-width="0.5" stroke-dasharray="16,0" points="74.8789,208.441 81.8867,208.441"/>
<polyline fill="none" stroke="#000000" stroke-width="0.5" stroke-dasharray="16,0" points="521.281,208.441 514.273,208.441"/>
<polyline fill="none" stroke="#000000" stroke-width="0.5" stroke-dasharray="16,0" points="74.8789,120.422 81.8867,120.422"/>
<polyline fill="none" stroke="#000000" stroke-width="0.5" stroke-dasharray="16,0" points="521.281,120.422 514.273,120.422"/>
<polyline fill="none" stroke="#000000" stroke-width="0.5" stroke-dasharray="16,0" points="74.8789,32.3984 81.8867,32.3984"/>
<polyline fill="none" stroke="#000000" stroke-width="0.5" stroke-dasharray="16,0" points="521.281,32.3984 514.273,32.3984"/>
<polyline fill="none" stroke="#000000" stroke-width="0.5" stroke-dasharray="0,3,1,3,1,3,1,3,1,0" points="74.8789,366.875 521.281,366.875"/>
<polyline fill="none" stroke="#000000" stroke-width="0.5" stroke-dasharray="0,3,1,3,1,3,1,3,1,0" points="74.8789,349.273 521.281,349.273"/>
<polyline fill="none" stroke="#000000" stroke-width="0.5" stroke-dasharray="0,3,1,3,1,3,1,3,1,0" points="74.8789,331.668 521.281,331.668"/>
<polyline fill="none" stroke="#000000" stroke-width="0.5" stroke-dasharray="0,3,1,3,1,3,1,3,1,0" points="74.8789,314.062 521.281,314.062"/>
<polyline fill="none" stroke="#000000" stroke-width="0.5" stroke-dasharray="0,3,1,3,1,3,1,3,1,0" points="74.8789,278.855 521.281,278.855"/>
<polyline fill="none" stroke="#000000" stroke-width="0.5" stroke-dasharray="0,3,1,3,1,3,1,3,1,0" points="74.8789,261.254 521.281,261.254"/>
<polyline fill="none" stroke="#000000" stroke-width="0.5" stroke-dasharray="0,3,1,3,1,3,1,3,1,0" points="74.8789,243.648 521.281,243.648"/>
<polyline fill="none" stroke="#000000" stroke-width="0.5" stroke-dasharray="0,3,1,3,1,3,1,3,1,0" points="74.8789,226.043 521.281,226.043"/>
<polyline fill="none" stroke="#000000" stroke-width="0.5" stroke-dasharray="0,3,1,3,1,3,1,3,1,0" points="74.8789,190.836 521.281,190.836"/>
<polyline fill="none" stroke="#000000" stroke-width="0.5" stroke-dasharray="0,3,1,3,1,3,1,3,1,0" points="74.8789,173.23 521.281,173.23"/>
<polyline fill="none" stroke="#000000" stroke-width="0.5" stroke-dasharray="0,3,1,3,1,3,1,3,1,0" points="74.8789,155.629 521.281,155.629"/>
<polyline fill="none" stroke="#000000" stroke-width="0.5" stroke-dasharray="0,3,1,3,1,3,1,3,1,0" points="74.8789,138.023 521.281,138.023"/>
<polyline fill="none" stroke="#000000" stroke-width="0.5" stroke-dasharray="0,3,1,3,1,3,1,3,1,0" points="74.8789,102.816 521.281,102.816"/>
<polyline fill="none" stroke="#000000" stroke-width="0.5" stroke-dasharray="0,3,1,3,1,3,1,3,1,0" points="74.8789,85.2109 521.281,85.2109"/>
<polyline fill="none" stroke="#000000" stroke-width="0.5" stroke-dasharray="0,3,1,3,1,3,1,3,1,0" points="74.8789,67.6094 521.281,67.6094"/>
<polyline fill="none" stroke="#000000" stroke-width="0.5" stroke-dasharray="0,3,1,3,1,3,1,3,1,0" points="74.8789,50.0039 521.281,50.0039"/>
<polyline fill="none" stroke="#ff0000" stroke-width="1.5" points="75.9961,61.4805 77.1133,61.4805 78.2266,61.4805 79.3438,61.4805 80.4609,61.4805 81.5742,61.4805 82.6914,59.6523 83.8086,61.4805 84.9258,65.1445 86.0391,65.1445 87.1562,65.1445 88.2734,66.9922 89.3867,66.9922 90.5039,65.1445 91.6211,66.9922 92.7344,66.9922 93.8516,65.1445 94.9688,66.9922 96.0859,66.9922 97.1992,66.9922 98.3164,65.1445 99.4336,66.9922 100.547,65.1445 101.664,65.1445 102.781,65.1445 103.895,65.1445 105.012,65.1445 106.129,65.1445 107.242,65.1445 108.359,65.1445 109.477,65.1445 110.594,65.1445 111.707,63.3125 112.824,61.4805 113.941,61.4805 115.055,61.4805 116.172,61.4805 117.289,63.3125 118.402,61.4805 119.52,61.4805 120.637,61.4805 121.754,61.4805 122.867,61.4805 123.984,61.4805 125.102,61.4805 126.215,68.8242 127.332,68.8242 128.449,70.6523 129.562,68.8242 130.68,66.9922 131.797,66.9922 132.91,66.9922 134.027,68.8242 135.145,68.8242 136.262,68.8242 137.375,70.6523 138.492,68.8242 139.609,70.6523 140.723,68.8242 141.84,68.8242 142.957,68.8242 144.07,68.8242 145.188,68.8242 146.305,68.8242 147.422,68.8242 148.535,68.8242 149.652,68.8242 150.77,68.8242 151.883,68.8242 153,68.8242 154.117,68.8242 155.23,68.8242 156.348,68.8242 157.465,70.6523 158.578,70.6523 159.695,68.8242 160.812,68.8242 161.93,68.8242 163.043,68.8242 164.16,68.8242 165.277,68.8242 166.391,68.8242 167.508,68.8242 168.625,68.8242 169.738,68.8242 170.855,68.8242 171.973,66.9922 173.09,68.8242 174.203,68.8242 175.32,68.8242 176.438,68.8242 177.551,68.8242 178.668,70.6523 179.785,68.8242 180.898,68.8242 182.016,66.9922 183.133,68.8242 184.246,66.9922 185.363,68.8242 186.48,68.8242 187.598,68.8242 188.711,66.9922 189.828,68.8242 190.945,66.9922 192.059,68.8242 193.176,68.8242 194.293,68.8242 195.406,68.8242 196.523,66.9922 197.641,65.1445 198.758,66.9922 199.871,68.8242 200.988,68.8242 202.105,68.8242 203.219,68.8242 204.336,68.8242 205.453,68.8242 206.566,66.9922 207.684,68.8242 208.801,66.9922 209.914,68.8242 211.031,66.9922 212.148,65.1445 213.266,66.9922 214.379,68.8242 215.496,66.9922 216.613,68.8242 217.727,68.8242 218.844,68.8242 219.961,68.8242 221.074,68.8242 222.191,68.8242 223.309,68.8242 224.426,68.8242 225.539,68.8242 226.656,68.8242 227.773,68.8242 228.887,68.8242 230.004,68.8242 231.121,68.8242 232.234,68.8242 233.352,68.8242 234.469,68.8242 235.586,68.8242 236.699,68.8242 237.816,68.8242 238.934,68.8242 240.047,68.8242 241.164,68.8242 242.281,68.8242 243.395,68.8242 244.512,61.4805 245.629,63.3125 246.742,61.4805 247.859,68.8242 248.977,68.8242 250.094,61.4805 251.207,68.8242 252.324,66.9922 253.441,66.9922 254.555,66.9922 255.672,66.9922 256.789,68.8242 257.902,66.9922 259.02,65.1445 260.137,66.9922 261.254,68.8242 262.367,66.9922 263.484,65.1445 264.602,63.3125 265.715,66.9922 266.832,347.316 267.949,352.809 269.062,341.809 270.18,334.484 271.297,339.977 272.41,334.484 273.527,321.668 274.645,325.332 275.762,338.145 276.875,343.656 277.992,334.484 279.109,356.473 280.223,339.977 281.34,338.145 282.457,339.977 283.57,338.145 284.688,341.809 285.805,345.488 286.922,347.316 288.035,343.656 289.152,343.656 290.27,349.148 291.383,341.809 292.5,339.977 293.617,341.809 294.73,338.145 295.848,336.316 296.965,334.484 298.078,334.484 299.195,332.652 300.312,341.809 301.43,334.484 302.543,334.484 303.66,339.977 304.777,341.809 305.891,341.809 307.008,343.656 308.125,332.652 309.238,339.977 310.355,336.316 311.473,341.809 312.59,339.977 313.703,345.488 314.82,339.977 315.938,336.316 317.051,338.145 318.168,339.977 319.285,338.145 320.398,338.145 321.516,334.484 322.633,338.145 323.746,338.145 324.863,338.145 325.98,334.484 327.098,334.484 328.211,328.992 329.328,334.484 330.445,332.652 331.559,336.316 332.676,332.652 333.793,332.652 334.906,338.145 336.023,338.145 337.141,336.316 338.258,338.145 339.371,332.652 340.488,336.316 341.605,336.316 342.719,343.656 343.836,339.977 344.953,341.809 346.066,338.145 347.184,336.316 348.301,325.332 349.414,334.484 350.531,336.316 351.648,334.484 352.766,328.992 353.879,330.824 354.996,334.484 356.113,343.656 357.227,341.809 358.344,343.656 359.461,336.316 360.574,332.652 361.691,332.652 362.809,334.484 363.926,334.484 365.039,332.652 366.156,328.992 367.273,330.824 368.387,330.824 369.504,327.16 370.621,334.484 371.734,332.652 372.852,332.652 373.969,330.824 375.082,327.16 376.199,325.332 377.316,330.824 378.434,334.484 379.547,336.316 380.664,338.145 381.781,336.316 382.895,327.16 384.012,319.84 385.129,323.5 386.242,323.5 387.359,319.84 388.477,319.84 389.594,319.84 390.707,321.668 391.824,334.484 392.941,321.668 394.055,319.84 395.172,327.16 396.289,334.484 397.402,330.824 398.52,323.5 399.637,321.668 400.75,321.668 401.867,319.84 402.984,341.809 404.102,325.332 405.215,328.992 406.332,325.332 407.449,327.16 408.562,325.332 409.68,328.992 410.797,325.332 411.91,327.16 413.027,327.16 414.145,328.992 415.262,328.992 416.375,327.16 417.492,334.484 418.609,332.652 419.723,330.824 420.84,328.992 421.957,323.5 423.07,323.5 424.188,321.668 425.305,325.332 426.422,327.16 427.535,327.16 428.652,328.992 429.77,319.84 430.883,332.652 432,332.652 433.117,330.824 434.23,325.332 435.348,325.332 436.465,323.5 437.578,317.988 438.695,317.988 439.812,319.84 440.93,319.84 442.043,319.84 443.16,317.988 444.277,321.668 445.391,319.84 446.508,321.668 447.625,317.988 448.738,317.988 449.855,321.668 450.973,323.5 452.09,323.5 453.203,321.668 454.32,323.5 455.438,321.668 456.551,327.16 457.668,317.988 458.785,317.988 459.898,319.84 461.016,325.332 462.133,323.5 463.246,327.16 464.363,339.977 465.48,328.992 466.598,328.992 467.711,338.145 468.828,334.484 469.945,336.316 471.059,330.824 472.176,343.656 473.293,332.652 474.406,338.145 475.523,332.652"/>
<polyline fill="none" stroke="#000000" stroke-width="0.5" stroke-dasharray="16,0" points="521.281,384.48 521.281,384.48"/>
<polyline fill="none" stroke="#000000" stroke-width="0.5" stroke-dasharray="16,0" points="74.8789,384.48 74.8789,384.48"/>
<polyline fill="none" stroke="#000000" stroke-width="0.5" stroke-dasharray="16,0" points="74.8789,32.3984 74.8789,32.3984"/>
<polyline fill="none" stroke="#000000" stroke-width="0.5" stroke-dasharray="16,0" points="521.281,32.3984 521.281,32.3984"/>
<text fill="#000000" x="298.08" y="22.4" font-size="10" text-anchor="middle" baseline-shift="0" font-family="Helvetica">Pc-Monitor AcerAX3950-AcerAL1916W (reactive power)</text>
<polyline fill="none" stroke="#000000" stroke-width="0.5" stroke-dasharray="16,0" points="521.281,384.48 521.281,32.3984"/>
<polyline fill="none" stroke="#000000" stroke-width="0.5" stroke-dasharray="16,0" points="74.8789,384.48 74.8789,32.3984 521.281,32.3984"/>
<polyline fill="none" stroke="#000000" stroke-width="0.5" stroke-dasharray="16,0" points="74.8789,384.48 521.281,384.48"/>
</g>
</svg>
