<?xml version="1.0" encoding="UTF-8" standalone="no"?>
<svg xmlns="http://www.w3.org/2000/svg"
     xmlns:xlink="http://www.w3.org/1999/xlink"
     width="576px" height="432px" viewBox="0 0 576 432">
<title>glps_renderer figure</title>
<desc>
Creator: GL2PS 1.3.5, (C) 1999-2009 C. Geuzaine
For: Octave
CreationDate: Tue Jan 31 18:56:26 2012
</desc>
<defs>
</defs>
<g shape-rendering="crispEdges">
<text fill="#000000" x="298.08" y="389.481" font-size="10" text-anchor="middle" baseline-shift="-10" font-family="Helvetica">200</text>
<text fill="#000000" x="409.68" y="389.481" font-size="10" text-anchor="middle" baseline-shift="-10" font-family="Helvetica">300</text>
<text fill="#000000" x="521.28" y="389.481" font-size="10" text-anchor="middle" baseline-shift="-10" font-family="Helvetica">400</text>
<text fill="#000000" x="69.8755" y="384.48" font-size="10" text-anchor="end" baseline-shift="-5" font-family="Helvetica">0</text>
<text fill="#000000" x="69.8755" y="314.064" font-size="10" text-anchor="end" baseline-shift="-5" font-family="Helvetica">0.1</text>
<text fill="#000000" x="69.8755" y="243.648" font-size="10" text-anchor="end" baseline-shift="-5" font-family="Helvetica">0.2</text>
<text fill="#000000" x="74.88" y="389.481" font-size="10" text-anchor="middle" baseline-shift="-10" font-family="Helvetica">0</text>
<text fill="#000000" x="186.48" y="389.481" font-size="10" text-anchor="middle" baseline-shift="-10" font-family="Helvetica">100</text>
<text fill="#000000" x="69.8755" y="173.232" font-size="10" text-anchor="end" baseline-shift="-5" font-family="Helvetica">0.3</text>
<text fill="#000000" x="69.8755" y="102.816" font-size="10" text-anchor="end" baseline-shift="-5" font-family="Helvetica">0.4</text>
<text fill="#000000" x="69.8755" y="32.4" font-size="10" text-anchor="end" baseline-shift="-5" font-family="Helvetica">0.5</text>
<text fill="#000000" x="298.08" y="402.481" font-size="10" text-anchor="middle" baseline-shift="-10" font-family="Helvetica">time (10 seconds per unit)</text>
<text fill="#000000" x="54.8755" y="208.44" font-size="10" transform="rotate(-90, 54.8755, 208.44)" text-anchor="middle" baseline-shift="0" font-family="Helvetica">ampere (A)</text>
<polyline fill="none" stroke="#000000" stroke-width="0.5" stroke-dasharray="16,0" points="74.8789,32.3984 521.281,32.3984"/>
<polyline fill="none" stroke="#000000" stroke-width="0.5" stroke-dasharray="16,0" points="74.8789,384.48 74.8789,32.3984"/>
<polyline fill="none" stroke="#000000" stroke-width="0.5" stroke-dasharray="16,0" points="521.281,384.48 521.281,32.3984"/>
<polyline fill="none" stroke="#000000" stroke-width="0.5" stroke-dasharray="0,3,1,3,1,3,1,3,1,0" points="74.8789,384.48 74.8789,32.3984"/>
<polyline fill="none" stroke="#000000" stroke-width="0.5" stroke-dasharray="0,3,1,3,1,3,1,3,1,0" points="186.48,384.48 186.48,32.3984"/>
<polyline fill="none" stroke="#000000" stroke-width="0.5" stroke-dasharray="0,3,1,3,1,3,1,3,1,0" points="298.078,384.48 298.078,32.3984"/>
<polyline fill="none" stroke="#000000" stroke-width="0.5" stroke-dasharray="0,3,1,3,1,3,1,3,1,0" points="409.68,384.48 409.68,32.3984"/>
<polyline fill="none" stroke="#000000" stroke-width="0.5" stroke-dasharray="16,0" points="74.8789,384.48 521.281,384.48"/>
<polyline fill="none" stroke="#000000" stroke-width="0.5" stroke-dasharray="0,3,1,3,1,3,1,3,1,0" points="521.281,384.48 521.281,32.3984"/>
<polyline fill="none" stroke="#000000" stroke-width="0.5" stroke-dasharray="16,0" points="74.8789,384.48 74.8789,377.477"/>
<polyline fill="none" stroke="#000000" stroke-width="0.5" stroke-dasharray="16,0" points="74.8789,32.3984 74.8789,39.4023"/>
<polyline fill="none" stroke="#000000" stroke-width="0.5" stroke-dasharray="16,0" points="186.48,384.48 186.48,377.477"/>
<polyline fill="none" stroke="#000000" stroke-width="0.5" stroke-dasharray="16,0" points="186.48,32.3984 186.48,39.4023"/>
<polyline fill="none" stroke="#000000" stroke-width="0.5" stroke-dasharray="16,0" points="298.078,384.48 298.078,377.477"/>
<polyline fill="none" stroke="#000000" stroke-width="0.5" stroke-dasharray="16,0" points="298.078,32.3984 298.078,39.4023"/>
<polyline fill="none" stroke="#000000" stroke-width="0.5" stroke-dasharray="16,0" points="409.68,384.48 409.68,377.477"/>
<polyline fill="none" stroke="#000000" stroke-width="0.5" stroke-dasharray="16,0" points="409.68,32.3984 409.68,39.4023"/>
<polyline fill="none" stroke="#000000" stroke-width="0.5" stroke-dasharray="16,0" points="521.281,384.48 521.281,377.477"/>
<polyline fill="none" stroke="#000000" stroke-width="0.5" stroke-dasharray="16,0" points="521.281,32.3984 521.281,39.4023"/>
<polyline fill="none" stroke="#000000" stroke-width="0.5" stroke-dasharray="0,3,1,3,1,3,1,3,1,0" points="97.1992,384.48 97.1992,32.3984"/>
<polyline fill="none" stroke="#000000" stroke-width="0.5" stroke-dasharray="0,3,1,3,1,3,1,3,1,0" points="119.52,384.48 119.52,32.3984"/>
<polyline fill="none" stroke="#000000" stroke-width="0.5" stroke-dasharray="0,3,1,3,1,3,1,3,1,0" points="141.84,384.48 141.84,32.3984"/>
<polyline fill="none" stroke="#000000" stroke-width="0.5" stroke-dasharray="0,3,1,3,1,3,1,3,1,0" points="164.16,384.48 164.16,32.3984"/>
<polyline fill="none" stroke="#000000" stroke-width="0.5" stroke-dasharray="0,3,1,3,1,3,1,3,1,0" points="208.801,384.48 208.801,32.3984"/>
<polyline fill="none" stroke="#000000" stroke-width="0.5" stroke-dasharray="0,3,1,3,1,3,1,3,1,0" points="231.121,384.48 231.121,32.3984"/>
<polyline fill="none" stroke="#000000" stroke-width="0.5" stroke-dasharray="0,3,1,3,1,3,1,3,1,0" points="253.441,384.48 253.441,32.3984"/>
<polyline fill="none" stroke="#000000" stroke-width="0.5" stroke-dasharray="0,3,1,3,1,3,1,3,1,0" points="275.762,384.48 275.762,32.3984"/>
<polyline fill="none" stroke="#000000" stroke-width="0.5" stroke-dasharray="0,3,1,3,1,3,1,3,1,0" points="320.398,384.48 320.398,32.3984"/>
<polyline fill="none" stroke="#000000" stroke-width="0.5" stroke-dasharray="0,3,1,3,1,3,1,3,1,0" points="342.719,384.48 342.719,32.3984"/>
<polyline fill="none" stroke="#000000" stroke-width="0.5" stroke-dasharray="0,3,1,3,1,3,1,3,1,0" points="365.039,384.48 365.039,32.3984"/>
<polyline fill="none" stroke="#000000" stroke-width="0.5" stroke-dasharray="0,3,1,3,1,3,1,3,1,0" points="387.359,384.48 387.359,32.3984"/>
<polyline fill="none" stroke="#000000" stroke-width="0.5" stroke-dasharray="0,3,1,3,1,3,1,3,1,0" points="432,384.48 432,32.3984"/>
<polyline fill="none" stroke="#000000" stroke-width="0.5" stroke-dasharray="0,3,1,3,1,3,1,3,1,0" points="454.32,384.48 454.32,32.3984"/>
<polyline fill="none" stroke="#000000" stroke-width="0.5" stroke-dasharray="0,3,1,3,1,3,1,3,1,0" points="476.641,384.48 476.641,32.3984"/>
<polyline fill="none" stroke="#000000" stroke-width="0.5" stroke-dasharray="0,3,1,3,1,3,1,3,1,0" points="498.961,384.48 498.961,32.3984"/>
<polyline fill="none" stroke="#000000" stroke-width="0.5" stroke-dasharray="0,3,1,3,1,3,1,3,1,0" points="74.8789,384.48 521.281,384.48"/>
<polyline fill="none" stroke="#000000" stroke-width="0.5" stroke-dasharray="0,3,1,3,1,3,1,3,1,0" points="74.8789,314.062 521.281,314.062"/>
<polyline fill="none" stroke="#000000" stroke-width="0.5" stroke-dasharray="0,3,1,3,1,3,1,3,1,0" points="74.8789,243.648 521.281,243.648"/>
<polyline fill="none" stroke="#000000" stroke-width="0.5" stroke-dasharray="0,3,1,3,1,3,1,3,1,0" points="74.8789,173.23 521.281,173.23"/>
<polyline fill="none" stroke="#000000" stroke-width="0.5" stroke-dasharray="0,3,1,3,1,3,1,3,1,0" points="74.8789,102.816 521.281,102.816"/>
<polyline fill="none" stroke="#000000" stroke-width="0.5" stroke-dasharray="0,3,1,3,1,3,1,3,1,0" points="74.8789,32.3984 521.281,32.3984"/>
<polyline fill="none" stroke="#000000" stroke-width="0.5" stroke-dasharray="16,0" points="74.8789,384.48 81.8867,384.48"/>
<polyline fill="none" stroke="#000000" stroke-width="0.5" stroke-dasharray="16,0" points="521.281,384.48 514.273,384.48"/>
<polyline fill="none" stroke="#000000" stroke-width="0.5" stroke-dasharray="16,0" points="74.8789,314.062 81.8867,314.062"/>
<polyline fill="none" stroke="#000000" stroke-width="0.5" stroke-dasharray="16,0" points="521.281,314.062 514.273,314.062"/>
<polyline fill="none" stroke="#000000" stroke-width="0.5" stroke-dasharray="16,0" points="74.8789,243.648 81.8867,243.648"/>
<polyline fill="none" stroke="#000000" stroke-width="0.5" stroke-dasharray="16,0" points="521.281,243.648 514.273,243.648"/>
<polyline fill="none" stroke="#000000" stroke-width="0.5" stroke-dasharray="16,0" points="74.8789,173.23 81.8867,173.23"/>
<polyline fill="none" stroke="#000000" stroke-width="0.5" stroke-dasharray="16,0" points="521.281,173.23 514.273,173.23"/>
<polyline fill="none" stroke="#000000" stroke-width="0.5" stroke-dasharray="16,0" points="74.8789,102.816 81.8867,102.816"/>
<polyline fill="none" stroke="#000000" stroke-width="0.5" stroke-dasharray="16,0" points="521.281,102.816 514.273,102.816"/>
<polyline fill="none" stroke="#000000" stroke-width="0.5" stroke-dasharray="16,0" points="74.8789,32.3984 81.8867,32.3984"/>
<polyline fill="none" stroke="#000000" stroke-width="0.5" stroke-dasharray="16,0" points="521.281,32.3984 514.273,32.3984"/>
<polyline fill="none" stroke="#000000" stroke-width="0.5" stroke-dasharray="0,3,1,3,1,3,1,3,1,0" points="74.8789,370.398 521.281,370.398"/>
<polyline fill="none" stroke="#000000" stroke-width="0.5" stroke-dasharray="0,3,1,3,1,3,1,3,1,0" points="74.8789,356.312 521.281,356.312"/>
<polyline fill="none" stroke="#000000" stroke-width="0.5" stroke-dasharray="0,3,1,3,1,3,1,3,1,0" points="74.8789,342.23 521.281,342.23"/>
<polyline fill="none" stroke="#000000" stroke-width="0.5" stroke-dasharray="0,3,1,3,1,3,1,3,1,0" points="74.8789,328.148 521.281,328.148"/>
<polyline fill="none" stroke="#000000" stroke-width="0.5" stroke-dasharray="0,3,1,3,1,3,1,3,1,0" points="74.8789,299.98 521.281,299.98"/>
<polyline fill="none" stroke="#000000" stroke-width="0.5" stroke-dasharray="0,3,1,3,1,3,1,3,1,0" points="74.8789,285.898 521.281,285.898"/>
<polyline fill="none" stroke="#000000" stroke-width="0.5" stroke-dasharray="0,3,1,3,1,3,1,3,1,0" points="74.8789,271.812 521.281,271.812"/>
<polyline fill="none" stroke="#000000" stroke-width="0.5" stroke-dasharray="0,3,1,3,1,3,1,3,1,0" points="74.8789,257.73 521.281,257.73"/>
<polyline fill="none" stroke="#000000" stroke-width="0.5" stroke-dasharray="0,3,1,3,1,3,1,3,1,0" points="74.8789,229.566 521.281,229.566"/>
<polyline fill="none" stroke="#000000" stroke-width="0.5" stroke-dasharray="0,3,1,3,1,3,1,3,1,0" points="74.8789,215.48 521.281,215.48"/>
<polyline fill="none" stroke="#000000" stroke-width="0.5" stroke-dasharray="0,3,1,3,1,3,1,3,1,0" points="74.8789,201.398 521.281,201.398"/>
<polyline fill="none" stroke="#000000" stroke-width="0.5" stroke-dasharray="0,3,1,3,1,3,1,3,1,0" points="74.8789,187.316 521.281,187.316"/>
<polyline fill="none" stroke="#000000" stroke-width="0.5" stroke-dasharray="0,3,1,3,1,3,1,3,1,0" points="74.8789,159.148 521.281,159.148"/>
<polyline fill="none" stroke="#000000" stroke-width="0.5" stroke-dasharray="0,3,1,3,1,3,1,3,1,0" points="74.8789,145.066 521.281,145.066"/>
<polyline fill="none" stroke="#000000" stroke-width="0.5" stroke-dasharray="0,3,1,3,1,3,1,3,1,0" points="74.8789,130.98 521.281,130.98"/>
<polyline fill="none" stroke="#000000" stroke-width="0.5" stroke-dasharray="0,3,1,3,1,3,1,3,1,0" points="74.8789,116.898 521.281,116.898"/>
<polyline fill="none" stroke="#000000" stroke-width="0.5" stroke-dasharray="0,3,1,3,1,3,1,3,1,0" points="74.8789,88.7344 521.281,88.7344"/>
<polyline fill="none" stroke="#000000" stroke-width="0.5" stroke-dasharray="0,3,1,3,1,3,1,3,1,0" points="74.8789,74.6484 521.281,74.6484"/>
<polyline fill="none" stroke="#000000" stroke-width="0.5" stroke-dasharray="0,3,1,3,1,3,1,3,1,0" points="74.8789,60.5664 521.281,60.5664"/>
<polyline fill="none" stroke="#000000" stroke-width="0.5" stroke-dasharray="0,3,1,3,1,3,1,3,1,0" points="74.8789,46.4844 521.281,46.4844"/>
<polyline fill="none" stroke="#ff0000" stroke-width="1.5" points="75.9961,342.934 77.1133,339.414 78.2266,80.2812 79.3438,61.9766 80.4609,86.6211 81.5742,59.1562 82.6914,39.4414 83.8086,32.3984 84.9258,33.8086 86.0391,60.5664 87.1562,83.0977 88.2734,94.3672 89.3867,95.0703 90.5039,80.9883 91.6211,92.957 92.7344,84.5078 93.8516,95.7734 94.9688,95.0703 96.0859,95.0703 97.1992,95.0703 98.3164,95.7734 99.4336,91.5508 100.547,92.2539 101.664,90.8438 102.781,71.832 103.895,78.1719 105.012,91.5508 106.129,82.3945 107.242,92.2539 108.359,92.2539 109.477,92.2539 110.594,92.957 111.707,92.2539 112.824,92.2539 113.941,92.2539 115.055,92.2539 116.172,92.2539 117.289,92.2539 118.402,92.2539 119.52,93.6602 120.637,93.6602 121.754,92.2539 122.867,92.957 123.984,92.2539 125.102,92.957 126.215,92.957 127.332,91.5508 128.449,92.957 129.562,92.2539 130.68,92.957 131.797,92.957 132.91,92.957 134.027,90.1406 135.145,92.957 136.262,92.957 137.375,92.2539 138.492,92.2539 139.609,92.2539 140.723,92.957 141.84,92.957 142.957,69.7188 144.07,60.5664 145.188,72.5391 146.305,40.1445 147.422,59.1562 148.535,88.0273 149.652,86.6211 150.77,96.4805 151.883,96.4805 153,95.7734 154.117,96.4805 155.23,95.7734 156.348,95.0703 157.465,92.957 158.578,88.0273 159.695,95.0703 160.812,86.6211 161.93,87.3242 163.043,95.0703 164.16,95.7734 165.277,95.0703 166.391,95.0703 167.508,92.957 168.625,37.3281 169.738,47.1875 170.855,79.5781 171.973,78.1719 173.09,80.2812 174.203,77.4648 175.32,69.7188 176.438,83.0977 177.551,77.4648 178.668,60.5664 179.785,86.6211 180.898,76.0586 182.016,54.9336 183.133,80.9883 184.246,61.9766 185.363,61.2695 186.48,74.6484 187.598,61.2695 188.711,92.957 189.828,92.2539 190.945,92.2539 192.059,80.9883 193.176,42.9609 194.293,76.7617 195.406,94.3672 196.523,93.6602 197.641,42.2578 198.758,63.3828 199.871,47.1875 200.988,73.9453 202.105,83.0977 203.219,61.9766 204.336,87.3242 205.453,57.0469 206.566,42.9609 207.684,91.5508 208.801,61.2695 209.914,95.0703 211.031,95.0703 212.148,93.6602 213.266,93.6602 214.379,47.1875 215.496,67.6094 216.613,90.8438 217.727,75.3555 218.844,93.6602 219.961,79.5781 221.074,87.3242 222.191,90.1406 223.309,80.9883 224.426,74.6484 225.539,80.9883 226.656,48.5938 227.773,76.7617 228.887,81.6914 230.004,67.6094 231.121,41.5547 232.234,78.875 233.352,42.9609 234.469,90.1406 235.586,92.2539 236.699,92.957 237.816,92.957 238.934,88.0273 240.047,84.5078 241.164,91.5508 242.281,39.4414 243.395,90.1406 244.512,86.6211 245.629,87.3242 246.742,91.5508 247.859,92.2539 248.977,88.7344 250.094,90.8438 251.207,92.2539 252.324,88.7344 253.441,87.3242 254.555,67.6094 255.672,47.1875 256.789,88.7344 257.902,73.9453 259.02,85.918 260.137,90.1406 261.254,90.8438 262.367,66.9023 263.484,92.957 264.602,94.3672 265.715,91.5508 266.832,92.2539 267.949,92.957 269.062,88.7344 270.18,94.3672 271.297,93.6602 272.41,94.3672 273.527,94.3672 274.645,94.3672 275.762,92.957 276.875,94.3672 277.992,95.0703 279.109,95.0703 280.223,93.6602 281.34,92.957 282.457,93.6602 283.57,94.3672 284.688,93.6602 285.805,94.3672 286.922,93.6602 288.035,94.3672 289.152,48.5938 290.27,91.5508 291.383,92.957 292.5,92.2539 293.617,88.7344 294.73,42.9609 295.848,45.0742 296.965,75.3555 298.078,69.0156 299.195,47.8906 300.312,44.3711 301.43,62.6797 302.543,40.1445 303.66,72.5391 304.777,73.9453 305.891,70.4258 307.008,55.6367 308.125,72.5391 309.238,63.3828 310.355,74.6484 311.473,73.2422 312.59,78.1719 313.703,71.832 314.82,69.0156 315.938,55.6367 317.051,48.5938 318.168,47.1875 319.285,60.5664 320.398,73.2422 321.516,70.4258 322.633,74.6484 323.746,66.1992 324.863,76.7617 325.98,65.4961 327.098,78.875 328.211,79.5781 329.328,88.7344 330.445,92.957 331.559,94.3672 332.676,94.3672 333.793,91.5508 334.906,92.957 336.023,93.6602 337.141,93.6602 338.258,92.957 339.371,93.6602 340.488,92.957 341.605,93.6602 342.719,92.957 343.836,93.6602 344.953,94.3672 346.066,93.6602 347.184,92.2539 348.301,88.0273 349.414,62.6797 350.531,69.7188 351.648,54.2305 352.766,43.668 353.879,40.1445 354.996,46.4844 356.113,40.1445 357.227,82.3945 358.344,81.6914 359.461,77.4648 360.574,66.9023 361.691,57.0469 362.809,80.9883 363.926,71.1289 365.039,67.6094 366.156,56.3398 367.273,69.0156 368.387,40.8516 369.504,41.5547 370.621,70.4258 371.734,66.9023 372.852,77.4648 373.969,66.1992 375.082,80.2812 376.199,81.6914 377.316,71.1289 378.434,80.2812 379.547,80.2812 380.664,82.3945 381.781,57.75 382.895,76.0586 384.012,82.3945 385.129,66.9023 386.242,67.6094 387.359,80.9883 388.477,64.793 389.594,41.5547 390.707,69.0156 391.824,75.3555 392.941,78.1719 394.055,77.4648 395.172,76.0586 396.289,73.9453 397.402,78.1719 398.52,69.0156 399.637,67.6094 400.75,78.1719 401.867,80.2812 402.984,75.3555 404.102,35.9219 405.215,64.0859 406.332,66.1992 407.449,64.0859 408.562,68.3125 409.68,68.3125 410.797,66.1992 411.91,65.4961 413.027,66.9023 414.145,72.5391 415.262,67.6094 416.375,70.4258 417.492,71.832 418.609,70.4258 419.723,72.5391 420.84,70.4258 421.957,67.6094 423.07,72.5391 424.188,43.668 425.305,66.1992 426.422,57.0469 427.535,73.2422 428.652,71.1289 429.77,72.5391 430.883,44.3711 432,60.5664 433.117,59.8633 434.23,72.5391 435.348,73.2422 436.465,76.0586 437.578,72.5391 438.695,72.5391 439.812,74.6484 440.93,63.3828 442.043,68.3125 443.16,42.2578 444.277,76.7617 445.391,66.9023 446.508,57.0469 447.625,80.9883 448.738,79.5781 449.855,38.7383 450.973,77.4648 452.09,82.3945 453.203,38.7383 454.32,40.1445 455.438,40.8516 456.551,71.1289 457.668,74.6484 458.785,61.9766 459.898,76.0586 461.016,74.6484 462.133,79.5781 463.246,73.2422 464.363,79.5781 465.48,76.0586 466.598,79.5781 467.711,75.3555 468.828,75.3555 469.945,48.5938 471.059,72.5391"/>
<polyline fill="none" stroke="#000000" stroke-width="0.5" stroke-dasharray="16,0" points="521.281,384.48 521.281,384.48"/>
<polyline fill="none" stroke="#000000" stroke-width="0.5" stroke-dasharray="16,0" points="74.8789,384.48 74.8789,384.48"/>
<polyline fill="none" stroke="#000000" stroke-width="0.5" stroke-dasharray="16,0" points="74.8789,32.3984 74.8789,32.3984"/>
<polyline fill="none" stroke="#000000" stroke-width="0.5" stroke-dasharray="16,0" points="521.281,32.3984 521.281,32.3984"/>
<text fill="#000000" x="298.08" y="22.4" font-size="10" text-anchor="middle" baseline-shift="0" font-family="Helvetica">Pc-Monitor Home (AR) (RMS current)</text>
<polyline fill="none" stroke="#000000" stroke-width="0.5" stroke-dasharray="16,0" points="521.281,384.48 521.281,32.3984"/>
<polyline fill="none" stroke="#000000" stroke-width="0.5" stroke-dasharray="16,0" points="74.8789,384.48 74.8789,32.3984 521.281,32.3984"/>
<polyline fill="none" stroke="#000000" stroke-width="0.5" stroke-dasharray="16,0" points="74.8789,384.48 521.281,384.48"/>
</g>
</svg>
