<?xml version="1.0" encoding="UTF-8" standalone="no"?>
<svg xmlns="http://www.w3.org/2000/svg"
     xmlns:xlink="http://www.w3.org/1999/xlink"
     width="576px" height="432px" viewBox="0 0 576 432">
<title>glps_renderer figure</title>
<desc>
Creator: GL2PS 1.3.5, (C) 1999-2009 C. Geuzaine
For: Octave
CreationDate: Tue Jan 31 15:51:52 2012
</desc>
<defs>
</defs>
<g shape-rendering="crispEdges">
<text fill="#000000" x="298.08" y="389.48" font-size="10" text-anchor="middle" baseline-shift="-10" font-family="Helvetica">200</text>
<text fill="#000000" x="409.68" y="389.48" font-size="10" text-anchor="middle" baseline-shift="-10" font-family="Helvetica">300</text>
<text fill="#000000" x="521.28" y="389.48" font-size="10" text-anchor="middle" baseline-shift="-10" font-family="Helvetica">400</text>
<text fill="#000000" x="69.8755" y="384.48" font-size="10" text-anchor="end" baseline-shift="-5" font-family="Helvetica">223</text>
<text fill="#000000" x="69.8755" y="334.183" font-size="10" text-anchor="end" baseline-shift="-5" font-family="Helvetica">224</text>
<text fill="#000000" x="69.8755" y="283.885" font-size="10" text-anchor="end" baseline-shift="-5" font-family="Helvetica">225</text>
<text fill="#000000" x="74.88" y="389.48" font-size="10" text-anchor="middle" baseline-shift="-10" font-family="Helvetica">0</text>
<text fill="#000000" x="186.48" y="389.48" font-size="10" text-anchor="middle" baseline-shift="-10" font-family="Helvetica">100</text>
<text fill="#000000" x="69.8755" y="233.588" font-size="10" text-anchor="end" baseline-shift="-5" font-family="Helvetica">226</text>
<text fill="#000000" x="69.8755" y="183.291" font-size="10" text-anchor="end" baseline-shift="-5" font-family="Helvetica">227</text>
<text fill="#000000" x="69.8755" y="132.994" font-size="10" text-anchor="end" baseline-shift="-5" font-family="Helvetica">228</text>
<text fill="#000000" x="69.8755" y="82.697" font-size="10" text-anchor="end" baseline-shift="-5" font-family="Helvetica">229</text>
<text fill="#000000" x="69.8755" y="32.4" font-size="10" text-anchor="end" baseline-shift="-5" font-family="Helvetica">230</text>
<text fill="#000000" x="298.08" y="402.481" font-size="10" text-anchor="middle" baseline-shift="-10" font-family="Helvetica">time (10 seconds per unit)</text>
<text fill="#000000" x="51.8755" y="208.44" font-size="10" transform="rotate(-90, 51.8755, 208.44)" text-anchor="middle" baseline-shift="0" font-family="Helvetica">volt (V)</text>
<polyline fill="none" stroke="#000000" stroke-width="0.5" stroke-dasharray="16,0" points="74.8789,32.3984 521.281,32.3984"/>
<polyline fill="none" stroke="#000000" stroke-width="0.5" stroke-dasharray="16,0" points="74.8789,384.48 74.8789,32.3984"/>
<polyline fill="none" stroke="#000000" stroke-width="0.5" stroke-dasharray="16,0" points="521.281,384.48 521.281,32.3984"/>
<polyline fill="none" stroke="#000000" stroke-width="0.5" stroke-dasharray="0,3,1,3,1,3,1,3,1,0" points="74.8789,384.48 74.8789,32.3984"/>
<polyline fill="none" stroke="#000000" stroke-width="0.5" stroke-dasharray="0,3,1,3,1,3,1,3,1,0" points="186.48,384.48 186.48,32.3984"/>
<polyline fill="none" stroke="#000000" stroke-width="0.5" stroke-dasharray="0,3,1,3,1,3,1,3,1,0" points="298.078,384.48 298.078,32.3984"/>
<polyline fill="none" stroke="#000000" stroke-width="0.5" stroke-dasharray="0,3,1,3,1,3,1,3,1,0" points="409.68,384.48 409.68,32.3984"/>
<polyline fill="none" stroke="#000000" stroke-width="0.5" stroke-dasharray="16,0" points="74.8789,384.48 521.281,384.48"/>
<polyline fill="none" stroke="#000000" stroke-width="0.5" stroke-dasharray="0,3,1,3,1,3,1,3,1,0" points="521.281,384.48 521.281,32.3984"/>
<polyline fill="none" stroke="#000000" stroke-width="0.5" stroke-dasharray="16,0" points="74.8789,384.48 74.8789,377.477"/>
<polyline fill="none" stroke="#000000" stroke-width="0.5" stroke-dasharray="16,0" points="74.8789,32.3984 74.8789,39.4023"/>
<polyline fill="none" stroke="#000000" stroke-width="0.5" stroke-dasharray="16,0" points="186.48,384.48 186.48,377.477"/>
<polyline fill="none" stroke="#000000" stroke-width="0.5" stroke-dasharray="16,0" points="186.48,32.3984 186.48,39.4023"/>
<polyline fill="none" stroke="#000000" stroke-width="0.5" stroke-dasharray="16,0" points="298.078,384.48 298.078,377.477"/>
<polyline fill="none" stroke="#000000" stroke-width="0.5" stroke-dasharray="16,0" points="298.078,32.3984 298.078,39.4023"/>
<polyline fill="none" stroke="#000000" stroke-width="0.5" stroke-dasharray="16,0" points="409.68,384.48 409.68,377.477"/>
<polyline fill="none" stroke="#000000" stroke-width="0.5" stroke-dasharray="16,0" points="409.68,32.3984 409.68,39.4023"/>
<polyline fill="none" stroke="#000000" stroke-width="0.5" stroke-dasharray="16,0" points="521.281,384.48 521.281,377.477"/>
<polyline fill="none" stroke="#000000" stroke-width="0.5" stroke-dasharray="16,0" points="521.281,32.3984 521.281,39.4023"/>
<polyline fill="none" stroke="#000000" stroke-width="0.5" stroke-dasharray="0,3,1,3,1,3,1,3,1,0" points="97.1992,384.48 97.1992,32.3984"/>
<polyline fill="none" stroke="#000000" stroke-width="0.5" stroke-dasharray="0,3,1,3,1,3,1,3,1,0" points="119.52,384.48 119.52,32.3984"/>
<polyline fill="none" stroke="#000000" stroke-width="0.5" stroke-dasharray="0,3,1,3,1,3,1,3,1,0" points="141.84,384.48 141.84,32.3984"/>
<polyline fill="none" stroke="#000000" stroke-width="0.5" stroke-dasharray="0,3,1,3,1,3,1,3,1,0" points="164.16,384.48 164.16,32.3984"/>
<polyline fill="none" stroke="#000000" stroke-width="0.5" stroke-dasharray="0,3,1,3,1,3,1,3,1,0" points="208.801,384.48 208.801,32.3984"/>
<polyline fill="none" stroke="#000000" stroke-width="0.5" stroke-dasharray="0,3,1,3,1,3,1,3,1,0" points="231.121,384.48 231.121,32.3984"/>
<polyline fill="none" stroke="#000000" stroke-width="0.5" stroke-dasharray="0,3,1,3,1,3,1,3,1,0" points="253.441,384.48 253.441,32.3984"/>
<polyline fill="none" stroke="#000000" stroke-width="0.5" stroke-dasharray="0,3,1,3,1,3,1,3,1,0" points="275.762,384.48 275.762,32.3984"/>
<polyline fill="none" stroke="#000000" stroke-width="0.5" stroke-dasharray="0,3,1,3,1,3,1,3,1,0" points="320.398,384.48 320.398,32.3984"/>
<polyline fill="none" stroke="#000000" stroke-width="0.5" stroke-dasharray="0,3,1,3,1,3,1,3,1,0" points="342.719,384.48 342.719,32.3984"/>
<polyline fill="none" stroke="#000000" stroke-width="0.5" stroke-dasharray="0,3,1,3,1,3,1,3,1,0" points="365.039,384.48 365.039,32.3984"/>
<polyline fill="none" stroke="#000000" stroke-width="0.5" stroke-dasharray="0,3,1,3,1,3,1,3,1,0" points="387.359,384.48 387.359,32.3984"/>
<polyline fill="none" stroke="#000000" stroke-width="0.5" stroke-dasharray="0,3,1,3,1,3,1,3,1,0" points="432,384.48 432,32.3984"/>
<polyline fill="none" stroke="#000000" stroke-width="0.5" stroke-dasharray="0,3,1,3,1,3,1,3,1,0" points="454.32,384.48 454.32,32.3984"/>
<polyline fill="none" stroke="#000000" stroke-width="0.5" stroke-dasharray="0,3,1,3,1,3,1,3,1,0" points="476.641,384.48 476.641,32.3984"/>
<polyline fill="none" stroke="#000000" stroke-width="0.5" stroke-dasharray="0,3,1,3,1,3,1,3,1,0" points="498.961,384.48 498.961,32.3984"/>
<polyline fill="none" stroke="#000000" stroke-width="0.5" stroke-dasharray="0,3,1,3,1,3,1,3,1,0" points="74.8789,384.48 521.281,384.48"/>
<polyline fill="none" stroke="#000000" stroke-width="0.5" stroke-dasharray="0,3,1,3,1,3,1,3,1,0" points="74.8789,334.184 521.281,334.184"/>
<polyline fill="none" stroke="#000000" stroke-width="0.5" stroke-dasharray="0,3,1,3,1,3,1,3,1,0" points="74.8789,283.887 521.281,283.887"/>
<polyline fill="none" stroke="#000000" stroke-width="0.5" stroke-dasharray="0,3,1,3,1,3,1,3,1,0" points="74.8789,233.586 521.281,233.586"/>
<polyline fill="none" stroke="#000000" stroke-width="0.5" stroke-dasharray="0,3,1,3,1,3,1,3,1,0" points="74.8789,183.289 521.281,183.289"/>
<polyline fill="none" stroke="#000000" stroke-width="0.5" stroke-dasharray="0,3,1,3,1,3,1,3,1,0" points="74.8789,132.992 521.281,132.992"/>
<polyline fill="none" stroke="#000000" stroke-width="0.5" stroke-dasharray="0,3,1,3,1,3,1,3,1,0" points="74.8789,82.6953 521.281,82.6953"/>
<polyline fill="none" stroke="#000000" stroke-width="0.5" stroke-dasharray="0,3,1,3,1,3,1,3,1,0" points="74.8789,32.3984 521.281,32.3984"/>
<polyline fill="none" stroke="#000000" stroke-width="0.5" stroke-dasharray="16,0" points="74.8789,384.48 81.8867,384.48"/>
<polyline fill="none" stroke="#000000" stroke-width="0.5" stroke-dasharray="16,0" points="521.281,384.48 514.273,384.48"/>
<polyline fill="none" stroke="#000000" stroke-width="0.5" stroke-dasharray="16,0" points="74.8789,334.184 81.8867,334.184"/>
<polyline fill="none" stroke="#000000" stroke-width="0.5" stroke-dasharray="16,0" points="521.281,334.184 514.273,334.184"/>
<polyline fill="none" stroke="#000000" stroke-width="0.5" stroke-dasharray="16,0" points="74.8789,283.887 81.8867,283.887"/>
<polyline fill="none" stroke="#000000" stroke-width="0.5" stroke-dasharray="16,0" points="521.281,283.887 514.273,283.887"/>
<polyline fill="none" stroke="#000000" stroke-width="0.5" stroke-dasharray="16,0" points="74.8789,233.586 81.8867,233.586"/>
<polyline fill="none" stroke="#000000" stroke-width="0.5" stroke-dasharray="16,0" points="521.281,233.586 514.273,233.586"/>
<polyline fill="none" stroke="#000000" stroke-width="0.5" stroke-dasharray="16,0" points="74.8789,183.289 81.8867,183.289"/>
<polyline fill="none" stroke="#000000" stroke-width="0.5" stroke-dasharray="16,0" points="521.281,183.289 514.273,183.289"/>
<polyline fill="none" stroke="#000000" stroke-width="0.5" stroke-dasharray="16,0" points="74.8789,132.992 81.8867,132.992"/>
<polyline fill="none" stroke="#000000" stroke-width="0.5" stroke-dasharray="16,0" points="521.281,132.992 514.273,132.992"/>
<polyline fill="none" stroke="#000000" stroke-width="0.5" stroke-dasharray="16,0" points="74.8789,82.6953 81.8867,82.6953"/>
<polyline fill="none" stroke="#000000" stroke-width="0.5" stroke-dasharray="16,0" points="521.281,82.6953 514.273,82.6953"/>
<polyline fill="none" stroke="#000000" stroke-width="0.5" stroke-dasharray="16,0" points="74.8789,32.3984 81.8867,32.3984"/>
<polyline fill="none" stroke="#000000" stroke-width="0.5" stroke-dasharray="16,0" points="521.281,32.3984 514.273,32.3984"/>
<polyline fill="none" stroke="#000000" stroke-width="0.5" stroke-dasharray="0,3,1,3,1,3,1,3,1,0" points="74.8789,374.418 521.281,374.418"/>
<polyline fill="none" stroke="#000000" stroke-width="0.5" stroke-dasharray="0,3,1,3,1,3,1,3,1,0" points="74.8789,364.359 521.281,364.359"/>
<polyline fill="none" stroke="#000000" stroke-width="0.5" stroke-dasharray="0,3,1,3,1,3,1,3,1,0" points="74.8789,354.301 521.281,354.301"/>
<polyline fill="none" stroke="#000000" stroke-width="0.5" stroke-dasharray="0,3,1,3,1,3,1,3,1,0" points="74.8789,344.242 521.281,344.242"/>
<polyline fill="none" stroke="#000000" stroke-width="0.5" stroke-dasharray="0,3,1,3,1,3,1,3,1,0" points="74.8789,324.121 521.281,324.121"/>
<polyline fill="none" stroke="#000000" stroke-width="0.5" stroke-dasharray="0,3,1,3,1,3,1,3,1,0" points="74.8789,314.062 521.281,314.062"/>
<polyline fill="none" stroke="#000000" stroke-width="0.5" stroke-dasharray="0,3,1,3,1,3,1,3,1,0" points="74.8789,304.004 521.281,304.004"/>
<polyline fill="none" stroke="#000000" stroke-width="0.5" stroke-dasharray="0,3,1,3,1,3,1,3,1,0" points="74.8789,293.945 521.281,293.945"/>
<polyline fill="none" stroke="#000000" stroke-width="0.5" stroke-dasharray="0,3,1,3,1,3,1,3,1,0" points="74.8789,273.824 521.281,273.824"/>
<polyline fill="none" stroke="#000000" stroke-width="0.5" stroke-dasharray="0,3,1,3,1,3,1,3,1,0" points="74.8789,263.766 521.281,263.766"/>
<polyline fill="none" stroke="#000000" stroke-width="0.5" stroke-dasharray="0,3,1,3,1,3,1,3,1,0" points="74.8789,253.707 521.281,253.707"/>
<polyline fill="none" stroke="#000000" stroke-width="0.5" stroke-dasharray="0,3,1,3,1,3,1,3,1,0" points="74.8789,243.648 521.281,243.648"/>
<polyline fill="none" stroke="#000000" stroke-width="0.5" stroke-dasharray="0,3,1,3,1,3,1,3,1,0" points="74.8789,223.527 521.281,223.527"/>
<polyline fill="none" stroke="#000000" stroke-width="0.5" stroke-dasharray="0,3,1,3,1,3,1,3,1,0" points="74.8789,213.469 521.281,213.469"/>
<polyline fill="none" stroke="#000000" stroke-width="0.5" stroke-dasharray="0,3,1,3,1,3,1,3,1,0" points="74.8789,203.41 521.281,203.41"/>
<polyline fill="none" stroke="#000000" stroke-width="0.5" stroke-dasharray="0,3,1,3,1,3,1,3,1,0" points="74.8789,193.352 521.281,193.352"/>
<polyline fill="none" stroke="#000000" stroke-width="0.5" stroke-dasharray="0,3,1,3,1,3,1,3,1,0" points="74.8789,173.23 521.281,173.23"/>
<polyline fill="none" stroke="#000000" stroke-width="0.5" stroke-dasharray="0,3,1,3,1,3,1,3,1,0" points="74.8789,163.172 521.281,163.172"/>
<polyline fill="none" stroke="#000000" stroke-width="0.5" stroke-dasharray="0,3,1,3,1,3,1,3,1,0" points="74.8789,153.113 521.281,153.113"/>
<polyline fill="none" stroke="#000000" stroke-width="0.5" stroke-dasharray="0,3,1,3,1,3,1,3,1,0" points="74.8789,143.051 521.281,143.051"/>
<polyline fill="none" stroke="#000000" stroke-width="0.5" stroke-dasharray="0,3,1,3,1,3,1,3,1,0" points="74.8789,122.934 521.281,122.934"/>
<polyline fill="none" stroke="#000000" stroke-width="0.5" stroke-dasharray="0,3,1,3,1,3,1,3,1,0" points="74.8789,112.875 521.281,112.875"/>
<polyline fill="none" stroke="#000000" stroke-width="0.5" stroke-dasharray="0,3,1,3,1,3,1,3,1,0" points="74.8789,102.816 521.281,102.816"/>
<polyline fill="none" stroke="#000000" stroke-width="0.5" stroke-dasharray="0,3,1,3,1,3,1,3,1,0" points="74.8789,92.7539 521.281,92.7539"/>
<polyline fill="none" stroke="#000000" stroke-width="0.5" stroke-dasharray="0,3,1,3,1,3,1,3,1,0" points="74.8789,72.6367 521.281,72.6367"/>
<polyline fill="none" stroke="#000000" stroke-width="0.5" stroke-dasharray="0,3,1,3,1,3,1,3,1,0" points="74.8789,62.5781 521.281,62.5781"/>
<polyline fill="none" stroke="#000000" stroke-width="0.5" stroke-dasharray="0,3,1,3,1,3,1,3,1,0" points="74.8789,52.5195 521.281,52.5195"/>
<polyline fill="none" stroke="#000000" stroke-width="0.5" stroke-dasharray="0,3,1,3,1,3,1,3,1,0" points="74.8789,42.457 521.281,42.457"/>
<polyline fill="none" stroke="#ff0000" stroke-width="1.5" points="75.9961,183.34 77.1133,183.742 78.2266,221.82 79.3438,225.137 80.4609,188.121 81.5742,239.422 82.6914,185.203 83.8086,236.906 84.9258,234.895 86.0391,200.895 87.1562,265.879 88.2734,243.445 89.3867,212.414 90.5039,232.684 91.6211,239.121 92.7344,266.281 93.8516,233.438 94.9688,269.902 96.0859,236.203 97.1992,263.215 98.3164,226.898 99.4336,270.355 100.547,237.16 101.664,226.848 102.781,263.816 103.895,215.934 105.012,262.406 106.129,228.762 107.242,219.758 108.359,271.664 109.477,234.543 110.594,274.781 111.707,233.738 112.824,265.324 113.941,238.316 115.055,227.855 116.172,266.633 117.289,230.066 118.402,234.09 119.52,224.684 120.637,299.527 121.754,280.312 122.867,313.762 123.984,240.48 125.102,234.996 126.215,272.418 127.332,228.91 128.449,243.598 129.562,243.043 130.68,238.113 131.797,240.73 132.91,289.266 134.027,258.836 135.145,301.691 136.262,252.902 137.375,250.59 138.492,237.613 139.609,225.84 140.723,254.711 141.84,217.996 142.957,261.906 144.07,239.523 145.188,273.371 146.305,272.016 147.422,226.246 148.535,261.555 149.652,235.246 150.77,240.93 151.883,246.414 153,244.602 154.117,251.492 155.23,215.43 156.348,256.422 157.465,213.27 158.578,234.895 159.695,264.117 160.812,233.438 161.93,236.102 163.043,235.551 164.16,229.465 165.277,236.102 166.391,234.09 167.508,242.844 168.625,231.273 169.738,224.938 170.855,219.855 171.973,218.398 173.09,208.438 174.203,235.148 175.32,241.234 176.438,204.918 177.551,210.301 178.668,227 179.785,227.805 180.898,273.625 182.016,317.535 183.133,315.32 184.246,258.938 185.363,250.891 186.48,203.309 187.598,226.797 188.711,227.25 189.828,218.047 190.945,207.836 192.059,215.934 193.176,211.156 194.293,207.082 195.406,201.348 196.523,206.375 197.641,204.215 198.758,258.688 199.871,262.508 200.988,257.277 202.105,251.191 203.219,250.035 204.336,246.664 205.453,255.367 206.566,257.527 207.684,256.273 208.801,242.742 209.914,202.656 211.031,205.422 212.148,209.949 213.266,268.445 214.379,258.031 215.496,110.309 216.613,152.711 217.727,146.676 218.844,93.7109 219.961,133.648 221.074,150.047 222.191,100 223.309,132.941 224.426,137.82 225.539,162.266 226.656,217.844 227.773,218.75 228.887,323.973 230.004,290.473 231.121,236.152 232.234,204.164 233.352,203.609 234.469,202.906 235.586,192.445 236.699,196.469 237.816,200.742 238.934,193.402 240.047,278.301 241.164,319.695 242.281,256.676 243.395,214.023 244.512,306.016 245.629,284.738 246.742,215.43 247.859,221.969 248.977,197.426 250.094,100.953 251.207,107.391 252.324,102.867 253.441,188.168 254.555,102.312 255.672,116.898 256.789,114.383 257.902,196.973 259.02,127.309 260.137,126.004 261.254,127.309 262.367,123.738 263.484,256.121 264.602,309.688 265.715,292.738 266.832,220.961 267.949,207.23 269.062,293.191 270.18,221.668 271.297,226.797 272.41,297.113 273.527,304.859 274.645,223.73 275.762,223.328 276.875,225.59 277.992,230.066 279.109,221.316 280.223,225.289 281.34,302.848 282.457,302.594 283.57,225.238 284.688,225.391 285.805,224.434 286.922,302.594 288.035,229.516 289.152,226.445 290.27,252.75 291.383,315.168 292.5,243.246 293.617,240.73 294.73,310.945 295.848,307.273 296.965,232.027 298.078,237.914 299.195,301.789 300.312,206.777 301.43,182.082 302.543,186.559 303.66,270.152 304.777,227.047 305.891,141.695 307.008,145.418 308.125,221.016 309.238,137.016 310.355,128.465 311.473,173.48 312.59,221.266 313.703,245.207 314.82,171.168 315.938,175.496 317.051,364.461 318.168,359.332 319.285,278.957 320.398,280.566 321.516,275.738 322.633,278.855 323.746,267.738 324.863,350.73 325.98,330.258 327.098,273.977 328.211,265.324 329.328,265.879 330.445,260.094 331.559,351.133 332.676,272.82 333.793,267.488 334.906,258.988 336.023,152.66 337.141,232.23 338.258,172.727 339.371,169.055 340.488,178.512 341.605,165.234 342.719,238.617 343.836,166.09 344.953,173.684 346.066,166.543 347.184,168 348.301,179.266 349.414,164.027 350.531,154.973 351.648,243.246 352.766,248.578 353.879,179.316 354.996,291.328 356.113,285.043 357.227,281.168 358.344,351.887 359.461,276.641 360.574,330.309 361.691,333.781 362.809,323.82 363.926,365.117 365.039,317.031 366.156,293.492 367.273,290.676 368.387,298.422 369.504,235.098 370.621,270.254 371.734,184.852 372.852,195.766 373.969,181.078 375.082,186.008 376.199,243.648 377.316,192.043 378.434,140.941 379.547,132.844 380.664,129.473 381.781,146.375 382.895,138.324 384.012,139.633 385.129,135.004 386.242,159.602 387.359,231.578 388.477,177.156 389.594,174.137 390.707,276.391 391.824,270.004 392.941,276.742 394.055,282.98 395.172,284.789 396.289,275.988 397.402,273.121 398.52,265.629 399.637,269.902 400.75,276.996 401.867,280.465 402.984,275.789 404.102,273.523 405.215,275.836 406.332,281.117 407.449,268.746 408.562,165.082 409.68,157.738 410.797,165.688 411.91,148.535 413.027,165.133 414.145,162.871 415.262,157.992 416.375,81.5898 417.492,78.3711 418.609,75.707 419.723,73.8438 420.84,125.398 421.957,116.145 423.07,107.293 424.188,78.9258 425.305,71.6328 426.422,69.6211 427.535,50.6055 428.652,234.945 429.77,236.305 430.883,226.699 432,241.586 433.117,172.227 434.23,173.383 435.348,259.793 436.465,265.727 437.578,184.398 438.695,173.281 439.812,241.637 440.93,333.027 442.043,260.398 443.16,154.117 444.277,233.438 445.391,240.832 446.508,158.996 447.625,165.387 448.738,161.965 449.855,164.68 450.973,155.023 452.09,77.6172 453.203,79.0742 454.32,72.8867 455.438,70.4219 456.551,74.6484 457.668,133.496 458.785,59.6094 459.898,64.7422 461.016,68.9141 462.133,60.2656 463.246,59.7617 464.363,49.0469 465.48,129.223 466.598,124.242 467.711,167.598 468.828,162.164 469.945,175.996 471.059,168.855 472.176,258.336"/>
<polyline fill="none" stroke="#000000" stroke-width="0.5" stroke-dasharray="16,0" points="521.281,384.48 521.281,384.48"/>
<polyline fill="none" stroke="#000000" stroke-width="0.5" stroke-dasharray="16,0" points="74.8789,384.48 74.8789,384.48"/>
<polyline fill="none" stroke="#000000" stroke-width="0.5" stroke-dasharray="16,0" points="74.8789,32.3984 74.8789,32.3984"/>
<polyline fill="none" stroke="#000000" stroke-width="0.5" stroke-dasharray="16,0" points="521.281,32.3984 521.281,32.3984"/>
<text fill="#000000" x="298.08" y="22.3994" font-size="10" text-anchor="middle" baseline-shift="0" font-family="Helvetica">Tv Samsung 19D4010 (RMS voltage)</text>
<polyline fill="none" stroke="#000000" stroke-width="0.5" stroke-dasharray="16,0" points="521.281,384.48 521.281,32.3984"/>
<polyline fill="none" stroke="#000000" stroke-width="0.5" stroke-dasharray="16,0" points="74.8789,384.48 74.8789,32.3984 521.281,32.3984"/>
<polyline fill="none" stroke="#000000" stroke-width="0.5" stroke-dasharray="16,0" points="74.8789,384.48 521.281,384.48"/>
</g>
</svg>
