<?xml version="1.0" encoding="UTF-8" standalone="no"?>
<svg xmlns="http://www.w3.org/2000/svg"
     xmlns:xlink="http://www.w3.org/1999/xlink"
     width="576px" height="432px" viewBox="0 0 576 432">
<title>glps_renderer figure</title>
<desc>
Creator: GL2PS 1.3.5, (C) 1999-2009 C. Geuzaine
For: Octave
CreationDate: Tue Jan 31 15:52:45 2012
</desc>
<defs>
</defs>
<g shape-rendering="crispEdges">
<text fill="#000000" x="298.08" y="389.48" font-size="10" text-anchor="middle" baseline-shift="-10" font-family="Helvetica">200</text>
<text fill="#000000" x="409.68" y="389.48" font-size="10" text-anchor="middle" baseline-shift="-10" font-family="Helvetica">300</text>
<text fill="#000000" x="521.28" y="389.48" font-size="10" text-anchor="middle" baseline-shift="-10" font-family="Helvetica">400</text>
<text fill="#000000" x="69.8755" y="384.48" font-size="10" text-anchor="end" baseline-shift="-5" font-family="Helvetica">223</text>
<text fill="#000000" x="69.8755" y="334.183" font-size="10" text-anchor="end" baseline-shift="-5" font-family="Helvetica">224</text>
<text fill="#000000" x="69.8755" y="283.885" font-size="10" text-anchor="end" baseline-shift="-5" font-family="Helvetica">225</text>
<text fill="#000000" x="74.88" y="389.48" font-size="10" text-anchor="middle" baseline-shift="-10" font-family="Helvetica">0</text>
<text fill="#000000" x="186.48" y="389.48" font-size="10" text-anchor="middle" baseline-shift="-10" font-family="Helvetica">100</text>
<text fill="#000000" x="69.8755" y="233.588" font-size="10" text-anchor="end" baseline-shift="-5" font-family="Helvetica">226</text>
<text fill="#000000" x="69.8755" y="183.291" font-size="10" text-anchor="end" baseline-shift="-5" font-family="Helvetica">227</text>
<text fill="#000000" x="69.8755" y="132.994" font-size="10" text-anchor="end" baseline-shift="-5" font-family="Helvetica">228</text>
<text fill="#000000" x="69.8755" y="82.697" font-size="10" text-anchor="end" baseline-shift="-5" font-family="Helvetica">229</text>
<text fill="#000000" x="69.8755" y="32.4" font-size="10" text-anchor="end" baseline-shift="-5" font-family="Helvetica">230</text>
<text fill="#000000" x="298.08" y="402.481" font-size="10" text-anchor="middle" baseline-shift="-10" font-family="Helvetica">time (10 seconds per unit)</text>
<text fill="#000000" x="51.8755" y="208.44" font-size="10" transform="rotate(-90, 51.8755, 208.44)" text-anchor="middle" baseline-shift="0" font-family="Helvetica">volt (V)</text>
<polyline fill="none" stroke="#000000" stroke-width="0.5" stroke-dasharray="16,0" points="74.8789,32.3984 521.281,32.3984"/>
<polyline fill="none" stroke="#000000" stroke-width="0.5" stroke-dasharray="16,0" points="74.8789,384.48 74.8789,32.3984"/>
<polyline fill="none" stroke="#000000" stroke-width="0.5" stroke-dasharray="16,0" points="521.281,384.48 521.281,32.3984"/>
<polyline fill="none" stroke="#000000" stroke-width="0.5" stroke-dasharray="0,3,1,3,1,3,1,3,1,0" points="74.8789,384.48 74.8789,32.3984"/>
<polyline fill="none" stroke="#000000" stroke-width="0.5" stroke-dasharray="0,3,1,3,1,3,1,3,1,0" points="186.48,384.48 186.48,32.3984"/>
<polyline fill="none" stroke="#000000" stroke-width="0.5" stroke-dasharray="0,3,1,3,1,3,1,3,1,0" points="298.078,384.48 298.078,32.3984"/>
<polyline fill="none" stroke="#000000" stroke-width="0.5" stroke-dasharray="0,3,1,3,1,3,1,3,1,0" points="409.68,384.48 409.68,32.3984"/>
<polyline fill="none" stroke="#000000" stroke-width="0.5" stroke-dasharray="16,0" points="74.8789,384.48 521.281,384.48"/>
<polyline fill="none" stroke="#000000" stroke-width="0.5" stroke-dasharray="0,3,1,3,1,3,1,3,1,0" points="521.281,384.48 521.281,32.3984"/>
<polyline fill="none" stroke="#000000" stroke-width="0.5" stroke-dasharray="16,0" points="74.8789,384.48 74.8789,377.477"/>
<polyline fill="none" stroke="#000000" stroke-width="0.5" stroke-dasharray="16,0" points="74.8789,32.3984 74.8789,39.4023"/>
<polyline fill="none" stroke="#000000" stroke-width="0.5" stroke-dasharray="16,0" points="186.48,384.48 186.48,377.477"/>
<polyline fill="none" stroke="#000000" stroke-width="0.5" stroke-dasharray="16,0" points="186.48,32.3984 186.48,39.4023"/>
<polyline fill="none" stroke="#000000" stroke-width="0.5" stroke-dasharray="16,0" points="298.078,384.48 298.078,377.477"/>
<polyline fill="none" stroke="#000000" stroke-width="0.5" stroke-dasharray="16,0" points="298.078,32.3984 298.078,39.4023"/>
<polyline fill="none" stroke="#000000" stroke-width="0.5" stroke-dasharray="16,0" points="409.68,384.48 409.68,377.477"/>
<polyline fill="none" stroke="#000000" stroke-width="0.5" stroke-dasharray="16,0" points="409.68,32.3984 409.68,39.4023"/>
<polyline fill="none" stroke="#000000" stroke-width="0.5" stroke-dasharray="16,0" points="521.281,384.48 521.281,377.477"/>
<polyline fill="none" stroke="#000000" stroke-width="0.5" stroke-dasharray="16,0" points="521.281,32.3984 521.281,39.4023"/>
<polyline fill="none" stroke="#000000" stroke-width="0.5" stroke-dasharray="0,3,1,3,1,3,1,3,1,0" points="97.1992,384.48 97.1992,32.3984"/>
<polyline fill="none" stroke="#000000" stroke-width="0.5" stroke-dasharray="0,3,1,3,1,3,1,3,1,0" points="119.52,384.48 119.52,32.3984"/>
<polyline fill="none" stroke="#000000" stroke-width="0.5" stroke-dasharray="0,3,1,3,1,3,1,3,1,0" points="141.84,384.48 141.84,32.3984"/>
<polyline fill="none" stroke="#000000" stroke-width="0.5" stroke-dasharray="0,3,1,3,1,3,1,3,1,0" points="164.16,384.48 164.16,32.3984"/>
<polyline fill="none" stroke="#000000" stroke-width="0.5" stroke-dasharray="0,3,1,3,1,3,1,3,1,0" points="208.801,384.48 208.801,32.3984"/>
<polyline fill="none" stroke="#000000" stroke-width="0.5" stroke-dasharray="0,3,1,3,1,3,1,3,1,0" points="231.121,384.48 231.121,32.3984"/>
<polyline fill="none" stroke="#000000" stroke-width="0.5" stroke-dasharray="0,3,1,3,1,3,1,3,1,0" points="253.441,384.48 253.441,32.3984"/>
<polyline fill="none" stroke="#000000" stroke-width="0.5" stroke-dasharray="0,3,1,3,1,3,1,3,1,0" points="275.762,384.48 275.762,32.3984"/>
<polyline fill="none" stroke="#000000" stroke-width="0.5" stroke-dasharray="0,3,1,3,1,3,1,3,1,0" points="320.398,384.48 320.398,32.3984"/>
<polyline fill="none" stroke="#000000" stroke-width="0.5" stroke-dasharray="0,3,1,3,1,3,1,3,1,0" points="342.719,384.48 342.719,32.3984"/>
<polyline fill="none" stroke="#000000" stroke-width="0.5" stroke-dasharray="0,3,1,3,1,3,1,3,1,0" points="365.039,384.48 365.039,32.3984"/>
<polyline fill="none" stroke="#000000" stroke-width="0.5" stroke-dasharray="0,3,1,3,1,3,1,3,1,0" points="387.359,384.48 387.359,32.3984"/>
<polyline fill="none" stroke="#000000" stroke-width="0.5" stroke-dasharray="0,3,1,3,1,3,1,3,1,0" points="432,384.48 432,32.3984"/>
<polyline fill="none" stroke="#000000" stroke-width="0.5" stroke-dasharray="0,3,1,3,1,3,1,3,1,0" points="454.32,384.48 454.32,32.3984"/>
<polyline fill="none" stroke="#000000" stroke-width="0.5" stroke-dasharray="0,3,1,3,1,3,1,3,1,0" points="476.641,384.48 476.641,32.3984"/>
<polyline fill="none" stroke="#000000" stroke-width="0.5" stroke-dasharray="0,3,1,3,1,3,1,3,1,0" points="498.961,384.48 498.961,32.3984"/>
<polyline fill="none" stroke="#000000" stroke-width="0.5" stroke-dasharray="0,3,1,3,1,3,1,3,1,0" points="74.8789,384.48 521.281,384.48"/>
<polyline fill="none" stroke="#000000" stroke-width="0.5" stroke-dasharray="0,3,1,3,1,3,1,3,1,0" points="74.8789,334.184 521.281,334.184"/>
<polyline fill="none" stroke="#000000" stroke-width="0.5" stroke-dasharray="0,3,1,3,1,3,1,3,1,0" points="74.8789,283.887 521.281,283.887"/>
<polyline fill="none" stroke="#000000" stroke-width="0.5" stroke-dasharray="0,3,1,3,1,3,1,3,1,0" points="74.8789,233.586 521.281,233.586"/>
<polyline fill="none" stroke="#000000" stroke-width="0.5" stroke-dasharray="0,3,1,3,1,3,1,3,1,0" points="74.8789,183.289 521.281,183.289"/>
<polyline fill="none" stroke="#000000" stroke-width="0.5" stroke-dasharray="0,3,1,3,1,3,1,3,1,0" points="74.8789,132.992 521.281,132.992"/>
<polyline fill="none" stroke="#000000" stroke-width="0.5" stroke-dasharray="0,3,1,3,1,3,1,3,1,0" points="74.8789,82.6953 521.281,82.6953"/>
<polyline fill="none" stroke="#000000" stroke-width="0.5" stroke-dasharray="0,3,1,3,1,3,1,3,1,0" points="74.8789,32.3984 521.281,32.3984"/>
<polyline fill="none" stroke="#000000" stroke-width="0.5" stroke-dasharray="16,0" points="74.8789,384.48 81.8867,384.48"/>
<polyline fill="none" stroke="#000000" stroke-width="0.5" stroke-dasharray="16,0" points="521.281,384.48 514.273,384.48"/>
<polyline fill="none" stroke="#000000" stroke-width="0.5" stroke-dasharray="16,0" points="74.8789,334.184 81.8867,334.184"/>
<polyline fill="none" stroke="#000000" stroke-width="0.5" stroke-dasharray="16,0" points="521.281,334.184 514.273,334.184"/>
<polyline fill="none" stroke="#000000" stroke-width="0.5" stroke-dasharray="16,0" points="74.8789,283.887 81.8867,283.887"/>
<polyline fill="none" stroke="#000000" stroke-width="0.5" stroke-dasharray="16,0" points="521.281,283.887 514.273,283.887"/>
<polyline fill="none" stroke="#000000" stroke-width="0.5" stroke-dasharray="16,0" points="74.8789,233.586 81.8867,233.586"/>
<polyline fill="none" stroke="#000000" stroke-width="0.5" stroke-dasharray="16,0" points="521.281,233.586 514.273,233.586"/>
<polyline fill="none" stroke="#000000" stroke-width="0.5" stroke-dasharray="16,0" points="74.8789,183.289 81.8867,183.289"/>
<polyline fill="none" stroke="#000000" stroke-width="0.5" stroke-dasharray="16,0" points="521.281,183.289 514.273,183.289"/>
<polyline fill="none" stroke="#000000" stroke-width="0.5" stroke-dasharray="16,0" points="74.8789,132.992 81.8867,132.992"/>
<polyline fill="none" stroke="#000000" stroke-width="0.5" stroke-dasharray="16,0" points="521.281,132.992 514.273,132.992"/>
<polyline fill="none" stroke="#000000" stroke-width="0.5" stroke-dasharray="16,0" points="74.8789,82.6953 81.8867,82.6953"/>
<polyline fill="none" stroke="#000000" stroke-width="0.5" stroke-dasharray="16,0" points="521.281,82.6953 514.273,82.6953"/>
<polyline fill="none" stroke="#000000" stroke-width="0.5" stroke-dasharray="16,0" points="74.8789,32.3984 81.8867,32.3984"/>
<polyline fill="none" stroke="#000000" stroke-width="0.5" stroke-dasharray="16,0" points="521.281,32.3984 514.273,32.3984"/>
<polyline fill="none" stroke="#000000" stroke-width="0.5" stroke-dasharray="0,3,1,3,1,3,1,3,1,0" points="74.8789,374.418 521.281,374.418"/>
<polyline fill="none" stroke="#000000" stroke-width="0.5" stroke-dasharray="0,3,1,3,1,3,1,3,1,0" points="74.8789,364.359 521.281,364.359"/>
<polyline fill="none" stroke="#000000" stroke-width="0.5" stroke-dasharray="0,3,1,3,1,3,1,3,1,0" points="74.8789,354.301 521.281,354.301"/>
<polyline fill="none" stroke="#000000" stroke-width="0.5" stroke-dasharray="0,3,1,3,1,3,1,3,1,0" points="74.8789,344.242 521.281,344.242"/>
<polyline fill="none" stroke="#000000" stroke-width="0.5" stroke-dasharray="0,3,1,3,1,3,1,3,1,0" points="74.8789,324.121 521.281,324.121"/>
<polyline fill="none" stroke="#000000" stroke-width="0.5" stroke-dasharray="0,3,1,3,1,3,1,3,1,0" points="74.8789,314.062 521.281,314.062"/>
<polyline fill="none" stroke="#000000" stroke-width="0.5" stroke-dasharray="0,3,1,3,1,3,1,3,1,0" points="74.8789,304.004 521.281,304.004"/>
<polyline fill="none" stroke="#000000" stroke-width="0.5" stroke-dasharray="0,3,1,3,1,3,1,3,1,0" points="74.8789,293.945 521.281,293.945"/>
<polyline fill="none" stroke="#000000" stroke-width="0.5" stroke-dasharray="0,3,1,3,1,3,1,3,1,0" points="74.8789,273.824 521.281,273.824"/>
<polyline fill="none" stroke="#000000" stroke-width="0.5" stroke-dasharray="0,3,1,3,1,3,1,3,1,0" points="74.8789,263.766 521.281,263.766"/>
<polyline fill="none" stroke="#000000" stroke-width="0.5" stroke-dasharray="0,3,1,3,1,3,1,3,1,0" points="74.8789,253.707 521.281,253.707"/>
<polyline fill="none" stroke="#000000" stroke-width="0.5" stroke-dasharray="0,3,1,3,1,3,1,3,1,0" points="74.8789,243.648 521.281,243.648"/>
<polyline fill="none" stroke="#000000" stroke-width="0.5" stroke-dasharray="0,3,1,3,1,3,1,3,1,0" points="74.8789,223.527 521.281,223.527"/>
<polyline fill="none" stroke="#000000" stroke-width="0.5" stroke-dasharray="0,3,1,3,1,3,1,3,1,0" points="74.8789,213.469 521.281,213.469"/>
<polyline fill="none" stroke="#000000" stroke-width="0.5" stroke-dasharray="0,3,1,3,1,3,1,3,1,0" points="74.8789,203.41 521.281,203.41"/>
<polyline fill="none" stroke="#000000" stroke-width="0.5" stroke-dasharray="0,3,1,3,1,3,1,3,1,0" points="74.8789,193.352 521.281,193.352"/>
<polyline fill="none" stroke="#000000" stroke-width="0.5" stroke-dasharray="0,3,1,3,1,3,1,3,1,0" points="74.8789,173.23 521.281,173.23"/>
<polyline fill="none" stroke="#000000" stroke-width="0.5" stroke-dasharray="0,3,1,3,1,3,1,3,1,0" points="74.8789,163.172 521.281,163.172"/>
<polyline fill="none" stroke="#000000" stroke-width="0.5" stroke-dasharray="0,3,1,3,1,3,1,3,1,0" points="74.8789,153.113 521.281,153.113"/>
<polyline fill="none" stroke="#000000" stroke-width="0.5" stroke-dasharray="0,3,1,3,1,3,1,3,1,0" points="74.8789,143.051 521.281,143.051"/>
<polyline fill="none" stroke="#000000" stroke-width="0.5" stroke-dasharray="0,3,1,3,1,3,1,3,1,0" points="74.8789,122.934 521.281,122.934"/>
<polyline fill="none" stroke="#000000" stroke-width="0.5" stroke-dasharray="0,3,1,3,1,3,1,3,1,0" points="74.8789,112.875 521.281,112.875"/>
<polyline fill="none" stroke="#000000" stroke-width="0.5" stroke-dasharray="0,3,1,3,1,3,1,3,1,0" points="74.8789,102.816 521.281,102.816"/>
<polyline fill="none" stroke="#000000" stroke-width="0.5" stroke-dasharray="0,3,1,3,1,3,1,3,1,0" points="74.8789,92.7539 521.281,92.7539"/>
<polyline fill="none" stroke="#000000" stroke-width="0.5" stroke-dasharray="0,3,1,3,1,3,1,3,1,0" points="74.8789,72.6367 521.281,72.6367"/>
<polyline fill="none" stroke="#000000" stroke-width="0.5" stroke-dasharray="0,3,1,3,1,3,1,3,1,0" points="74.8789,62.5781 521.281,62.5781"/>
<polyline fill="none" stroke="#000000" stroke-width="0.5" stroke-dasharray="0,3,1,3,1,3,1,3,1,0" points="74.8789,52.5195 521.281,52.5195"/>
<polyline fill="none" stroke="#000000" stroke-width="0.5" stroke-dasharray="0,3,1,3,1,3,1,3,1,0" points="74.8789,42.457 521.281,42.457"/>
<polyline fill="none" stroke="#ff0000" stroke-width="1.5" points="75.9961,81.4375 77.1133,82.4453 78.2266,98.4883 79.3438,107.441 80.4609,109.355 81.5742,132.188 82.6914,116.848 83.8086,124.492 84.9258,157.992 86.0391,144.965 87.1562,142.398 88.2734,155.023 89.3867,132.691 90.5039,139.984 91.6211,143.305 92.7344,150.047 93.8516,142.602 94.9688,158.191 96.0859,155.477 97.1992,165.434 98.3164,162.367 99.4336,144.16 100.547,168.254 101.664,159.953 102.781,164.781 103.895,148.383 105.012,158.797 106.129,160.004 107.242,147.68 108.359,191.238 109.477,183.895 110.594,207.785 111.707,181.227 112.824,158.898 113.941,176.098 115.055,172.98 116.172,183.945 117.289,166.945 118.402,177.758 119.52,166.492 120.637,179.016 121.754,170.918 122.867,180.727 123.984,192.242 125.102,174.086 126.215,181.984 127.332,172.426 128.449,174.488 129.562,146.223 130.68,137.422 131.797,198.23 132.91,203.309 134.027,213.52 135.145,205.32 136.262,223.074 137.375,234.344 138.492,222.07 139.609,240.883 140.723,234.594 141.84,226.699 142.957,225.691 144.07,219.605 145.188,239.672 146.305,223.68 147.422,247.973 148.535,231.426 149.652,241.285 150.77,240.781 151.883,205.523 153,227.047 154.117,211.859 155.23,229.516 156.348,220.309 157.465,221.867 158.578,210.703 159.695,222.523 160.812,289.57 161.93,277.445 163.043,291.984 164.16,299.578 165.277,285.746 166.391,288.562 167.508,284.941 168.625,306.168 169.738,249.531 170.855,247.57 171.973,249.582 173.09,262.66 174.203,270.355 175.32,261 176.438,282.527 177.551,275.336 178.668,261.102 179.785,212.262 180.898,198.129 182.016,268.996 183.133,255.969 184.246,255.719 185.363,225.238 186.48,200.793 187.598,212.109 188.711,222.723 189.828,234.395 190.945,227.199 192.059,220.762 193.176,202.555 194.293,200.391 195.406,256.773 196.523,245.258 197.641,253.051 198.758,121.625 199.871,124.945 200.988,140.992 202.105,133.699 203.219,150.75 204.336,147.176 205.453,159.551 206.566,155.176 207.684,147.578 208.801,86.2188 209.914,88.1289 211.031,91.1445 212.148,82.043 213.266,94.3633 214.379,84.707 215.496,79.7773 216.613,99.1445 217.727,115.941 218.844,97.8867 219.961,111.816 221.074,107.391 222.191,100.652 223.309,96.1758 224.426,100.953 225.539,94.4141 226.656,104.828 227.773,88.9844 228.887,97.8359 230.004,104.574 231.121,109.957 232.234,138.629 233.352,141.09 234.469,132.539 235.586,134.199 236.699,122.281 237.816,130.68 238.934,125.5 240.047,120.82 241.164,115.137 242.281,115.793 243.395,124.594 244.512,125.148 245.629,119.867 246.742,122.43 247.859,118.711 248.977,132.992 250.094,120.719 251.207,118.355 252.324,115.137 253.441,121.125 254.555,115.34 255.672,116.445 256.789,122.836 257.902,124.492 259.02,183.543 260.137,174.035 261.254,123.336 262.367,132.492 263.484,145.367 264.602,145.969 265.715,153.062 266.832,132.238 267.949,149.441 269.062,137.773 270.18,145.266 271.297,145.113 272.41,140.188 273.527,119.766 274.645,121.375 275.762,127.461 276.875,111.77 277.992,121.625 279.109,122.379 280.223,118.809 281.34,125.5 282.457,115.488 283.57,127.16 284.688,120.871 285.805,135.004 286.922,129.926 288.035,129.02 289.152,142.047 290.27,118.508 291.383,116.797 292.5,117.957 293.617,119.109 294.73,130.078 295.848,116.043 296.965,129.523 298.078,125.148 299.195,139.129 300.312,133.496 301.43,127.211 302.543,128.668 303.66,134.352 304.777,140.285 305.891,140.637 307.008,144.109 308.125,127.762 309.238,112.824 310.355,128.016 311.473,115.793 312.59,118.559 313.703,128.316 314.82,126.859 315.938,136.664 317.051,132.992 318.168,228.457 319.285,218.898 320.398,211.859 321.516,219.355 322.633,266.484 323.746,261.051 324.863,261.906 325.98,203.359 327.098,200.543 328.211,192.242 329.328,209.645 330.445,202.203 331.559,214.676 332.676,212.664 333.793,202.152 334.906,200.039 336.023,203.609 337.141,196.719 338.258,183.742 339.371,185.656 340.488,207.938 341.605,199.336 342.719,189.578 343.836,198.379 344.953,189.527 346.066,200.391 347.184,208.289 348.301,131.332 349.414,114.234 350.531,127.512 351.648,107.09 352.766,135.559 353.879,139.934 354.996,121.426 356.113,137.168 357.227,128.062 358.344,128.062 359.461,135.309 360.574,136.664 361.691,140.035 362.809,133.496 363.926,146.02 365.039,124.746 366.156,136.262 367.273,149.59 368.387,129.977 369.504,128.918 370.621,118.91 371.734,124.09 372.852,125.246 373.969,119.613 375.082,133.094 376.199,123.184 377.316,126.957 378.434,131.484 379.547,132.742 380.664,140.387 381.781,135.961 382.895,151.199 384.012,150.75 385.129,152.609 386.242,156.785 387.359,205.223 388.477,209.848 389.594,161.914 390.707,146.824 391.824,131.434 392.941,152.609 394.055,140.941 395.172,140.188 396.289,142.047 397.402,138.727 398.52,131.133 399.637,117 400.75,128.316 401.867,139.531 402.984,135.91 404.102,137.371 405.215,147.781 406.332,155.828 407.449,157.387 408.562,151.254 409.68,152.156 410.797,161.664 411.91,166.391 413.027,156.785 414.145,137.57 415.262,148.285 416.375,146.676 417.492,149.441 418.609,138.727 419.723,146.723 420.84,154.32 421.957,139.332 423.07,148.836 424.188,139.332 425.305,144.461 426.422,138.879 427.535,141.191 428.652,143.508 429.77,140.336 430.883,144.312 432,121.879 433.117,123.59 434.23,127.965 435.348,121.375 436.465,136.113 437.578,125.902 438.695,127.613 439.812,128.016 440.93,139.383 442.043,119.012 443.16,122.48 444.277,138.98 445.391,116.344 446.508,130.43 447.625,164.43 448.738,276.039 449.855,282.074 450.973,327.695 452.09,332.523 453.203,333.629 454.32,279.859 455.438,277.801 456.551,278.199 457.668,375.879 458.785,371.352 459.898,372.055 461.016,375.879 462.133,362.902 463.246,376.027 464.363,366.727 465.48,289.719 466.598,291.582 467.711,292.082 468.828,162.164 469.945,156.785 471.059,155.98 472.176,155.426 473.293,172.477 474.406,180.02 475.523,168.602"/>
<polyline fill="none" stroke="#000000" stroke-width="0.5" stroke-dasharray="16,0" points="521.281,384.48 521.281,384.48"/>
<polyline fill="none" stroke="#000000" stroke-width="0.5" stroke-dasharray="16,0" points="74.8789,384.48 74.8789,384.48"/>
<polyline fill="none" stroke="#000000" stroke-width="0.5" stroke-dasharray="16,0" points="74.8789,32.3984 74.8789,32.3984"/>
<polyline fill="none" stroke="#000000" stroke-width="0.5" stroke-dasharray="16,0" points="521.281,32.3984 521.281,32.3984"/>
<text fill="#000000" x="298.08" y="22.3994" font-size="10" text-anchor="middle" baseline-shift="0" font-family="Helvetica">Tv SonyBravia KDL-40W5500 (RMS voltage)</text>
<polyline fill="none" stroke="#000000" stroke-width="0.5" stroke-dasharray="16,0" points="521.281,384.48 521.281,32.3984"/>
<polyline fill="none" stroke="#000000" stroke-width="0.5" stroke-dasharray="16,0" points="74.8789,384.48 74.8789,32.3984 521.281,32.3984"/>
<polyline fill="none" stroke="#000000" stroke-width="0.5" stroke-dasharray="16,0" points="74.8789,384.48 521.281,384.48"/>
</g>
</svg>
