<?xml version="1.0" encoding="UTF-8" standalone="no"?>
<svg xmlns="http://www.w3.org/2000/svg"
     xmlns:xlink="http://www.w3.org/1999/xlink"
     width="576px" height="432px" viewBox="0 0 576 432">
<title>glps_renderer figure</title>
<desc>
Creator: GL2PS 1.3.5, (C) 1999-2009 C. Geuzaine
For: Octave
CreationDate: Tue Jan 31 15:51:20 2012
</desc>
<defs>
</defs>
<g shape-rendering="crispEdges">
<text fill="#000000" x="298.08" y="389.481" font-size="10" text-anchor="middle" baseline-shift="-10" font-family="Helvetica">200</text>
<text fill="#000000" x="409.68" y="389.481" font-size="10" text-anchor="middle" baseline-shift="-10" font-family="Helvetica">300</text>
<text fill="#000000" x="521.28" y="389.481" font-size="10" text-anchor="middle" baseline-shift="-10" font-family="Helvetica">400</text>
<text fill="#000000" x="69.8755" y="384.48" font-size="10" text-anchor="end" baseline-shift="-5" font-family="Helvetica">260</text>
<text fill="#000000" x="69.8755" y="314.064" font-size="10" text-anchor="end" baseline-shift="-5" font-family="Helvetica">280</text>
<text fill="#000000" x="69.8755" y="243.648" font-size="10" text-anchor="end" baseline-shift="-5" font-family="Helvetica">300</text>
<text fill="#000000" x="74.88" y="389.481" font-size="10" text-anchor="middle" baseline-shift="-10" font-family="Helvetica">0</text>
<text fill="#000000" x="186.48" y="389.481" font-size="10" text-anchor="middle" baseline-shift="-10" font-family="Helvetica">100</text>
<text fill="#000000" x="69.8755" y="173.232" font-size="10" text-anchor="end" baseline-shift="-5" font-family="Helvetica">320</text>
<text fill="#000000" x="69.8755" y="102.816" font-size="10" text-anchor="end" baseline-shift="-5" font-family="Helvetica">340</text>
<text fill="#000000" x="69.8755" y="32.4" font-size="10" text-anchor="end" baseline-shift="-5" font-family="Helvetica">360</text>
<text fill="#000000" x="298.08" y="402.481" font-size="10" text-anchor="middle" baseline-shift="-10" font-family="Helvetica">time (10 seconds per unit)</text>
<text fill="#000000" x="51.8755" y="208.44" font-size="10" transform="rotate(-90, 51.8755, 208.44)" text-anchor="middle" baseline-shift="0" font-family="Helvetica">degree (°)</text>
<polyline fill="none" stroke="#000000" stroke-width="0.5" stroke-dasharray="16,0" points="74.8789,32.3984 521.281,32.3984"/>
<polyline fill="none" stroke="#000000" stroke-width="0.5" stroke-dasharray="16,0" points="74.8789,384.48 74.8789,32.3984"/>
<polyline fill="none" stroke="#000000" stroke-width="0.5" stroke-dasharray="16,0" points="521.281,384.48 521.281,32.3984"/>
<polyline fill="none" stroke="#000000" stroke-width="0.5" stroke-dasharray="0,3,1,3,1,3,1,3,1,0" points="74.8789,384.48 74.8789,32.3984"/>
<polyline fill="none" stroke="#000000" stroke-width="0.5" stroke-dasharray="0,3,1,3,1,3,1,3,1,0" points="186.48,384.48 186.48,32.3984"/>
<polyline fill="none" stroke="#000000" stroke-width="0.5" stroke-dasharray="0,3,1,3,1,3,1,3,1,0" points="298.078,384.48 298.078,32.3984"/>
<polyline fill="none" stroke="#000000" stroke-width="0.5" stroke-dasharray="0,3,1,3,1,3,1,3,1,0" points="409.68,384.48 409.68,32.3984"/>
<polyline fill="none" stroke="#000000" stroke-width="0.5" stroke-dasharray="16,0" points="74.8789,384.48 521.281,384.48"/>
<polyline fill="none" stroke="#000000" stroke-width="0.5" stroke-dasharray="0,3,1,3,1,3,1,3,1,0" points="521.281,384.48 521.281,32.3984"/>
<polyline fill="none" stroke="#000000" stroke-width="0.5" stroke-dasharray="16,0" points="74.8789,384.48 74.8789,377.477"/>
<polyline fill="none" stroke="#000000" stroke-width="0.5" stroke-dasharray="16,0" points="74.8789,32.3984 74.8789,39.4023"/>
<polyline fill="none" stroke="#000000" stroke-width="0.5" stroke-dasharray="16,0" points="186.48,384.48 186.48,377.477"/>
<polyline fill="none" stroke="#000000" stroke-width="0.5" stroke-dasharray="16,0" points="186.48,32.3984 186.48,39.4023"/>
<polyline fill="none" stroke="#000000" stroke-width="0.5" stroke-dasharray="16,0" points="298.078,384.48 298.078,377.477"/>
<polyline fill="none" stroke="#000000" stroke-width="0.5" stroke-dasharray="16,0" points="298.078,32.3984 298.078,39.4023"/>
<polyline fill="none" stroke="#000000" stroke-width="0.5" stroke-dasharray="16,0" points="409.68,384.48 409.68,377.477"/>
<polyline fill="none" stroke="#000000" stroke-width="0.5" stroke-dasharray="16,0" points="409.68,32.3984 409.68,39.4023"/>
<polyline fill="none" stroke="#000000" stroke-width="0.5" stroke-dasharray="16,0" points="521.281,384.48 521.281,377.477"/>
<polyline fill="none" stroke="#000000" stroke-width="0.5" stroke-dasharray="16,0" points="521.281,32.3984 521.281,39.4023"/>
<polyline fill="none" stroke="#000000" stroke-width="0.5" stroke-dasharray="0,3,1,3,1,3,1,3,1,0" points="97.1992,384.48 97.1992,32.3984"/>
<polyline fill="none" stroke="#000000" stroke-width="0.5" stroke-dasharray="0,3,1,3,1,3,1,3,1,0" points="119.52,384.48 119.52,32.3984"/>
<polyline fill="none" stroke="#000000" stroke-width="0.5" stroke-dasharray="0,3,1,3,1,3,1,3,1,0" points="141.84,384.48 141.84,32.3984"/>
<polyline fill="none" stroke="#000000" stroke-width="0.5" stroke-dasharray="0,3,1,3,1,3,1,3,1,0" points="164.16,384.48 164.16,32.3984"/>
<polyline fill="none" stroke="#000000" stroke-width="0.5" stroke-dasharray="0,3,1,3,1,3,1,3,1,0" points="208.801,384.48 208.801,32.3984"/>
<polyline fill="none" stroke="#000000" stroke-width="0.5" stroke-dasharray="0,3,1,3,1,3,1,3,1,0" points="231.121,384.48 231.121,32.3984"/>
<polyline fill="none" stroke="#000000" stroke-width="0.5" stroke-dasharray="0,3,1,3,1,3,1,3,1,0" points="253.441,384.48 253.441,32.3984"/>
<polyline fill="none" stroke="#000000" stroke-width="0.5" stroke-dasharray="0,3,1,3,1,3,1,3,1,0" points="275.762,384.48 275.762,32.3984"/>
<polyline fill="none" stroke="#000000" stroke-width="0.5" stroke-dasharray="0,3,1,3,1,3,1,3,1,0" points="320.398,384.48 320.398,32.3984"/>
<polyline fill="none" stroke="#000000" stroke-width="0.5" stroke-dasharray="0,3,1,3,1,3,1,3,1,0" points="342.719,384.48 342.719,32.3984"/>
<polyline fill="none" stroke="#000000" stroke-width="0.5" stroke-dasharray="0,3,1,3,1,3,1,3,1,0" points="365.039,384.48 365.039,32.3984"/>
<polyline fill="none" stroke="#000000" stroke-width="0.5" stroke-dasharray="0,3,1,3,1,3,1,3,1,0" points="387.359,384.48 387.359,32.3984"/>
<polyline fill="none" stroke="#000000" stroke-width="0.5" stroke-dasharray="0,3,1,3,1,3,1,3,1,0" points="432,384.48 432,32.3984"/>
<polyline fill="none" stroke="#000000" stroke-width="0.5" stroke-dasharray="0,3,1,3,1,3,1,3,1,0" points="454.32,384.48 454.32,32.3984"/>
<polyline fill="none" stroke="#000000" stroke-width="0.5" stroke-dasharray="0,3,1,3,1,3,1,3,1,0" points="476.641,384.48 476.641,32.3984"/>
<polyline fill="none" stroke="#000000" stroke-width="0.5" stroke-dasharray="0,3,1,3,1,3,1,3,1,0" points="498.961,384.48 498.961,32.3984"/>
<polyline fill="none" stroke="#000000" stroke-width="0.5" stroke-dasharray="0,3,1,3,1,3,1,3,1,0" points="74.8789,384.48 521.281,384.48"/>
<polyline fill="none" stroke="#000000" stroke-width="0.5" stroke-dasharray="0,3,1,3,1,3,1,3,1,0" points="74.8789,314.062 521.281,314.062"/>
<polyline fill="none" stroke="#000000" stroke-width="0.5" stroke-dasharray="0,3,1,3,1,3,1,3,1,0" points="74.8789,243.648 521.281,243.648"/>
<polyline fill="none" stroke="#000000" stroke-width="0.5" stroke-dasharray="0,3,1,3,1,3,1,3,1,0" points="74.8789,173.23 521.281,173.23"/>
<polyline fill="none" stroke="#000000" stroke-width="0.5" stroke-dasharray="0,3,1,3,1,3,1,3,1,0" points="74.8789,102.816 521.281,102.816"/>
<polyline fill="none" stroke="#000000" stroke-width="0.5" stroke-dasharray="0,3,1,3,1,3,1,3,1,0" points="74.8789,32.3984 521.281,32.3984"/>
<polyline fill="none" stroke="#000000" stroke-width="0.5" stroke-dasharray="16,0" points="74.8789,384.48 81.8867,384.48"/>
<polyline fill="none" stroke="#000000" stroke-width="0.5" stroke-dasharray="16,0" points="521.281,384.48 514.273,384.48"/>
<polyline fill="none" stroke="#000000" stroke-width="0.5" stroke-dasharray="16,0" points="74.8789,314.062 81.8867,314.062"/>
<polyline fill="none" stroke="#000000" stroke-width="0.5" stroke-dasharray="16,0" points="521.281,314.062 514.273,314.062"/>
<polyline fill="none" stroke="#000000" stroke-width="0.5" stroke-dasharray="16,0" points="74.8789,243.648 81.8867,243.648"/>
<polyline fill="none" stroke="#000000" stroke-width="0.5" stroke-dasharray="16,0" points="521.281,243.648 514.273,243.648"/>
<polyline fill="none" stroke="#000000" stroke-width="0.5" stroke-dasharray="16,0" points="74.8789,173.23 81.8867,173.23"/>
<polyline fill="none" stroke="#000000" stroke-width="0.5" stroke-dasharray="16,0" points="521.281,173.23 514.273,173.23"/>
<polyline fill="none" stroke="#000000" stroke-width="0.5" stroke-dasharray="16,0" points="74.8789,102.816 81.8867,102.816"/>
<polyline fill="none" stroke="#000000" stroke-width="0.5" stroke-dasharray="16,0" points="521.281,102.816 514.273,102.816"/>
<polyline fill="none" stroke="#000000" stroke-width="0.5" stroke-dasharray="16,0" points="74.8789,32.3984 81.8867,32.3984"/>
<polyline fill="none" stroke="#000000" stroke-width="0.5" stroke-dasharray="16,0" points="521.281,32.3984 514.273,32.3984"/>
<polyline fill="none" stroke="#000000" stroke-width="0.5" stroke-dasharray="0,3,1,3,1,3,1,3,1,0" points="74.8789,370.398 521.281,370.398"/>
<polyline fill="none" stroke="#000000" stroke-width="0.5" stroke-dasharray="0,3,1,3,1,3,1,3,1,0" points="74.8789,356.312 521.281,356.312"/>
<polyline fill="none" stroke="#000000" stroke-width="0.5" stroke-dasharray="0,3,1,3,1,3,1,3,1,0" points="74.8789,342.23 521.281,342.23"/>
<polyline fill="none" stroke="#000000" stroke-width="0.5" stroke-dasharray="0,3,1,3,1,3,1,3,1,0" points="74.8789,328.148 521.281,328.148"/>
<polyline fill="none" stroke="#000000" stroke-width="0.5" stroke-dasharray="0,3,1,3,1,3,1,3,1,0" points="74.8789,299.98 521.281,299.98"/>
<polyline fill="none" stroke="#000000" stroke-width="0.5" stroke-dasharray="0,3,1,3,1,3,1,3,1,0" points="74.8789,285.898 521.281,285.898"/>
<polyline fill="none" stroke="#000000" stroke-width="0.5" stroke-dasharray="0,3,1,3,1,3,1,3,1,0" points="74.8789,271.812 521.281,271.812"/>
<polyline fill="none" stroke="#000000" stroke-width="0.5" stroke-dasharray="0,3,1,3,1,3,1,3,1,0" points="74.8789,257.73 521.281,257.73"/>
<polyline fill="none" stroke="#000000" stroke-width="0.5" stroke-dasharray="0,3,1,3,1,3,1,3,1,0" points="74.8789,229.566 521.281,229.566"/>
<polyline fill="none" stroke="#000000" stroke-width="0.5" stroke-dasharray="0,3,1,3,1,3,1,3,1,0" points="74.8789,215.48 521.281,215.48"/>
<polyline fill="none" stroke="#000000" stroke-width="0.5" stroke-dasharray="0,3,1,3,1,3,1,3,1,0" points="74.8789,201.398 521.281,201.398"/>
<polyline fill="none" stroke="#000000" stroke-width="0.5" stroke-dasharray="0,3,1,3,1,3,1,3,1,0" points="74.8789,187.316 521.281,187.316"/>
<polyline fill="none" stroke="#000000" stroke-width="0.5" stroke-dasharray="0,3,1,3,1,3,1,3,1,0" points="74.8789,159.148 521.281,159.148"/>
<polyline fill="none" stroke="#000000" stroke-width="0.5" stroke-dasharray="0,3,1,3,1,3,1,3,1,0" points="74.8789,145.066 521.281,145.066"/>
<polyline fill="none" stroke="#000000" stroke-width="0.5" stroke-dasharray="0,3,1,3,1,3,1,3,1,0" points="74.8789,130.98 521.281,130.98"/>
<polyline fill="none" stroke="#000000" stroke-width="0.5" stroke-dasharray="0,3,1,3,1,3,1,3,1,0" points="74.8789,116.898 521.281,116.898"/>
<polyline fill="none" stroke="#000000" stroke-width="0.5" stroke-dasharray="0,3,1,3,1,3,1,3,1,0" points="74.8789,88.7344 521.281,88.7344"/>
<polyline fill="none" stroke="#000000" stroke-width="0.5" stroke-dasharray="0,3,1,3,1,3,1,3,1,0" points="74.8789,74.6484 521.281,74.6484"/>
<polyline fill="none" stroke="#000000" stroke-width="0.5" stroke-dasharray="0,3,1,3,1,3,1,3,1,0" points="74.8789,60.5664 521.281,60.5664"/>
<polyline fill="none" stroke="#000000" stroke-width="0.5" stroke-dasharray="0,3,1,3,1,3,1,3,1,0" points="74.8789,46.4844 521.281,46.4844"/>
<polyline fill="none" stroke="#ff0000" stroke-width="1.5" points="75.9961,345.75 77.1133,345.75 78.2266,345.75 79.3438,345.75 80.4609,345.75 81.5742,345.75 82.6914,345.75 83.8086,345.75 84.9258,345.75 86.0391,345.75 87.1562,345.75 88.2734,106.336 89.3867,92.2539 90.5039,92.2539 91.6211,92.2539 92.7344,92.2539 93.8516,92.2539 94.9688,127.461 96.0859,99.2969 97.1992,92.2539 98.3164,92.2539 99.4336,92.2539 100.547,92.2539 101.664,92.2539 102.781,92.2539 103.895,92.2539 105.012,92.2539 106.129,92.2539 107.242,92.2539 108.359,92.2539 109.477,92.2539 110.594,92.2539 111.707,92.2539 112.824,92.2539 113.941,92.2539 115.055,92.2539 116.172,92.2539 117.289,92.2539 118.402,92.2539 119.52,92.2539 120.637,92.2539 121.754,92.2539 122.867,92.2539 123.984,92.2539 125.102,92.2539 126.215,92.2539 127.332,92.2539 128.449,92.2539 129.562,92.2539 130.68,92.2539 131.797,92.2539 132.91,92.2539 134.027,92.2539 135.145,92.2539 136.262,92.2539 137.375,92.2539 138.492,92.2539 139.609,92.2539 140.723,92.2539 141.84,113.379 142.957,127.461 144.07,127.461 145.188,99.2969 146.305,92.2539 147.422,92.2539 148.535,92.2539 149.652,92.2539 150.77,92.2539 151.883,92.2539 153,92.2539 154.117,92.2539 155.23,92.2539 156.348,92.2539 157.465,92.2539 158.578,92.2539 159.695,92.2539 160.812,92.2539 161.93,92.2539 163.043,92.2539 164.16,92.2539 165.277,92.2539 166.391,92.2539 167.508,92.2539 168.625,92.2539 169.738,92.2539 170.855,92.2539 171.973,92.2539 173.09,92.2539 174.203,92.2539 175.32,92.2539 176.438,92.2539 177.551,92.2539 178.668,92.2539 179.785,92.2539 180.898,92.2539 182.016,92.2539 183.133,92.2539 184.246,92.2539 185.363,92.2539 186.48,92.2539 187.598,92.2539 188.711,92.2539 189.828,92.2539 190.945,92.2539 192.059,92.2539 193.176,92.2539 194.293,92.2539 195.406,92.2539 196.523,92.2539 197.641,92.2539 198.758,92.2539 199.871,92.2539 200.988,92.2539 202.105,92.2539 203.219,92.2539 204.336,92.2539 205.453,92.2539 206.566,92.2539 207.684,92.2539 208.801,92.2539 209.914,92.2539 211.031,92.2539 212.148,92.2539 213.266,92.2539 214.379,92.2539 215.496,92.2539 216.613,92.2539 217.727,92.2539 218.844,92.2539 219.961,92.2539 221.074,92.2539 222.191,92.2539 223.309,92.2539 224.426,92.2539 225.539,92.2539 226.656,92.2539 227.773,92.2539 228.887,92.2539 230.004,92.2539 231.121,92.2539 232.234,92.2539 233.352,92.2539 234.469,92.2539 235.586,92.2539 236.699,92.2539 237.816,92.2539 238.934,92.2539 240.047,92.2539 241.164,92.2539 242.281,92.2539 243.395,92.2539 244.512,92.2539 245.629,92.2539 246.742,92.2539 247.859,92.2539 248.977,92.2539 250.094,92.2539 251.207,92.2539 252.324,92.2539 253.441,92.2539 254.555,92.2539 255.672,92.2539 256.789,92.2539 257.902,92.2539 259.02,92.2539 260.137,92.2539 261.254,92.2539 262.367,92.2539 263.484,92.2539 264.602,92.2539 265.715,92.2539 266.832,92.2539 267.949,92.2539 269.062,106.336 270.18,92.2539 271.297,92.2539 272.41,92.2539 273.527,92.2539 274.645,92.2539 275.762,92.2539 276.875,92.2539 277.992,92.2539 279.109,92.2539 280.223,92.2539 281.34,92.2539 282.457,92.2539 283.57,92.2539 284.688,92.2539 285.805,92.2539 286.922,92.2539 288.035,92.2539 289.152,92.2539 290.27,92.2539 291.383,92.2539 292.5,92.2539 293.617,92.2539 294.73,92.2539 295.848,92.2539 296.965,92.2539 298.078,92.2539 299.195,92.2539 300.312,92.2539 301.43,92.2539 302.543,92.2539 303.66,92.2539 304.777,92.2539 305.891,92.2539 307.008,99.2969 308.125,92.2539 309.238,99.2969 310.355,99.2969 311.473,92.2539 312.59,99.2969 313.703,106.336 314.82,92.2539 315.938,92.2539 317.051,99.2969 318.168,92.2539 319.285,92.2539 320.398,92.2539 321.516,92.2539 322.633,92.2539 323.746,92.2539 324.863,92.2539 325.98,92.2539 327.098,92.2539 328.211,92.2539 329.328,92.2539 330.445,92.2539 331.559,92.2539 332.676,92.2539 333.793,92.2539 334.906,92.2539 336.023,92.2539 337.141,92.2539 338.258,92.2539 339.371,92.2539 340.488,92.2539 341.605,92.2539 342.719,92.2539 343.836,92.2539 344.953,92.2539 346.066,92.2539 347.184,92.2539 348.301,92.2539 349.414,92.2539 350.531,92.2539 351.648,92.2539 352.766,92.2539 353.879,92.2539 354.996,92.2539 356.113,92.2539 357.227,92.2539 358.344,92.2539 359.461,92.2539 360.574,92.2539 361.691,92.2539 362.809,92.2539 363.926,92.2539 365.039,92.2539 366.156,92.2539 367.273,92.2539 368.387,92.2539 369.504,92.2539 370.621,92.2539 371.734,99.2969 372.852,92.2539 373.969,92.2539 375.082,92.2539 376.199,92.2539 377.316,92.2539 378.434,92.2539 379.547,92.2539 380.664,92.2539 381.781,92.2539 382.895,92.2539 384.012,92.2539 385.129,92.2539 386.242,92.2539 387.359,92.2539 388.477,92.2539 389.594,92.2539 390.707,92.2539 391.824,92.2539 392.941,92.2539 394.055,92.2539 395.172,92.2539 396.289,92.2539 397.402,92.2539 398.52,92.2539 399.637,92.2539 400.75,92.2539 401.867,92.2539 402.984,92.2539 404.102,92.2539 405.215,92.2539 406.332,92.2539 407.449,92.2539 408.562,92.2539 409.68,92.2539 410.797,92.2539 411.91,92.2539 413.027,92.2539 414.145,92.2539 415.262,92.2539 416.375,92.2539 417.492,92.2539 418.609,92.2539 419.723,92.2539 420.84,92.2539 421.957,92.2539 423.07,92.2539 424.188,92.2539 425.305,92.2539 426.422,92.2539 427.535,92.2539 428.652,92.2539 429.77,92.2539 430.883,92.2539 432,92.2539 433.117,92.2539 434.23,92.2539 435.348,92.2539 436.465,92.2539 437.578,92.2539 438.695,92.2539 439.812,92.2539 440.93,113.379 442.043,92.2539 443.16,92.2539 444.277,92.2539 445.391,92.2539 446.508,92.2539 447.625,92.2539 448.738,92.2539 449.855,92.2539 450.973,92.2539 452.09,92.2539 453.203,92.2539 454.32,92.2539 455.438,92.2539 456.551,345.75 457.668,345.75 458.785,345.75 459.898,345.75 461.016,345.75 462.133,345.75 463.246,345.75 464.363,345.75 465.48,345.75 466.598,345.75 467.711,345.75 468.828,345.75 469.945,345.75 471.059,345.75 472.176,345.75"/>
<polyline fill="none" stroke="#000000" stroke-width="0.5" stroke-dasharray="16,0" points="521.281,384.48 521.281,384.48"/>
<polyline fill="none" stroke="#000000" stroke-width="0.5" stroke-dasharray="16,0" points="74.8789,384.48 74.8789,384.48"/>
<polyline fill="none" stroke="#000000" stroke-width="0.5" stroke-dasharray="16,0" points="74.8789,32.3984 74.8789,32.3984"/>
<polyline fill="none" stroke="#000000" stroke-width="0.5" stroke-dasharray="16,0" points="521.281,32.3984 521.281,32.3984"/>
<text fill="#000000" x="298.08" y="22.4" font-size="10" text-anchor="middle" baseline-shift="0" font-family="Helvetica">Tv Samsung 19D4010 (phase angle)</text>
<polyline fill="none" stroke="#000000" stroke-width="0.5" stroke-dasharray="16,0" points="521.281,384.48 521.281,32.3984"/>
<polyline fill="none" stroke="#000000" stroke-width="0.5" stroke-dasharray="16,0" points="74.8789,384.48 74.8789,32.3984 521.281,32.3984"/>
<polyline fill="none" stroke="#000000" stroke-width="0.5" stroke-dasharray="16,0" points="74.8789,384.48 521.281,384.48"/>
</g>
</svg>
