<?xml version="1.0" encoding="UTF-8" standalone="no"?>
<svg xmlns="http://www.w3.org/2000/svg"
     xmlns:xlink="http://www.w3.org/1999/xlink"
     width="576px" height="432px" viewBox="0 0 576 432">
<title>glps_renderer figure</title>
<desc>
Creator: GL2PS 1.3.5, (C) 1999-2009 C. Geuzaine
For: Octave
CreationDate: Tue Jan 31 15:51:50 2012
</desc>
<defs>
</defs>
<g shape-rendering="crispEdges">
<text fill="#000000" x="298.08" y="389.481" font-size="10" text-anchor="middle" baseline-shift="-10" font-family="Helvetica">200</text>
<text fill="#000000" x="409.68" y="389.481" font-size="10" text-anchor="middle" baseline-shift="-10" font-family="Helvetica">300</text>
<text fill="#000000" x="521.28" y="389.481" font-size="10" text-anchor="middle" baseline-shift="-10" font-family="Helvetica">400</text>
<text fill="#000000" x="69.8755" y="384.48" font-size="10" text-anchor="end" baseline-shift="-5" font-family="Helvetica">0</text>
<text fill="#000000" x="69.8755" y="314.064" font-size="10" text-anchor="end" baseline-shift="-5" font-family="Helvetica">5</text>
<text fill="#000000" x="69.8755" y="243.648" font-size="10" text-anchor="end" baseline-shift="-5" font-family="Helvetica">10</text>
<text fill="#000000" x="74.88" y="389.481" font-size="10" text-anchor="middle" baseline-shift="-10" font-family="Helvetica">0</text>
<text fill="#000000" x="186.48" y="389.481" font-size="10" text-anchor="middle" baseline-shift="-10" font-family="Helvetica">100</text>
<text fill="#000000" x="69.8755" y="173.232" font-size="10" text-anchor="end" baseline-shift="-5" font-family="Helvetica">15</text>
<text fill="#000000" x="69.8755" y="102.816" font-size="10" text-anchor="end" baseline-shift="-5" font-family="Helvetica">20</text>
<text fill="#000000" x="69.8755" y="32.4" font-size="10" text-anchor="end" baseline-shift="-5" font-family="Helvetica">25</text>
<text fill="#000000" x="298.08" y="402.481" font-size="10" text-anchor="middle" baseline-shift="-10" font-family="Helvetica">time (10 seconds per unit)</text>
<text fill="#000000" x="57.8755" y="208.44" font-size="10" transform="rotate(-90, 57.8755, 208.44)" text-anchor="middle" baseline-shift="0" font-family="Helvetica">watt (W)</text>
<polyline fill="none" stroke="#000000" stroke-width="0.5" stroke-dasharray="16,0" points="74.8789,32.3984 521.281,32.3984"/>
<polyline fill="none" stroke="#000000" stroke-width="0.5" stroke-dasharray="16,0" points="74.8789,384.48 74.8789,32.3984"/>
<polyline fill="none" stroke="#000000" stroke-width="0.5" stroke-dasharray="16,0" points="521.281,384.48 521.281,32.3984"/>
<polyline fill="none" stroke="#000000" stroke-width="0.5" stroke-dasharray="0,3,1,3,1,3,1,3,1,0" points="74.8789,384.48 74.8789,32.3984"/>
<polyline fill="none" stroke="#000000" stroke-width="0.5" stroke-dasharray="0,3,1,3,1,3,1,3,1,0" points="186.48,384.48 186.48,32.3984"/>
<polyline fill="none" stroke="#000000" stroke-width="0.5" stroke-dasharray="0,3,1,3,1,3,1,3,1,0" points="298.078,384.48 298.078,32.3984"/>
<polyline fill="none" stroke="#000000" stroke-width="0.5" stroke-dasharray="0,3,1,3,1,3,1,3,1,0" points="409.68,384.48 409.68,32.3984"/>
<polyline fill="none" stroke="#000000" stroke-width="0.5" stroke-dasharray="16,0" points="74.8789,384.48 521.281,384.48"/>
<polyline fill="none" stroke="#000000" stroke-width="0.5" stroke-dasharray="0,3,1,3,1,3,1,3,1,0" points="521.281,384.48 521.281,32.3984"/>
<polyline fill="none" stroke="#000000" stroke-width="0.5" stroke-dasharray="16,0" points="74.8789,384.48 74.8789,377.477"/>
<polyline fill="none" stroke="#000000" stroke-width="0.5" stroke-dasharray="16,0" points="74.8789,32.3984 74.8789,39.4023"/>
<polyline fill="none" stroke="#000000" stroke-width="0.5" stroke-dasharray="16,0" points="186.48,384.48 186.48,377.477"/>
<polyline fill="none" stroke="#000000" stroke-width="0.5" stroke-dasharray="16,0" points="186.48,32.3984 186.48,39.4023"/>
<polyline fill="none" stroke="#000000" stroke-width="0.5" stroke-dasharray="16,0" points="298.078,384.48 298.078,377.477"/>
<polyline fill="none" stroke="#000000" stroke-width="0.5" stroke-dasharray="16,0" points="298.078,32.3984 298.078,39.4023"/>
<polyline fill="none" stroke="#000000" stroke-width="0.5" stroke-dasharray="16,0" points="409.68,384.48 409.68,377.477"/>
<polyline fill="none" stroke="#000000" stroke-width="0.5" stroke-dasharray="16,0" points="409.68,32.3984 409.68,39.4023"/>
<polyline fill="none" stroke="#000000" stroke-width="0.5" stroke-dasharray="16,0" points="521.281,384.48 521.281,377.477"/>
<polyline fill="none" stroke="#000000" stroke-width="0.5" stroke-dasharray="16,0" points="521.281,32.3984 521.281,39.4023"/>
<polyline fill="none" stroke="#000000" stroke-width="0.5" stroke-dasharray="0,3,1,3,1,3,1,3,1,0" points="97.1992,384.48 97.1992,32.3984"/>
<polyline fill="none" stroke="#000000" stroke-width="0.5" stroke-dasharray="0,3,1,3,1,3,1,3,1,0" points="119.52,384.48 119.52,32.3984"/>
<polyline fill="none" stroke="#000000" stroke-width="0.5" stroke-dasharray="0,3,1,3,1,3,1,3,1,0" points="141.84,384.48 141.84,32.3984"/>
<polyline fill="none" stroke="#000000" stroke-width="0.5" stroke-dasharray="0,3,1,3,1,3,1,3,1,0" points="164.16,384.48 164.16,32.3984"/>
<polyline fill="none" stroke="#000000" stroke-width="0.5" stroke-dasharray="0,3,1,3,1,3,1,3,1,0" points="208.801,384.48 208.801,32.3984"/>
<polyline fill="none" stroke="#000000" stroke-width="0.5" stroke-dasharray="0,3,1,3,1,3,1,3,1,0" points="231.121,384.48 231.121,32.3984"/>
<polyline fill="none" stroke="#000000" stroke-width="0.5" stroke-dasharray="0,3,1,3,1,3,1,3,1,0" points="253.441,384.48 253.441,32.3984"/>
<polyline fill="none" stroke="#000000" stroke-width="0.5" stroke-dasharray="0,3,1,3,1,3,1,3,1,0" points="275.762,384.48 275.762,32.3984"/>
<polyline fill="none" stroke="#000000" stroke-width="0.5" stroke-dasharray="0,3,1,3,1,3,1,3,1,0" points="320.398,384.48 320.398,32.3984"/>
<polyline fill="none" stroke="#000000" stroke-width="0.5" stroke-dasharray="0,3,1,3,1,3,1,3,1,0" points="342.719,384.48 342.719,32.3984"/>
<polyline fill="none" stroke="#000000" stroke-width="0.5" stroke-dasharray="0,3,1,3,1,3,1,3,1,0" points="365.039,384.48 365.039,32.3984"/>
<polyline fill="none" stroke="#000000" stroke-width="0.5" stroke-dasharray="0,3,1,3,1,3,1,3,1,0" points="387.359,384.48 387.359,32.3984"/>
<polyline fill="none" stroke="#000000" stroke-width="0.5" stroke-dasharray="0,3,1,3,1,3,1,3,1,0" points="432,384.48 432,32.3984"/>
<polyline fill="none" stroke="#000000" stroke-width="0.5" stroke-dasharray="0,3,1,3,1,3,1,3,1,0" points="454.32,384.48 454.32,32.3984"/>
<polyline fill="none" stroke="#000000" stroke-width="0.5" stroke-dasharray="0,3,1,3,1,3,1,3,1,0" points="476.641,384.48 476.641,32.3984"/>
<polyline fill="none" stroke="#000000" stroke-width="0.5" stroke-dasharray="0,3,1,3,1,3,1,3,1,0" points="498.961,384.48 498.961,32.3984"/>
<polyline fill="none" stroke="#000000" stroke-width="0.5" stroke-dasharray="0,3,1,3,1,3,1,3,1,0" points="74.8789,384.48 521.281,384.48"/>
<polyline fill="none" stroke="#000000" stroke-width="0.5" stroke-dasharray="0,3,1,3,1,3,1,3,1,0" points="74.8789,314.062 521.281,314.062"/>
<polyline fill="none" stroke="#000000" stroke-width="0.5" stroke-dasharray="0,3,1,3,1,3,1,3,1,0" points="74.8789,243.648 521.281,243.648"/>
<polyline fill="none" stroke="#000000" stroke-width="0.5" stroke-dasharray="0,3,1,3,1,3,1,3,1,0" points="74.8789,173.23 521.281,173.23"/>
<polyline fill="none" stroke="#000000" stroke-width="0.5" stroke-dasharray="0,3,1,3,1,3,1,3,1,0" points="74.8789,102.816 521.281,102.816"/>
<polyline fill="none" stroke="#000000" stroke-width="0.5" stroke-dasharray="0,3,1,3,1,3,1,3,1,0" points="74.8789,32.3984 521.281,32.3984"/>
<polyline fill="none" stroke="#000000" stroke-width="0.5" stroke-dasharray="16,0" points="74.8789,384.48 81.8867,384.48"/>
<polyline fill="none" stroke="#000000" stroke-width="0.5" stroke-dasharray="16,0" points="521.281,384.48 514.273,384.48"/>
<polyline fill="none" stroke="#000000" stroke-width="0.5" stroke-dasharray="16,0" points="74.8789,314.062 81.8867,314.062"/>
<polyline fill="none" stroke="#000000" stroke-width="0.5" stroke-dasharray="16,0" points="521.281,314.062 514.273,314.062"/>
<polyline fill="none" stroke="#000000" stroke-width="0.5" stroke-dasharray="16,0" points="74.8789,243.648 81.8867,243.648"/>
<polyline fill="none" stroke="#000000" stroke-width="0.5" stroke-dasharray="16,0" points="521.281,243.648 514.273,243.648"/>
<polyline fill="none" stroke="#000000" stroke-width="0.5" stroke-dasharray="16,0" points="74.8789,173.23 81.8867,173.23"/>
<polyline fill="none" stroke="#000000" stroke-width="0.5" stroke-dasharray="16,0" points="521.281,173.23 514.273,173.23"/>
<polyline fill="none" stroke="#000000" stroke-width="0.5" stroke-dasharray="16,0" points="74.8789,102.816 81.8867,102.816"/>
<polyline fill="none" stroke="#000000" stroke-width="0.5" stroke-dasharray="16,0" points="521.281,102.816 514.273,102.816"/>
<polyline fill="none" stroke="#000000" stroke-width="0.5" stroke-dasharray="16,0" points="74.8789,32.3984 81.8867,32.3984"/>
<polyline fill="none" stroke="#000000" stroke-width="0.5" stroke-dasharray="16,0" points="521.281,32.3984 514.273,32.3984"/>
<polyline fill="none" stroke="#000000" stroke-width="0.5" stroke-dasharray="0,3,1,3,1,3,1,3,1,0" points="74.8789,370.398 521.281,370.398"/>
<polyline fill="none" stroke="#000000" stroke-width="0.5" stroke-dasharray="0,3,1,3,1,3,1,3,1,0" points="74.8789,356.312 521.281,356.312"/>
<polyline fill="none" stroke="#000000" stroke-width="0.5" stroke-dasharray="0,3,1,3,1,3,1,3,1,0" points="74.8789,342.23 521.281,342.23"/>
<polyline fill="none" stroke="#000000" stroke-width="0.5" stroke-dasharray="0,3,1,3,1,3,1,3,1,0" points="74.8789,328.148 521.281,328.148"/>
<polyline fill="none" stroke="#000000" stroke-width="0.5" stroke-dasharray="0,3,1,3,1,3,1,3,1,0" points="74.8789,299.98 521.281,299.98"/>
<polyline fill="none" stroke="#000000" stroke-width="0.5" stroke-dasharray="0,3,1,3,1,3,1,3,1,0" points="74.8789,285.898 521.281,285.898"/>
<polyline fill="none" stroke="#000000" stroke-width="0.5" stroke-dasharray="0,3,1,3,1,3,1,3,1,0" points="74.8789,271.812 521.281,271.812"/>
<polyline fill="none" stroke="#000000" stroke-width="0.5" stroke-dasharray="0,3,1,3,1,3,1,3,1,0" points="74.8789,257.73 521.281,257.73"/>
<polyline fill="none" stroke="#000000" stroke-width="0.5" stroke-dasharray="0,3,1,3,1,3,1,3,1,0" points="74.8789,229.566 521.281,229.566"/>
<polyline fill="none" stroke="#000000" stroke-width="0.5" stroke-dasharray="0,3,1,3,1,3,1,3,1,0" points="74.8789,215.48 521.281,215.48"/>
<polyline fill="none" stroke="#000000" stroke-width="0.5" stroke-dasharray="0,3,1,3,1,3,1,3,1,0" points="74.8789,201.398 521.281,201.398"/>
<polyline fill="none" stroke="#000000" stroke-width="0.5" stroke-dasharray="0,3,1,3,1,3,1,3,1,0" points="74.8789,187.316 521.281,187.316"/>
<polyline fill="none" stroke="#000000" stroke-width="0.5" stroke-dasharray="0,3,1,3,1,3,1,3,1,0" points="74.8789,159.148 521.281,159.148"/>
<polyline fill="none" stroke="#000000" stroke-width="0.5" stroke-dasharray="0,3,1,3,1,3,1,3,1,0" points="74.8789,145.066 521.281,145.066"/>
<polyline fill="none" stroke="#000000" stroke-width="0.5" stroke-dasharray="0,3,1,3,1,3,1,3,1,0" points="74.8789,130.984 521.281,130.984"/>
<polyline fill="none" stroke="#000000" stroke-width="0.5" stroke-dasharray="0,3,1,3,1,3,1,3,1,0" points="74.8789,116.898 521.281,116.898"/>
<polyline fill="none" stroke="#000000" stroke-width="0.5" stroke-dasharray="0,3,1,3,1,3,1,3,1,0" points="74.8789,88.7344 521.281,88.7344"/>
<polyline fill="none" stroke="#000000" stroke-width="0.5" stroke-dasharray="0,3,1,3,1,3,1,3,1,0" points="74.8789,74.6484 521.281,74.6484"/>
<polyline fill="none" stroke="#000000" stroke-width="0.5" stroke-dasharray="0,3,1,3,1,3,1,3,1,0" points="74.8789,60.5664 521.281,60.5664"/>
<polyline fill="none" stroke="#000000" stroke-width="0.5" stroke-dasharray="0,3,1,3,1,3,1,3,1,0" points="74.8789,46.4844 521.281,46.4844"/>
<polyline fill="none" stroke="#ff0000" stroke-width="1.5" points="75.9961,89.8594 77.1133,88.3945 78.2266,89.8594 79.3438,89.8594 80.4609,89.8594 81.5742,88.3945 82.6914,88.3945 83.8086,89.8594 84.9258,86.9297 86.0391,89.8594 87.1562,86.9297 88.2734,88.3945 89.3867,89.8594 90.5039,89.8594 91.6211,89.8594 92.7344,89.8594 93.8516,89.8594 94.9688,86.9297 96.0859,88.3945 97.1992,89.8594 98.3164,88.3945 99.4336,88.3945 100.547,88.3945 101.664,91.3398 102.781,88.3945 103.895,86.9297 105.012,88.3945 106.129,88.3945 107.242,86.9297 108.359,89.8594 109.477,88.3945 110.594,88.3945 111.707,88.3945 112.824,88.3945 113.941,89.8594 115.055,86.9297 116.172,88.3945 117.289,88.3945 118.402,84 119.52,85.4648 120.637,85.4648 121.754,85.4648 122.867,85.4648 123.984,85.4648 125.102,85.4648 126.215,86.9297 127.332,84 128.449,85.4648 129.562,86.9297 130.68,86.9297 131.797,85.4648 132.91,85.4648 134.027,85.4648 135.145,84 136.262,86.9297 137.375,86.9297 138.492,86.9297 139.609,85.4648 140.723,85.4648 141.84,85.4648 142.957,85.4648 144.07,85.4648 145.188,82.5352 146.305,85.4648 147.422,86.9297 148.535,85.4648 149.652,86.9297 150.77,86.9297 151.883,86.9297 153,85.4648 154.117,85.4648 155.23,86.9297 156.348,86.9297 157.465,85.4648 158.578,88.3945 159.695,86.9297 160.812,85.4648 161.93,85.4648 163.043,85.4648 164.16,84 165.277,85.4648 166.391,84 167.508,85.4648 168.625,85.4648 169.738,86.9297 170.855,85.4648 171.973,85.4648 173.09,84 174.203,86.9297 175.32,86.9297 176.438,85.4648 177.551,86.9297 178.668,86.9297 179.785,86.9297 180.898,84 182.016,86.9297 183.133,86.9297 184.246,86.9297 185.363,88.3945 186.48,86.9297 187.598,85.4648 188.711,85.4648 189.828,86.9297 190.945,85.4648 192.059,89.8594 193.176,85.4648 194.293,85.4648 195.406,85.4648 196.523,91.3398 197.641,85.4648 198.758,86.9297 199.871,92.8047 200.988,94.2656 202.105,85.4648 203.219,88.3945 204.336,85.4648 205.453,84 206.566,88.3945 207.684,88.3945 208.801,85.4648 209.914,85.4648 211.031,85.4648 212.148,86.9297 213.266,85.4648 214.379,84 215.496,85.4648 216.613,86.9297 217.727,84 218.844,85.4648 219.961,85.4648 221.074,85.4648 222.191,82.5352 223.309,85.4648 224.426,86.9297 225.539,85.4648 226.656,84 227.773,85.4648 228.887,84 230.004,85.4648 231.121,85.4648 232.234,85.4648 233.352,85.4648 234.469,85.4648 235.586,84 236.699,85.4648 237.816,86.9297 238.934,86.9297 240.047,86.9297 241.164,86.9297 242.281,84 243.395,85.4648 244.512,85.4648 245.629,85.4648 246.742,84 247.859,85.4648 248.977,383.016 250.094,383.016 251.207,383.016 252.324,383.016 253.441,383.016 254.555,383.016 255.672,383.016 256.789,383.016 257.902,383.016 259.02,383.016 260.137,383.016 261.254,383.016 262.367,383.016 263.484,383.016 264.602,383.016 265.715,383.016 266.832,383.016 267.949,383.016 269.062,383.016 270.18,383.016 271.297,383.016 272.41,383.016 273.527,383.016 274.645,383.016 275.762,383.016 276.875,383.016 277.992,383.016 279.109,383.016 280.223,383.016 281.34,383.016 282.457,383.016 283.57,383.016 284.688,383.016 285.805,383.016 286.922,383.016 288.035,383.016 289.152,383.016 290.27,383.016 291.383,383.016 292.5,383.016 293.617,383.016 294.73,383.016 295.848,383.016 296.965,383.016 298.078,383.016 299.195,383.016 300.312,383.016 301.43,383.016 302.543,383.016 303.66,383.016 304.777,383.016 305.891,383.016 307.008,383.016 308.125,383.016 309.238,383.016 310.355,383.016 311.473,383.016 312.59,383.016 313.703,381.551 314.82,383.016 315.938,383.016 317.051,383.016 318.168,383.016 319.285,383.016 320.398,383.016 321.516,383.016 322.633,383.016 323.746,383.016 324.863,383.016 325.98,381.551 327.098,383.016 328.211,383.016 329.328,383.016 330.445,383.016 331.559,383.016 332.676,381.551 333.793,383.016 334.906,383.016 336.023,383.016 337.141,383.016 338.258,383.016 339.371,383.016 340.488,383.016 341.605,383.016 342.719,383.016 343.836,383.016 344.953,383.016 346.066,383.016 347.184,383.016 348.301,383.016 349.414,383.016 350.531,383.016 351.648,383.016 352.766,383.016 353.879,383.016 354.996,383.016 356.113,383.016 357.227,383.016 358.344,383.016 359.461,383.016 360.574,383.016 361.691,383.016 362.809,381.551 363.926,383.016 365.039,383.016 366.156,383.016 367.273,383.016 368.387,383.016 369.504,381.551 370.621,383.016 371.734,383.016 372.852,383.016 373.969,383.016 375.082,383.016 376.199,383.016 377.316,381.551 378.434,383.016 379.547,383.016 380.664,383.016 381.781,383.016 382.895,383.016 384.012,383.016 385.129,383.016 386.242,383.016 387.359,383.016 388.477,383.016 389.594,383.016 390.707,383.016 391.824,383.016 392.941,383.016 394.055,383.016 395.172,383.016 396.289,383.016 397.402,383.016 398.52,383.016 399.637,383.016 400.75,383.016 401.867,383.016 402.984,383.016 404.102,383.016 405.215,383.016 406.332,383.016 407.449,383.016 408.562,383.016 409.68,383.016 410.797,383.016 411.91,383.016 413.027,383.016 414.145,383.016 415.262,383.016 416.375,383.016 417.492,383.016 418.609,383.016 419.723,383.016 420.84,383.016 421.957,383.016 423.07,381.551 424.188,383.016 425.305,383.016 426.422,383.016 427.535,383.016 428.652,383.016 429.77,383.016 430.883,383.016 432,383.016 433.117,383.016 434.23,383.016 435.348,383.016 436.465,383.016 437.578,383.016 438.695,383.016 439.812,384.48 440.93,383.016 442.043,383.016 443.16,383.016 444.277,383.016 445.391,383.016 446.508,383.016 447.625,383.016 448.738,383.016 449.855,383.016 450.973,383.016 452.09,383.016 453.203,383.016 454.32,383.016 455.438,383.016 456.551,383.016 457.668,383.016 458.785,383.016 459.898,383.016 461.016,383.016 462.133,383.016 463.246,383.016 464.363,383.016 465.48,383.016 466.598,383.016 467.711,383.016 468.828,383.016 469.945,383.016 471.059,383.016 472.176,383.016"/>
<polyline fill="none" stroke="#000000" stroke-width="0.5" stroke-dasharray="16,0" points="521.281,384.48 521.281,384.48"/>
<polyline fill="none" stroke="#000000" stroke-width="0.5" stroke-dasharray="16,0" points="74.8789,384.48 74.8789,384.48"/>
<polyline fill="none" stroke="#000000" stroke-width="0.5" stroke-dasharray="16,0" points="74.8789,32.3984 74.8789,32.3984"/>
<polyline fill="none" stroke="#000000" stroke-width="0.5" stroke-dasharray="16,0" points="521.281,32.3984 521.281,32.3984"/>
<text fill="#000000" x="298.08" y="22.4" font-size="10" text-anchor="middle" baseline-shift="0" font-family="Helvetica">Tv Samsung 19D4010 (power)</text>
<polyline fill="none" stroke="#000000" stroke-width="0.5" stroke-dasharray="16,0" points="521.281,384.48 521.281,32.3984"/>
<polyline fill="none" stroke="#000000" stroke-width="0.5" stroke-dasharray="16,0" points="74.8789,384.48 74.8789,32.3984 521.281,32.3984"/>
<polyline fill="none" stroke="#000000" stroke-width="0.5" stroke-dasharray="16,0" points="74.8789,384.48 521.281,384.48"/>
</g>
</svg>
