<?xml version="1.0" encoding="UTF-8" standalone="no"?>
<svg xmlns="http://www.w3.org/2000/svg"
     xmlns:xlink="http://www.w3.org/1999/xlink"
     width="576px" height="432px" viewBox="0 0 576 432">
<title>glps_renderer figure</title>
<desc>
Creator: GL2PS 1.3.5, (C) 1999-2009 C. Geuzaine
For: Octave
CreationDate: Tue Jan 31 15:52:39 2012
</desc>
<defs>
</defs>
<g shape-rendering="crispEdges">
<text fill="#000000" x="298.08" y="389.481" font-size="10" text-anchor="middle" baseline-shift="-10" font-family="Helvetica">200</text>
<text fill="#000000" x="409.68" y="389.481" font-size="10" text-anchor="middle" baseline-shift="-10" font-family="Helvetica">300</text>
<text fill="#000000" x="521.28" y="389.481" font-size="10" text-anchor="middle" baseline-shift="-10" font-family="Helvetica">400</text>
<text fill="#000000" x="69.8755" y="384.48" font-size="10" text-anchor="end" baseline-shift="-5" font-family="Helvetica">270</text>
<text fill="#000000" x="69.8755" y="334.183" font-size="10" text-anchor="end" baseline-shift="-5" font-family="Helvetica">280</text>
<text fill="#000000" x="69.8755" y="283.886" font-size="10" text-anchor="end" baseline-shift="-5" font-family="Helvetica">290</text>
<text fill="#000000" x="74.88" y="389.481" font-size="10" text-anchor="middle" baseline-shift="-10" font-family="Helvetica">0</text>
<text fill="#000000" x="186.48" y="389.481" font-size="10" text-anchor="middle" baseline-shift="-10" font-family="Helvetica">100</text>
<text fill="#000000" x="69.8755" y="233.589" font-size="10" text-anchor="end" baseline-shift="-5" font-family="Helvetica">300</text>
<text fill="#000000" x="69.8755" y="183.292" font-size="10" text-anchor="end" baseline-shift="-5" font-family="Helvetica">310</text>
<text fill="#000000" x="69.8755" y="132.994" font-size="10" text-anchor="end" baseline-shift="-5" font-family="Helvetica">320</text>
<text fill="#000000" x="69.8755" y="82.6971" font-size="10" text-anchor="end" baseline-shift="-5" font-family="Helvetica">330</text>
<text fill="#000000" x="69.8755" y="32.4" font-size="10" text-anchor="end" baseline-shift="-5" font-family="Helvetica">340</text>
<text fill="#000000" x="298.08" y="402.481" font-size="10" text-anchor="middle" baseline-shift="-10" font-family="Helvetica">time (10 seconds per unit)</text>
<text fill="#000000" x="51.8755" y="208.44" font-size="10" transform="rotate(-90, 51.8755, 208.44)" text-anchor="middle" baseline-shift="0" font-family="Helvetica">degree (°)</text>
<polyline fill="none" stroke="#000000" stroke-width="0.5" stroke-dasharray="16,0" points="74.8789,32.3984 521.281,32.3984"/>
<polyline fill="none" stroke="#000000" stroke-width="0.5" stroke-dasharray="16,0" points="74.8789,384.48 74.8789,32.3984"/>
<polyline fill="none" stroke="#000000" stroke-width="0.5" stroke-dasharray="16,0" points="521.281,384.48 521.281,32.3984"/>
<polyline fill="none" stroke="#000000" stroke-width="0.5" stroke-dasharray="0,3,1,3,1,3,1,3,1,0" points="74.8789,384.48 74.8789,32.3984"/>
<polyline fill="none" stroke="#000000" stroke-width="0.5" stroke-dasharray="0,3,1,3,1,3,1,3,1,0" points="186.48,384.48 186.48,32.3984"/>
<polyline fill="none" stroke="#000000" stroke-width="0.5" stroke-dasharray="0,3,1,3,1,3,1,3,1,0" points="298.078,384.48 298.078,32.3984"/>
<polyline fill="none" stroke="#000000" stroke-width="0.5" stroke-dasharray="0,3,1,3,1,3,1,3,1,0" points="409.68,384.48 409.68,32.3984"/>
<polyline fill="none" stroke="#000000" stroke-width="0.5" stroke-dasharray="16,0" points="74.8789,384.48 521.281,384.48"/>
<polyline fill="none" stroke="#000000" stroke-width="0.5" stroke-dasharray="0,3,1,3,1,3,1,3,1,0" points="521.281,384.48 521.281,32.3984"/>
<polyline fill="none" stroke="#000000" stroke-width="0.5" stroke-dasharray="16,0" points="74.8789,384.48 74.8789,377.477"/>
<polyline fill="none" stroke="#000000" stroke-width="0.5" stroke-dasharray="16,0" points="74.8789,32.3984 74.8789,39.4023"/>
<polyline fill="none" stroke="#000000" stroke-width="0.5" stroke-dasharray="16,0" points="186.48,384.48 186.48,377.477"/>
<polyline fill="none" stroke="#000000" stroke-width="0.5" stroke-dasharray="16,0" points="186.48,32.3984 186.48,39.4023"/>
<polyline fill="none" stroke="#000000" stroke-width="0.5" stroke-dasharray="16,0" points="298.078,384.48 298.078,377.477"/>
<polyline fill="none" stroke="#000000" stroke-width="0.5" stroke-dasharray="16,0" points="298.078,32.3984 298.078,39.4023"/>
<polyline fill="none" stroke="#000000" stroke-width="0.5" stroke-dasharray="16,0" points="409.68,384.48 409.68,377.477"/>
<polyline fill="none" stroke="#000000" stroke-width="0.5" stroke-dasharray="16,0" points="409.68,32.3984 409.68,39.4023"/>
<polyline fill="none" stroke="#000000" stroke-width="0.5" stroke-dasharray="16,0" points="521.281,384.48 521.281,377.477"/>
<polyline fill="none" stroke="#000000" stroke-width="0.5" stroke-dasharray="16,0" points="521.281,32.3984 521.281,39.4023"/>
<polyline fill="none" stroke="#000000" stroke-width="0.5" stroke-dasharray="0,3,1,3,1,3,1,3,1,0" points="97.1992,384.48 97.1992,32.3984"/>
<polyline fill="none" stroke="#000000" stroke-width="0.5" stroke-dasharray="0,3,1,3,1,3,1,3,1,0" points="119.52,384.48 119.52,32.3984"/>
<polyline fill="none" stroke="#000000" stroke-width="0.5" stroke-dasharray="0,3,1,3,1,3,1,3,1,0" points="141.84,384.48 141.84,32.3984"/>
<polyline fill="none" stroke="#000000" stroke-width="0.5" stroke-dasharray="0,3,1,3,1,3,1,3,1,0" points="164.16,384.48 164.16,32.3984"/>
<polyline fill="none" stroke="#000000" stroke-width="0.5" stroke-dasharray="0,3,1,3,1,3,1,3,1,0" points="208.801,384.48 208.801,32.3984"/>
<polyline fill="none" stroke="#000000" stroke-width="0.5" stroke-dasharray="0,3,1,3,1,3,1,3,1,0" points="231.121,384.48 231.121,32.3984"/>
<polyline fill="none" stroke="#000000" stroke-width="0.5" stroke-dasharray="0,3,1,3,1,3,1,3,1,0" points="253.441,384.48 253.441,32.3984"/>
<polyline fill="none" stroke="#000000" stroke-width="0.5" stroke-dasharray="0,3,1,3,1,3,1,3,1,0" points="275.762,384.48 275.762,32.3984"/>
<polyline fill="none" stroke="#000000" stroke-width="0.5" stroke-dasharray="0,3,1,3,1,3,1,3,1,0" points="320.398,384.48 320.398,32.3984"/>
<polyline fill="none" stroke="#000000" stroke-width="0.5" stroke-dasharray="0,3,1,3,1,3,1,3,1,0" points="342.719,384.48 342.719,32.3984"/>
<polyline fill="none" stroke="#000000" stroke-width="0.5" stroke-dasharray="0,3,1,3,1,3,1,3,1,0" points="365.039,384.48 365.039,32.3984"/>
<polyline fill="none" stroke="#000000" stroke-width="0.5" stroke-dasharray="0,3,1,3,1,3,1,3,1,0" points="387.359,384.48 387.359,32.3984"/>
<polyline fill="none" stroke="#000000" stroke-width="0.5" stroke-dasharray="0,3,1,3,1,3,1,3,1,0" points="432,384.48 432,32.3984"/>
<polyline fill="none" stroke="#000000" stroke-width="0.5" stroke-dasharray="0,3,1,3,1,3,1,3,1,0" points="454.32,384.48 454.32,32.3984"/>
<polyline fill="none" stroke="#000000" stroke-width="0.5" stroke-dasharray="0,3,1,3,1,3,1,3,1,0" points="476.641,384.48 476.641,32.3984"/>
<polyline fill="none" stroke="#000000" stroke-width="0.5" stroke-dasharray="0,3,1,3,1,3,1,3,1,0" points="498.961,384.48 498.961,32.3984"/>
<polyline fill="none" stroke="#000000" stroke-width="0.5" stroke-dasharray="0,3,1,3,1,3,1,3,1,0" points="74.8789,384.48 521.281,384.48"/>
<polyline fill="none" stroke="#000000" stroke-width="0.5" stroke-dasharray="0,3,1,3,1,3,1,3,1,0" points="74.8789,334.184 521.281,334.184"/>
<polyline fill="none" stroke="#000000" stroke-width="0.5" stroke-dasharray="0,3,1,3,1,3,1,3,1,0" points="74.8789,283.887 521.281,283.887"/>
<polyline fill="none" stroke="#000000" stroke-width="0.5" stroke-dasharray="0,3,1,3,1,3,1,3,1,0" points="74.8789,233.59 521.281,233.59"/>
<polyline fill="none" stroke="#000000" stroke-width="0.5" stroke-dasharray="0,3,1,3,1,3,1,3,1,0" points="74.8789,183.293 521.281,183.293"/>
<polyline fill="none" stroke="#000000" stroke-width="0.5" stroke-dasharray="0,3,1,3,1,3,1,3,1,0" points="74.8789,132.996 521.281,132.996"/>
<polyline fill="none" stroke="#000000" stroke-width="0.5" stroke-dasharray="0,3,1,3,1,3,1,3,1,0" points="74.8789,82.6953 521.281,82.6953"/>
<polyline fill="none" stroke="#000000" stroke-width="0.5" stroke-dasharray="0,3,1,3,1,3,1,3,1,0" points="74.8789,32.3984 521.281,32.3984"/>
<polyline fill="none" stroke="#000000" stroke-width="0.5" stroke-dasharray="16,0" points="74.8789,384.48 81.8867,384.48"/>
<polyline fill="none" stroke="#000000" stroke-width="0.5" stroke-dasharray="16,0" points="521.281,384.48 514.273,384.48"/>
<polyline fill="none" stroke="#000000" stroke-width="0.5" stroke-dasharray="16,0" points="74.8789,334.184 81.8867,334.184"/>
<polyline fill="none" stroke="#000000" stroke-width="0.5" stroke-dasharray="16,0" points="521.281,334.184 514.273,334.184"/>
<polyline fill="none" stroke="#000000" stroke-width="0.5" stroke-dasharray="16,0" points="74.8789,283.887 81.8867,283.887"/>
<polyline fill="none" stroke="#000000" stroke-width="0.5" stroke-dasharray="16,0" points="521.281,283.887 514.273,283.887"/>
<polyline fill="none" stroke="#000000" stroke-width="0.5" stroke-dasharray="16,0" points="74.8789,233.59 81.8867,233.59"/>
<polyline fill="none" stroke="#000000" stroke-width="0.5" stroke-dasharray="16,0" points="521.281,233.59 514.273,233.59"/>
<polyline fill="none" stroke="#000000" stroke-width="0.5" stroke-dasharray="16,0" points="74.8789,183.293 81.8867,183.293"/>
<polyline fill="none" stroke="#000000" stroke-width="0.5" stroke-dasharray="16,0" points="521.281,183.293 514.273,183.293"/>
<polyline fill="none" stroke="#000000" stroke-width="0.5" stroke-dasharray="16,0" points="74.8789,132.996 81.8867,132.996"/>
<polyline fill="none" stroke="#000000" stroke-width="0.5" stroke-dasharray="16,0" points="521.281,132.996 514.273,132.996"/>
<polyline fill="none" stroke="#000000" stroke-width="0.5" stroke-dasharray="16,0" points="74.8789,82.6953 81.8867,82.6953"/>
<polyline fill="none" stroke="#000000" stroke-width="0.5" stroke-dasharray="16,0" points="521.281,82.6953 514.273,82.6953"/>
<polyline fill="none" stroke="#000000" stroke-width="0.5" stroke-dasharray="16,0" points="74.8789,32.3984 81.8867,32.3984"/>
<polyline fill="none" stroke="#000000" stroke-width="0.5" stroke-dasharray="16,0" points="521.281,32.3984 514.273,32.3984"/>
<polyline fill="none" stroke="#000000" stroke-width="0.5" stroke-dasharray="0,3,1,3,1,3,1,3,1,0" points="74.8789,374.422 521.281,374.422"/>
<polyline fill="none" stroke="#000000" stroke-width="0.5" stroke-dasharray="0,3,1,3,1,3,1,3,1,0" points="74.8789,364.359 521.281,364.359"/>
<polyline fill="none" stroke="#000000" stroke-width="0.5" stroke-dasharray="0,3,1,3,1,3,1,3,1,0" points="74.8789,354.301 521.281,354.301"/>
<polyline fill="none" stroke="#000000" stroke-width="0.5" stroke-dasharray="0,3,1,3,1,3,1,3,1,0" points="74.8789,344.242 521.281,344.242"/>
<polyline fill="none" stroke="#000000" stroke-width="0.5" stroke-dasharray="0,3,1,3,1,3,1,3,1,0" points="74.8789,324.125 521.281,324.125"/>
<polyline fill="none" stroke="#000000" stroke-width="0.5" stroke-dasharray="0,3,1,3,1,3,1,3,1,0" points="74.8789,314.062 521.281,314.062"/>
<polyline fill="none" stroke="#000000" stroke-width="0.5" stroke-dasharray="0,3,1,3,1,3,1,3,1,0" points="74.8789,304.004 521.281,304.004"/>
<polyline fill="none" stroke="#000000" stroke-width="0.5" stroke-dasharray="0,3,1,3,1,3,1,3,1,0" points="74.8789,293.945 521.281,293.945"/>
<polyline fill="none" stroke="#000000" stroke-width="0.5" stroke-dasharray="0,3,1,3,1,3,1,3,1,0" points="74.8789,273.828 521.281,273.828"/>
<polyline fill="none" stroke="#000000" stroke-width="0.5" stroke-dasharray="0,3,1,3,1,3,1,3,1,0" points="74.8789,263.766 521.281,263.766"/>
<polyline fill="none" stroke="#000000" stroke-width="0.5" stroke-dasharray="0,3,1,3,1,3,1,3,1,0" points="74.8789,253.707 521.281,253.707"/>
<polyline fill="none" stroke="#000000" stroke-width="0.5" stroke-dasharray="0,3,1,3,1,3,1,3,1,0" points="74.8789,243.648 521.281,243.648"/>
<polyline fill="none" stroke="#000000" stroke-width="0.5" stroke-dasharray="0,3,1,3,1,3,1,3,1,0" points="74.8789,223.527 521.281,223.527"/>
<polyline fill="none" stroke="#000000" stroke-width="0.5" stroke-dasharray="0,3,1,3,1,3,1,3,1,0" points="74.8789,213.469 521.281,213.469"/>
<polyline fill="none" stroke="#000000" stroke-width="0.5" stroke-dasharray="0,3,1,3,1,3,1,3,1,0" points="74.8789,203.41 521.281,203.41"/>
<polyline fill="none" stroke="#000000" stroke-width="0.5" stroke-dasharray="0,3,1,3,1,3,1,3,1,0" points="74.8789,193.352 521.281,193.352"/>
<polyline fill="none" stroke="#000000" stroke-width="0.5" stroke-dasharray="0,3,1,3,1,3,1,3,1,0" points="74.8789,173.23 521.281,173.23"/>
<polyline fill="none" stroke="#000000" stroke-width="0.5" stroke-dasharray="0,3,1,3,1,3,1,3,1,0" points="74.8789,163.172 521.281,163.172"/>
<polyline fill="none" stroke="#000000" stroke-width="0.5" stroke-dasharray="0,3,1,3,1,3,1,3,1,0" points="74.8789,153.113 521.281,153.113"/>
<polyline fill="none" stroke="#000000" stroke-width="0.5" stroke-dasharray="0,3,1,3,1,3,1,3,1,0" points="74.8789,143.055 521.281,143.055"/>
<polyline fill="none" stroke="#000000" stroke-width="0.5" stroke-dasharray="0,3,1,3,1,3,1,3,1,0" points="74.8789,122.934 521.281,122.934"/>
<polyline fill="none" stroke="#000000" stroke-width="0.5" stroke-dasharray="0,3,1,3,1,3,1,3,1,0" points="74.8789,112.875 521.281,112.875"/>
<polyline fill="none" stroke="#000000" stroke-width="0.5" stroke-dasharray="0,3,1,3,1,3,1,3,1,0" points="74.8789,102.816 521.281,102.816"/>
<polyline fill="none" stroke="#000000" stroke-width="0.5" stroke-dasharray="0,3,1,3,1,3,1,3,1,0" points="74.8789,92.7578 521.281,92.7578"/>
<polyline fill="none" stroke="#000000" stroke-width="0.5" stroke-dasharray="0,3,1,3,1,3,1,3,1,0" points="74.8789,72.6367 521.281,72.6367"/>
<polyline fill="none" stroke="#000000" stroke-width="0.5" stroke-dasharray="0,3,1,3,1,3,1,3,1,0" points="74.8789,62.5781 521.281,62.5781"/>
<polyline fill="none" stroke="#000000" stroke-width="0.5" stroke-dasharray="0,3,1,3,1,3,1,3,1,0" points="74.8789,52.5195 521.281,52.5195"/>
<polyline fill="none" stroke="#000000" stroke-width="0.5" stroke-dasharray="0,3,1,3,1,3,1,3,1,0" points="74.8789,42.4609 521.281,42.4609"/>
<polyline fill="none" stroke="#ff0000" stroke-width="1.5" points="75.9961,379.449 77.1133,384.48 78.2266,379.449 79.3438,158.145 80.4609,178.262 81.5742,67.6094 82.6914,102.816 83.8086,102.816 84.9258,107.848 86.0391,102.816 87.1562,107.848 88.2734,67.6094 89.3867,62.5781 90.5039,62.5781 91.6211,62.5781 92.7344,92.7578 93.8516,67.6094 94.9688,62.5781 96.0859,67.6094 97.1992,57.5469 98.3164,57.5469 99.4336,72.6367 100.547,57.5469 101.664,62.5781 102.781,57.5469 103.895,57.5469 105.012,67.6094 106.129,57.5469 107.242,57.5469 108.359,62.5781 109.477,57.5469 110.594,57.5469 111.707,67.6094 112.824,67.6094 113.941,67.6094 115.055,62.5781 116.172,62.5781 117.289,57.5469 118.402,67.6094 119.52,57.5469 120.637,57.5469 121.754,62.5781 122.867,57.5469 123.984,57.5469 125.102,57.5469 126.215,57.5469 127.332,62.5781 128.449,67.6094 129.562,62.5781 130.68,67.6094 131.797,57.5469 132.91,57.5469 134.027,67.6094 135.145,72.6367 136.262,57.5469 137.375,57.5469 138.492,57.5469 139.609,57.5469 140.723,57.5469 141.84,57.5469 142.957,57.5469 144.07,57.5469 145.188,57.5469 146.305,77.668 147.422,57.5469 148.535,57.5469 149.652,57.5469 150.77,57.5469 151.883,62.5781 153,67.6094 154.117,72.6367 155.23,67.6094 156.348,57.5469 157.465,57.5469 158.578,57.5469 159.695,57.5469 160.812,57.5469 161.93,57.5469 163.043,57.5469 164.16,52.5195 165.277,57.5469 166.391,52.5195 167.508,57.5469 168.625,57.5469 169.738,57.5469 170.855,57.5469 171.973,62.5781 173.09,57.5469 174.203,57.5469 175.32,57.5469 176.438,52.5195 177.551,57.5469 178.668,57.5469 179.785,57.5469 180.898,67.6094 182.016,57.5469 183.133,57.5469 184.246,57.5469 185.363,62.5781 186.48,57.5469 187.598,57.5469 188.711,57.5469 189.828,57.5469 190.945,57.5469 192.059,57.5469 193.176,57.5469 194.293,57.5469 195.406,57.5469 196.523,57.5469 197.641,57.5469 198.758,57.5469 199.871,62.5781 200.988,57.5469 202.105,57.5469 203.219,57.5469 204.336,62.5781 205.453,57.5469 206.566,57.5469 207.684,57.5469 208.801,62.5781 209.914,67.6094 211.031,62.5781 212.148,62.5781 213.266,62.5781 214.379,62.5781 215.496,62.5781 216.613,57.5469 217.727,62.5781 218.844,62.5781 219.961,57.5469 221.074,62.5781 222.191,67.6094 223.309,62.5781 224.426,62.5781 225.539,62.5781 226.656,67.6094 227.773,67.6094 228.887,67.6094 230.004,62.5781 231.121,62.5781 232.234,57.5469 233.352,67.6094 234.469,57.5469 235.586,57.5469 236.699,57.5469 237.816,57.5469 238.934,62.5781 240.047,57.5469 241.164,62.5781 242.281,62.5781 243.395,62.5781 244.512,57.5469 245.629,67.6094 246.742,62.5781 247.859,62.5781 248.977,57.5469 250.094,57.5469 251.207,57.5469 252.324,57.5469 253.441,62.5781 254.555,57.5469 255.672,62.5781 256.789,57.5469 257.902,62.5781 259.02,62.5781 260.137,57.5469 261.254,57.5469 262.367,57.5469 263.484,62.5781 264.602,62.5781 265.715,57.5469 266.832,57.5469 267.949,62.5781 269.062,62.5781 270.18,62.5781 271.297,67.6094 272.41,62.5781 273.527,57.5469 274.645,57.5469 275.762,57.5469 276.875,62.5781 277.992,67.6094 279.109,62.5781 280.223,67.6094 281.34,62.5781 282.457,62.5781 283.57,62.5781 284.688,62.5781 285.805,57.5469 286.922,67.6094 288.035,62.5781 289.152,62.5781 290.27,67.6094 291.383,67.6094 292.5,62.5781 293.617,62.5781 294.73,62.5781 295.848,62.5781 296.965,62.5781 298.078,62.5781 299.195,62.5781 300.312,62.5781 301.43,62.5781 302.543,62.5781 303.66,62.5781 304.777,62.5781 305.891,62.5781 307.008,62.5781 308.125,62.5781 309.238,62.5781 310.355,57.5469 311.473,62.5781 312.59,62.5781 313.703,62.5781 314.82,67.6094 315.938,62.5781 317.051,62.5781 318.168,62.5781 319.285,62.5781 320.398,62.5781 321.516,62.5781 322.633,67.6094 323.746,57.5469 324.863,57.5469 325.98,62.5781 327.098,62.5781 328.211,62.5781 329.328,62.5781 330.445,62.5781 331.559,62.5781 332.676,62.5781 333.793,62.5781 334.906,62.5781 336.023,62.5781 337.141,67.6094 338.258,62.5781 339.371,67.6094 340.488,57.5469 341.605,67.6094 342.719,67.6094 343.836,67.6094 344.953,67.6094 346.066,57.5469 347.184,62.5781 348.301,62.5781 349.414,62.5781 350.531,62.5781 351.648,67.6094 352.766,62.5781 353.879,62.5781 354.996,62.5781 356.113,62.5781 357.227,62.5781 358.344,62.5781 359.461,62.5781 360.574,62.5781 361.691,62.5781 362.809,62.5781 363.926,62.5781 365.039,72.6367 366.156,67.6094 367.273,62.5781 368.387,62.5781 369.504,62.5781 370.621,72.6367 371.734,67.6094 372.852,72.6367 373.969,67.6094 375.082,67.6094 376.199,67.6094 377.316,62.5781 378.434,62.5781 379.547,62.5781 380.664,62.5781 381.781,62.5781 382.895,62.5781 384.012,62.5781 385.129,62.5781 386.242,62.5781 387.359,62.5781 388.477,62.5781 389.594,62.5781 390.707,62.5781 391.824,72.6367 392.941,62.5781 394.055,72.6367 395.172,67.6094 396.289,67.6094 397.402,62.5781 398.52,62.5781 399.637,62.5781 400.75,62.5781 401.867,62.5781 402.984,62.5781 404.102,72.6367 405.215,62.5781 406.332,62.5781 407.449,67.6094 408.562,67.6094 409.68,67.6094 410.797,67.6094 411.91,67.6094 413.027,67.6094 414.145,67.6094 415.262,67.6094 416.375,67.6094 417.492,67.6094 418.609,62.5781 419.723,62.5781 420.84,77.668 421.957,72.6367 423.07,62.5781 424.188,62.5781 425.305,62.5781 426.422,62.5781 427.535,67.6094 428.652,62.5781 429.77,57.5469 430.883,62.5781 432,62.5781 433.117,67.6094 434.23,67.6094 435.348,62.5781 436.465,72.6367 437.578,72.6367 438.695,72.6367 439.812,62.5781 440.93,62.5781 442.043,62.5781 443.16,62.5781 444.277,62.5781 445.391,67.6094 446.508,62.5781 447.625,62.5781 448.738,57.5469 449.855,57.5469 450.973,57.5469 452.09,57.5469 453.203,57.5469 454.32,57.5469 455.438,57.5469 456.551,57.5469 457.668,57.5469 458.785,57.5469 459.898,57.5469 461.016,57.5469 462.133,57.5469 463.246,57.5469 464.363,57.5469 465.48,57.5469 466.598,57.5469 467.711,57.5469 468.828,62.5781 469.945,62.5781 471.059,62.5781 472.176,62.5781 473.293,57.5469 474.406,62.5781 475.523,62.5781"/>
<polyline fill="none" stroke="#000000" stroke-width="0.5" stroke-dasharray="16,0" points="521.281,384.48 521.281,384.48"/>
<polyline fill="none" stroke="#000000" stroke-width="0.5" stroke-dasharray="16,0" points="74.8789,384.48 74.8789,384.48"/>
<polyline fill="none" stroke="#000000" stroke-width="0.5" stroke-dasharray="16,0" points="74.8789,32.3984 74.8789,32.3984"/>
<polyline fill="none" stroke="#000000" stroke-width="0.5" stroke-dasharray="16,0" points="521.281,32.3984 521.281,32.3984"/>
<text fill="#000000" x="298.08" y="22.4" font-size="10" text-anchor="middle" baseline-shift="0" font-family="Helvetica">Tv SonyBravia KDL-40W5500 (phase angle)</text>
<polyline fill="none" stroke="#000000" stroke-width="0.5" stroke-dasharray="16,0" points="521.281,384.48 521.281,32.3984"/>
<polyline fill="none" stroke="#000000" stroke-width="0.5" stroke-dasharray="16,0" points="74.8789,384.48 74.8789,32.3984 521.281,32.3984"/>
<polyline fill="none" stroke="#000000" stroke-width="0.5" stroke-dasharray="16,0" points="74.8789,384.48 521.281,384.48"/>
</g>
</svg>
