<?xml version="1.0" encoding="UTF-8" standalone="no"?>
<svg xmlns="http://www.w3.org/2000/svg"
     xmlns:xlink="http://www.w3.org/1999/xlink"
     width="576px" height="432px" viewBox="0 0 576 432">
<title>glps_renderer figure</title>
<desc>
Creator: GL2PS 1.3.5, (C) 1999-2009 C. Geuzaine
For: Octave
CreationDate: Tue Jan 31 15:51:46 2012
</desc>
<defs>
</defs>
<g shape-rendering="crispEdges">
<text fill="#000000" x="298.08" y="389.481" font-size="10" text-anchor="middle" baseline-shift="-10" font-family="Helvetica">200</text>
<text fill="#000000" x="409.68" y="389.481" font-size="10" text-anchor="middle" baseline-shift="-10" font-family="Helvetica">300</text>
<text fill="#000000" x="521.28" y="389.481" font-size="10" text-anchor="middle" baseline-shift="-10" font-family="Helvetica">400</text>
<text fill="#000000" x="69.8755" y="384.48" font-size="10" text-anchor="end" baseline-shift="-5" font-family="Helvetica">260</text>
<text fill="#000000" x="69.8755" y="314.064" font-size="10" text-anchor="end" baseline-shift="-5" font-family="Helvetica">280</text>
<text fill="#000000" x="69.8755" y="243.648" font-size="10" text-anchor="end" baseline-shift="-5" font-family="Helvetica">300</text>
<text fill="#000000" x="74.88" y="389.481" font-size="10" text-anchor="middle" baseline-shift="-10" font-family="Helvetica">0</text>
<text fill="#000000" x="186.48" y="389.481" font-size="10" text-anchor="middle" baseline-shift="-10" font-family="Helvetica">100</text>
<text fill="#000000" x="69.8755" y="173.232" font-size="10" text-anchor="end" baseline-shift="-5" font-family="Helvetica">320</text>
<text fill="#000000" x="69.8755" y="102.816" font-size="10" text-anchor="end" baseline-shift="-5" font-family="Helvetica">340</text>
<text fill="#000000" x="69.8755" y="32.4" font-size="10" text-anchor="end" baseline-shift="-5" font-family="Helvetica">360</text>
<text fill="#000000" x="298.08" y="402.481" font-size="10" text-anchor="middle" baseline-shift="-10" font-family="Helvetica">time (10 seconds per unit)</text>
<text fill="#000000" x="51.8755" y="208.44" font-size="10" transform="rotate(-90, 51.8755, 208.44)" text-anchor="middle" baseline-shift="0" font-family="Helvetica">degree (°)</text>
<polyline fill="none" stroke="#000000" stroke-width="0.5" stroke-dasharray="16,0" points="74.8789,32.3984 521.281,32.3984"/>
<polyline fill="none" stroke="#000000" stroke-width="0.5" stroke-dasharray="16,0" points="74.8789,384.48 74.8789,32.3984"/>
<polyline fill="none" stroke="#000000" stroke-width="0.5" stroke-dasharray="16,0" points="521.281,384.48 521.281,32.3984"/>
<polyline fill="none" stroke="#000000" stroke-width="0.5" stroke-dasharray="0,3,1,3,1,3,1,3,1,0" points="74.8789,384.48 74.8789,32.3984"/>
<polyline fill="none" stroke="#000000" stroke-width="0.5" stroke-dasharray="0,3,1,3,1,3,1,3,1,0" points="186.48,384.48 186.48,32.3984"/>
<polyline fill="none" stroke="#000000" stroke-width="0.5" stroke-dasharray="0,3,1,3,1,3,1,3,1,0" points="298.078,384.48 298.078,32.3984"/>
<polyline fill="none" stroke="#000000" stroke-width="0.5" stroke-dasharray="0,3,1,3,1,3,1,3,1,0" points="409.68,384.48 409.68,32.3984"/>
<polyline fill="none" stroke="#000000" stroke-width="0.5" stroke-dasharray="16,0" points="74.8789,384.48 521.281,384.48"/>
<polyline fill="none" stroke="#000000" stroke-width="0.5" stroke-dasharray="0,3,1,3,1,3,1,3,1,0" points="521.281,384.48 521.281,32.3984"/>
<polyline fill="none" stroke="#000000" stroke-width="0.5" stroke-dasharray="16,0" points="74.8789,384.48 74.8789,377.477"/>
<polyline fill="none" stroke="#000000" stroke-width="0.5" stroke-dasharray="16,0" points="74.8789,32.3984 74.8789,39.4023"/>
<polyline fill="none" stroke="#000000" stroke-width="0.5" stroke-dasharray="16,0" points="186.48,384.48 186.48,377.477"/>
<polyline fill="none" stroke="#000000" stroke-width="0.5" stroke-dasharray="16,0" points="186.48,32.3984 186.48,39.4023"/>
<polyline fill="none" stroke="#000000" stroke-width="0.5" stroke-dasharray="16,0" points="298.078,384.48 298.078,377.477"/>
<polyline fill="none" stroke="#000000" stroke-width="0.5" stroke-dasharray="16,0" points="298.078,32.3984 298.078,39.4023"/>
<polyline fill="none" stroke="#000000" stroke-width="0.5" stroke-dasharray="16,0" points="409.68,384.48 409.68,377.477"/>
<polyline fill="none" stroke="#000000" stroke-width="0.5" stroke-dasharray="16,0" points="409.68,32.3984 409.68,39.4023"/>
<polyline fill="none" stroke="#000000" stroke-width="0.5" stroke-dasharray="16,0" points="521.281,384.48 521.281,377.477"/>
<polyline fill="none" stroke="#000000" stroke-width="0.5" stroke-dasharray="16,0" points="521.281,32.3984 521.281,39.4023"/>
<polyline fill="none" stroke="#000000" stroke-width="0.5" stroke-dasharray="0,3,1,3,1,3,1,3,1,0" points="97.1992,384.48 97.1992,32.3984"/>
<polyline fill="none" stroke="#000000" stroke-width="0.5" stroke-dasharray="0,3,1,3,1,3,1,3,1,0" points="119.52,384.48 119.52,32.3984"/>
<polyline fill="none" stroke="#000000" stroke-width="0.5" stroke-dasharray="0,3,1,3,1,3,1,3,1,0" points="141.84,384.48 141.84,32.3984"/>
<polyline fill="none" stroke="#000000" stroke-width="0.5" stroke-dasharray="0,3,1,3,1,3,1,3,1,0" points="164.16,384.48 164.16,32.3984"/>
<polyline fill="none" stroke="#000000" stroke-width="0.5" stroke-dasharray="0,3,1,3,1,3,1,3,1,0" points="208.801,384.48 208.801,32.3984"/>
<polyline fill="none" stroke="#000000" stroke-width="0.5" stroke-dasharray="0,3,1,3,1,3,1,3,1,0" points="231.121,384.48 231.121,32.3984"/>
<polyline fill="none" stroke="#000000" stroke-width="0.5" stroke-dasharray="0,3,1,3,1,3,1,3,1,0" points="253.441,384.48 253.441,32.3984"/>
<polyline fill="none" stroke="#000000" stroke-width="0.5" stroke-dasharray="0,3,1,3,1,3,1,3,1,0" points="275.762,384.48 275.762,32.3984"/>
<polyline fill="none" stroke="#000000" stroke-width="0.5" stroke-dasharray="0,3,1,3,1,3,1,3,1,0" points="320.398,384.48 320.398,32.3984"/>
<polyline fill="none" stroke="#000000" stroke-width="0.5" stroke-dasharray="0,3,1,3,1,3,1,3,1,0" points="342.719,384.48 342.719,32.3984"/>
<polyline fill="none" stroke="#000000" stroke-width="0.5" stroke-dasharray="0,3,1,3,1,3,1,3,1,0" points="365.039,384.48 365.039,32.3984"/>
<polyline fill="none" stroke="#000000" stroke-width="0.5" stroke-dasharray="0,3,1,3,1,3,1,3,1,0" points="387.359,384.48 387.359,32.3984"/>
<polyline fill="none" stroke="#000000" stroke-width="0.5" stroke-dasharray="0,3,1,3,1,3,1,3,1,0" points="432,384.48 432,32.3984"/>
<polyline fill="none" stroke="#000000" stroke-width="0.5" stroke-dasharray="0,3,1,3,1,3,1,3,1,0" points="454.32,384.48 454.32,32.3984"/>
<polyline fill="none" stroke="#000000" stroke-width="0.5" stroke-dasharray="0,3,1,3,1,3,1,3,1,0" points="476.641,384.48 476.641,32.3984"/>
<polyline fill="none" stroke="#000000" stroke-width="0.5" stroke-dasharray="0,3,1,3,1,3,1,3,1,0" points="498.961,384.48 498.961,32.3984"/>
<polyline fill="none" stroke="#000000" stroke-width="0.5" stroke-dasharray="0,3,1,3,1,3,1,3,1,0" points="74.8789,384.48 521.281,384.48"/>
<polyline fill="none" stroke="#000000" stroke-width="0.5" stroke-dasharray="0,3,1,3,1,3,1,3,1,0" points="74.8789,314.062 521.281,314.062"/>
<polyline fill="none" stroke="#000000" stroke-width="0.5" stroke-dasharray="0,3,1,3,1,3,1,3,1,0" points="74.8789,243.648 521.281,243.648"/>
<polyline fill="none" stroke="#000000" stroke-width="0.5" stroke-dasharray="0,3,1,3,1,3,1,3,1,0" points="74.8789,173.23 521.281,173.23"/>
<polyline fill="none" stroke="#000000" stroke-width="0.5" stroke-dasharray="0,3,1,3,1,3,1,3,1,0" points="74.8789,102.816 521.281,102.816"/>
<polyline fill="none" stroke="#000000" stroke-width="0.5" stroke-dasharray="0,3,1,3,1,3,1,3,1,0" points="74.8789,32.3984 521.281,32.3984"/>
<polyline fill="none" stroke="#000000" stroke-width="0.5" stroke-dasharray="16,0" points="74.8789,384.48 81.8867,384.48"/>
<polyline fill="none" stroke="#000000" stroke-width="0.5" stroke-dasharray="16,0" points="521.281,384.48 514.273,384.48"/>
<polyline fill="none" stroke="#000000" stroke-width="0.5" stroke-dasharray="16,0" points="74.8789,314.062 81.8867,314.062"/>
<polyline fill="none" stroke="#000000" stroke-width="0.5" stroke-dasharray="16,0" points="521.281,314.062 514.273,314.062"/>
<polyline fill="none" stroke="#000000" stroke-width="0.5" stroke-dasharray="16,0" points="74.8789,243.648 81.8867,243.648"/>
<polyline fill="none" stroke="#000000" stroke-width="0.5" stroke-dasharray="16,0" points="521.281,243.648 514.273,243.648"/>
<polyline fill="none" stroke="#000000" stroke-width="0.5" stroke-dasharray="16,0" points="74.8789,173.23 81.8867,173.23"/>
<polyline fill="none" stroke="#000000" stroke-width="0.5" stroke-dasharray="16,0" points="521.281,173.23 514.273,173.23"/>
<polyline fill="none" stroke="#000000" stroke-width="0.5" stroke-dasharray="16,0" points="74.8789,102.816 81.8867,102.816"/>
<polyline fill="none" stroke="#000000" stroke-width="0.5" stroke-dasharray="16,0" points="521.281,102.816 514.273,102.816"/>
<polyline fill="none" stroke="#000000" stroke-width="0.5" stroke-dasharray="16,0" points="74.8789,32.3984 81.8867,32.3984"/>
<polyline fill="none" stroke="#000000" stroke-width="0.5" stroke-dasharray="16,0" points="521.281,32.3984 514.273,32.3984"/>
<polyline fill="none" stroke="#000000" stroke-width="0.5" stroke-dasharray="0,3,1,3,1,3,1,3,1,0" points="74.8789,370.398 521.281,370.398"/>
<polyline fill="none" stroke="#000000" stroke-width="0.5" stroke-dasharray="0,3,1,3,1,3,1,3,1,0" points="74.8789,356.312 521.281,356.312"/>
<polyline fill="none" stroke="#000000" stroke-width="0.5" stroke-dasharray="0,3,1,3,1,3,1,3,1,0" points="74.8789,342.23 521.281,342.23"/>
<polyline fill="none" stroke="#000000" stroke-width="0.5" stroke-dasharray="0,3,1,3,1,3,1,3,1,0" points="74.8789,328.148 521.281,328.148"/>
<polyline fill="none" stroke="#000000" stroke-width="0.5" stroke-dasharray="0,3,1,3,1,3,1,3,1,0" points="74.8789,299.98 521.281,299.98"/>
<polyline fill="none" stroke="#000000" stroke-width="0.5" stroke-dasharray="0,3,1,3,1,3,1,3,1,0" points="74.8789,285.898 521.281,285.898"/>
<polyline fill="none" stroke="#000000" stroke-width="0.5" stroke-dasharray="0,3,1,3,1,3,1,3,1,0" points="74.8789,271.812 521.281,271.812"/>
<polyline fill="none" stroke="#000000" stroke-width="0.5" stroke-dasharray="0,3,1,3,1,3,1,3,1,0" points="74.8789,257.73 521.281,257.73"/>
<polyline fill="none" stroke="#000000" stroke-width="0.5" stroke-dasharray="0,3,1,3,1,3,1,3,1,0" points="74.8789,229.566 521.281,229.566"/>
<polyline fill="none" stroke="#000000" stroke-width="0.5" stroke-dasharray="0,3,1,3,1,3,1,3,1,0" points="74.8789,215.48 521.281,215.48"/>
<polyline fill="none" stroke="#000000" stroke-width="0.5" stroke-dasharray="0,3,1,3,1,3,1,3,1,0" points="74.8789,201.398 521.281,201.398"/>
<polyline fill="none" stroke="#000000" stroke-width="0.5" stroke-dasharray="0,3,1,3,1,3,1,3,1,0" points="74.8789,187.316 521.281,187.316"/>
<polyline fill="none" stroke="#000000" stroke-width="0.5" stroke-dasharray="0,3,1,3,1,3,1,3,1,0" points="74.8789,159.148 521.281,159.148"/>
<polyline fill="none" stroke="#000000" stroke-width="0.5" stroke-dasharray="0,3,1,3,1,3,1,3,1,0" points="74.8789,145.066 521.281,145.066"/>
<polyline fill="none" stroke="#000000" stroke-width="0.5" stroke-dasharray="0,3,1,3,1,3,1,3,1,0" points="74.8789,130.98 521.281,130.98"/>
<polyline fill="none" stroke="#000000" stroke-width="0.5" stroke-dasharray="0,3,1,3,1,3,1,3,1,0" points="74.8789,116.898 521.281,116.898"/>
<polyline fill="none" stroke="#000000" stroke-width="0.5" stroke-dasharray="0,3,1,3,1,3,1,3,1,0" points="74.8789,88.7344 521.281,88.7344"/>
<polyline fill="none" stroke="#000000" stroke-width="0.5" stroke-dasharray="0,3,1,3,1,3,1,3,1,0" points="74.8789,74.6484 521.281,74.6484"/>
<polyline fill="none" stroke="#000000" stroke-width="0.5" stroke-dasharray="0,3,1,3,1,3,1,3,1,0" points="74.8789,60.5664 521.281,60.5664"/>
<polyline fill="none" stroke="#000000" stroke-width="0.5" stroke-dasharray="0,3,1,3,1,3,1,3,1,0" points="74.8789,46.4844 521.281,46.4844"/>
<polyline fill="none" stroke="#ff0000" stroke-width="1.5" points="75.9961,92.2539 77.1133,92.2539 78.2266,92.2539 79.3438,92.2539 80.4609,92.2539 81.5742,92.2539 82.6914,92.2539 83.8086,92.2539 84.9258,92.2539 86.0391,92.2539 87.1562,92.2539 88.2734,92.2539 89.3867,92.2539 90.5039,92.2539 91.6211,92.2539 92.7344,92.2539 93.8516,92.2539 94.9688,92.2539 96.0859,92.2539 97.1992,92.2539 98.3164,92.2539 99.4336,92.2539 100.547,92.2539 101.664,92.2539 102.781,92.2539 103.895,92.2539 105.012,92.2539 106.129,92.2539 107.242,92.2539 108.359,92.2539 109.477,92.2539 110.594,92.2539 111.707,92.2539 112.824,92.2539 113.941,92.2539 115.055,92.2539 116.172,92.2539 117.289,92.2539 118.402,92.2539 119.52,92.2539 120.637,92.2539 121.754,92.2539 122.867,92.2539 123.984,92.2539 125.102,92.2539 126.215,92.2539 127.332,92.2539 128.449,92.2539 129.562,92.2539 130.68,92.2539 131.797,92.2539 132.91,92.2539 134.027,92.2539 135.145,92.2539 136.262,92.2539 137.375,92.2539 138.492,92.2539 139.609,92.2539 140.723,92.2539 141.84,92.2539 142.957,92.2539 144.07,92.2539 145.188,92.2539 146.305,92.2539 147.422,92.2539 148.535,92.2539 149.652,92.2539 150.77,92.2539 151.883,92.2539 153,92.2539 154.117,92.2539 155.23,92.2539 156.348,92.2539 157.465,92.2539 158.578,92.2539 159.695,92.2539 160.812,92.2539 161.93,92.2539 163.043,92.2539 164.16,92.2539 165.277,92.2539 166.391,92.2539 167.508,92.2539 168.625,92.2539 169.738,92.2539 170.855,92.2539 171.973,92.2539 173.09,92.2539 174.203,92.2539 175.32,92.2539 176.438,92.2539 177.551,92.2539 178.668,92.2539 179.785,92.2539 180.898,92.2539 182.016,92.2539 183.133,92.2539 184.246,92.2539 185.363,92.2539 186.48,92.2539 187.598,92.2539 188.711,92.2539 189.828,92.2539 190.945,92.2539 192.059,92.2539 193.176,109.859 194.293,109.859 195.406,92.2539 196.523,92.2539 197.641,92.2539 198.758,92.2539 199.871,92.2539 200.988,92.2539 202.105,92.2539 203.219,92.2539 204.336,109.859 205.453,92.2539 206.566,92.2539 207.684,92.2539 208.801,92.2539 209.914,92.2539 211.031,92.2539 212.148,92.2539 213.266,92.2539 214.379,92.2539 215.496,109.859 216.613,109.859 217.727,109.859 218.844,109.859 219.961,92.2539 221.074,92.2539 222.191,109.859 223.309,109.859 224.426,109.859 225.539,109.859 226.656,92.2539 227.773,92.2539 228.887,92.2539 230.004,92.2539 231.121,92.2539 232.234,92.2539 233.352,92.2539 234.469,92.2539 235.586,92.2539 236.699,92.2539 237.816,92.2539 238.934,92.2539 240.047,92.2539 241.164,92.2539 242.281,92.2539 243.395,92.2539 244.512,92.2539 245.629,92.2539 246.742,92.2539 247.859,92.2539 248.977,345.75 250.094,345.75 251.207,345.75 252.324,345.75 253.441,345.75 254.555,345.75 255.672,345.75 256.789,345.75 257.902,345.75 259.02,345.75 260.137,345.75 261.254,345.75 262.367,345.75 263.484,345.75 264.602,345.75 265.715,345.75 266.832,345.75 267.949,345.75 269.062,345.75 270.18,345.75 271.297,345.75 272.41,345.75 273.527,345.75 274.645,345.75 275.762,345.75 276.875,345.75 277.992,345.75 279.109,345.75 280.223,345.75 281.34,345.75 282.457,345.75 283.57,345.75 284.688,345.75 285.805,345.75 286.922,345.75 288.035,345.75 289.152,345.75 290.27,345.75 291.383,345.75 292.5,345.75 293.617,345.75 294.73,345.75 295.848,345.75 296.965,345.75 298.078,345.75 299.195,345.75 300.312,345.75 301.43,345.75 302.543,345.75 303.66,345.75 304.777,345.75 305.891,345.75 307.008,345.75 308.125,345.75 309.238,345.75 310.355,345.75 311.473,345.75 312.59,345.75 313.703,345.75 314.82,345.75 315.938,345.75 317.051,345.75 318.168,345.75 319.285,345.75 320.398,345.75 321.516,345.75 322.633,345.75 323.746,345.75 324.863,345.75 325.98,345.75 327.098,345.75 328.211,345.75 329.328,345.75 330.445,345.75 331.559,345.75 332.676,345.75 333.793,345.75 334.906,345.75 336.023,345.75 337.141,345.75 338.258,345.75 339.371,345.75 340.488,345.75 341.605,345.75 342.719,345.75 343.836,345.75 344.953,345.75 346.066,345.75 347.184,345.75 348.301,345.75 349.414,345.75 350.531,345.75 351.648,345.75 352.766,345.75 353.879,345.75 354.996,345.75 356.113,345.75 357.227,345.75 358.344,345.75 359.461,345.75 360.574,345.75 361.691,345.75 362.809,345.75 363.926,345.75 365.039,345.75 366.156,345.75 367.273,345.75 368.387,345.75 369.504,342.23 370.621,345.75 371.734,345.75 372.852,345.75 373.969,345.75 375.082,345.75 376.199,345.75 377.316,345.75 378.434,345.75 379.547,345.75 380.664,345.75 381.781,345.75 382.895,345.75 384.012,345.75 385.129,345.75 386.242,345.75 387.359,345.75 388.477,345.75 389.594,345.75 390.707,345.75 391.824,345.75 392.941,345.75 394.055,345.75 395.172,345.75 396.289,345.75 397.402,345.75 398.52,345.75 399.637,345.75 400.75,345.75 401.867,345.75 402.984,345.75 404.102,345.75 405.215,345.75 406.332,345.75 407.449,345.75 408.562,345.75 409.68,345.75 410.797,345.75 411.91,345.75 413.027,345.75 414.145,345.75 415.262,345.75 416.375,345.75 417.492,345.75 418.609,345.75 419.723,345.75 420.84,345.75 421.957,345.75 423.07,345.75 424.188,345.75 425.305,345.75 426.422,345.75 427.535,345.75 428.652,345.75 429.77,345.75 430.883,345.75 432,345.75 433.117,345.75 434.23,345.75 435.348,345.75 436.465,345.75 437.578,345.75 438.695,345.75 439.812,349.273 440.93,345.75 442.043,345.75 443.16,345.75 444.277,345.75 445.391,345.75 446.508,345.75 447.625,345.75 448.738,345.75 449.855,345.75 450.973,345.75 452.09,345.75 453.203,345.75 454.32,345.75 455.438,345.75 456.551,345.75 457.668,345.75 458.785,345.75 459.898,345.75 461.016,345.75 462.133,345.75 463.246,345.75 464.363,345.75 465.48,345.75 466.598,349.273 467.711,345.75 468.828,345.75 469.945,345.75 471.059,345.75 472.176,345.75"/>
<polyline fill="none" stroke="#000000" stroke-width="0.5" stroke-dasharray="16,0" points="521.281,384.48 521.281,384.48"/>
<polyline fill="none" stroke="#000000" stroke-width="0.5" stroke-dasharray="16,0" points="74.8789,384.48 74.8789,384.48"/>
<polyline fill="none" stroke="#000000" stroke-width="0.5" stroke-dasharray="16,0" points="74.8789,32.3984 74.8789,32.3984"/>
<polyline fill="none" stroke="#000000" stroke-width="0.5" stroke-dasharray="16,0" points="521.281,32.3984 521.281,32.3984"/>
<text fill="#000000" x="298.08" y="22.4" font-size="10" text-anchor="middle" baseline-shift="0" font-family="Helvetica">Tv Samsung 19D4010 (phase angle)</text>
<polyline fill="none" stroke="#000000" stroke-width="0.5" stroke-dasharray="16,0" points="521.281,384.48 521.281,32.3984"/>
<polyline fill="none" stroke="#000000" stroke-width="0.5" stroke-dasharray="16,0" points="74.8789,384.48 74.8789,32.3984 521.281,32.3984"/>
<polyline fill="none" stroke="#000000" stroke-width="0.5" stroke-dasharray="16,0" points="74.8789,384.48 521.281,384.48"/>
</g>
</svg>
